<svg width="1264" height="578" viewBox="0 0 1264 578" fill="none" xmlns="http://www.w3.org/2000/svg">
<path d="M1243.5 18.8H24.8V40.6H1243.5V18.8Z" fill="url(#paint0_linear_11_389)"/>
<path d="M1244 40.9H24.5V18.5H1244V40.9ZM25.3 40.3H1243.3V19.1H25.3V40.3Z" fill="#999999"/>
<path d="M1242.8 496.5H24.2001V518.3H1242.8V496.5Z" fill="url(#paint1_linear_11_389)"/>
<path d="M1243.3 518.6H23.9V496.2H1243.4L1243.3 518.6ZM24.7 518H1242.6V496.8H24.7V518Z" fill="#999999"/>
<path d="M329.5 41.1H228V155H329.5V41.1Z" fill="url(#paint2_linear_11_389)"/>
<path d="M329.9 155.2H227.7V40.8H329.8L329.9 155.2ZM228.3 154.6H329.2V41.3H228.3V154.6Z" fill="#999999"/>
<path d="M329.5 268.8H228V325.7H329.5V268.8Z" fill="url(#paint3_linear_11_389)"/>
<path d="M329.9 326H227.7V268.5H329.8L329.9 326ZM228.3 325.4H329.2V269.1H228.3V325.4Z" fill="#999999"/>
<path d="M329.5 325.7H228V382.6H329.5V325.7Z" fill="url(#paint4_linear_11_389)"/>
<path d="M329.9 383H227.7V325.5H329.8L329.9 383ZM228.3 382.4H329.2V326.1H228.3V382.4Z" fill="#999999"/>
<path d="M329.5 382.7H228V439.6H329.5V382.7Z" fill="url(#paint5_linear_11_389)"/>
<path d="M329.9 439.9H227.7V382.4H329.8L329.9 439.9ZM228.3 439.3H329.2V383H228.3V439.3Z" fill="#999999"/>
<path d="M329.5 439.6H228V496.5H329.5V439.6Z" fill="url(#paint6_linear_11_389)"/>
<path d="M329.9 496.8H227.7V439.3H329.8L329.9 496.8ZM228.3 496.2H329.2V439.9H228.3V496.2Z" fill="#999999"/>
<path d="M634.1 41.1H532.6V155H634.1V41.1Z" fill="url(#paint7_linear_11_389)"/>
<path d="M634.5 155.2H532.3V40.8H634.4L634.5 155.2ZM532.9 154.6H633.8V41.3H532.9V154.6Z" fill="#999999"/>
<path d="M735.9 41.1H634.4V155H735.9V41.1Z" fill="url(#paint8_linear_11_389)"/>
<path d="M736.2 155.2H634.1V40.8H736.2V155.2ZM634.7 154.6H735.6V41.3H634.7V154.6Z" fill="#999999"/>
<path d="M837.4 41.1H735.9V155H837.4V41.1Z" fill="url(#paint9_linear_11_389)"/>
<path d="M837.8 155.2H735.6V40.8H837.7V155.2H837.8ZM736.2 154.6H837.1V41.3H736.2V154.6Z" fill="#999999"/>
<path d="M735.9 211.9H634.4V496.5H735.9V211.9Z" fill="url(#paint10_linear_11_389)"/>
<path d="M736.2 496.8H634.1V211.6H736.2V496.8ZM634.7 496.2H735.6V212.2H634.7V496.2Z" fill="#999999"/>
<path d="M634.1 382.7H532.6V496.6H634.1V382.7Z" fill="url(#paint11_linear_11_389)"/>
<path d="M634.5 496.8H532.3V382.4H634.4L634.5 496.8ZM532.9 496.2H633.8V383H532.9V496.2Z" fill="#999999"/>
<path d="M532.5 41.1H431V192.9H532.5V41.1Z" fill="url(#paint12_linear_11_389)"/>
<path d="M532.8 193.2H430.7V40.8H532.8V193.2ZM431.3 192.6H532.2V41.3H431.3V192.6Z" fill="#999999"/>
<path d="M532.5 192.9H431V344.7H532.5V192.9Z" fill="url(#paint13_linear_11_389)"/>
<path d="M532.8 345H430.7V192.6H532.8V345ZM431.3 344.4H532.2V193.2H431.3V344.4Z" fill="#999999"/>
<path d="M532.5 344.7H431V496.5H532.5V344.7Z" fill="url(#paint14_linear_11_389)"/>
<path d="M532.8 496.9H430.7V344.4H532.8V496.9ZM431.3 496.3H532.2V345H431.3V496.3Z" fill="#999999"/>
<path d="M329.5 154.9H228V192.9H329.5V154.9Z" fill="url(#paint15_linear_11_389)"/>
<path d="M329.9 193.2H227.7V154.6H329.8L329.9 193.2ZM228.3 192.6H329.2V155.2H228.3V192.6Z" fill="#999999"/>
<path d="M634.1 154.9H532.6V183.4H634.1V154.9Z" fill="url(#paint16_linear_11_389)"/>
<path d="M634.5 183.7H532.3V154.6H634.4L634.5 183.7ZM532.9 183.1H633.8V155.2H532.9V183.1Z" fill="#999999"/>
<path d="M634.1 183.4H532.6V211.9H634.1V183.4Z" fill="url(#paint17_linear_11_389)"/>
<path d="M634.5 212.2H532.3V183.1H634.4L634.5 212.2ZM532.9 211.6H633.8V183.7H532.9V211.6Z" fill="#999999"/>
<path d="M939 211.9H837.5V240.4H939V211.9Z" fill="url(#paint18_linear_11_389)"/>
<path d="M939.3 240.7H837.2V211.6H939.3V240.7V240.7ZM837.8 240.1H938.7V212.2H837.8V240.1Z" fill="#999999"/>
<path d="M939 240.4H837.5V268.9H939V240.4Z" fill="url(#paint19_linear_11_389)"/>
<path d="M939.3 269.1H837.2V240H939.3V269.1V269.1ZM837.8 268.6H938.7V240.7H837.8V268.6Z" fill="#999999"/>
<path d="M735.9 154.9H634.4V211.9H735.9V154.9Z" fill="url(#paint20_linear_11_389)"/>
<path d="M736.2 212.2H634.1V154.6H736.2V212.2ZM634.7 211.6H735.6V155.2H634.7V211.6Z" fill="#999999"/>
<path d="M837.4 154.9H735.9V211.9H837.4V154.9Z" fill="url(#paint21_linear_11_389)"/>
<path d="M837.8 212.2H735.6V154.6H837.7V212.2H837.8ZM736.2 211.6H837.1V155.2H736.2V211.6Z" fill="#999999"/>
<path d="M939 41.1H837.5V155H939V41.1Z" fill="url(#paint22_linear_11_389)"/>
<path d="M939.3 155.2H837.2V40.8H939.3V155.2V155.2ZM837.8 154.6H938.7V41.3H837.8V154.6Z" fill="#999999"/>
<path d="M939 154.9H837.5V211.9H939V154.9Z" fill="url(#paint23_linear_11_389)"/>
<path d="M939.3 212.2H837.2V154.6H939.3V212.2V212.2ZM837.8 211.6H938.7V155.2H837.8V211.6Z" fill="#999999"/>
<path d="M837.4 211.9H735.9V268.9H837.4V211.9Z" fill="url(#paint24_linear_11_389)"/>
<path d="M837.8 269.1H735.6V211.5H837.7V269.1H837.8ZM736.2 268.6H837.1V212.2H736.2V268.6Z" fill="#999999"/>
<path d="M837.4 268.8H735.9V496.6H837.4V268.8Z" fill="url(#paint25_linear_11_389)"/>
<path d="M837.8 496.9H735.6V268.5H837.7V496.9H837.8ZM736.2 496.3H837.1V269.1H736.2V496.3Z" fill="#999999"/>
<path d="M939 268.8H837.5V496.6H939V268.8Z" fill="url(#paint26_linear_11_389)"/>
<path d="M939.3 496.9H837.2V268.5H939.3V496.9V496.9ZM837.8 496.3H938.7V269.1H837.8V496.3Z" fill="#999999"/>
<path d="M634.1 211.9H532.6V240.4H634.1V211.9Z" fill="url(#paint27_linear_11_389)"/>
<path d="M634.5 240.7H532.3V211.6H634.4L634.5 240.7ZM532.9 240.1H633.8V212.2H532.9V240.1Z" fill="#999999"/>
<path d="M634.1 240.4H532.6V268.9H634.1V240.4Z" fill="url(#paint28_linear_11_389)"/>
<path d="M634.5 269.1H532.3V240H634.4L634.5 269.1ZM532.9 268.6H633.8V240.7H532.9V268.6Z" fill="#999999"/>
<path d="M329.5 192.9H228V230.9H329.5V192.9Z" fill="url(#paint29_linear_11_389)"/>
<path d="M329.9 231.2H227.7V192.6H329.8L329.9 231.2ZM228.3 230.6H329.2V193.2H228.3V230.6Z" fill="#999999"/>
<path d="M329.5 230.8H228V268.8H329.5V230.8Z" fill="url(#paint30_linear_11_389)"/>
<path d="M329.9 269.1H227.7V230.5H329.8L329.9 269.1ZM228.3 268.5H329.2V231.1H228.3V268.5Z" fill="#999999"/>
<path d="M634.1 269.1H532.6V325.8H634.1V269.1Z" fill="url(#paint31_linear_11_389)"/>
<path d="M634.5 326.1H532.3V268.5H634.4L634.5 326.1ZM532.9 325.2H633.8V269.3H532.9V325.2Z" fill="#999999"/>
<path d="M634.1 325.7H532.6V382.4H634.1V325.7Z" fill="url(#paint32_linear_11_389)"/>
<path d="M634.5 382.9H532.3V325.3H634.4L634.5 382.9ZM532.9 382H633.8V326.1H532.9V382Z" fill="#999999"/>
<path d="M251.9 95.9H235.2V100.7H251.9V95.9Z" fill="#E6E6E6" stroke="#999999" stroke-width="0.5" stroke-miterlimit="10"/>
<path d="M251.9 171.4H235.2V176.2H251.9V171.4Z" fill="#E6E6E6" stroke="#999999" stroke-width="0.5" stroke-miterlimit="10"/>
<path d="M251.9 209.7H235.2V214.5H251.9V209.7Z" fill="#E6E6E6" stroke="#999999" stroke-width="0.5" stroke-miterlimit="10"/>
<path d="M251.9 247H235.2V251.8H251.9V247Z" fill="#E6E6E6" stroke="#999999" stroke-width="0.5" stroke-miterlimit="10"/>
<path d="M251.9 295H235.2V299.8H251.9V295Z" fill="#E6E6E6" stroke="#999999" stroke-width="0.5" stroke-miterlimit="10"/>
<path d="M251.9 352H235.2V356.8H251.9V352Z" fill="#E6E6E6" stroke="#999999" stroke-width="0.5" stroke-miterlimit="10"/>
<path d="M251.9 409H235.2V413.8H251.9V409Z" fill="#E6E6E6" stroke="#999999" stroke-width="0.5" stroke-miterlimit="10"/>
<path d="M251.9 466H235.2V470.8H251.9V466Z" fill="#E6E6E6" stroke="#999999" stroke-width="0.5" stroke-miterlimit="10"/>
<path d="M1040.7 268.8H939.2V325.7H1040.7V268.8Z" fill="url(#paint33_linear_11_389)"/>
<path d="M1041.1 326H938.9V268.5H1041L1041.1 326ZM939.5 325.4H1040.4V269.1H939.5V325.4Z" fill="#999999"/>
<path d="M1040.7 325.7H939.2V382.6H1040.7V325.7Z" fill="url(#paint34_linear_11_389)"/>
<path d="M1041.1 383H938.9V325.5H1041L1041.1 383ZM939.5 382.4H1040.4V326.1H939.5V382.4Z" fill="#999999"/>
<path d="M1040.7 382.7H939.2V439.6H1040.7V382.7Z" fill="url(#paint35_linear_11_389)"/>
<path d="M1041.1 439.9H938.9V382.4H1041L1041.1 439.9ZM939.5 439.3H1040.4V383H939.5V439.3Z" fill="#999999"/>
<path d="M1040.7 439.6H939.2V496.5H1040.7V439.6Z" fill="url(#paint36_linear_11_389)"/>
<path d="M1041.1 496.8H938.9V439.3H1041L1041.1 496.8ZM939.5 496.2H1040.4V439.9H939.5V496.2Z" fill="#999999"/>
<path d="M963.1 295H946.4V299.8H963.1V295Z" fill="#E6E6E6" stroke="#999999" stroke-width="0.5" stroke-miterlimit="10"/>
<path d="M963.1 352H946.4V356.8H963.1V352Z" fill="#E6E6E6" stroke="#999999" stroke-width="0.5" stroke-miterlimit="10"/>
<path d="M963.1 409H946.4V413.8H963.1V409Z" fill="#E6E6E6" stroke="#999999" stroke-width="0.5" stroke-miterlimit="10"/>
<path d="M963.1 466H946.4V470.8H963.1V466Z" fill="#E6E6E6" stroke="#999999" stroke-width="0.5" stroke-miterlimit="10"/>
<path d="M1243.6 154.4H1142.1V211.3H1243.6V154.4Z" fill="url(#paint37_linear_11_389)"/>
<path d="M1244 211.6H1141.8V154.1H1243.9L1244 211.6ZM1142.4 211H1243.3V154.7H1142.4V211Z" fill="#999999"/>
<path d="M1243.6 211.3H1142.1V268.2H1243.6V211.3Z" fill="url(#paint38_linear_11_389)"/>
<path d="M1244 268.6H1141.8V211.1H1243.9L1244 268.6ZM1142.4 268H1243.3V211.7H1142.4V268Z" fill="#999999"/>
<path d="M1243.6 268.3H1142.1V325.2H1243.6V268.3Z" fill="url(#paint39_linear_11_389)"/>
<path d="M1244 325.5H1141.8V268H1243.9L1244 325.5ZM1142.4 324.9H1243.3V268.6H1142.4V324.9Z" fill="#999999"/>
<path d="M1243.6 325.2H1142.1V382.1H1243.6V325.2Z" fill="url(#paint40_linear_11_389)"/>
<path d="M1244 382.5H1141.8V325H1243.9L1244 382.5ZM1142.4 381.9H1243.3V325.6H1142.4V381.9Z" fill="#999999"/>
<path d="M1166 180.6H1149.3V185.4H1166V180.6Z" fill="#E6E6E6" stroke="#999999" stroke-width="0.5" stroke-miterlimit="10"/>
<path d="M1166 237.6H1149.3V242.4H1166V237.6Z" fill="#E6E6E6" stroke="#999999" stroke-width="0.5" stroke-miterlimit="10"/>
<path d="M1166 294.6H1149.3V299.4H1166V294.6Z" fill="#E6E6E6" stroke="#999999" stroke-width="0.5" stroke-miterlimit="10"/>
<path d="M1166 351.7H1149.3V356.5H1166V351.7Z" fill="#E6E6E6" stroke="#999999" stroke-width="0.5" stroke-miterlimit="10"/>
<path d="M1040.7 40.8H939.2V97.7H1040.7V40.8Z" fill="url(#paint41_linear_11_389)"/>
<path d="M1041.1 98H938.9V40.5H1041L1041.1 98ZM939.5 97.4H1040.4V41.1H939.5V97.4Z" fill="#999999"/>
<path d="M1040.7 97.7H939.2V154.6H1040.7V97.7Z" fill="url(#paint42_linear_11_389)"/>
<path d="M1041.1 155H938.9V97.5H1041L1041.1 155ZM939.5 154.4H1040.4V98.1H939.5V154.4Z" fill="#999999"/>
<path d="M1040.7 154.7H939.2V211.6H1040.7V154.7Z" fill="url(#paint43_linear_11_389)"/>
<path d="M1041.1 211.9H938.9V154.4H1041L1041.1 211.9ZM939.5 211.3H1040.4V155H939.5V211.3Z" fill="#999999"/>
<path d="M1040.7 211.6H939.2V268.5H1040.7V211.6Z" fill="url(#paint44_linear_11_389)"/>
<path d="M1041.1 268.7H938.9V211.2H1041L1041.1 268.7ZM939.5 268.2H1040.4V211.9H939.5V268.2Z" fill="#999999"/>
<path d="M963.1 67H946.4V71.8H963.1V67Z" fill="#E6E6E6" stroke="#999999" stroke-width="0.5" stroke-miterlimit="10"/>
<path d="M963.1 124H946.4V128.8H963.1V124Z" fill="#E6E6E6" stroke="#999999" stroke-width="0.5" stroke-miterlimit="10"/>
<path d="M963.1 181H946.4V185.8H963.1V181Z" fill="#E6E6E6" stroke="#999999" stroke-width="0.5" stroke-miterlimit="10"/>
<path d="M963.1 238H946.4V242.8H963.1V238Z" fill="#E6E6E6" stroke="#999999" stroke-width="0.5" stroke-miterlimit="10"/>
<path d="M227.4 41.1H125.9V269.4H227.4V41.1Z" fill="url(#paint45_linear_11_389)"/>
<path d="M227.8 269.6H125.6V40.8H227.7L227.8 269.6ZM126.2 269H227.1V41.3H126.2V269Z" fill="#999999"/>
<path d="M125.9 269.3H227.4L227.1 496.7H126.2L125.9 269.3Z" fill="url(#paint46_linear_11_389)"/>
<path d="M227.8 496.9L125.6 496.1V269H227.7V439.9L227.8 496.9ZM126.2 496.2H227.1V269.6H126.2V496.2Z" fill="#999999"/>
<path d="M149.8 152H133.1V156.8H149.8V152Z" fill="#E6E6E6" stroke="#999999" stroke-width="0.5" stroke-miterlimit="10"/>
<path d="M149.8 380H133.1V384.8H149.8V380Z" fill="#E6E6E6" stroke="#999999" stroke-width="0.5" stroke-miterlimit="10"/>
<path d="M431 41.1H329.5V155H431V41.1Z" fill="url(#paint47_linear_11_389)"/>
<path d="M431.4 155.2H329.2V40.8H431.3L431.4 155.2ZM329.8 154.6H430.7V41.3H329.8V154.6Z" fill="#999999"/>
<path d="M431 268.4H329.5V382.6H431V268.4Z" fill="url(#paint48_linear_11_389)"/>
<path d="M431.4 383H329.2V268.2L431.3 268.8L431.4 383ZM329.8 382.4H430.7V268.8H329.8V382.4Z" fill="#999999"/>
<path d="M329.5 382.7H431V495.8L329.5 495.7V382.7Z" fill="url(#paint49_linear_11_389)"/>
<path d="M431.4 496.2H329.2V382.4H431.3V439.9L431.4 496.2ZM329.8 496.2H430.7V383H329.8V496.2Z" fill="#999999"/>
<path d="M353.4 95.9H336.7V100.7H353.4V95.9Z" fill="#E6E6E6" stroke="#999999" stroke-width="0.5" stroke-miterlimit="10"/>
<path d="M353.4 323H336.7V327.8H353.4V323Z" fill="#E6E6E6" stroke="#999999" stroke-width="0.5" stroke-miterlimit="10"/>
<path d="M431 155H329.5V269.2H431V155Z" fill="url(#paint50_linear_11_389)"/>
<path d="M431.4 269.6H329.2V154.8L431.3 155.4L431.4 269.6ZM329.8 269H430.7V155.4H329.8V269Z" fill="#999999"/>
<path d="M353.4 209.6H336.7V214.4H353.4V209.6Z" fill="#E6E6E6" stroke="#999999" stroke-width="0.5" stroke-miterlimit="10"/>
<path d="M353.4 439.8H336.7V444.6H353.4V439.8Z" fill="#E6E6E6" stroke="#999999" stroke-width="0.5" stroke-miterlimit="10"/>
<path d="M459.7 114.9H443V119.7H459.7V114.9Z" fill="#E6E6E6" stroke="#999999" stroke-width="0.5" stroke-miterlimit="10"/>
<path d="M559.8 93.9H543.1V98.7H559.8V93.9Z" fill="#E6E6E6" stroke="#999999" stroke-width="0.5" stroke-miterlimit="10"/>
<path d="M661.8 93.9H645.1V98.7H661.8V93.9Z" fill="#E6E6E6" stroke="#999999" stroke-width="0.5" stroke-miterlimit="10"/>
<path d="M763.8 93.9H747.1V98.7H763.8V93.9Z" fill="#E6E6E6" stroke="#999999" stroke-width="0.5" stroke-miterlimit="10"/>
<path d="M866.8 93.9H850.1V98.7H866.8V93.9Z" fill="#E6E6E6" stroke="#999999" stroke-width="0.5" stroke-miterlimit="10"/>
<path d="M661.8 180.9H645.1V185.7H661.8V180.9Z" fill="#E6E6E6" stroke="#999999" stroke-width="0.5" stroke-miterlimit="10"/>
<path d="M661.8 351.9H645.1V356.7H661.8V351.9Z" fill="#E6E6E6" stroke="#999999" stroke-width="0.5" stroke-miterlimit="10"/>
<path d="M763.8 180.9H747.1V185.7H763.8V180.9Z" fill="#E6E6E6" stroke="#999999" stroke-width="0.5" stroke-miterlimit="10"/>
<path d="M763.8 237.9H747.1V242.7H763.8V237.9Z" fill="#E6E6E6" stroke="#999999" stroke-width="0.5" stroke-miterlimit="10"/>
<path d="M763.8 381.9H747.1V386.7H763.8V381.9Z" fill="#E6E6E6" stroke="#999999" stroke-width="0.5" stroke-miterlimit="10"/>
<path d="M866.8 180.9H850.1V185.7H866.8V180.9Z" fill="#E6E6E6" stroke="#999999" stroke-width="0.5" stroke-miterlimit="10"/>
<path d="M866.8 224.9H850.1V229.7H866.8V224.9Z" fill="#E6E6E6" stroke="#999999" stroke-width="0.5" stroke-miterlimit="10"/>
<path d="M866.8 252.9H850.1V257.7H866.8V252.9Z" fill="#E6E6E6" stroke="#999999" stroke-width="0.5" stroke-miterlimit="10"/>
<path d="M866.8 383.9H850.1V388.7H866.8V383.9Z" fill="#E6E6E6" stroke="#999999" stroke-width="0.5" stroke-miterlimit="10"/>
<path d="M559.8 166.9H543.1V171.7H559.8V166.9Z" fill="#E6E6E6" stroke="#999999" stroke-width="0.5" stroke-miterlimit="10"/>
<path d="M559.8 195.9H543.1V200.7H559.8V195.9Z" fill="#E6E6E6" stroke="#999999" stroke-width="0.5" stroke-miterlimit="10"/>
<path d="M559.8 223.9H543.1V228.7H559.8V223.9Z" fill="#E6E6E6" stroke="#999999" stroke-width="0.5" stroke-miterlimit="10"/>
<path d="M559.8 251.9H543.1V256.7H559.8V251.9Z" fill="#E6E6E6" stroke="#999999" stroke-width="0.5" stroke-miterlimit="10"/>
<path d="M559.8 294.9H543.1V299.7H559.8V294.9Z" fill="#E6E6E6" stroke="#999999" stroke-width="0.5" stroke-miterlimit="10"/>
<path d="M559.8 350.7H543.1V355.5H559.8V350.7Z" fill="#E6E6E6" stroke="#999999" stroke-width="0.5" stroke-miterlimit="10"/>
<path d="M559.8 437.9H543.1V442.7H559.8V437.9Z" fill="#E6E6E6" stroke="#999999" stroke-width="0.5" stroke-miterlimit="10"/>
<path d="M1243.6 381.8H1142.1V495.8H1243.6V381.8Z" fill="url(#paint51_linear_11_389)"/>
<path d="M1244 496H1141.8V381.5H1243.9L1244 496ZM1142.4 495.4H1243.3V382.1H1142.4V495.4Z" fill="#999999"/>
<path d="M1169.3 437H1152.6V441.8H1169.3V437Z" fill="#E6E6E6" stroke="#999999" stroke-width="0.5" stroke-miterlimit="10"/>
<path d="M1243.6 40.6H1142.1V154.6H1243.6V40.6Z" fill="url(#paint52_linear_11_389)"/>
<path d="M1244 154.7H1141.8V40.3H1243.9L1244 154.7ZM1142.4 154.1H1243.3V40.9H1142.4V154.1Z" fill="#999999"/>
<path d="M1169.3 95.8H1152.6V100.6H1169.3V95.8Z" fill="#E6E6E6" stroke="#999999" stroke-width="0.5" stroke-miterlimit="10"/>
<path d="M459.7 265.9H443V270.7H459.7V265.9Z" fill="#E6E6E6" stroke="#999999" stroke-width="0.5" stroke-miterlimit="10"/>
<path d="M459.7 422.9H443V427.7H459.7V422.9Z" fill="#E6E6E6" stroke="#999999" stroke-width="0.5" stroke-miterlimit="10"/>
<g opacity="0.68">
<path d="M24.4 518.8C34.7 528.7 303.6 536.6 633.8 536.6C964 536.6 1232.9 528.7 1243.2 518.8H24.4Z" fill="white"/>
<path d="M24.4 518.8C36.4 528.6 303.6 536.5 633.8 536.5C964 536.5 1231.2 528.6 1243.2 518.8H24.4Z" fill="#FEFFFF"/>
<path d="M24.4 518.8C38.1 528.5 303.6 536.3 633.8 536.3C964 536.3 1229.5 528.5 1243.2 518.8H24.4Z" fill="#FEFEFF"/>
<path d="M24.4 518.8C39.8 528.4 303.7 536.1 633.8 536.1C963.9 536.1 1227.8 528.4 1243.2 518.8H24.4Z" fill="#FDFEFE"/>
<path d="M24.4 518.8C41.5 528.3 303.7 536 633.8 536C963.9 536 1226 528.3 1243.2 518.8H24.4Z" fill="#FDFEFE"/>
<path d="M24.4 518.8C43.3 528.2 303.7 535.8 633.8 535.8C963.9 535.8 1224.3 528.2 1243.2 518.8H24.4Z" fill="#FCFDFE"/>
<path d="M24.4 518.8C45.1 528.1 303.9 535.6 633.8 535.6C963.7 535.6 1222.5 528 1243.2 518.8H24.4Z" fill="#FCFDFE"/>
<path d="M24.4 518.8C46.8 528 303.9 535.5 633.8 535.5C963.7 535.5 1220.7 528 1243.2 518.8H24.4Z" fill="#FBFDFE"/>
<path d="M24.5 518.8C48.7 527.9 304.2 535.3 633.7 535.3C963.2 535.3 1218.8 527.9 1242.9 518.8H24.5Z" fill="#FBFCFE"/>
<path d="M24.5 518.8C50.4 527.8 304.2 535.2 633.7 535.2C963.2 535.2 1217 527.8 1242.9 518.8H24.5Z" fill="#FAFCFD"/>
<path d="M24.5 518.8C52.1 527.7 304.3 535 633.7 535C963.1 535 1215.3 527.7 1242.9 518.8H24.5Z" fill="#FAFCFD"/>
<path d="M24.5 518.8C54 527.6 304.3 534.8 633.7 534.8C963.1 534.8 1213.6 527.6 1242.9 518.8H24.5Z" fill="#F9FBFD"/>
<path d="M24.5 518.8C55.7 527.5 304.3 534.7 633.7 534.7C963.1 534.7 1211.9 527.5 1242.9 518.8H24.5Z" fill="#F9FBFD"/>
<path d="M24.5 518.8C57.4 527.4 304.3 534.5 633.7 534.5C963.1 534.5 1210 527.4 1242.9 518.8H24.5Z" fill="#F8FBFD"/>
<path d="M24.5 518.8C59.1 527.3 304.5 534.3 633.7 534.3C962.9 534.3 1208.3 527.2 1242.9 518.8H24.5Z" fill="#F8FAFD"/>
<path d="M24.5 518.8C60.8 527.2 304.5 534.2 633.7 534.2C962.9 534.2 1206.6 527.2 1242.9 518.8H24.5Z" fill="#F7FAFC"/>
<path d="M24.5 518.8C62.7 527.1 304.7 534 633.7 534C962.7 534 1204.9 527.1 1242.9 518.8H24.5Z" fill="#F7FAFC"/>
<path d="M24.5 518.8C64.4 527 304.7 533.8 633.7 533.8C962.7 533.8 1203.2 526.9 1242.9 518.8H24.5Z" fill="#F6F9FC"/>
<path d="M24.5 518.8C66.1 526.9 304.7 533.7 633.7 533.7C962.7 533.7 1201.3 526.9 1242.9 518.8H24.5Z" fill="#F6F9FC"/>
<path d="M24.5 518.8C67.9 526.8 304.9 533.5 633.7 533.5C962.5 533.5 1199.6 526.8 1242.9 518.8H24.5Z" fill="#F5F9FC"/>
<path d="M24.5 518.8C69.6 526.7 304.9 533.3 633.7 533.3C962.5 533.3 1197.7 526.6 1242.9 518.8H24.5Z" fill="#F5F8FC"/>
<path d="M24.5 518.8C71.5 526.6 304.9 533.2 633.7 533.2C962.5 533.2 1196 526.6 1242.9 518.8H24.5Z" fill="#F4F8FB"/>
<path d="M24.5 518.8C73.2 526.5 304.9 533 633.7 533C962.5 533 1194.2 526.4 1242.9 518.8H24.5Z" fill="#F4F8FB"/>
<path d="M24.7001 518.8C75.1001 526.4 305.2 532.9 633.7 532.9C962.2 532.9 1192.5 526.4 1242.7 518.8H24.7001Z" fill="#F3F7FB"/>
<path d="M24.7001 518.8C76.8001 526.3 305.2 532.7 633.7 532.7C962.2 532.7 1190.8 526.3 1242.7 518.8H24.7001Z" fill="#F3F7FB"/>
<path d="M24.7001 518.8C78.5001 526.2 305.4 532.5 633.7 532.5C962 532.5 1188.9 526.1 1242.7 518.8H24.7001Z" fill="#F2F7FB"/>
<path d="M24.7001 518.8C80.2001 526.1 305.4 532.4 633.7 532.4C962 532.4 1187.2 526.1 1242.7 518.8H24.7001Z" fill="#F2F6FB"/>
<path d="M24.7001 518.8C82.1001 526 305.6 532.2 633.7 532.2C961.8 532.2 1185.5 526 1242.7 518.8H24.7001Z" fill="#F1F6FA"/>
<path d="M24.7001 518.8C83.8001 525.9 305.6 532 633.7 532C961.8 532 1183.8 525.8 1242.7 518.8H24.7001Z" fill="#F1F6FA"/>
<path d="M24.7001 518.8C85.5001 525.8 305.7 531.9 633.7 531.9C961.7 531.9 1182.1 525.8 1242.7 518.8H24.7001Z" fill="#F0F5FA"/>
<path d="M24.7001 518.8C87.2001 525.7 305.7 531.7 633.7 531.7C961.7 531.7 1180.4 525.6 1242.7 518.8H24.7001Z" fill="#F0F5FA"/>
<path d="M24.7001 518.8C89.0001 525.6 305.7 531.5 633.7 531.5C961.7 531.5 1178.5 525.5 1242.7 518.8H24.7001Z" fill="#EFF5FA"/>
<path d="M24.7001 518.8C90.8001 525.5 305.7 531.4 633.7 531.4C961.7 531.4 1176.8 525.5 1242.7 518.8H24.7001Z" fill="#EFF4FA"/>
<path d="M24.7001 518.8C92.6001 525.4 305.7 531.2 633.7 531.2C961.7 531.2 1174.9 525.3 1242.7 518.8H24.7001Z" fill="#EEF4F9"/>
<path d="M24.7001 518.8C94.3001 525.3 305.9 531 633.7 531C961.5 531 1173.2 525.2 1242.7 518.8H24.7001Z" fill="#EEF4F9"/>
<path d="M24.7001 518.8C96.0001 525.2 305.9 530.9 633.7 530.9C961.5 530.9 1171.5 525.2 1242.7 518.8H24.7001Z" fill="#EDF3F9"/>
<path d="M24.7001 518.8C97.7001 525.1 306.1 530.7 633.7 530.7C961.3 530.7 1169.7 525 1242.7 518.8H24.7001Z" fill="#EDF3F9"/>
<path d="M24.7001 518.8C99.6001 525 306.1 530.6 633.7 530.6C961.3 530.6 1167.9 525 1242.7 518.8H24.7001Z" fill="#ECF2F9"/>
<path d="M24.7001 518.8C101.3 524.9 306.3 530.4 633.7 530.4C961.1 530.4 1166.1 524.8 1242.7 518.8H24.7001Z" fill="#ECF2F9"/>
<path d="M24.7001 518.8C103 524.8 306.3 530.2 633.7 530.2C961.1 530.2 1164.4 524.7 1242.7 518.8H24.7001Z" fill="#EBF2F8"/>
<path d="M24.7001 518.8C104.7 524.7 306.3 530.1 633.7 530.1C961.1 530.1 1162.7 524.7 1242.7 518.8H24.7001Z" fill="#EBF1F8"/>
<path d="M24.7001 518.8C106.4 524.6 306.3 529.9 633.7 529.9C961.1 529.9 1161 524.5 1242.7 518.8H24.7001Z" fill="#EAF1F8"/>
<path d="M24.7001 518.8C108.3 524.5 306.4 529.7 633.7 529.7C961 529.7 1159.3 524.4 1242.7 518.8H24.7001Z" fill="#EAF1F8"/>
<path d="M24.7001 518.8C110 524.4 306.4 529.6 633.7 529.6C961 529.6 1157.4 524.4 1242.7 518.8H24.7001Z" fill="#E9F0F8"/>
<path d="M24.7001 518.8C111.8 524.3 306.4 529.4 633.7 529.4C961 529.4 1155.7 524.2 1242.7 518.8H24.7001Z" fill="#E9F0F8"/>
<path d="M24.7001 518.8C113.5 524.2 306.6 529.2 633.7 529.2C960.8 529.2 1153.8 524.1 1242.7 518.8H24.7001Z" fill="#E8F0F7"/>
<path d="M24.7001 518.8C115.2 524.1 306.6 529.1 633.7 529.1C960.8 529.1 1152.1 524 1242.7 518.8H24.7001Z" fill="#E8EFF7"/>
<path d="M24.7001 518.8C116.9 524 306.8 528.9 633.7 528.9C960.6 528.9 1150.4 523.9 1242.7 518.8H24.7001Z" fill="#E7EFF7"/>
<path d="M24.7001 518.8C118.8 523.9 306.8 528.7 633.7 528.7C960.6 528.7 1148.7 523.8 1242.7 518.8H24.7001Z" fill="#E7EFF7"/>
<path d="M24.7001 518.8C120.5 523.8 306.9 528.6 633.7 528.6C960.5 528.6 1146.8 523.7 1242.7 518.8H24.7001Z" fill="#E6EEF7"/>
<path d="M24.7001 518.8C122.2 523.7 306.9 528.4 633.7 528.4C960.5 528.4 1145.1 523.6 1242.7 518.8H24.7001Z" fill="#E6EEF7"/>
<path d="M24.7001 518.8C123.9 523.6 306.9 528.3 633.7 528.3C960.5 528.3 1143.4 523.6 1242.7 518.8H24.7001Z" fill="#E5EEF6"/>
<path d="M24.7001 518.8C125.8 523.5 306.9 528.1 633.7 528.1C960.5 528.1 1141.6 523.4 1242.7 518.8H24.7001Z" fill="#E5EDF6"/>
<path d="M24.9 518.8C127.7 523.4 307.3 527.9 633.8 527.9C960.3 527.9 1140 523.3 1242.7 518.8H24.9Z" fill="#E4EDF6"/>
<path d="M24.9 518.8C129.4 523.3 307.3 527.8 633.8 527.8C960.3 527.8 1138.3 523.2 1242.7 518.8H24.9Z" fill="#E4EDF6"/>
<path d="M24.9 518.8C131.1 523.2 307.3 527.6 633.8 527.6C960.3 527.6 1136.4 523.1 1242.7 518.8H24.9Z" fill="#E3ECF6"/>
<path d="M24.9 518.8C132.9 523.1 307.5 527.4 633.8 527.4C960.1 527.4 1134.7 523 1242.7 518.8H24.9Z" fill="#E3ECF6"/>
<path d="M24.9 518.8C134.6 523 307.5 527.3 633.8 527.3C960.1 527.3 1133 522.9 1242.7 518.8H24.9Z" fill="#E2ECF5"/>
<path d="M24.9 518.8C136.5 522.9 307.7 527.1 633.8 527.1C959.9 527.1 1131.1 522.8 1242.7 518.8H24.9Z" fill="#E2EBF5"/>
<path d="M24.9 518.8C138.2 522.8 307.7 526.9 633.8 526.9C959.9 526.9 1129.4 522.7 1242.7 518.8H24.9Z" fill="#E1EBF5"/>
<path d="M24.9 518.8C139.9 522.7 307.7 526.8 633.8 526.8C959.9 526.8 1127.7 522.6 1242.7 518.8H24.9Z" fill="#E1EBF5"/>
<path d="M24.9 518.8C141.6 522.6 307.7 526.6 633.8 526.6C959.9 526.6 1125.8 522.5 1242.7 518.8H24.9Z" fill="#E0EAF5"/>
<path d="M24.9 518.8C143.3 522.5 307.8 526.4 633.8 526.4C959.8 526.4 1124.1 522.3 1242.7 518.8H24.9Z" fill="#E0EAF5"/>
<path d="M24.9 518.8C145.2 522.4 307.8 526.3 633.8 526.3C959.8 526.3 1122.4 522.3 1242.7 518.8H24.9Z" fill="#DFEAF4"/>
<path d="M24.9 518.8C146.9 522.3 308 526.1 633.8 526.1C959.6 526.1 1120.7 522.2 1242.7 518.8H24.9Z" fill="#DFE9F4"/>
<path d="M24.9 518.8C148.6 522.2 308 526 633.8 526C959.6 526 1118.9 522.1 1242.7 518.8H24.9Z" fill="#DEE9F4"/>
<path d="M24.9 518.8C150.3 522.1 308.2 525.8 633.8 525.8C959.4 525.8 1117.2 522 1242.7 518.8H24.9Z" fill="#DEE9F4"/>
<path d="M24.9 518.8C152.1 522 308.2 525.6 633.8 525.6C959.4 525.6 1115.5 521.9 1242.7 518.8H24.9Z" fill="#DDE8F4"/>
<path d="M25.1 518.8C154 521.9 308.4 525.5 633.8 525.5C959.2 525.5 1113.6 521.8 1242.5 518.8H25.1Z" fill="#DDE8F4"/>
<path d="M25.1 518.8C155.9 521.8 308.5 525.3 633.8 525.3C959.1 525.3 1111.9 521.7 1242.5 518.8H25.1Z" fill="#DCE8F3"/>
<path d="M25.1 518.8C157.6 521.7 308.5 525.1 633.8 525.1C959.1 525.1 1110 521.5 1242.5 518.8H25.1Z" fill="#DCE7F3"/>
<path d="M25.1 518.8C159.3 521.6 308.5 525 633.8 525C959.1 525 1108.3 521.5 1242.5 518.8H25.1Z" fill="#DBE7F3"/>
<path d="M25.1 518.8C158.1 521.6 308.7 524.9 633.8 524.9C958.9 524.9 1109.5 521.4 1242.5 518.8H25.1Z" fill="#D9E5F1"/>
<path d="M25.2001 518.8C156.8 521.6 309.2 524.8 633.7 524.8C958.2 524.8 1110.6 521.4 1242.2 518.8H25.2001Z" fill="#D7E3EF"/>
<path d="M25.2001 518.8C155.4 521.5 309.2 524.7 633.7 524.7C958.2 524.7 1111.8 521.3 1242.2 518.8H25.2001Z" fill="#D5E1ED"/>
<path d="M25.4 518.8C154.4 521.5 309.5 524.7 633.9 524.7C958.3 524.7 1113.2 521.4 1242.4 518.8H25.4Z" fill="#D3DFEB"/>
<path d="M25.4 518.8C153.1 521.5 309.9 524.6 633.8 524.6C957.7 524.6 1114.3 521.3 1242.2 518.8H25.4Z" fill="#D1DDE9"/>
<path d="M25.4 518.8C151.9 521.4 310 524.5 633.8 524.5C957.6 524.5 1115.5 521.3 1242.2 518.8H25.4Z" fill="#CFDBE7"/>
<path d="M25.6 518.8C150.9 521.4 310.4 524.4 633.8 524.4C957.2 524.4 1116.7 521.2 1242 518.8H25.6Z" fill="#CDD9E5"/>
<path d="M25.6 518.8C149.5 521.4 310.6 524.4 633.8 524.4C957 524.4 1117.9 521.3 1242 518.8H25.6Z" fill="#CBD7E3"/>
<path d="M25.7001 518.8C148.4 521.3 310.9 524.3 633.7 524.3C956.5 524.3 1119 521.2 1241.7 518.8H25.7001Z" fill="#C9D6E2"/>
<path d="M25.9 518.8C147.2 521.3 311.2 524.2 633.7 524.2C956.2 524.2 1120.2 521.1 1241.5 518.8H25.9Z" fill="#C7D4E0"/>
<path d="M25.9 518.8C145.9 521.3 311.4 524.1 633.7 524.1C956 524.1 1121.4 521.1 1241.5 518.8H25.9Z" fill="#C5D2DE"/>
<path d="M25.9 518.8C144.7 521.2 311.7 524.1 633.7 524.1C955.7 524.1 1122.6 521.1 1241.5 518.8H25.9Z" fill="#C4D0DC"/>
<path d="M25.9 518.8C143.5 521.2 311.7 524 633.7 524C955.7 524 1123.8 521.1 1241.5 518.8H25.9Z" fill="#C2CEDA"/>
<path d="M26.1 518.8C142.5 521.2 312.1 523.9 633.8 523.9C955.5 523.9 1125.3 521 1241.5 518.8H26.1Z" fill="#C0CCD8"/>
<path d="M26.1 518.8C141.1 521.1 312.5 523.8 633.8 523.8C955.1 523.8 1126.5 521 1241.5 518.8H26.1Z" fill="#BECAD6"/>
<path d="M26.3 518.8C139.9 521.1 312.7 523.8 633.8 523.8C954.9 523.8 1127.7 521 1241.3 518.8H26.3Z" fill="#BCC8D4"/>
<path d="M26.4 518.8C138.8 521.1 313.1 523.7 633.7 523.7C954.3 523.7 1128.8 521 1241 518.8H26.4Z" fill="#BAC6D2"/>
<path d="M26.4 518.8C137.4 521 313.3 523.6 633.7 523.6C954.1 523.6 1130 520.9 1241 518.8H26.4Z" fill="#B8C4D0"/>
<path d="M26.6 518.8C136.3 521 313.6 523.5 633.9 523.5C954.2 523.5 1131.4 520.8 1241.2 518.8H26.6Z" fill="#B6C2CE"/>
<path d="M26.6 518.8C135.1 521 313.8 523.5 633.9 523.5C954 523.5 1132.6 520.9 1241.2 518.8H26.6Z" fill="#B4C0CC"/>
<path d="M26.6 518.8C133.9 520.9 314 523.4 633.8 523.4C953.6 523.4 1133.7 520.8 1241 518.8H26.6Z" fill="#B2BECA"/>
<path d="M26.8 518.8C132.9 520.9 314.4 523.3 633.8 523.3C953.2 523.3 1134.9 520.8 1240.8 518.8H26.8Z" fill="#B0BCC8"/>
<path d="M26.8 518.8C131.5 520.9 314.5 523.2 633.8 523.2C953.1 523.2 1136.1 520.7 1240.8 518.8H26.8Z" fill="#AEBAC6"/>
<path d="M26.9 518.8C130.2 520.8 314.8 523.2 633.7 523.2C952.6 523.2 1137.2 520.8 1240.5 518.8H26.9Z" fill="#ACB8C4"/>
<path d="M26.9 518.8C129 520.8 315.1 523.1 633.7 523.1C952.3 523.1 1138.4 520.7 1240.5 518.8H26.9Z" fill="#AAB6C2"/>
<path d="M27.1 518.8C127.9 520.8 315.3 523 633.7 523C952.1 523 1139.6 520.7 1240.3 518.8H27.1Z" fill="#A8B4C0"/>
<path d="M27.1 518.8C126.5 520.7 315.7 522.9 633.7 522.9C951.7 522.9 1140.8 520.6 1240.3 518.8H27.1Z" fill="#A6B3BF"/>
<path d="M27.1 518.8C125.3 520.7 315.9 522.9 633.7 522.9C951.5 522.9 1142 520.6 1240.3 518.8H27.1Z" fill="#A4B1BD"/>
<path d="M27.3 518.8C124.3 520.7 316.1 522.8 633.8 522.8C951.5 522.8 1143.3 520.6 1240.3 518.8H27.3Z" fill="#A2AFBB"/>
<path d="M27.3 518.8C122.9 520.6 316.4 522.7 633.8 522.7C951.2 522.7 1144.5 520.5 1240.3 518.8H27.3Z" fill="#A0ADB9"/>
<path d="M27.5 518.8C121.9 520.6 316.8 522.6 633.8 522.6C950.8 522.6 1145.7 520.5 1240.1 518.8H27.5Z" fill="#9EABB7"/>
<path d="M27.5 518.8C120.6 520.6 316.9 522.6 633.8 522.6C950.7 522.6 1146.9 520.5 1240.1 518.8H27.5Z" fill="#9CA9B5"/>
<path d="M27.6 518.8C119.5 520.5 317.2 522.5 633.7 522.5C950.2 522.5 1148 520.5 1239.8 518.8H27.6Z" fill="#9AA7B3"/>
<path d="M27.6 518.8C118.1 520.5 317.4 522.4 633.7 522.4C950 522.4 1149.2 520.4 1239.8 518.8H27.6Z" fill="#98A5B1"/>
<path d="M27.8 518.8C117.1 520.5 317.8 522.3 633.9 522.3C950 522.3 1150.7 520.4 1240 518.8H27.8Z" fill="#96A3AF"/>
<path d="M27.8 518.8C115.9 520.4 317.9 522.3 633.8 522.3C949.7 522.3 1151.8 520.4 1239.8 518.8H27.8Z" fill="#95A1AD"/>
<path d="M27.8 518.8C114.5 520.4 318.3 522.2 633.8 522.2C949.3 522.2 1153 520.3 1239.8 518.8H27.8Z" fill="#939FAB"/>
<path d="M28 518.8C113.3 520.4 318.6 522.1 633.8 522.1C949 522.1 1154.2 520.3 1239.6 518.8H28Z" fill="#919DA9"/>
<path d="M28 518.8C112.1 520.3 318.6 522 633.8 522C949 522 1155.4 520.2 1239.6 518.8H28Z" fill="#8F9BA7"/>
<path d="M28.1 518.8C110.9 520.3 319.1 522 633.7 522C948.3 522 1156.5 520.3 1239.3 518.8H28.1Z" fill="#8D99A5"/>
<path d="M28.3 518.8C109.9 520.3 319.5 521.9 633.7 521.9C947.9 521.9 1157.7 520.2 1239.1 518.8H28.3Z" fill="#8B97A3"/>
<path d="M28.3 518.8C108.5 520.2 319.6 521.8 633.7 521.8C947.8 521.8 1158.9 520.2 1239.1 518.8H28.3Z" fill="#8995A1"/>
<path d="M28.3 518.8C107.3 520.2 319.8 521.7 633.7 521.7C947.6 521.7 1160.1 520.1 1239.1 518.8H28.3Z" fill="#87939F"/>
<path d="M28.3 518.8C106.1 520.2 320 521.6 633.7 521.6C947.4 521.6 1161.3 520.1 1239.1 518.8H28.3Z" fill="#85919D"/>
<path d="M28.5 518.8C104.9 520.1 320.3 521.6 633.8 521.6C947.3 521.6 1162.6 520.1 1239.1 518.8H28.5Z" fill="#83909C"/>
<path d="M28.5 518.8C103.6 520.1 320.5 521.5 633.8 521.5C947.1 521.5 1163.8 520 1239.1 518.8H28.5Z" fill="#818E9A"/>
<path d="M28.7001 518.8C102.6 520.1 321.1 521.4 633.8 521.4C946.5 521.4 1165 520 1238.9 518.8H28.7001Z" fill="#7F8C98"/>
<path d="M28.8 518.8C101.3 520 321.2 521.3 633.7 521.3C946.2 521.3 1166.1 519.9 1238.6 518.8H28.8Z" fill="#7D8A96"/>
<path d="M28.8 518.8C100.1 520 321.3 521.3 633.7 521.3C946.1 521.3 1167.3 520 1238.6 518.8H28.8Z" fill="#7B8894"/>
<path d="M29 518.8C99.1 520 321.9 521.2 633.9 521.2C945.9 521.2 1168.7 519.9 1238.8 518.8H29Z" fill="#798692"/>
<path d="M29 518.8C97.7 519.9 322 521.1 633.9 521.1C945.8 521.1 1169.9 519.9 1238.8 518.8H29Z" fill="#778490"/>
<path d="M29 518.8C96.5 519.9 322.2 521 633.8 521C945.4 521 1171 519.8 1238.6 518.8H29Z" fill="#75828E"/>
<path d="M29.2001 518.8C95.3001 519.9 322.6 521 633.8 521C945 521 1172.2 519.8 1238.4 518.8H29.2001Z" fill="#73808C"/>
<path d="M29.2001 518.8C94.0001 519.8 322.8 520.9 633.8 520.9C944.8 520.9 1173.4 519.8 1238.4 518.8H29.2001Z" fill="#717E8A"/>
<path d="M29.3 518.8C92.9 519.8 323 520.8 633.7 520.8C944.4 520.8 1174.7 519.7 1238.1 518.8H29.3Z" fill="#6F7C88"/>
<path d="M29.3 518.8C91.5 519.8 323.2 520.7 633.7 520.7C944.2 520.7 1175.9 519.7 1238.1 518.8H29.3Z" fill="#6D7A86"/>
<path d="M29.5 518.8C90.5 519.7 323.7 520.7 633.7 520.7C943.7 520.7 1177.1 519.7 1237.9 518.8H29.5Z" fill="#6B7884"/>
<path d="M29.5 518.8C89.3 519.7 323.7 520.6 633.7 520.6C943.7 520.6 1178.3 519.7 1237.9 518.8H29.5Z" fill="#697682"/>
<path d="M29.5 518.8C87.9 519.7 323.9 520.5 633.7 520.5C943.5 520.5 1179.5 519.6 1237.9 518.8H29.5Z" fill="#677480"/>
<path d="M29.7001 518.8C86.9001 519.6 324.5 520.4 633.8 520.4C943.1 520.4 1180.8 519.6 1237.9 518.8H29.7001Z" fill="#66727E"/>
<path d="M29.7001 518.8C85.6001 519.6 324.5 520.4 633.8 520.4C943.1 520.4 1182 519.6 1237.9 518.8H29.7001Z" fill="#64707C"/>
<path d="M29.9 518.8C84.4 519.6 325 520.3 633.8 520.3C942.6 520.3 1183.2 519.5 1237.7 518.8H29.9Z" fill="#626E7A"/>
<path d="M29.9 518.8C83.2 519.5 325.2 520.2 633.8 520.2C942.4 520.2 1184.4 519.5 1237.7 518.8H29.9Z" fill="#606D79"/>
<path d="M30 518.8C81.9 519.5 325.4 520.1 633.7 520.1C942 520.1 1185.5 519.4 1237.4 518.8H30Z" fill="#5E6B77"/>
<path d="M30.2001 518.8C80.9001 519.5 325.8 520.1 633.9 520.1C942 520.1 1186.9 519.5 1237.6 518.8H30.2001Z" fill="#5C6975"/>
<path d="M30.2001 518.8C79.7001 519.4 326 520 633.9 520C941.8 520 1188.1 519.4 1237.6 518.8H30.2001Z" fill="#5A6773"/>
<path d="M30.2001 518.8C78.4001 519.4 326.2 519.9 633.8 519.9C941.4 519.9 1189.2 519.4 1237.4 518.8H30.2001Z" fill="#586571"/>
<path d="M30.2001 518.8C77.2001 519.4 326.3 519.8 633.8 519.8C941.3 519.8 1190.4 519.3 1237.4 518.8H30.2001Z" fill="#56636F"/>
<path d="M30.4 518.8C76 519.3 326.7 519.8 633.8 519.8C940.9 519.8 1191.6 519.4 1237.2 518.8H30.4Z" fill="#54616D"/>
<path d="M30.4 518.8C74.6 519.3 327 519.7 633.8 519.7C940.6 519.7 1192.8 519.3 1237.2 518.8H30.4Z" fill="#525F6B"/>
<path d="M30.5 518.8C73.5 519.3 327.1 519.6 633.7 519.6C940.3 519.6 1193.9 519.2 1236.9 518.8H30.5Z" fill="#505D69"/>
</g>
<path d="M1142.1 40.8H1040.6V132.1H1142.1V40.8Z" fill="url(#paint53_linear_11_389)"/>
<path d="M1142.5 132.4H1040.3V40.5H1142.4L1142.5 132.4ZM1040.9 131.8H1141.8V41.1H1040.9V131.8Z" fill="#999999"/>
<path d="M1064.5 83.5H1047.8V88.3H1064.5V83.5Z" fill="#E6E6E6" stroke="#999999" stroke-width="0.5" stroke-miterlimit="10"/>
<path d="M1142.1 132.2H1040.6V223H1142.1V132.2Z" fill="url(#paint54_linear_11_389)"/>
<path d="M1142.5 223.3H1040.3V131.9H1142.4L1142.5 223.3ZM1040.9 222.7H1141.8V132.5H1040.9V222.7Z" fill="#999999"/>
<path d="M1064.5 176.5H1047.8V181.3H1064.5V176.5Z" fill="#E6E6E6" stroke="#999999" stroke-width="0.5" stroke-miterlimit="10"/>
<path d="M1142.1 223.1H1040.6V313.9H1142.1V223.1Z" fill="url(#paint55_linear_11_389)"/>
<path d="M1142.5 314.2H1040.3V222.8H1142.4L1142.5 314.2ZM1040.9 313.6H1141.8V223.4H1040.9V313.6Z" fill="#999999"/>
<path d="M1064.5 266.5H1047.8V271.3H1064.5V266.5Z" fill="#E6E6E6" stroke="#999999" stroke-width="0.5" stroke-miterlimit="10"/>
<path d="M1142.1 314H1040.6V404.8H1142.1V314Z" fill="url(#paint56_linear_11_389)"/>
<path d="M1142.5 405.1H1040.3V313.7H1142.4L1142.5 405.1ZM1040.9 404.5H1141.8V314.3H1040.9V404.5Z" fill="#999999"/>
<path d="M1064.5 357.5H1047.8V362.3H1064.5V357.5Z" fill="#E6E6E6" stroke="#999999" stroke-width="0.5" stroke-miterlimit="10"/>
<path d="M1142.1 404.9H1040.6V495.7H1142.1V404.9Z" fill="url(#paint57_linear_11_389)"/>
<path d="M1142.5 496H1040.3V404.6H1142.4L1142.5 496ZM1040.9 495.4H1141.8V405.2H1040.9V495.4Z" fill="#999999"/>
<path d="M1064.5 446.5H1047.8V451.3H1064.5V446.5Z" fill="#E6E6E6" stroke="#999999" stroke-width="0.5" stroke-miterlimit="10"/>
<path d="M227.1 496.7H126.2" stroke="#999999" stroke-width="0.5" stroke-miterlimit="10"/>
<path d="M125.7 41.1H24.2001V497.1H125.7V41.1Z" fill="url(#paint58_linear_11_389)"/>
<path d="M126.1 497.3H23.9V40.8H126L126.1 497.3ZM24.5 496.7H125.4V41.3H24.5V496.7Z" fill="#999999"/>
<path d="M48.1 266.3H31.4V271.1H48.1V266.3Z" fill="#E6E6E6" stroke="#999999" stroke-width="0.5" stroke-miterlimit="10"/>
<path d="M329.8 496.2H431" stroke="#999999" stroke-width="0.75" stroke-miterlimit="10"/>
<defs>
<linearGradient id="paint0_linear_11_389" x1="634.15" y1="39.1411" x2="634.15" y2="19.1411" gradientUnits="userSpaceOnUse">
<stop stop-color="#CCCCCC" stop-opacity="0.7"/>
<stop offset="1" stop-color="white"/>
</linearGradient>
<linearGradient id="paint1_linear_11_389" x1="633.5" y1="499.267" x2="633.5" y2="516.945" gradientUnits="userSpaceOnUse">
<stop stop-color="#E6E6E6" stop-opacity="0.7"/>
<stop offset="1" stop-color="white"/>
</linearGradient>
<linearGradient id="paint2_linear_11_389" x1="278.75" y1="153.546" x2="278.75" y2="41.9944" gradientUnits="userSpaceOnUse">
<stop stop-color="#E6E6E6" stop-opacity="0.7"/>
<stop offset="1" stop-color="white"/>
</linearGradient>
<linearGradient id="paint3_linear_11_389" x1="278.75" y1="325.7" x2="278.75" y2="268.8" gradientUnits="userSpaceOnUse">
<stop stop-color="#E6E6E6" stop-opacity="0.7"/>
<stop offset="1" stop-color="white"/>
</linearGradient>
<linearGradient id="paint4_linear_11_389" x1="278.75" y1="382.6" x2="278.75" y2="325.7" gradientUnits="userSpaceOnUse">
<stop stop-color="#E6E6E6" stop-opacity="0.7"/>
<stop offset="1" stop-color="white"/>
</linearGradient>
<linearGradient id="paint5_linear_11_389" x1="278.75" y1="439.6" x2="278.75" y2="382.7" gradientUnits="userSpaceOnUse">
<stop stop-color="#E6E6E6" stop-opacity="0.7"/>
<stop offset="1" stop-color="white"/>
</linearGradient>
<linearGradient id="paint6_linear_11_389" x1="278.75" y1="496.5" x2="278.75" y2="439.6" gradientUnits="userSpaceOnUse">
<stop stop-color="#E6E6E6" stop-opacity="0.7"/>
<stop offset="1" stop-color="white"/>
</linearGradient>
<linearGradient id="paint7_linear_11_389" x1="583.35" y1="155" x2="583.35" y2="41.1" gradientUnits="userSpaceOnUse">
<stop stop-color="#E6E6E6" stop-opacity="0.7"/>
<stop offset="1" stop-color="white"/>
</linearGradient>
<linearGradient id="paint8_linear_11_389" x1="685.15" y1="155" x2="685.15" y2="41.1" gradientUnits="userSpaceOnUse">
<stop stop-color="#E6E6E6" stop-opacity="0.7"/>
<stop offset="1" stop-color="white"/>
</linearGradient>
<linearGradient id="paint9_linear_11_389" x1="786.65" y1="155" x2="786.65" y2="41.1" gradientUnits="userSpaceOnUse">
<stop stop-color="#E6E6E6" stop-opacity="0.7"/>
<stop offset="1" stop-color="white"/>
</linearGradient>
<linearGradient id="paint10_linear_11_389" x1="685.15" y1="496.5" x2="685.15" y2="211.9" gradientUnits="userSpaceOnUse">
<stop stop-color="#E6E6E6" stop-opacity="0.7"/>
<stop offset="1" stop-color="white"/>
</linearGradient>
<linearGradient id="paint11_linear_11_389" x1="583.35" y1="496.6" x2="583.35" y2="382.7" gradientUnits="userSpaceOnUse">
<stop stop-color="#E6E6E6" stop-opacity="0.7"/>
<stop offset="1" stop-color="white"/>
</linearGradient>
<linearGradient id="paint12_linear_11_389" x1="481.75" y1="192.9" x2="481.75" y2="41.1" gradientUnits="userSpaceOnUse">
<stop stop-color="#E6E6E6" stop-opacity="0.7"/>
<stop offset="1" stop-color="white"/>
</linearGradient>
<linearGradient id="paint13_linear_11_389" x1="481.75" y1="344.7" x2="481.75" y2="192.9" gradientUnits="userSpaceOnUse">
<stop stop-color="#E6E6E6" stop-opacity="0.7"/>
<stop offset="1" stop-color="white"/>
</linearGradient>
<linearGradient id="paint14_linear_11_389" x1="481.75" y1="496.5" x2="481.75" y2="344.7" gradientUnits="userSpaceOnUse">
<stop stop-color="#E6E6E6" stop-opacity="0.7"/>
<stop offset="1" stop-color="white"/>
</linearGradient>
<linearGradient id="paint15_linear_11_389" x1="278.75" y1="192.9" x2="278.75" y2="154.9" gradientUnits="userSpaceOnUse">
<stop stop-color="#E6E6E6" stop-opacity="0.7"/>
<stop offset="1" stop-color="white"/>
</linearGradient>
<linearGradient id="paint16_linear_11_389" x1="583.35" y1="183.4" x2="583.35" y2="154.9" gradientUnits="userSpaceOnUse">
<stop stop-color="#E6E6E6" stop-opacity="0.7"/>
<stop offset="1" stop-color="white"/>
</linearGradient>
<linearGradient id="paint17_linear_11_389" x1="583.35" y1="211.9" x2="583.35" y2="183.4" gradientUnits="userSpaceOnUse">
<stop stop-color="#E6E6E6" stop-opacity="0.7"/>
<stop offset="1" stop-color="white"/>
</linearGradient>
<linearGradient id="paint18_linear_11_389" x1="888.25" y1="240.343" x2="888.25" y2="211.843" gradientUnits="userSpaceOnUse">
<stop stop-color="#E6E6E6" stop-opacity="0.7"/>
<stop offset="1" stop-color="white"/>
</linearGradient>
<linearGradient id="paint19_linear_11_389" x1="888.25" y1="268.825" x2="888.25" y2="240.325" gradientUnits="userSpaceOnUse">
<stop stop-color="#E6E6E6" stop-opacity="0.7"/>
<stop offset="1" stop-color="white"/>
</linearGradient>
<linearGradient id="paint20_linear_11_389" x1="685.15" y1="211.9" x2="685.15" y2="154.9" gradientUnits="userSpaceOnUse">
<stop stop-color="#E6E6E6" stop-opacity="0.7"/>
<stop offset="1" stop-color="white"/>
</linearGradient>
<linearGradient id="paint21_linear_11_389" x1="786.65" y1="211.9" x2="786.65" y2="154.9" gradientUnits="userSpaceOnUse">
<stop stop-color="#E6E6E6" stop-opacity="0.7"/>
<stop offset="1" stop-color="white"/>
</linearGradient>
<linearGradient id="paint22_linear_11_389" x1="888.25" y1="155" x2="888.25" y2="41.1" gradientUnits="userSpaceOnUse">
<stop stop-color="#E6E6E6" stop-opacity="0.7"/>
<stop offset="1" stop-color="white"/>
</linearGradient>
<linearGradient id="paint23_linear_11_389" x1="888.25" y1="211.9" x2="888.25" y2="154.9" gradientUnits="userSpaceOnUse">
<stop stop-color="#E6E6E6" stop-opacity="0.7"/>
<stop offset="1" stop-color="white"/>
</linearGradient>
<linearGradient id="paint24_linear_11_389" x1="786.65" y1="268.9" x2="786.65" y2="211.9" gradientUnits="userSpaceOnUse">
<stop stop-color="#E6E6E6" stop-opacity="0.7"/>
<stop offset="1" stop-color="white"/>
</linearGradient>
<linearGradient id="paint25_linear_11_389" x1="786.65" y1="496.6" x2="786.65" y2="268.8" gradientUnits="userSpaceOnUse">
<stop stop-color="#E6E6E6" stop-opacity="0.7"/>
<stop offset="1" stop-color="white"/>
</linearGradient>
<linearGradient id="paint26_linear_11_389" x1="888.25" y1="496.6" x2="888.25" y2="268.8" gradientUnits="userSpaceOnUse">
<stop stop-color="#E6E6E6" stop-opacity="0.7"/>
<stop offset="1" stop-color="white"/>
</linearGradient>
<linearGradient id="paint27_linear_11_389" x1="583.35" y1="240.343" x2="583.35" y2="211.843" gradientUnits="userSpaceOnUse">
<stop stop-color="#E6E6E6" stop-opacity="0.7"/>
<stop offset="1" stop-color="white"/>
</linearGradient>
<linearGradient id="paint28_linear_11_389" x1="583.35" y1="268.825" x2="583.35" y2="240.325" gradientUnits="userSpaceOnUse">
<stop stop-color="#E6E6E6" stop-opacity="0.7"/>
<stop offset="1" stop-color="white"/>
</linearGradient>
<linearGradient id="paint29_linear_11_389" x1="278.75" y1="230.9" x2="278.75" y2="192.9" gradientUnits="userSpaceOnUse">
<stop stop-color="#E6E6E6" stop-opacity="0.7"/>
<stop offset="1" stop-color="white"/>
</linearGradient>
<linearGradient id="paint30_linear_11_389" x1="278.75" y1="268.8" x2="278.75" y2="230.8" gradientUnits="userSpaceOnUse">
<stop stop-color="#E6E6E6" stop-opacity="0.7"/>
<stop offset="1" stop-color="white"/>
</linearGradient>
<linearGradient id="paint31_linear_11_389" x1="583.35" y1="325.695" x2="583.35" y2="268.948" gradientUnits="userSpaceOnUse">
<stop stop-color="#E6E6E6" stop-opacity="0.7"/>
<stop offset="1" stop-color="white"/>
</linearGradient>
<linearGradient id="paint32_linear_11_389" x1="583.35" y1="382.442" x2="583.35" y2="325.695" gradientUnits="userSpaceOnUse">
<stop stop-color="#E6E6E6" stop-opacity="0.7"/>
<stop offset="1" stop-color="white"/>
</linearGradient>
<linearGradient id="paint33_linear_11_389" x1="989.95" y1="325.7" x2="989.95" y2="268.8" gradientUnits="userSpaceOnUse">
<stop stop-color="#E6E6E6" stop-opacity="0.7"/>
<stop offset="1" stop-color="white"/>
</linearGradient>
<linearGradient id="paint34_linear_11_389" x1="989.95" y1="382.6" x2="989.95" y2="325.7" gradientUnits="userSpaceOnUse">
<stop stop-color="#E6E6E6" stop-opacity="0.7"/>
<stop offset="1" stop-color="white"/>
</linearGradient>
<linearGradient id="paint35_linear_11_389" x1="989.95" y1="439.6" x2="989.95" y2="382.7" gradientUnits="userSpaceOnUse">
<stop stop-color="#E6E6E6" stop-opacity="0.7"/>
<stop offset="1" stop-color="white"/>
</linearGradient>
<linearGradient id="paint36_linear_11_389" x1="989.95" y1="496.5" x2="989.95" y2="439.6" gradientUnits="userSpaceOnUse">
<stop stop-color="#E6E6E6" stop-opacity="0.7"/>
<stop offset="1" stop-color="white"/>
</linearGradient>
<linearGradient id="paint37_linear_11_389" x1="1192.85" y1="211.3" x2="1192.85" y2="154.4" gradientUnits="userSpaceOnUse">
<stop stop-color="#E6E6E6" stop-opacity="0.7"/>
<stop offset="1" stop-color="white"/>
</linearGradient>
<linearGradient id="paint38_linear_11_389" x1="1192.85" y1="268.296" x2="1192.85" y2="211.395" gradientUnits="userSpaceOnUse">
<stop stop-color="#E6E6E6" stop-opacity="0.7"/>
<stop offset="1" stop-color="white"/>
</linearGradient>
<linearGradient id="paint39_linear_11_389" x1="1192.85" y1="325.2" x2="1192.85" y2="268.3" gradientUnits="userSpaceOnUse">
<stop stop-color="#E6E6E6" stop-opacity="0.7"/>
<stop offset="1" stop-color="white"/>
</linearGradient>
<linearGradient id="paint40_linear_11_389" x1="1192.85" y1="382.174" x2="1192.85" y2="325.274" gradientUnits="userSpaceOnUse">
<stop stop-color="#E6E6E6" stop-opacity="0.7"/>
<stop offset="1" stop-color="white"/>
</linearGradient>
<linearGradient id="paint41_linear_11_389" x1="989.95" y1="97.7" x2="989.95" y2="40.8001" gradientUnits="userSpaceOnUse">
<stop stop-color="#E6E6E6" stop-opacity="0.7"/>
<stop offset="1" stop-color="white"/>
</linearGradient>
<linearGradient id="paint42_linear_11_389" x1="989.95" y1="154.6" x2="989.95" y2="97.7" gradientUnits="userSpaceOnUse">
<stop stop-color="#E6E6E6" stop-opacity="0.7"/>
<stop offset="1" stop-color="white"/>
</linearGradient>
<linearGradient id="paint43_linear_11_389" x1="989.95" y1="211.6" x2="989.95" y2="154.7" gradientUnits="userSpaceOnUse">
<stop stop-color="#E6E6E6" stop-opacity="0.7"/>
<stop offset="1" stop-color="white"/>
</linearGradient>
<linearGradient id="paint44_linear_11_389" x1="989.95" y1="268.5" x2="989.95" y2="211.6" gradientUnits="userSpaceOnUse">
<stop stop-color="#E6E6E6" stop-opacity="0.7"/>
<stop offset="1" stop-color="white"/>
</linearGradient>
<linearGradient id="paint45_linear_11_389" x1="176.65" y1="266.511" x2="176.65" y2="42.9187" gradientUnits="userSpaceOnUse">
<stop stop-color="#E6E6E6" stop-opacity="0.7"/>
<stop offset="1" stop-color="white"/>
</linearGradient>
<linearGradient id="paint46_linear_11_389" x1="176.65" y1="496.7" x2="176.65" y2="269.3" gradientUnits="userSpaceOnUse">
<stop stop-color="#E6E6E6" stop-opacity="0.7"/>
<stop offset="1" stop-color="white"/>
</linearGradient>
<linearGradient id="paint47_linear_11_389" x1="380.25" y1="153.546" x2="380.25" y2="41.9944" gradientUnits="userSpaceOnUse">
<stop stop-color="#E6E6E6" stop-opacity="0.7"/>
<stop offset="1" stop-color="white"/>
</linearGradient>
<linearGradient id="paint48_linear_11_389" x1="380.25" y1="382.717" x2="380.25" y2="268.517" gradientUnits="userSpaceOnUse">
<stop stop-color="#E6E6E6" stop-opacity="0.7"/>
<stop offset="1" stop-color="white"/>
</linearGradient>
<linearGradient id="paint49_linear_11_389" x1="380.25" y1="495.8" x2="380.25" y2="382.7" gradientUnits="userSpaceOnUse">
<stop stop-color="#E6E6E6" stop-opacity="0.7"/>
<stop offset="1" stop-color="white"/>
</linearGradient>
<linearGradient id="paint50_linear_11_389" x1="380.25" y1="269.318" x2="380.25" y2="155.117" gradientUnits="userSpaceOnUse">
<stop stop-color="#E6E6E6" stop-opacity="0.7"/>
<stop offset="1" stop-color="white"/>
</linearGradient>
<linearGradient id="paint51_linear_11_389" x1="1192.85" y1="495.8" x2="1192.85" y2="381.8" gradientUnits="userSpaceOnUse">
<stop stop-color="#E6E6E6" stop-opacity="0.7"/>
<stop offset="1" stop-color="white"/>
</linearGradient>
<linearGradient id="paint52_linear_11_389" x1="1192.85" y1="154.6" x2="1192.85" y2="40.6" gradientUnits="userSpaceOnUse">
<stop stop-color="#E6E6E6" stop-opacity="0.7"/>
<stop offset="1" stop-color="white"/>
</linearGradient>
<linearGradient id="paint53_linear_11_389" x1="1091.35" y1="132.1" x2="1091.35" y2="40.8001" gradientUnits="userSpaceOnUse">
<stop stop-color="#E6E6E6" stop-opacity="0.7"/>
<stop offset="1" stop-color="white"/>
</linearGradient>
<linearGradient id="paint54_linear_11_389" x1="1091.35" y1="223" x2="1091.35" y2="132.2" gradientUnits="userSpaceOnUse">
<stop stop-color="#E6E6E6" stop-opacity="0.7"/>
<stop offset="1" stop-color="white"/>
</linearGradient>
<linearGradient id="paint55_linear_11_389" x1="1091.35" y1="313.9" x2="1091.35" y2="223.1" gradientUnits="userSpaceOnUse">
<stop stop-color="#E6E6E6" stop-opacity="0.7"/>
<stop offset="1" stop-color="white"/>
</linearGradient>
<linearGradient id="paint56_linear_11_389" x1="1091.35" y1="404.8" x2="1091.35" y2="314" gradientUnits="userSpaceOnUse">
<stop stop-color="#E6E6E6" stop-opacity="0.7"/>
<stop offset="1" stop-color="white"/>
</linearGradient>
<linearGradient id="paint57_linear_11_389" x1="1091.35" y1="495.7" x2="1091.35" y2="404.9" gradientUnits="userSpaceOnUse">
<stop stop-color="#E6E6E6" stop-opacity="0.7"/>
<stop offset="1" stop-color="white"/>
</linearGradient>
<linearGradient id="paint58_linear_11_389" x1="74.9501" y1="491.355" x2="74.9501" y2="44.7583" gradientUnits="userSpaceOnUse">
<stop stop-color="#E6E6E6" stop-opacity="0.7"/>
<stop offset="1" stop-color="white"/>
</linearGradient>
</defs>
</svg>
