<svg width="1408" height="612" viewBox="0 0 1408 612" fill="none" xmlns="http://www.w3.org/2000/svg">
<circle r="4.5" transform="matrix(-1 0 0 1 1119.5 373.5)" fill="#333333"/>
<path d="M1122 372L1133 368" stroke="black"/>
<path d="M1235 468C1118.6 438.8 1110.5 369.833 1121 339L1155 268.5" stroke="black" stroke-width="2"/>
<path d="M826 86C897.018 42.2061 976.283 84.3315 1007.04 110.868L1074.05 176.996" stroke="black" stroke-width="2"/>
<path d="M357 137C462.154 25.6619 525 73.5 554.104 85.1614L617 108.5" stroke="black" stroke-width="2"/>
<path d="M1085.01 211.85L1079.27 216.754C1078.84 217.128 1078.28 217.333 1077.7 217.333C1076.66 217.333 1075.74 218.002 1075.41 218.992L1073.13 225.915C1072.39 228.148 1072.3 230.545 1072.86 232.828L1074.24 238.386C1075.35 242.885 1077.95 246.876 1081.62 249.71C1085.22 252.491 1089.64 254 1094.19 254H1204.08C1208.28 254 1212.38 252.772 1215.89 250.469C1220.87 247.193 1224.27 241.994 1225.27 236.114L1225.58 234.351C1226.49 229.017 1225.18 223.542 1221.95 219.197L1220.11 216.717C1218.19 214.122 1215.32 212.388 1212.12 211.892L1211.71 211.828C1205.22 210.819 1200.78 204.736 1201.79 198.245C1201.89 197.638 1201.94 197.025 1201.94 196.41V190.684C1201.94 184.612 1199.98 178.701 1196.36 173.824C1194.81 171.729 1192.97 169.859 1190.91 168.268L1190.01 167.574C1183.63 162.663 1175.81 160 1167.76 160H1164.92C1159.79 160 1154.75 161.352 1150.3 163.919L1147.78 165.377C1144.8 167.093 1142.36 169.589 1140.71 172.596L1138.82 176.035C1135.63 181.838 1128.8 184.604 1122.47 182.656C1119.67 181.796 1116.68 181.836 1113.91 182.77L1113.36 182.954C1111.31 183.644 1109.43 184.748 1107.82 186.198L1101.07 192.309C1098.94 194.235 1097.72 196.971 1097.72 199.842V202.293C1097.72 206.549 1094.27 210 1090.02 210C1088.18 210 1086.4 210.656 1085.01 211.85Z" fill="white" stroke="black"/>
<path d="M627 122L662 85.5H809.5V408.5H663.5H627V122Z" fill="white"/>
<path d="M662 85.5L627 122V408.5H663.5M662 85.5H809.5V408.5H663.5M662 85.5L663.5 408.5" stroke="black"/>
<path d="M696.5 88L699.401 77.0215C700.155 74.1689 701.428 71.4797 703.157 69.0888L704.264 67.5583C707.099 63.6383 711.093 60.7078 715.683 59.1806L716.053 59.0575C718.159 58.3571 720.363 58 722.582 58H723.061C727.449 58 731.707 59.4942 735.132 62.2366V62.2366C736.977 63.7134 738.535 65.5161 739.729 67.5553L742.211 71.7945C744.365 75.4729 745.5 79.6586 745.5 83.9211V88" stroke="black"/>
<path d="M734.5 88V77.8302C734.5 74.9225 734.97 72.0339 735.891 69.276L737.988 62.9973C739.019 59.9123 740.675 57.0733 742.853 54.658L742.97 54.5282C746.01 51.1579 749.977 48.7598 754.374 47.6348L755.232 47.4151C758.847 46.4903 762.648 46.5973 766.205 47.7241V47.7241C769.586 48.7953 772.621 50.7485 774.997 53.3825L776.672 55.2398C780.449 59.4279 782.82 64.6936 783.451 70.2979L784.5 79.6V88" stroke="black"/>
<path d="M794.5 100H679.5V126H794.5V100Z" stroke="black"/>
<path d="M705.986 112.729L705.658 112.238C704.935 111.152 703.716 110.5 702.412 110.5C700.934 110.5 699.582 111.335 698.921 112.657L698.569 113.361C697.714 115.071 698.46 117.149 700.207 117.925C701.034 118.293 701.974 118.31 702.814 117.974L704.575 117.27C705.738 116.805 706.5 115.679 706.5 114.427C706.5 113.823 706.321 113.232 705.986 112.729Z" stroke="black"/>
<path d="M701 119.5L705.417 131.648C707.737 138.026 712.154 143.427 717.945 146.967L718.133 147.081C723.87 150.587 730.636 152.015 737.3 151.127V151.127C745.104 150.086 752.161 145.952 756.885 139.654L757.024 139.468C760.903 134.296 763 128.005 763 121.54V116.5M763 116.5L761.401 113.701C761.138 113.242 761 112.722 761 112.192V112.192C761 110.883 761.838 109.721 763.08 109.307L763.449 109.184C763.814 109.062 764.196 109 764.581 109H764.643C765.82 109 766.935 109.523 767.689 110.426L768.312 111.175C768.757 111.708 769 112.38 769 113.074V113.074C769 113.975 768.59 114.828 767.887 115.391L767.555 115.656C766.872 116.202 766.024 116.5 765.149 116.5H763Z" stroke="black"/>
<path d="M1255 430.5L1230 497.5L1227 505.5L1233.5 511.5H1279L1282.5 516.5L1279 526.5L1270.5 529.5H1282.5H1303L1306.5 520L1303 511.5L1331.5 509L1339.5 497.5L1364.5 430.5L1359.5 425H1262.5L1255 430.5Z" fill="white"/>
<path d="M1258.5 529.5H1270.5M1270.5 529.5H1282.5H1303L1306.5 520L1303 511.5L1331.5 509L1339.5 497.5L1364.5 430.5L1359.5 425H1262.5L1255 430.5L1230 497.5L1227 505.5L1233.5 511.5H1279L1282.5 516.5L1279 526.5L1270.5 529.5Z" stroke="black" stroke-width="2"/>
<line x1="1286.56" y1="443.828" x2="1255.56" y2="464.828" stroke="black" stroke-width="2"/>
<line x1="1301.56" y1="464.828" x2="1270.56" y2="485.828" stroke="black" stroke-width="2"/>
<line x1="1310.54" y1="443.84" x2="1248.54" y2="483.84" stroke="black" stroke-width="2"/>
<rect x="679.5" y="160.5" width="114" height="34" fill="white" stroke="black"/>
<rect x="679.5" y="216.5" width="114" height="34" fill="white" stroke="black"/>
<rect x="679.5" y="272.5" width="114" height="34" fill="white" stroke="black"/>
<rect x="679.5" y="328.5" width="114" height="34" fill="white" stroke="black"/>
<path d="M696.057 229.273H697.318L700.284 236.517H700.386L703.352 229.273H704.614V238H703.625V231.369H703.54L700.812 238H699.858L697.131 231.369H697.045V238H696.057V229.273ZM708.522 238.153C708.108 238.153 707.731 238.075 707.393 237.919C707.055 237.76 706.787 237.531 706.588 237.233C706.389 236.932 706.289 236.568 706.289 236.142C706.289 235.767 706.363 235.463 706.511 235.23C706.659 234.994 706.856 234.81 707.103 234.676C707.35 234.543 707.623 234.443 707.922 234.378C708.223 234.31 708.525 234.256 708.829 234.216C709.227 234.165 709.549 234.126 709.797 234.101C710.047 234.072 710.228 234.026 710.342 233.96C710.458 233.895 710.517 233.781 710.517 233.619V233.585C710.517 233.165 710.402 232.838 710.172 232.605C709.944 232.372 709.599 232.256 709.136 232.256C708.656 232.256 708.279 232.361 708.007 232.571C707.734 232.781 707.542 233.006 707.431 233.244L706.477 232.903C706.647 232.506 706.875 232.196 707.159 231.974C707.446 231.75 707.758 231.594 708.096 231.506C708.437 231.415 708.772 231.369 709.102 231.369C709.312 231.369 709.554 231.395 709.826 231.446C710.102 231.494 710.368 231.595 710.623 231.749C710.882 231.902 711.096 232.134 711.267 232.443C711.437 232.753 711.522 233.168 711.522 233.688V238H710.517V237.114H710.466C710.397 237.256 710.284 237.408 710.125 237.57C709.966 237.732 709.754 237.869 709.49 237.983C709.225 238.097 708.903 238.153 708.522 238.153ZM708.676 237.25C709.074 237.25 709.409 237.172 709.681 237.016C709.957 236.859 710.164 236.658 710.304 236.411C710.446 236.163 710.517 235.903 710.517 235.631V234.71C710.474 234.761 710.38 234.808 710.235 234.851C710.093 234.891 709.929 234.926 709.741 234.957C709.556 234.986 709.376 235.011 709.2 235.034C709.027 235.054 708.886 235.071 708.778 235.085C708.517 235.119 708.272 235.175 708.045 235.251C707.821 235.325 707.639 235.437 707.5 235.588C707.363 235.736 707.295 235.937 707.295 236.193C707.295 236.543 707.424 236.807 707.683 236.986C707.944 237.162 708.275 237.25 708.676 237.25ZM713.358 238V231.455H714.364V238H713.358ZM713.869 230.364C713.673 230.364 713.504 230.297 713.362 230.163C713.223 230.03 713.153 229.869 713.153 229.682C713.153 229.494 713.223 229.334 713.362 229.2C713.504 229.067 713.673 229 713.869 229C714.065 229 714.233 229.067 714.372 229.2C714.514 229.334 714.585 229.494 714.585 229.682C714.585 229.869 714.514 230.03 714.372 230.163C714.233 230.297 714.065 230.364 713.869 230.364ZM717.211 234.062V238H716.206V231.455H717.177V232.477H717.262C717.416 232.145 717.649 231.878 717.961 231.676C718.274 231.472 718.677 231.369 719.172 231.369C719.615 231.369 720.002 231.46 720.335 231.642C720.667 231.821 720.926 232.094 721.11 232.46C721.295 232.824 721.387 233.284 721.387 233.841V238H720.382V233.909C720.382 233.395 720.248 232.994 719.981 232.707C719.714 232.418 719.348 232.273 718.882 232.273C718.561 232.273 718.274 232.342 718.021 232.482C717.771 232.621 717.574 232.824 717.429 233.091C717.284 233.358 717.211 233.682 717.211 234.062ZM726.072 231.455V232.307H722.68V231.455H726.072ZM723.668 229.886H724.674V236.125C724.674 236.409 724.715 236.622 724.798 236.764C724.883 236.903 724.991 236.997 725.121 237.045C725.255 237.091 725.396 237.114 725.543 237.114C725.654 237.114 725.745 237.108 725.816 237.097C725.887 237.082 725.944 237.071 725.987 237.062L726.191 237.966C726.123 237.991 726.028 238.017 725.906 238.043C725.783 238.071 725.629 238.085 725.441 238.085C725.157 238.085 724.879 238.024 724.606 237.902C724.336 237.78 724.112 237.594 723.933 237.344C723.756 237.094 723.668 236.778 723.668 236.398V229.886ZM730.259 238.136C729.628 238.136 729.084 237.997 728.626 237.719C728.172 237.438 727.821 237.045 727.574 236.543C727.33 236.037 727.207 235.449 727.207 234.778C727.207 234.108 727.33 233.517 727.574 233.006C727.821 232.491 728.165 232.091 728.605 231.804C729.048 231.514 729.565 231.369 730.156 231.369C730.497 231.369 730.834 231.426 731.166 231.54C731.499 231.653 731.801 231.838 732.074 232.094C732.347 232.347 732.564 232.682 732.726 233.099C732.888 233.517 732.969 234.031 732.969 234.642V235.068H727.923V234.199H731.946C731.946 233.83 731.872 233.5 731.724 233.21C731.58 232.92 731.372 232.692 731.102 232.524C730.835 232.357 730.52 232.273 730.156 232.273C729.756 232.273 729.409 232.372 729.116 232.571C728.827 232.767 728.604 233.023 728.447 233.338C728.291 233.653 728.213 233.991 728.213 234.352V234.932C728.213 235.426 728.298 235.845 728.469 236.189C728.642 236.53 728.882 236.79 729.189 236.969C729.496 237.145 729.852 237.233 730.259 237.233C730.523 237.233 730.761 237.196 730.974 237.122C731.19 237.045 731.376 236.932 731.533 236.781C731.689 236.628 731.81 236.437 731.895 236.21L732.866 236.483C732.764 236.812 732.592 237.102 732.351 237.352C732.109 237.599 731.811 237.793 731.456 237.932C731.101 238.068 730.702 238.136 730.259 238.136ZM735.504 234.062V238H734.499V231.455H735.47V232.477H735.555C735.709 232.145 735.942 231.878 736.254 231.676C736.567 231.472 736.97 231.369 737.464 231.369C737.908 231.369 738.295 231.46 738.628 231.642C738.96 231.821 739.219 232.094 739.403 232.46C739.588 232.824 739.68 233.284 739.68 233.841V238H738.675V233.909C738.675 233.395 738.541 232.994 738.274 232.707C738.007 232.418 737.641 232.273 737.175 232.273C736.854 232.273 736.567 232.342 736.314 232.482C736.064 232.621 735.866 232.824 735.722 233.091C735.577 233.358 735.504 233.682 735.504 234.062ZM743.444 238.153C743.029 238.153 742.653 238.075 742.315 237.919C741.977 237.76 741.708 237.531 741.51 237.233C741.311 236.932 741.211 236.568 741.211 236.142C741.211 235.767 741.285 235.463 741.433 235.23C741.581 234.994 741.778 234.81 742.025 234.676C742.272 234.543 742.545 234.443 742.843 234.378C743.145 234.31 743.447 234.256 743.751 234.216C744.149 234.165 744.471 234.126 744.718 234.101C744.968 234.072 745.15 234.026 745.264 233.96C745.38 233.895 745.439 233.781 745.439 233.619V233.585C745.439 233.165 745.324 232.838 745.093 232.605C744.866 232.372 744.521 232.256 744.058 232.256C743.578 232.256 743.201 232.361 742.929 232.571C742.656 232.781 742.464 233.006 742.353 233.244L741.399 232.903C741.569 232.506 741.797 232.196 742.081 231.974C742.368 231.75 742.68 231.594 743.018 231.506C743.359 231.415 743.694 231.369 744.024 231.369C744.234 231.369 744.475 231.395 744.748 231.446C745.024 231.494 745.289 231.595 745.545 231.749C745.804 231.902 746.018 232.134 746.189 232.443C746.359 232.753 746.444 233.168 746.444 233.688V238H745.439V237.114H745.387C745.319 237.256 745.206 237.408 745.047 237.57C744.887 237.732 744.676 237.869 744.412 237.983C744.147 238.097 743.825 238.153 743.444 238.153ZM743.598 237.25C743.995 237.25 744.331 237.172 744.603 237.016C744.879 236.859 745.086 236.658 745.225 236.411C745.368 236.163 745.439 235.903 745.439 235.631V234.71C745.396 234.761 745.302 234.808 745.157 234.851C745.015 234.891 744.85 234.926 744.663 234.957C744.478 234.986 744.298 235.011 744.122 235.034C743.949 235.054 743.808 235.071 743.7 235.085C743.439 235.119 743.194 235.175 742.967 235.251C742.743 235.325 742.561 235.437 742.422 235.588C742.285 235.736 742.217 235.937 742.217 236.193C742.217 236.543 742.346 236.807 742.605 236.986C742.866 237.162 743.197 237.25 743.598 237.25ZM749.286 234.062V238H748.28V231.455H749.251V232.477H749.337C749.49 232.145 749.723 231.878 750.036 231.676C750.348 231.472 750.751 231.369 751.246 231.369C751.689 231.369 752.077 231.46 752.409 231.642C752.741 231.821 753 232.094 753.185 232.46C753.369 232.824 753.462 233.284 753.462 233.841V238H752.456V233.909C752.456 233.395 752.322 232.994 752.055 232.707C751.788 232.418 751.422 232.273 750.956 232.273C750.635 232.273 750.348 232.342 750.095 232.482C749.845 232.621 749.648 232.824 749.503 233.091C749.358 233.358 749.286 233.682 749.286 234.062ZM757.958 238.136C757.345 238.136 756.816 237.991 756.373 237.702C755.93 237.412 755.589 237.013 755.35 236.504C755.112 235.996 754.993 235.415 754.993 234.761C754.993 234.097 755.115 233.51 755.359 233.001C755.606 232.49 755.95 232.091 756.39 231.804C756.833 231.514 757.35 231.369 757.941 231.369C758.402 231.369 758.816 231.455 759.186 231.625C759.555 231.795 759.858 232.034 760.093 232.341C760.329 232.648 760.475 233.006 760.532 233.415H759.527C759.45 233.116 759.279 232.852 759.015 232.622C758.754 232.389 758.402 232.273 757.958 232.273C757.566 232.273 757.223 232.375 756.927 232.58C756.635 232.781 756.406 233.067 756.241 233.436C756.079 233.803 755.998 234.233 755.998 234.727C755.998 235.233 756.078 235.673 756.237 236.048C756.399 236.423 756.626 236.714 756.919 236.922C757.214 237.129 757.561 237.233 757.958 237.233C758.22 237.233 758.457 237.188 758.67 237.097C758.883 237.006 759.064 236.875 759.211 236.705C759.359 236.534 759.464 236.33 759.527 236.091H760.532C760.475 236.477 760.335 236.825 760.11 237.135C759.889 237.442 759.595 237.686 759.228 237.868C758.865 238.047 758.441 238.136 757.958 238.136ZM764.747 238.136C764.116 238.136 763.572 237.997 763.115 237.719C762.66 237.438 762.309 237.045 762.062 236.543C761.818 236.037 761.696 235.449 761.696 234.778C761.696 234.108 761.818 233.517 762.062 233.006C762.309 232.491 762.653 232.091 763.093 231.804C763.537 231.514 764.054 231.369 764.645 231.369C764.985 231.369 765.322 231.426 765.654 231.54C765.987 231.653 766.289 231.838 766.562 232.094C766.835 232.347 767.052 232.682 767.214 233.099C767.376 233.517 767.457 234.031 767.457 234.642V235.068H762.412V234.199H766.434C766.434 233.83 766.36 233.5 766.213 233.21C766.068 232.92 765.86 232.692 765.591 232.524C765.324 232.357 765.008 232.273 764.645 232.273C764.244 232.273 763.897 232.372 763.605 232.571C763.315 232.767 763.092 233.023 762.936 233.338C762.779 233.653 762.701 233.991 762.701 234.352V234.932C762.701 235.426 762.787 235.845 762.957 236.189C763.13 236.53 763.37 236.79 763.677 236.969C763.984 237.145 764.341 237.233 764.747 237.233C765.011 237.233 765.25 237.196 765.463 237.122C765.679 237.045 765.865 236.932 766.021 236.781C766.177 236.628 766.298 236.437 766.383 236.21L767.355 236.483C767.252 236.812 767.081 237.102 766.839 237.352C766.598 237.599 766.299 237.793 765.944 237.932C765.589 238.068 765.19 238.136 764.747 238.136Z" fill="black"/>
<path d="M700.83 287.455C700.778 287.023 700.571 286.688 700.207 286.449C699.844 286.21 699.398 286.091 698.869 286.091C698.483 286.091 698.145 286.153 697.855 286.278C697.568 286.403 697.344 286.575 697.182 286.794C697.023 287.013 696.943 287.261 696.943 287.54C696.943 287.773 696.999 287.973 697.109 288.141C697.223 288.305 697.368 288.443 697.544 288.554C697.72 288.662 697.905 288.751 698.098 288.822C698.291 288.891 698.469 288.946 698.631 288.989L699.517 289.227C699.744 289.287 699.997 289.369 700.276 289.474C700.557 289.58 700.825 289.723 701.081 289.905C701.339 290.084 701.553 290.314 701.72 290.595C701.888 290.876 701.972 291.222 701.972 291.631C701.972 292.102 701.848 292.528 701.601 292.909C701.357 293.29 700.999 293.592 700.527 293.817C700.058 294.041 699.489 294.153 698.818 294.153C698.193 294.153 697.652 294.053 697.195 293.851C696.74 293.649 696.382 293.368 696.121 293.007C695.862 292.646 695.716 292.227 695.682 291.75H696.773C696.801 292.08 696.912 292.352 697.105 292.568C697.301 292.781 697.548 292.94 697.847 293.045C698.148 293.148 698.472 293.199 698.818 293.199C699.222 293.199 699.584 293.134 699.905 293.003C700.226 292.869 700.48 292.685 700.668 292.449C700.855 292.21 700.949 291.932 700.949 291.614C700.949 291.324 700.868 291.088 700.706 290.906C700.544 290.724 700.331 290.577 700.067 290.463C699.803 290.349 699.517 290.25 699.21 290.165L698.136 289.858C697.455 289.662 696.915 289.382 696.517 289.018C696.119 288.655 695.92 288.179 695.92 287.591C695.92 287.102 696.053 286.676 696.317 286.312C696.584 285.946 696.942 285.662 697.391 285.46C697.842 285.256 698.347 285.153 698.903 285.153C699.466 285.153 699.966 285.254 700.403 285.456C700.841 285.655 701.188 285.928 701.443 286.274C701.702 286.621 701.838 287.014 701.852 287.455H700.83ZM707.698 291.324V287.455H708.703V294H707.698V292.892H707.63C707.476 293.224 707.238 293.507 706.914 293.74C706.59 293.97 706.181 294.085 705.686 294.085C705.277 294.085 704.914 293.996 704.596 293.817C704.277 293.635 704.027 293.362 703.846 292.999C703.664 292.632 703.573 292.17 703.573 291.614V287.455H704.578V291.545C704.578 292.023 704.712 292.403 704.979 292.688C705.249 292.972 705.593 293.114 706.01 293.114C706.26 293.114 706.515 293.05 706.773 292.922C707.034 292.794 707.253 292.598 707.429 292.334C707.608 292.07 707.698 291.733 707.698 291.324ZM710.545 296.455V287.455H711.517V288.494H711.636C711.71 288.381 711.813 288.236 711.943 288.06C712.077 287.881 712.267 287.722 712.514 287.582C712.764 287.44 713.102 287.369 713.528 287.369C714.08 287.369 714.565 287.507 714.986 287.783C715.406 288.058 715.734 288.449 715.97 288.955C716.206 289.46 716.324 290.057 716.324 290.744C716.324 291.438 716.206 292.038 715.97 292.547C715.734 293.053 715.408 293.445 714.99 293.723C714.572 293.999 714.091 294.136 713.545 294.136C713.125 294.136 712.788 294.067 712.536 293.928C712.283 293.786 712.088 293.625 711.952 293.446C711.815 293.264 711.71 293.114 711.636 292.994H711.551V296.455H710.545ZM711.534 290.727C711.534 291.222 711.607 291.658 711.751 292.036C711.896 292.411 712.108 292.705 712.386 292.918C712.665 293.128 713.006 293.233 713.409 293.233C713.83 293.233 714.18 293.122 714.462 292.901C714.746 292.676 714.959 292.375 715.101 291.997C715.246 291.616 715.318 291.193 715.318 290.727C715.318 290.267 715.247 289.852 715.105 289.483C714.966 289.111 714.754 288.817 714.47 288.601C714.189 288.382 713.835 288.273 713.409 288.273C713 288.273 712.656 288.376 712.378 288.584C712.099 288.788 711.889 289.075 711.747 289.445C711.605 289.811 711.534 290.239 711.534 290.727ZM717.858 296.455V287.455H718.83V288.494H718.949C719.023 288.381 719.125 288.236 719.256 288.06C719.389 287.881 719.58 287.722 719.827 287.582C720.077 287.44 720.415 287.369 720.841 287.369C721.392 287.369 721.878 287.507 722.298 287.783C722.719 288.058 723.047 288.449 723.283 288.955C723.518 289.46 723.636 290.057 723.636 290.744C723.636 291.438 723.518 292.038 723.283 292.547C723.047 293.053 722.72 293.445 722.303 293.723C721.885 293.999 721.403 294.136 720.858 294.136C720.438 294.136 720.101 294.067 719.848 293.928C719.595 293.786 719.401 293.625 719.264 293.446C719.128 293.264 719.023 293.114 718.949 292.994H718.864V296.455H717.858ZM718.847 290.727C718.847 291.222 718.919 291.658 719.064 292.036C719.209 292.411 719.42 292.705 719.699 292.918C719.977 293.128 720.318 293.233 720.722 293.233C721.142 293.233 721.493 293.122 721.774 292.901C722.058 292.676 722.271 292.375 722.413 291.997C722.558 291.616 722.631 291.193 722.631 290.727C722.631 290.267 722.56 289.852 722.418 289.483C722.278 289.111 722.067 288.817 721.783 288.601C721.501 288.382 721.148 288.273 720.722 288.273C720.313 288.273 719.969 288.376 719.69 288.584C719.412 288.788 719.202 289.075 719.06 289.445C718.918 289.811 718.847 290.239 718.847 290.727ZM727.83 294.136C727.239 294.136 726.72 293.996 726.274 293.714C725.831 293.433 725.484 293.04 725.234 292.534C724.987 292.028 724.864 291.437 724.864 290.761C724.864 290.08 724.987 289.484 725.234 288.976C725.484 288.467 725.831 288.072 726.274 287.791C726.72 287.51 727.239 287.369 727.83 287.369C728.42 287.369 728.938 287.51 729.381 287.791C729.827 288.072 730.173 288.467 730.42 288.976C730.67 289.484 730.795 290.08 730.795 290.761C730.795 291.437 730.67 292.028 730.42 292.534C730.173 293.04 729.827 293.433 729.381 293.714C728.938 293.996 728.42 294.136 727.83 294.136ZM727.83 293.233C728.278 293.233 728.648 293.118 728.938 292.888C729.227 292.658 729.442 292.355 729.581 291.98C729.72 291.605 729.79 291.199 729.79 290.761C729.79 290.324 729.72 289.916 729.581 289.538C729.442 289.161 729.227 288.855 728.938 288.622C728.648 288.389 728.278 288.273 727.83 288.273C727.381 288.273 727.011 288.389 726.722 288.622C726.432 288.855 726.217 289.161 726.078 289.538C725.939 289.916 725.869 290.324 725.869 290.761C725.869 291.199 725.939 291.605 726.078 291.98C726.217 292.355 726.432 292.658 726.722 292.888C727.011 293.118 727.381 293.233 727.83 293.233ZM732.331 294V287.455H733.302V288.443H733.37C733.49 288.119 733.706 287.857 734.018 287.655C734.331 287.453 734.683 287.352 735.075 287.352C735.149 287.352 735.241 287.354 735.352 287.357C735.463 287.359 735.547 287.364 735.603 287.369V288.392C735.569 288.384 735.491 288.371 735.369 288.354C735.25 288.334 735.123 288.324 734.99 288.324C734.672 288.324 734.387 288.391 734.137 288.524C733.89 288.655 733.694 288.837 733.549 289.07C733.407 289.3 733.336 289.562 733.336 289.858V294H732.331ZM740.052 287.455V288.307H736.66V287.455H740.052ZM737.649 285.886H738.654V292.125C738.654 292.409 738.696 292.622 738.778 292.764C738.863 292.903 738.971 292.997 739.102 293.045C739.235 293.091 739.376 293.114 739.524 293.114C739.635 293.114 739.725 293.108 739.797 293.097C739.868 293.082 739.924 293.071 739.967 293.062L740.172 293.966C740.103 293.991 740.008 294.017 739.886 294.043C739.764 294.071 739.609 294.085 739.422 294.085C739.137 294.085 738.859 294.024 738.586 293.902C738.316 293.78 738.092 293.594 737.913 293.344C737.737 293.094 737.649 292.778 737.649 292.398V285.886Z" fill="black"/>
<path d="M696.415 182H695.307L698.511 173.273H699.602L702.807 182H701.699L699.091 174.653H699.023L696.415 182ZM696.824 178.591H701.29V179.528H696.824V178.591ZM708.155 179.324V175.455H709.161V182H708.155V180.892H708.087C707.933 181.224 707.695 181.507 707.371 181.74C707.047 181.97 706.638 182.085 706.143 182.085C705.734 182.085 705.371 181.996 705.053 181.817C704.734 181.635 704.484 181.362 704.303 180.999C704.121 180.632 704.03 180.17 704.03 179.614V175.455H705.036V179.545C705.036 180.023 705.169 180.403 705.436 180.688C705.706 180.972 706.05 181.114 706.467 181.114C706.717 181.114 706.972 181.05 707.23 180.922C707.491 180.794 707.71 180.598 707.886 180.334C708.065 180.07 708.155 179.733 708.155 179.324ZM713.849 175.455V176.307H710.457V175.455H713.849ZM711.446 173.886H712.451V180.125C712.451 180.409 712.493 180.622 712.575 180.764C712.66 180.903 712.768 180.997 712.899 181.045C713.032 181.091 713.173 181.114 713.321 181.114C713.431 181.114 713.522 181.108 713.593 181.097C713.664 181.082 713.721 181.071 713.764 181.062L713.968 181.966C713.9 181.991 713.805 182.017 713.683 182.043C713.561 182.071 713.406 182.085 713.218 182.085C712.934 182.085 712.656 182.024 712.383 181.902C712.113 181.78 711.889 181.594 711.71 181.344C711.534 181.094 711.446 180.778 711.446 180.398V173.886ZM716.508 178.062V182H715.502V173.273H716.508V176.477H716.593C716.747 176.139 716.977 175.871 717.284 175.672C717.593 175.47 718.005 175.369 718.52 175.369C718.966 175.369 719.356 175.459 719.691 175.638C720.027 175.814 720.287 176.085 720.471 176.452C720.659 176.815 720.752 177.278 720.752 177.841V182H719.747V177.909C719.747 177.389 719.612 176.987 719.342 176.703C719.075 176.416 718.704 176.273 718.23 176.273C717.9 176.273 717.605 176.342 717.343 176.482C717.085 176.621 716.88 176.824 716.73 177.091C716.582 177.358 716.508 177.682 716.508 178.062ZM725.337 182.136C724.706 182.136 724.162 181.997 723.705 181.719C723.25 181.438 722.899 181.045 722.652 180.543C722.408 180.037 722.286 179.449 722.286 178.778C722.286 178.108 722.408 177.517 722.652 177.006C722.899 176.491 723.243 176.091 723.683 175.804C724.126 175.514 724.643 175.369 725.234 175.369C725.575 175.369 725.912 175.426 726.244 175.54C726.577 175.653 726.879 175.838 727.152 176.094C727.425 176.347 727.642 176.682 727.804 177.099C727.966 177.517 728.047 178.031 728.047 178.642V179.068H723.001V178.199H727.024C727.024 177.83 726.95 177.5 726.803 177.21C726.658 176.92 726.45 176.692 726.18 176.524C725.913 176.357 725.598 176.273 725.234 176.273C724.834 176.273 724.487 176.372 724.195 176.571C723.905 176.767 723.682 177.023 723.526 177.338C723.369 177.653 723.291 177.991 723.291 178.352V178.932C723.291 179.426 723.376 179.845 723.547 180.189C723.72 180.53 723.96 180.79 724.267 180.969C724.574 181.145 724.93 181.233 725.337 181.233C725.601 181.233 725.839 181.196 726.053 181.122C726.268 181.045 726.455 180.932 726.611 180.781C726.767 180.628 726.888 180.437 726.973 180.21L727.945 180.483C727.842 180.812 727.67 181.102 727.429 181.352C727.188 181.599 726.889 181.793 726.534 181.932C726.179 182.068 725.78 182.136 725.337 182.136ZM730.582 178.062V182H729.577V175.455H730.548V176.477H730.634C730.787 176.145 731.02 175.878 731.332 175.676C731.645 175.472 732.048 175.369 732.543 175.369C732.986 175.369 733.374 175.46 733.706 175.642C734.038 175.821 734.297 176.094 734.482 176.46C734.666 176.824 734.759 177.284 734.759 177.841V182H733.753V177.909C733.753 177.395 733.619 176.994 733.352 176.707C733.085 176.418 732.719 176.273 732.253 176.273C731.932 176.273 731.645 176.342 731.392 176.482C731.142 176.621 730.945 176.824 730.8 177.091C730.655 177.358 730.582 177.682 730.582 178.062ZM739.443 175.455V176.307H736.051V175.455H739.443ZM737.039 173.886H738.045V180.125C738.045 180.409 738.086 180.622 738.169 180.764C738.254 180.903 738.362 180.997 738.493 181.045C738.626 181.091 738.767 181.114 738.914 181.114C739.025 181.114 739.116 181.108 739.187 181.097C739.258 181.082 739.315 181.071 739.358 181.062L739.562 181.966C739.494 181.991 739.399 182.017 739.277 182.043C739.154 182.071 739 182.085 738.812 182.085C738.528 182.085 738.25 182.024 737.977 181.902C737.707 181.78 737.483 181.594 737.304 181.344C737.127 181.094 737.039 180.778 737.039 180.398V173.886ZM740.956 182V175.455H741.961V182H740.956ZM741.467 174.364C741.271 174.364 741.102 174.297 740.96 174.163C740.821 174.03 740.751 173.869 740.751 173.682C740.751 173.494 740.821 173.334 740.96 173.2C741.102 173.067 741.271 173 741.467 173C741.663 173 741.831 173.067 741.97 173.2C742.112 173.334 742.183 173.494 742.183 173.682C742.183 173.869 742.112 174.03 741.97 174.163C741.831 174.297 741.663 174.364 741.467 174.364ZM746.462 182.136C745.849 182.136 745.32 181.991 744.877 181.702C744.434 181.412 744.093 181.013 743.854 180.504C743.616 179.996 743.496 179.415 743.496 178.761C743.496 178.097 743.619 177.51 743.863 177.001C744.11 176.49 744.454 176.091 744.894 175.804C745.337 175.514 745.854 175.369 746.445 175.369C746.906 175.369 747.32 175.455 747.69 175.625C748.059 175.795 748.362 176.034 748.597 176.341C748.833 176.648 748.979 177.006 749.036 177.415H748.031C747.954 177.116 747.783 176.852 747.519 176.622C747.258 176.389 746.906 176.273 746.462 176.273C746.07 176.273 745.727 176.375 745.431 176.58C745.138 176.781 744.91 177.067 744.745 177.436C744.583 177.803 744.502 178.233 744.502 178.727C744.502 179.233 744.582 179.673 744.741 180.048C744.903 180.423 745.13 180.714 745.423 180.922C745.718 181.129 746.065 181.233 746.462 181.233C746.724 181.233 746.961 181.188 747.174 181.097C747.387 181.006 747.567 180.875 747.715 180.705C747.863 180.534 747.968 180.33 748.031 180.091H749.036C748.979 180.477 748.839 180.825 748.614 181.135C748.393 181.442 748.099 181.686 747.732 181.868C747.369 182.047 746.945 182.136 746.462 182.136ZM752.433 182.153C752.018 182.153 751.641 182.075 751.303 181.919C750.965 181.76 750.697 181.531 750.498 181.233C750.299 180.932 750.2 180.568 750.2 180.142C750.2 179.767 750.273 179.463 750.421 179.23C750.569 178.994 750.766 178.81 751.013 178.676C751.261 178.543 751.533 178.443 751.832 178.378C752.133 178.31 752.435 178.256 752.739 178.216C753.137 178.165 753.46 178.126 753.707 178.101C753.957 178.072 754.138 178.026 754.252 177.96C754.369 177.895 754.427 177.781 754.427 177.619V177.585C754.427 177.165 754.312 176.838 754.082 176.605C753.854 176.372 753.509 176.256 753.046 176.256C752.566 176.256 752.19 176.361 751.917 176.571C751.644 176.781 751.452 177.006 751.342 177.244L750.387 176.903C750.558 176.506 750.785 176.196 751.069 175.974C751.356 175.75 751.668 175.594 752.006 175.506C752.347 175.415 752.683 175.369 753.012 175.369C753.222 175.369 753.464 175.395 753.737 175.446C754.012 175.494 754.278 175.595 754.533 175.749C754.792 175.902 755.006 176.134 755.177 176.443C755.347 176.753 755.433 177.168 755.433 177.688V182H754.427V181.114H754.376C754.308 181.256 754.194 181.408 754.035 181.57C753.876 181.732 753.664 181.869 753.4 181.983C753.136 182.097 752.813 182.153 752.433 182.153ZM752.586 181.25C752.984 181.25 753.319 181.172 753.592 181.016C753.867 180.859 754.075 180.658 754.214 180.411C754.356 180.163 754.427 179.903 754.427 179.631V178.71C754.384 178.761 754.29 178.808 754.146 178.851C754.004 178.891 753.839 178.926 753.651 178.957C753.467 178.986 753.286 179.011 753.11 179.034C752.937 179.054 752.796 179.071 752.688 179.085C752.427 179.119 752.183 179.175 751.955 179.251C751.731 179.325 751.549 179.437 751.41 179.588C751.273 179.736 751.205 179.937 751.205 180.193C751.205 180.543 751.335 180.807 751.593 180.986C751.854 181.162 752.185 181.25 752.586 181.25ZM760.115 175.455V176.307H756.723V175.455H760.115ZM757.711 173.886H758.717V180.125C758.717 180.409 758.758 180.622 758.841 180.764C758.926 180.903 759.034 180.997 759.164 181.045C759.298 181.091 759.439 181.114 759.586 181.114C759.697 181.114 759.788 181.108 759.859 181.097C759.93 181.082 759.987 181.071 760.029 181.062L760.234 181.966C760.166 181.991 760.071 182.017 759.949 182.043C759.826 182.071 759.672 182.085 759.484 182.085C759.2 182.085 758.922 182.024 758.649 181.902C758.379 181.78 758.154 181.594 757.975 181.344C757.799 181.094 757.711 180.778 757.711 180.398V173.886ZM761.627 182V175.455H762.633V182H761.627ZM762.139 174.364C761.943 174.364 761.774 174.297 761.632 174.163C761.493 174.03 761.423 173.869 761.423 173.682C761.423 173.494 761.493 173.334 761.632 173.2C761.774 173.067 761.943 173 762.139 173C762.335 173 762.502 173.067 762.642 173.2C762.784 173.334 762.855 173.494 762.855 173.682C762.855 173.869 762.784 174.03 762.642 174.163C762.502 174.297 762.335 174.364 762.139 174.364ZM767.134 182.136C766.543 182.136 766.025 181.996 765.579 181.714C765.136 181.433 764.789 181.04 764.539 180.534C764.292 180.028 764.168 179.437 764.168 178.761C764.168 178.08 764.292 177.484 764.539 176.976C764.789 176.467 765.136 176.072 765.579 175.791C766.025 175.51 766.543 175.369 767.134 175.369C767.725 175.369 768.242 175.51 768.685 175.791C769.131 176.072 769.478 176.467 769.725 176.976C769.975 177.484 770.1 178.08 770.1 178.761C770.1 179.437 769.975 180.028 769.725 180.534C769.478 181.04 769.131 181.433 768.685 181.714C768.242 181.996 767.725 182.136 767.134 182.136ZM767.134 181.233C767.583 181.233 767.952 181.118 768.242 180.888C768.532 180.658 768.746 180.355 768.886 179.98C769.025 179.605 769.094 179.199 769.094 178.761C769.094 178.324 769.025 177.916 768.886 177.538C768.746 177.161 768.532 176.855 768.242 176.622C767.952 176.389 767.583 176.273 767.134 176.273C766.685 176.273 766.316 176.389 766.026 176.622C765.737 176.855 765.522 177.161 765.383 177.538C765.244 177.916 765.174 178.324 765.174 178.761C765.174 179.199 765.244 179.605 765.383 179.98C765.522 180.355 765.737 180.658 766.026 180.888C766.316 181.118 766.685 181.233 767.134 181.233ZM772.641 178.062V182H771.635V175.455H772.607V176.477H772.692C772.846 176.145 773.078 175.878 773.391 175.676C773.703 175.472 774.107 175.369 774.601 175.369C775.044 175.369 775.432 175.46 775.765 175.642C776.097 175.821 776.355 176.094 776.54 176.46C776.725 176.824 776.817 177.284 776.817 177.841V182H775.811V177.909C775.811 177.395 775.678 176.994 775.411 176.707C775.144 176.418 774.777 176.273 774.311 176.273C773.99 176.273 773.703 176.342 773.451 176.482C773.201 176.621 773.003 176.824 772.858 177.091C772.713 177.358 772.641 177.682 772.641 178.062Z" fill="black"/>
<path d="M700.75 350H698.057V341.273H700.869C701.716 341.273 702.44 341.447 703.043 341.797C703.645 342.143 704.107 342.642 704.428 343.293C704.749 343.94 704.909 344.716 704.909 345.619C704.909 346.528 704.747 347.311 704.423 347.967C704.099 348.621 703.628 349.124 703.009 349.476C702.389 349.825 701.636 350 700.75 350ZM699.114 349.062H700.682C701.403 349.062 702.001 348.923 702.476 348.645C702.95 348.366 703.304 347.97 703.537 347.456C703.77 346.942 703.886 346.33 703.886 345.619C703.886 344.915 703.771 344.308 703.541 343.8C703.311 343.288 702.967 342.896 702.51 342.624C702.053 342.348 701.483 342.21 700.801 342.21H699.114V349.062ZM708.472 350.153C708.057 350.153 707.68 350.075 707.342 349.919C707.004 349.76 706.736 349.531 706.537 349.233C706.338 348.932 706.239 348.568 706.239 348.142C706.239 347.767 706.313 347.463 706.46 347.23C706.608 346.994 706.805 346.81 707.053 346.676C707.3 346.543 707.572 346.443 707.871 346.378C708.172 346.31 708.474 346.256 708.778 346.216C709.176 346.165 709.499 346.126 709.746 346.101C709.996 346.072 710.178 346.026 710.291 345.96C710.408 345.895 710.466 345.781 710.466 345.619V345.585C710.466 345.165 710.351 344.838 710.121 344.605C709.893 344.372 709.548 344.256 709.085 344.256C708.605 344.256 708.229 344.361 707.956 344.571C707.683 344.781 707.491 345.006 707.381 345.244L706.426 344.903C706.597 344.506 706.824 344.196 707.108 343.974C707.395 343.75 707.707 343.594 708.045 343.506C708.386 343.415 708.722 343.369 709.051 343.369C709.261 343.369 709.503 343.395 709.776 343.446C710.051 343.494 710.317 343.595 710.572 343.749C710.831 343.902 711.045 344.134 711.216 344.443C711.386 344.753 711.472 345.168 711.472 345.688V350H710.466V349.114H710.415C710.347 349.256 710.233 349.408 710.074 349.57C709.915 349.732 709.703 349.869 709.439 349.983C709.175 350.097 708.852 350.153 708.472 350.153ZM708.625 349.25C709.023 349.25 709.358 349.172 709.631 349.016C709.906 348.859 710.114 348.658 710.253 348.411C710.395 348.163 710.466 347.903 710.466 347.631V346.71C710.423 346.761 710.33 346.808 710.185 346.851C710.043 346.891 709.878 346.926 709.69 346.957C709.506 346.986 709.325 347.011 709.149 347.034C708.976 347.054 708.835 347.071 708.727 347.085C708.466 347.119 708.222 347.175 707.994 347.251C707.77 347.325 707.588 347.437 707.449 347.588C707.313 347.736 707.244 347.937 707.244 348.193C707.244 348.543 707.374 348.807 707.632 348.986C707.893 349.162 708.224 349.25 708.625 349.25ZM716.154 343.455V344.307H712.762V343.455H716.154ZM713.75 341.886H714.756V348.125C714.756 348.409 714.797 348.622 714.88 348.764C714.965 348.903 715.073 348.997 715.203 349.045C715.337 349.091 715.478 349.114 715.625 349.114C715.736 349.114 715.827 349.108 715.898 349.097C715.969 349.082 716.026 349.071 716.069 349.062L716.273 349.966C716.205 349.991 716.11 350.017 715.988 350.043C715.865 350.071 715.711 350.085 715.523 350.085C715.239 350.085 714.961 350.024 714.688 349.902C714.418 349.78 714.194 349.594 714.015 349.344C713.838 349.094 713.75 348.778 713.75 348.398V341.886ZM719.593 350.153C719.178 350.153 718.801 350.075 718.463 349.919C718.125 349.76 717.857 349.531 717.658 349.233C717.459 348.932 717.36 348.568 717.36 348.142C717.36 347.767 717.434 347.463 717.581 347.23C717.729 346.994 717.926 346.81 718.174 346.676C718.421 346.543 718.694 346.443 718.992 346.378C719.293 346.31 719.596 346.256 719.9 346.216C720.297 346.165 720.62 346.126 720.867 346.101C721.117 346.072 721.299 346.026 721.412 345.96C721.529 345.895 721.587 345.781 721.587 345.619V345.585C721.587 345.165 721.472 344.838 721.242 344.605C721.015 344.372 720.669 344.256 720.206 344.256C719.726 344.256 719.35 344.361 719.077 344.571C718.804 344.781 718.613 345.006 718.502 345.244L717.547 344.903C717.718 344.506 717.945 344.196 718.229 343.974C718.516 343.75 718.828 343.594 719.167 343.506C719.507 343.415 719.843 343.369 720.172 343.369C720.382 343.369 720.624 343.395 720.897 343.446C721.172 343.494 721.438 343.595 721.694 343.749C721.952 343.902 722.167 344.134 722.337 344.443C722.507 344.753 722.593 345.168 722.593 345.688V350H721.587V349.114H721.536C721.468 349.256 721.354 349.408 721.195 349.57C721.036 349.732 720.824 349.869 720.56 349.983C720.296 350.097 719.973 350.153 719.593 350.153ZM719.746 349.25C720.144 349.25 720.479 349.172 720.752 349.016C721.027 348.859 721.235 348.658 721.374 348.411C721.516 348.163 721.587 347.903 721.587 347.631V346.71C721.544 346.761 721.451 346.808 721.306 346.851C721.164 346.891 720.999 346.926 720.811 346.957C720.627 346.986 720.446 347.011 720.27 347.034C720.097 347.054 719.956 347.071 719.848 347.085C719.587 347.119 719.343 347.175 719.115 347.251C718.891 347.325 718.709 347.437 718.57 347.588C718.434 347.736 718.365 347.937 718.365 348.193C718.365 348.543 718.495 348.807 718.753 348.986C719.015 349.162 719.346 349.25 719.746 349.25Z" fill="black"/>
<circle cx="794.5" cy="178.5" r="3.5" fill="#C92027"/>
<circle cx="794.5" cy="237.5" r="3.5" fill="#333333"/>
<circle cx="794.5" cy="290.5" r="3.5" fill="#C92027"/>
<circle cx="794.5" cy="346.5" r="3.5" fill="#333333"/>
<path d="M793 179L817.189 198.478C819.747 200.538 821.753 203.202 823.025 206.231V206.231C827.378 216.593 822.24 228.496 811.714 232.437L796.855 238" stroke="black"/>
<path d="M794 238L817.796 255.678C820.126 257.409 821.979 259.702 823.181 262.343V262.343C827.374 271.553 822.73 282.373 813.165 285.677L797.754 291" stroke="black"/>
<path d="M794 290L818.189 309.478C820.747 311.538 822.753 314.202 824.025 317.231V317.231C828.378 327.593 823.24 339.496 812.714 343.437L797.855 349" stroke="black"/>
<path d="M1231.5 494.5L1339.5 496.5L1330.5 508.5L1306 510.5H1282H1233L1227 505.5L1231.5 494.5Z" fill="#C92027"/>
<path d="M1279.5 510.5H1301.5L1305.5 520L1302.5 528.5H1279.5L1281.5 522L1283.5 516L1279.5 510.5Z" fill="#C92027"/>
<path d="M627.5 122L662 87L663.5 408H627.5V122Z" fill="#C92027"/>
<rect x="1184.5" y="555.5" width="223" height="56" fill="white" stroke="black"/>
<path d="M1257.93 576H1254.41C1254.2 574.987 1253.84 574.097 1253.32 573.33C1252.8 572.562 1252.18 571.919 1251.44 571.398C1250.71 570.867 1249.9 570.47 1249.01 570.205C1248.12 569.939 1247.19 569.807 1246.23 569.807C1244.47 569.807 1242.87 570.252 1241.44 571.142C1240.02 572.032 1238.89 573.344 1238.05 575.077C1237.21 576.81 1236.8 578.936 1236.8 581.455C1236.8 583.973 1237.21 586.099 1238.05 587.832C1238.89 589.565 1240.02 590.877 1241.44 591.767C1242.87 592.657 1244.47 593.102 1246.23 593.102C1247.19 593.102 1248.12 592.97 1249.01 592.705C1249.9 592.439 1250.71 592.046 1251.44 591.526C1252.18 590.995 1252.8 590.347 1253.32 589.58C1253.84 588.803 1254.2 587.913 1254.41 586.909H1257.93C1257.67 588.396 1257.18 589.726 1256.48 590.901C1255.78 592.075 1254.91 593.074 1253.87 593.898C1252.83 594.712 1251.66 595.332 1250.36 595.759C1249.07 596.185 1247.7 596.398 1246.23 596.398C1243.75 596.398 1241.54 595.792 1239.61 594.58C1237.68 593.367 1236.16 591.644 1235.05 589.409C1233.94 587.174 1233.39 584.523 1233.39 581.455C1233.39 578.386 1233.94 575.735 1235.05 573.5C1236.16 571.265 1237.68 569.542 1239.61 568.33C1241.54 567.117 1243.75 566.511 1246.23 566.511C1247.7 566.511 1249.07 566.724 1250.36 567.151C1251.66 567.577 1252.83 568.202 1253.87 569.026C1254.91 569.84 1255.78 570.834 1256.48 572.009C1257.18 573.173 1257.67 574.504 1257.93 576ZM1266.52 566.909V596H1263.17V566.909H1266.52ZM1272.66 596V574.182H1276.01V596H1272.66ZM1274.37 570.545C1273.71 570.545 1273.15 570.323 1272.68 569.878C1272.21 569.433 1271.98 568.898 1271.98 568.273C1271.98 567.648 1272.21 567.113 1272.68 566.668C1273.15 566.223 1273.71 566 1274.37 566C1275.02 566 1275.58 566.223 1276.04 566.668C1276.52 567.113 1276.75 567.648 1276.75 568.273C1276.75 568.898 1276.52 569.433 1276.04 569.878C1275.58 570.323 1275.02 570.545 1274.37 570.545ZM1291.3 596.455C1289.2 596.455 1287.39 595.991 1285.86 595.062C1284.35 594.125 1283.18 592.818 1282.35 591.142C1281.54 589.456 1281.13 587.496 1281.13 585.261C1281.13 583.027 1281.54 581.057 1282.35 579.352C1283.18 577.638 1284.32 576.303 1285.79 575.347C1287.27 574.381 1288.99 573.898 1290.96 573.898C1292.1 573.898 1293.22 574.087 1294.33 574.466C1295.44 574.845 1296.44 575.46 1297.35 576.312C1298.26 577.155 1298.99 578.273 1299.53 579.665C1300.07 581.057 1300.34 582.771 1300.34 584.807V586.227H1283.52V583.33H1296.93C1296.93 582.098 1296.68 581 1296.19 580.034C1295.71 579.068 1295.01 578.306 1294.11 577.747C1293.22 577.188 1292.17 576.909 1290.96 576.909C1289.63 576.909 1288.47 577.241 1287.5 577.903C1286.53 578.557 1285.79 579.409 1285.26 580.46C1284.74 581.511 1284.48 582.638 1284.48 583.841V585.773C1284.48 587.42 1284.77 588.817 1285.34 589.963C1285.91 591.099 1286.71 591.966 1287.74 592.562C1288.76 593.15 1289.95 593.443 1291.3 593.443C1292.18 593.443 1292.98 593.32 1293.69 593.074C1294.41 592.818 1295.03 592.439 1295.55 591.938C1296.07 591.426 1296.47 590.792 1296.76 590.034L1300 590.943C1299.65 592.042 1299.08 593.008 1298.28 593.841C1297.47 594.665 1296.48 595.309 1295.29 595.773C1294.11 596.227 1292.78 596.455 1291.3 596.455ZM1308.79 582.875V596H1305.44V574.182H1308.67V577.591H1308.96C1309.47 576.483 1310.25 575.593 1311.29 574.92C1312.33 574.239 1313.67 573.898 1315.32 573.898C1316.8 573.898 1318.09 574.201 1319.2 574.807C1320.31 575.403 1321.17 576.312 1321.78 577.534C1322.4 578.746 1322.71 580.28 1322.71 582.136V596H1319.36V582.364C1319.36 580.65 1318.91 579.314 1318.02 578.358C1317.13 577.392 1315.91 576.909 1314.36 576.909C1313.29 576.909 1312.33 577.141 1311.49 577.605C1310.65 578.069 1310 578.746 1309.51 579.636C1309.03 580.527 1308.79 581.606 1308.79 582.875ZM1338.32 574.182V577.023H1327.02V574.182H1338.32ZM1330.31 568.955H1333.66V589.75C1333.66 590.697 1333.8 591.407 1334.08 591.881C1334.36 592.345 1334.72 592.657 1335.15 592.818C1335.6 592.97 1336.07 593.045 1336.56 593.045C1336.93 593.045 1337.23 593.027 1337.47 592.989C1337.71 592.941 1337.9 592.903 1338.04 592.875L1338.72 595.886C1338.49 595.972 1338.18 596.057 1337.77 596.142C1337.36 596.237 1336.85 596.284 1336.22 596.284C1335.27 596.284 1334.35 596.08 1333.44 595.673C1332.54 595.266 1331.79 594.646 1331.19 593.812C1330.6 592.979 1330.31 591.928 1330.31 590.659V568.955ZM1358.43 579.068L1355.42 579.92C1355.23 579.419 1354.95 578.931 1354.58 578.457C1354.22 577.974 1353.73 577.577 1353.1 577.264C1352.48 576.952 1351.68 576.795 1350.7 576.795C1349.37 576.795 1348.25 577.103 1347.36 577.719C1346.48 578.325 1346.04 579.097 1346.04 580.034C1346.04 580.867 1346.35 581.526 1346.95 582.009C1347.56 582.491 1348.5 582.894 1349.79 583.216L1353.03 584.011C1354.98 584.485 1356.44 585.209 1357.39 586.185C1358.35 587.151 1358.83 588.396 1358.83 589.92C1358.83 591.17 1358.47 592.288 1357.75 593.273C1357.04 594.258 1356.04 595.034 1354.76 595.602C1353.49 596.17 1352 596.455 1350.3 596.455C1348.08 596.455 1346.24 595.972 1344.78 595.006C1343.32 594.04 1342.4 592.629 1342.01 590.773L1345.19 589.977C1345.49 591.152 1346.07 592.032 1346.91 592.619C1347.76 593.206 1348.87 593.5 1350.25 593.5C1351.81 593.5 1353.05 593.169 1353.97 592.506C1354.9 591.833 1355.36 591.028 1355.36 590.091C1355.36 589.333 1355.1 588.699 1354.57 588.188C1354.04 587.667 1353.22 587.278 1352.12 587.023L1348.49 586.17C1346.49 585.697 1345.02 584.963 1344.08 583.969C1343.15 582.965 1342.69 581.71 1342.69 580.205C1342.69 578.973 1343.04 577.884 1343.73 576.938C1344.43 575.991 1345.38 575.247 1346.58 574.707C1347.79 574.168 1349.17 573.898 1350.7 573.898C1352.86 573.898 1354.56 574.371 1355.79 575.318C1357.03 576.265 1357.91 577.515 1358.43 579.068Z" fill="black"/>
<rect x="0.5" y="454.5" width="223" height="56" fill="white" stroke="black"/>
<path d="M50.5227 495V465.909H54.0455V491.875H67.5682V495H50.5227ZM81.4318 495.455C79.4621 495.455 77.7339 494.986 76.2472 494.048C74.7699 493.111 73.6146 491.799 72.7812 490.114C71.9574 488.428 71.5455 486.458 71.5455 484.205C71.5455 481.932 71.9574 479.948 72.7812 478.253C73.6146 476.558 74.7699 475.241 76.2472 474.304C77.7339 473.366 79.4621 472.898 81.4318 472.898C83.4015 472.898 85.125 473.366 86.6023 474.304C88.089 475.241 89.2443 476.558 90.0682 478.253C90.9015 479.948 91.3182 481.932 91.3182 484.205C91.3182 486.458 90.9015 488.428 90.0682 490.114C89.2443 491.799 88.089 493.111 86.6023 494.048C85.125 494.986 83.4015 495.455 81.4318 495.455ZM81.4318 492.443C82.928 492.443 84.1591 492.06 85.125 491.293C86.0909 490.526 86.8059 489.517 87.2699 488.267C87.7339 487.017 87.9659 485.663 87.9659 484.205C87.9659 482.746 87.7339 481.387 87.2699 480.128C86.8059 478.868 86.0909 477.85 85.125 477.074C84.1591 476.297 82.928 475.909 81.4318 475.909C79.9356 475.909 78.7045 476.297 77.7386 477.074C76.7727 477.85 76.0578 478.868 75.5938 480.128C75.1297 481.387 74.8977 482.746 74.8977 484.205C74.8977 485.663 75.1297 487.017 75.5938 488.267C76.0578 489.517 76.7727 490.526 77.7386 491.293C78.7045 492.06 79.9356 492.443 81.4318 492.443ZM105.299 495.455C103.254 495.455 101.492 494.972 100.015 494.006C98.5376 493.04 97.4013 491.709 96.6058 490.014C95.8104 488.319 95.4126 486.383 95.4126 484.205C95.4126 481.989 95.8198 480.033 96.6342 478.338C97.4581 476.634 98.6039 475.303 100.072 474.347C101.549 473.381 103.272 472.898 105.242 472.898C106.776 472.898 108.159 473.182 109.39 473.75C110.621 474.318 111.629 475.114 112.415 476.136C113.201 477.159 113.689 478.352 113.879 479.716H110.526C110.271 478.722 109.702 477.841 108.822 477.074C107.951 476.297 106.776 475.909 105.299 475.909C103.992 475.909 102.846 476.25 101.862 476.932C100.886 477.604 100.124 478.556 99.5746 479.787C99.0348 481.009 98.7649 482.443 98.7649 484.091C98.7649 485.777 99.0301 487.244 99.5604 488.494C100.1 489.744 100.858 490.715 101.833 491.406C102.818 492.098 103.973 492.443 105.299 492.443C106.17 492.443 106.961 492.292 107.671 491.989C108.381 491.686 108.983 491.25 109.475 490.682C109.968 490.114 110.318 489.432 110.526 488.636H113.879C113.689 489.924 113.22 491.084 112.472 492.116C111.734 493.139 110.754 493.954 109.532 494.56C108.32 495.156 106.909 495.455 105.299 495.455ZM121.904 487.045L121.847 482.898H122.529L132.075 473.182H136.222L126.052 483.466H125.768L121.904 487.045ZM118.779 495V465.909H122.131V495H118.779ZM132.643 495L124.12 484.205L126.506 481.875L136.904 495H132.643ZM148.786 495.455C146.684 495.455 144.871 494.991 143.346 494.062C141.831 493.125 140.661 491.818 139.837 490.142C139.023 488.456 138.616 486.496 138.616 484.261C138.616 482.027 139.023 480.057 139.837 478.352C140.661 476.638 141.807 475.303 143.275 474.347C144.752 473.381 146.476 472.898 148.445 472.898C149.582 472.898 150.704 473.087 151.812 473.466C152.92 473.845 153.928 474.46 154.837 475.312C155.746 476.155 156.471 477.273 157.011 478.665C157.55 480.057 157.82 481.771 157.82 483.807V485.227H141.002V482.33H154.411C154.411 481.098 154.165 480 153.673 479.034C153.19 478.068 152.498 477.306 151.599 476.747C150.709 476.188 149.657 475.909 148.445 475.909C147.11 475.909 145.955 476.241 144.979 476.903C144.013 477.557 143.27 478.409 142.749 479.46C142.228 480.511 141.968 481.638 141.968 482.841V484.773C141.968 486.42 142.252 487.817 142.82 488.963C143.398 490.099 144.198 490.966 145.221 491.562C146.244 492.15 147.432 492.443 148.786 492.443C149.667 492.443 150.462 492.32 151.173 492.074C151.892 491.818 152.513 491.439 153.033 490.938C153.554 490.426 153.957 489.792 154.241 489.034L157.479 489.943C157.138 491.042 156.566 492.008 155.761 492.841C154.956 493.665 153.961 494.309 152.778 494.773C151.594 495.227 150.263 495.455 148.786 495.455ZM162.92 495V473.182H166.158V476.477H166.386C166.783 475.398 167.503 474.522 168.545 473.849C169.586 473.177 170.761 472.841 172.067 472.841C172.314 472.841 172.621 472.846 172.991 472.855C173.36 472.865 173.639 472.879 173.829 472.898V476.307C173.715 476.278 173.455 476.236 173.048 476.179C172.65 476.113 172.228 476.08 171.783 476.08C170.723 476.08 169.776 476.302 168.942 476.747C168.119 477.183 167.465 477.789 166.982 478.565C166.509 479.332 166.272 480.208 166.272 481.193V495H162.92ZM193.257 478.068L190.246 478.92C190.056 478.419 189.777 477.931 189.408 477.457C189.048 476.974 188.555 476.577 187.93 476.264C187.305 475.952 186.505 475.795 185.53 475.795C184.195 475.795 183.082 476.103 182.192 476.719C181.311 477.325 180.871 478.097 180.871 479.034C180.871 479.867 181.174 480.526 181.78 481.009C182.386 481.491 183.333 481.894 184.621 482.216L187.859 483.011C189.81 483.485 191.264 484.209 192.22 485.185C193.177 486.151 193.655 487.396 193.655 488.92C193.655 490.17 193.295 491.288 192.575 492.273C191.865 493.258 190.871 494.034 189.592 494.602C188.314 495.17 186.827 495.455 185.132 495.455C182.907 495.455 181.065 494.972 179.607 494.006C178.148 493.04 177.225 491.629 176.837 489.773L180.018 488.977C180.321 490.152 180.894 491.032 181.737 491.619C182.589 492.206 183.702 492.5 185.075 492.5C186.638 492.5 187.878 492.169 188.797 491.506C189.725 490.833 190.189 490.028 190.189 489.091C190.189 488.333 189.924 487.699 189.393 487.188C188.863 486.667 188.049 486.278 186.95 486.023L183.314 485.17C181.316 484.697 179.848 483.963 178.911 482.969C177.982 481.965 177.518 480.71 177.518 479.205C177.518 477.973 177.864 476.884 178.555 475.938C179.256 474.991 180.208 474.247 181.411 473.707C182.623 473.168 183.996 472.898 185.53 472.898C187.689 472.898 189.384 473.371 190.615 474.318C191.856 475.265 192.736 476.515 193.257 478.068Z" fill="black"/>
<rect x="522.5" y="438.5" width="404" height="56" fill="white" stroke="black"/>
<path d="M575.807 479L567.852 449.909H571.432L577.511 473.602H577.795L583.989 449.909H587.966L594.159 473.602H594.443L600.523 449.909H604.102L596.148 479H592.511L586.091 455.818H585.864L579.443 479H575.807ZM615.153 479.455C613.051 479.455 611.238 478.991 609.713 478.062C608.198 477.125 607.028 475.818 606.205 474.142C605.39 472.456 604.983 470.496 604.983 468.261C604.983 466.027 605.39 464.057 606.205 462.352C607.028 460.638 608.174 459.303 609.642 458.347C611.119 457.381 612.843 456.898 614.812 456.898C615.949 456.898 617.071 457.087 618.179 457.466C619.287 457.845 620.295 458.46 621.205 459.312C622.114 460.155 622.838 461.273 623.378 462.665C623.918 464.057 624.188 465.771 624.188 467.807V469.227H607.369V466.33H620.778C620.778 465.098 620.532 464 620.04 463.034C619.557 462.068 618.866 461.306 617.966 460.747C617.076 460.188 616.025 459.909 614.812 459.909C613.477 459.909 612.322 460.241 611.347 460.903C610.381 461.557 609.637 462.409 609.116 463.46C608.596 464.511 608.335 465.638 608.335 466.841V468.773C608.335 470.42 608.619 471.817 609.188 472.963C609.765 474.099 610.565 474.966 611.588 475.562C612.611 476.15 613.799 476.443 615.153 476.443C616.034 476.443 616.83 476.32 617.54 476.074C618.259 475.818 618.88 475.439 619.401 474.938C619.921 474.426 620.324 473.792 620.608 473.034L623.847 473.943C623.506 475.042 622.933 476.008 622.128 476.841C621.323 477.665 620.329 478.309 619.145 478.773C617.961 479.227 616.631 479.455 615.153 479.455ZM629.741 479V449.909H633.094V460.648H633.378C633.624 460.269 633.965 459.786 634.401 459.199C634.846 458.602 635.48 458.072 636.304 457.608C637.137 457.134 638.264 456.898 639.685 456.898C641.522 456.898 643.141 457.357 644.543 458.276C645.944 459.194 647.038 460.496 647.824 462.182C648.61 463.867 649.003 465.856 649.003 468.148C649.003 470.458 648.61 472.461 647.824 474.156C647.038 475.842 645.949 477.149 644.557 478.077C643.165 478.995 641.56 479.455 639.741 479.455C638.34 479.455 637.218 479.223 636.375 478.759C635.532 478.285 634.884 477.75 634.429 477.153C633.974 476.547 633.624 476.045 633.378 475.648H632.98V479H629.741ZM633.037 468.091C633.037 469.739 633.278 471.192 633.761 472.452C634.244 473.702 634.95 474.682 635.878 475.392C636.806 476.093 637.942 476.443 639.287 476.443C640.688 476.443 641.858 476.074 642.795 475.335C643.742 474.587 644.453 473.583 644.926 472.324C645.409 471.055 645.651 469.644 645.651 468.091C645.651 466.557 645.414 465.174 644.94 463.943C644.476 462.703 643.771 461.723 642.824 461.003C641.886 460.274 640.707 459.909 639.287 459.909C637.923 459.909 636.777 460.255 635.849 460.946C634.921 461.628 634.221 462.584 633.747 463.815C633.274 465.037 633.037 466.462 633.037 468.091ZM667.028 479H663.335L674.017 449.909H677.653L688.335 479H684.642L675.949 454.511H675.722L667.028 479ZM668.392 467.636H683.278V470.761H668.392V467.636ZM692.412 487.182V457.182H695.651V460.648H696.048C696.295 460.269 696.635 459.786 697.071 459.199C697.516 458.602 698.151 458.072 698.974 457.608C699.808 457.134 700.935 456.898 702.355 456.898C704.192 456.898 705.812 457.357 707.213 458.276C708.615 459.194 709.708 460.496 710.494 462.182C711.28 463.867 711.673 465.856 711.673 468.148C711.673 470.458 711.28 472.461 710.494 474.156C709.708 475.842 708.619 477.149 707.227 478.077C705.835 478.995 704.23 479.455 702.412 479.455C701.01 479.455 699.888 479.223 699.045 478.759C698.203 478.285 697.554 477.75 697.099 477.153C696.645 476.547 696.295 476.045 696.048 475.648H695.764V487.182H692.412ZM695.707 468.091C695.707 469.739 695.949 471.192 696.432 472.452C696.915 473.702 697.62 474.682 698.548 475.392C699.476 476.093 700.613 476.443 701.957 476.443C703.359 476.443 704.528 476.074 705.466 475.335C706.413 474.587 707.123 473.583 707.597 472.324C708.08 471.055 708.321 469.644 708.321 468.091C708.321 466.557 708.084 465.174 707.611 463.943C707.147 462.703 706.441 461.723 705.494 461.003C704.557 460.274 703.378 459.909 701.957 459.909C700.594 459.909 699.448 460.255 698.52 460.946C697.592 461.628 696.891 462.584 696.418 463.815C695.944 465.037 695.707 466.462 695.707 468.091ZM716.787 487.182V457.182H720.026V460.648H720.423C720.67 460.269 721.01 459.786 721.446 459.199C721.891 458.602 722.526 458.072 723.349 457.608C724.183 457.134 725.31 456.898 726.73 456.898C728.567 456.898 730.187 457.357 731.588 458.276C732.99 459.194 734.083 460.496 734.869 462.182C735.655 463.867 736.048 465.856 736.048 468.148C736.048 470.458 735.655 472.461 734.869 474.156C734.083 475.842 732.994 477.149 731.602 478.077C730.21 478.995 728.605 479.455 726.787 479.455C725.385 479.455 724.263 479.223 723.42 478.759C722.578 478.285 721.929 477.75 721.474 477.153C721.02 476.547 720.67 476.045 720.423 475.648H720.139V487.182H716.787ZM720.082 468.091C720.082 469.739 720.324 471.192 720.807 472.452C721.29 473.702 721.995 474.682 722.923 475.392C723.851 476.093 724.988 476.443 726.332 476.443C727.734 476.443 728.903 476.074 729.841 475.335C730.788 474.587 731.498 473.583 731.972 472.324C732.455 471.055 732.696 469.644 732.696 468.091C732.696 466.557 732.459 465.174 731.986 463.943C731.522 462.703 730.816 461.723 729.869 461.003C728.932 460.274 727.753 459.909 726.332 459.909C724.969 459.909 723.823 460.255 722.895 460.946C721.967 461.628 721.266 462.584 720.793 463.815C720.319 465.037 720.082 466.462 720.082 468.091ZM744.514 449.909V479H741.162V449.909H744.514ZM750.654 479V457.182H754.006V479H750.654ZM752.359 453.545C751.705 453.545 751.142 453.323 750.668 452.878C750.204 452.433 749.972 451.898 749.972 451.273C749.972 450.648 750.204 450.113 750.668 449.668C751.142 449.223 751.705 449 752.359 449C753.012 449 753.571 449.223 754.035 449.668C754.508 450.113 754.745 450.648 754.745 451.273C754.745 451.898 754.508 452.433 754.035 452.878C753.571 453.323 753.012 453.545 752.359 453.545ZM769.01 479.455C766.964 479.455 765.203 478.972 763.726 478.006C762.249 477.04 761.112 475.709 760.317 474.014C759.521 472.319 759.124 470.383 759.124 468.205C759.124 465.989 759.531 464.033 760.345 462.338C761.169 460.634 762.315 459.303 763.783 458.347C765.26 457.381 766.983 456.898 768.953 456.898C770.487 456.898 771.87 457.182 773.101 457.75C774.332 458.318 775.34 459.114 776.126 460.136C776.912 461.159 777.4 462.352 777.589 463.716H774.237C773.982 462.722 773.413 461.841 772.533 461.074C771.661 460.297 770.487 459.909 769.01 459.909C767.703 459.909 766.557 460.25 765.572 460.932C764.597 461.604 763.835 462.556 763.286 463.787C762.746 465.009 762.476 466.443 762.476 468.091C762.476 469.777 762.741 471.244 763.271 472.494C763.811 473.744 764.569 474.715 765.544 475.406C766.529 476.098 767.684 476.443 769.01 476.443C769.881 476.443 770.672 476.292 771.382 475.989C772.092 475.686 772.694 475.25 773.186 474.682C773.679 474.114 774.029 473.432 774.237 472.636H777.589C777.4 473.924 776.931 475.084 776.183 476.116C775.445 477.139 774.464 477.954 773.243 478.56C772.031 479.156 770.62 479.455 769.01 479.455ZM788.911 479.511C787.528 479.511 786.273 479.251 785.146 478.73C784.019 478.2 783.125 477.438 782.462 476.443C781.799 475.439 781.467 474.227 781.467 472.807C781.467 471.557 781.714 470.544 782.206 469.767C782.698 468.981 783.357 468.366 784.18 467.92C785.004 467.475 785.913 467.144 786.908 466.926C787.911 466.699 788.92 466.519 789.933 466.386C791.259 466.216 792.334 466.088 793.158 466.003C793.991 465.908 794.597 465.752 794.976 465.534C795.364 465.316 795.558 464.937 795.558 464.398V464.284C795.558 462.883 795.175 461.794 794.408 461.017C793.65 460.241 792.5 459.852 790.956 459.852C789.356 459.852 788.101 460.203 787.192 460.903C786.283 461.604 785.643 462.352 785.274 463.148L782.092 462.011C782.661 460.686 783.418 459.653 784.365 458.915C785.321 458.167 786.363 457.646 787.49 457.352C788.626 457.049 789.744 456.898 790.842 456.898C791.543 456.898 792.348 456.983 793.257 457.153C794.176 457.314 795.061 457.651 795.913 458.162C796.775 458.673 797.49 459.445 798.058 460.477C798.626 461.509 798.911 462.892 798.911 464.625V479H795.558V476.045H795.388C795.161 476.519 794.782 477.026 794.251 477.565C793.721 478.105 793.016 478.564 792.135 478.943C791.254 479.322 790.179 479.511 788.911 479.511ZM789.422 476.5C790.748 476.5 791.865 476.24 792.774 475.719C793.693 475.198 794.384 474.526 794.848 473.702C795.321 472.878 795.558 472.011 795.558 471.102V468.034C795.416 468.205 795.104 468.361 794.621 468.503C794.147 468.635 793.598 468.754 792.973 468.858C792.357 468.953 791.756 469.038 791.169 469.114C790.591 469.18 790.123 469.237 789.763 469.284C788.892 469.398 788.077 469.582 787.32 469.838C786.571 470.084 785.965 470.458 785.501 470.96C785.047 471.453 784.82 472.125 784.82 472.977C784.82 474.142 785.25 475.023 786.112 475.619C786.983 476.206 788.087 476.5 789.422 476.5ZM814.518 457.182V460.023H803.211V457.182H814.518ZM806.506 451.955H809.859V472.75C809.859 473.697 809.996 474.407 810.271 474.881C810.555 475.345 810.915 475.657 811.35 475.818C811.795 475.97 812.264 476.045 812.756 476.045C813.126 476.045 813.429 476.027 813.665 475.989C813.902 475.941 814.092 475.903 814.234 475.875L814.915 478.886C814.688 478.972 814.371 479.057 813.964 479.142C813.557 479.237 813.04 479.284 812.415 479.284C811.469 479.284 810.54 479.08 809.631 478.673C808.732 478.266 807.984 477.646 807.387 476.812C806.8 475.979 806.506 474.928 806.506 473.659V451.955ZM819.56 479V457.182H822.913V479H819.56ZM821.265 453.545C820.612 453.545 820.048 453.323 819.575 452.878C819.111 452.433 818.879 451.898 818.879 451.273C818.879 450.648 819.111 450.113 819.575 449.668C820.048 449.223 820.612 449 821.265 449C821.918 449 822.477 449.223 822.941 449.668C823.415 450.113 823.651 450.648 823.651 451.273C823.651 451.898 823.415 452.433 822.941 452.878C822.477 453.323 821.918 453.545 821.265 453.545ZM837.916 479.455C835.946 479.455 834.218 478.986 832.732 478.048C831.254 477.111 830.099 475.799 829.266 474.114C828.442 472.428 828.03 470.458 828.03 468.205C828.03 465.932 828.442 463.948 829.266 462.253C830.099 460.558 831.254 459.241 832.732 458.304C834.218 457.366 835.946 456.898 837.916 456.898C839.886 456.898 841.609 457.366 843.087 458.304C844.573 459.241 845.729 460.558 846.553 462.253C847.386 463.948 847.803 465.932 847.803 468.205C847.803 470.458 847.386 472.428 846.553 474.114C845.729 475.799 844.573 477.111 843.087 478.048C841.609 478.986 839.886 479.455 837.916 479.455ZM837.916 476.443C839.412 476.443 840.643 476.06 841.609 475.293C842.575 474.526 843.29 473.517 843.754 472.267C844.218 471.017 844.45 469.663 844.45 468.205C844.45 466.746 844.218 465.387 843.754 464.128C843.29 462.868 842.575 461.85 841.609 461.074C840.643 460.297 839.412 459.909 837.916 459.909C836.42 459.909 835.189 460.297 834.223 461.074C833.257 461.85 832.542 462.868 832.078 464.128C831.614 465.387 831.382 466.746 831.382 468.205C831.382 469.663 831.614 471.017 832.078 472.267C832.542 473.517 833.257 474.526 834.223 475.293C835.189 476.06 836.42 476.443 837.916 476.443ZM856.272 465.875V479H852.92V457.182H856.158V460.591H856.442C856.954 459.483 857.73 458.593 858.772 457.92C859.814 457.239 861.158 456.898 862.806 456.898C864.283 456.898 865.576 457.201 866.684 457.807C867.792 458.403 868.654 459.312 869.269 460.534C869.885 461.746 870.192 463.28 870.192 465.136V479H866.84V465.364C866.84 463.65 866.395 462.314 865.505 461.358C864.615 460.392 863.393 459.909 861.84 459.909C860.77 459.909 859.814 460.141 858.971 460.605C858.138 461.069 857.479 461.746 856.996 462.636C856.513 463.527 856.272 464.606 856.272 465.875ZM891.773 462.068L888.761 462.92C888.572 462.419 888.293 461.931 887.923 461.457C887.563 460.974 887.071 460.577 886.446 460.264C885.821 459.952 885.021 459.795 884.045 459.795C882.71 459.795 881.598 460.103 880.707 460.719C879.827 461.325 879.386 462.097 879.386 463.034C879.386 463.867 879.689 464.526 880.295 465.009C880.902 465.491 881.848 465.894 883.136 466.216L886.375 467.011C888.326 467.485 889.779 468.209 890.736 469.185C891.692 470.151 892.17 471.396 892.17 472.92C892.17 474.17 891.811 475.288 891.091 476.273C890.381 477.258 889.386 478.034 888.108 478.602C886.83 479.17 885.343 479.455 883.648 479.455C881.422 479.455 879.58 478.972 878.122 478.006C876.664 477.04 875.741 475.629 875.352 473.773L878.534 472.977C878.837 474.152 879.41 475.032 880.253 475.619C881.105 476.206 882.218 476.5 883.591 476.5C885.153 476.5 886.394 476.169 887.312 475.506C888.241 474.833 888.705 474.028 888.705 473.091C888.705 472.333 888.439 471.699 887.909 471.188C887.379 470.667 886.564 470.278 885.466 470.023L881.83 469.17C879.831 468.697 878.364 467.963 877.426 466.969C876.498 465.965 876.034 464.71 876.034 463.205C876.034 461.973 876.38 460.884 877.071 459.938C877.772 458.991 878.723 458.247 879.926 457.707C881.138 457.168 882.511 456.898 884.045 456.898C886.205 456.898 887.9 457.371 889.131 458.318C890.371 459.265 891.252 460.515 891.773 462.068Z" fill="black"/>
<rect x="1133.5" y="346.5" width="38" height="34" fill="white" stroke="black"/>
<path d="M1140.89 371H1139.41L1143.68 359.364H1145.14L1149.41 371H1147.93L1144.45 361.205H1144.36L1140.89 371ZM1141.43 366.455H1147.39V367.705H1141.43V366.455ZM1151.22 371V359.364H1155.15C1156.07 359.364 1156.81 359.528 1157.39 359.858C1157.98 360.184 1158.41 360.625 1158.69 361.182C1158.97 361.739 1159.11 362.36 1159.11 363.045C1159.11 363.731 1158.97 364.354 1158.69 364.915C1158.41 365.475 1157.98 365.922 1157.4 366.256C1156.82 366.585 1156.08 366.75 1155.18 366.75H1152.36V365.5H1155.13C1155.76 365.5 1156.26 365.392 1156.64 365.176C1157.02 364.96 1157.29 364.669 1157.46 364.301C1157.63 363.93 1157.72 363.511 1157.72 363.045C1157.72 362.58 1157.63 362.163 1157.46 361.795C1157.29 361.428 1157.01 361.14 1156.63 360.932C1156.25 360.72 1155.74 360.614 1155.11 360.614H1152.63V371H1151.22ZM1162.79 359.364V371H1161.38V359.364H1162.79Z" fill="black"/>
<circle r="4.5" transform="matrix(-1 0 0 1 970.5 88.5)" fill="#333333"/>
<path d="M973 87L984 83" stroke="black"/>
<rect x="984.5" y="56.5" width="38" height="34" fill="white" stroke="black"/>
<path d="M991.886 81H990.409L994.682 69.3636H996.136L1000.41 81H998.932L995.455 71.2045H995.364L991.886 81ZM992.432 76.4545H998.386V77.7045H992.432V76.4545ZM1002.22 81V69.3636H1006.15C1007.07 69.3636 1007.81 69.5284 1008.39 69.858C1008.98 70.1837 1009.41 70.625 1009.69 71.1818C1009.97 71.7386 1010.11 72.3598 1010.11 73.0455C1010.11 73.7311 1009.97 74.3542 1009.69 74.9148C1009.41 75.4754 1008.98 75.9223 1008.4 76.2557C1007.82 76.5852 1007.08 76.75 1006.18 76.75H1003.36V75.5H1006.13C1006.76 75.5 1007.26 75.392 1007.64 75.1761C1008.02 74.9602 1008.29 74.6686 1008.46 74.3011C1008.63 73.9299 1008.72 73.5114 1008.72 73.0455C1008.72 72.5795 1008.63 72.1629 1008.46 71.7955C1008.29 71.428 1008.01 71.1402 1007.63 70.9318C1007.25 70.7197 1006.74 70.6136 1006.11 70.6136H1003.63V81H1002.22ZM1013.79 69.3636V81H1012.38V69.3636H1013.79Z" fill="black"/>
<circle r="4.5" transform="matrix(-1 0 0 1 473.5 64.5)" fill="#333333"/>
<path d="M476.025 62.0194L483.485 53" stroke="black"/>
<rect x="483.5" y="26.5" width="38" height="34" fill="white" stroke="black"/>
<path d="M490.886 51H489.409L493.682 39.3636H495.136L499.409 51H497.932L494.455 41.2045H494.364L490.886 51ZM491.432 46.4545H497.386V47.7045H491.432V46.4545ZM501.222 51V39.3636H505.153C506.066 39.3636 506.813 39.5284 507.392 39.858C507.975 40.1837 508.407 40.625 508.688 41.1818C508.968 41.7386 509.108 42.3598 509.108 43.0455C509.108 43.7311 508.968 44.3542 508.688 44.9148C508.411 45.4754 507.983 45.9223 507.403 46.2557C506.824 46.5852 506.081 46.75 505.176 46.75H502.358V45.5H505.131C505.756 45.5 506.258 45.392 506.636 45.1761C507.015 44.9602 507.29 44.6686 507.46 44.3011C507.634 43.9299 507.722 43.5114 507.722 43.0455C507.722 42.5795 507.634 42.1629 507.46 41.7955C507.29 41.428 507.013 41.1402 506.631 40.9318C506.248 40.7197 505.741 40.6136 505.108 40.6136H502.631V51H501.222ZM512.787 39.3636V51H511.378V39.3636H512.787Z" fill="black"/>
<ellipse cx="265.5" cy="22.5" rx="22.5" ry="21.5" fill="#C92027"/>
<rect x="1340" y="273" width="39" height="34" fill="#C92027"/>
<path d="M982 258H996V242H982V258Z" fill="white"/>
<path d="M982 258H996V242H982V258Z" fill="white"/>
<path d="M982 258H996V242H982V258Z" stroke="black"/>
<path d="M496 374H510V358H496V374Z" fill="white"/>
<path d="M496 374H510V358H496V374Z" fill="white"/>
<path d="M496 374H510V358H496V374Z" stroke="black"/>
<circle cx="702" cy="114" r="5" fill="#C92027"/>
<path d="M322.232 408.043L61.5805 300.279L59.245 324.683L319.896 431.846L389.755 399.939V381.274L322.232 408.043Z" fill="white" stroke="#333333"/>
<path d="M52.3113 116.777L130.316 82.1541L397.844 197.564V217.184L323.306 250.075L52.3113 139.859V116.777Z" fill="white"/>
<path d="M52.3113 116.777L130.316 82.1541L397.844 197.564M52.3113 116.777L323.306 229.879L397.844 197.564M52.3113 116.777V139.859L323.306 250.075L397.844 217.184V197.564" stroke="#333333"/>
<path d="M51.1556 301.568L52.3113 141.013L188.676 195.833L323.43 251.113L397.844 218.338V380.118L323.43 412.226L116.917 325.649L51.1556 301.568Z" fill="white" stroke="#333333"/>
<g filter="url(#filter0_f_3_349)">
<path d="M311.381 307.394L271.881 291.046V334.185L311.381 350.533V307.394Z" fill="url(#paint0_linear_3_349)"/>
</g>
<path d="M324.462 252.384V411.649" stroke="#BCBDBF"/>
<path d="M266.103 227.57L261.48 385.682" stroke="#BCBDBF"/>
<path d="M210.632 204.489L206.517 363.448" stroke="#BCBDBF"/>
<path d="M156.318 182.561L151 340.813" stroke="#BCBDBF"/>
<path d="M324.462 294.508L108.359 206.797" stroke="#BCBDBF"/>
<path d="M325.04 369.525L106.626 278.351" stroke="#BCBDBF"/>
<path d="M263.791 289.892L106.626 222.954" stroke="#BCBDBF"/>
<path d="M263.791 307.203L208.321 282.967" stroke="#BCBDBF"/>
<path d="M263.791 326.823L208.321 302.587" stroke="#BCBDBF"/>
<path d="M208.321 282.967L152.851 258.731" stroke="#BCBDBF"/>
<path d="M208.321 302.587L152.851 278.351" stroke="#BCBDBF"/>
<path d="M163.252 263.348L106.626 239.111" stroke="#BCBDBF"/>
<path d="M163.252 282.967L106.626 258.731" stroke="#BCBDBF"/>
<path d="M108.541 163.074L52.3112 140.675L51.7334 301.433L104.72 320.653L108.541 163.074Z" fill="#C92027"/>
<defs>
<filter id="filter0_f_3_349" x="267.881" y="287.046" width="47.5005" height="67.4874" filterUnits="userSpaceOnUse" color-interpolation-filters="sRGB">
<feFlood flood-opacity="0" result="BackgroundImageFix"/>
<feBlend mode="normal" in="SourceGraphic" in2="BackgroundImageFix" result="shape"/>
<feGaussianBlur stdDeviation="2" result="effect1_foregroundBlur_3_349"/>
</filter>
<linearGradient id="paint0_linear_3_349" x1="291.631" y1="299.22" x2="276.388" y2="336.05" gradientUnits="userSpaceOnUse">
<stop offset="0.229167"/>
<stop offset="1"/>
</linearGradient>
</defs>
</svg>
