<svg width="1473" height="691" viewBox="0 0 1473 691" fill="none" xmlns="http://www.w3.org/2000/svg">
<circle r="4.5" transform="matrix(-1 0 0 1 1187.5 431.5)" fill="#333333"/>
<path d="M1190 430L1201 426" stroke="black"/>
<path d="M1303 526C1186.6 496.8 1181 427.5 1191 396L1223 326.5" stroke="black" stroke-width="2"/>
<path d="M214 283C465.233 -26.0526 524 106.5 568 140.5L677.992 248.416" stroke="black" stroke-width="2"/>
<path d="M808.193 253.459C1005.61 10.605 1087.15 72.3317 1121.73 99.0491L1226.5 204" stroke="black" stroke-width="2"/>
<path d="M1153.01 269.85L1147.27 274.754C1146.84 275.128 1146.28 275.333 1145.7 275.333C1144.66 275.333 1143.74 276.002 1143.41 276.992L1141.13 283.915C1140.39 286.148 1140.3 288.545 1140.86 290.828L1142.24 296.386C1143.35 300.885 1145.95 304.876 1149.62 307.71C1153.22 310.491 1157.64 312 1162.19 312H1272.08C1276.28 312 1280.38 310.772 1283.89 308.469C1288.87 305.193 1292.27 299.994 1293.27 294.114L1293.58 292.351C1294.49 287.017 1293.18 281.542 1289.95 277.197L1288.11 274.717C1286.19 272.122 1283.32 270.388 1280.12 269.892L1279.71 269.828C1273.22 268.819 1268.78 262.736 1269.79 256.245C1269.89 255.638 1269.94 255.025 1269.94 254.41V248.684C1269.94 242.612 1267.98 236.701 1264.36 231.824C1262.81 229.729 1260.97 227.859 1258.91 226.268L1258.01 225.574C1251.63 220.663 1243.81 218 1235.76 218H1232.92C1227.79 218 1222.75 219.352 1218.3 221.919L1215.78 223.377C1212.8 225.093 1210.36 227.589 1208.71 230.596L1206.82 234.035C1203.63 239.838 1196.8 242.604 1190.47 240.656C1187.67 239.796 1184.68 239.836 1181.91 240.77L1181.36 240.954C1179.31 241.644 1177.43 242.748 1175.82 244.198L1169.07 250.309C1166.94 252.235 1165.72 254.971 1165.72 257.842V260.293C1165.72 264.549 1162.27 268 1158.02 268C1156.18 268 1154.4 268.656 1153.01 269.85Z" fill="white" stroke="black"/>
<path d="M642 299L677 262.5H824.5V585.5H678.5H642V299Z" fill="white"/>
<path d="M677 262.5L642 299V585.5H678.5M677 262.5H824.5V585.5H678.5M677 262.5L678.5 585.5" stroke="black"/>
<path d="M711.5 265L714.401 254.022C715.155 251.169 716.428 248.48 718.157 246.089L719.264 244.558C722.099 240.638 726.093 237.708 730.683 236.181L731.053 236.058C733.159 235.357 735.363 235 737.582 235H738.061C742.449 235 746.707 236.494 750.132 239.237V239.237C751.977 240.713 753.535 242.516 754.729 244.555L757.211 248.795C759.365 252.473 760.5 256.659 760.5 260.921V265" stroke="black"/>
<path d="M749.5 265V254.83C749.5 251.923 749.97 249.034 750.891 246.276L752.988 239.997C754.019 236.912 755.675 234.073 757.853 231.658L757.97 231.528C761.01 228.158 764.977 225.76 769.374 224.635L770.232 224.415C773.847 223.49 777.648 223.597 781.205 224.724V224.724C784.586 225.795 787.621 227.749 789.997 230.383L791.672 232.24C795.449 236.428 797.82 241.694 798.451 247.298L799.5 256.6V265" stroke="black"/>
<path d="M809.5 277H694.5V303H809.5V277Z" stroke="black"/>
<path d="M720.986 289.729L720.658 289.238C719.935 288.152 718.716 287.5 717.412 287.5C715.934 287.5 714.582 288.335 713.921 289.657L713.569 290.361C712.714 292.071 713.46 294.149 715.207 294.925C716.034 295.293 716.974 295.311 717.814 294.974L719.575 294.27C720.738 293.805 721.5 292.679 721.5 291.427C721.5 290.823 721.321 290.232 720.986 289.729Z" stroke="black"/>
<path d="M716 296.5L720.417 308.648C722.737 315.026 727.154 320.428 732.945 323.967L733.133 324.081C738.87 327.587 745.636 329.015 752.3 328.127V328.127C760.104 327.086 767.161 322.952 771.885 316.654L772.024 316.468C775.903 311.296 778 305.005 778 298.54V293.5M778 293.5L776.401 290.701C776.138 290.242 776 289.722 776 289.192V289.192C776 287.883 776.838 286.721 778.08 286.307L778.449 286.184C778.814 286.062 779.196 286 779.581 286H779.643C780.82 286 781.935 286.523 782.689 287.426L783.312 288.175C783.757 288.708 784 289.38 784 290.074V290.074C784 290.975 783.59 291.828 782.887 292.391L782.555 292.656C781.872 293.202 781.024 293.5 780.149 293.5H778Z" stroke="black"/>
<path d="M1323 488.5L1298 555.5L1295 563.5L1301.5 569.5H1347L1350.5 574.5L1347 584.5L1338.5 587.5H1350.5H1371L1374.5 578L1371 569.5L1399.5 567L1407.5 555.5L1432.5 488.5L1427.5 483H1330.5L1323 488.5Z" fill="white"/>
<path d="M1326.5 587.5H1338.5M1338.5 587.5H1350.5H1371L1374.5 578L1371 569.5L1399.5 567L1407.5 555.5L1432.5 488.5L1427.5 483H1330.5L1323 488.5L1298 555.5L1295 563.5L1301.5 569.5H1347L1350.5 574.5L1347 584.5L1338.5 587.5Z" stroke="black" stroke-width="2"/>
<line x1="1354.56" y1="501.828" x2="1323.56" y2="522.828" stroke="black" stroke-width="2"/>
<line x1="1369.56" y1="522.828" x2="1338.56" y2="543.828" stroke="black" stroke-width="2"/>
<line x1="1378.54" y1="501.84" x2="1316.54" y2="541.84" stroke="black" stroke-width="2"/>
<rect x="694.5" y="337.5" width="114" height="34" fill="white" stroke="black"/>
<rect x="694.5" y="393.5" width="114" height="34" fill="white" stroke="black"/>
<rect x="694.5" y="449.5" width="114" height="34" fill="white" stroke="black"/>
<rect x="694.5" y="505.5" width="114" height="34" fill="white" stroke="black"/>
<path d="M711.057 406.273H712.318L715.284 413.517H715.386L718.352 406.273H719.614V415H718.625V408.369H718.54L715.812 415H714.858L712.131 408.369H712.045V415H711.057V406.273ZM723.522 415.153C723.108 415.153 722.731 415.075 722.393 414.919C722.055 414.76 721.787 414.531 721.588 414.233C721.389 413.932 721.289 413.568 721.289 413.142C721.289 412.767 721.363 412.463 721.511 412.23C721.659 411.994 721.856 411.81 722.103 411.676C722.35 411.543 722.623 411.443 722.922 411.378C723.223 411.31 723.525 411.256 723.829 411.216C724.227 411.165 724.549 411.126 724.797 411.101C725.047 411.073 725.228 411.026 725.342 410.96C725.458 410.895 725.517 410.781 725.517 410.619V410.585C725.517 410.165 725.402 409.838 725.172 409.605C724.944 409.372 724.599 409.256 724.136 409.256C723.656 409.256 723.279 409.361 723.007 409.571C722.734 409.781 722.542 410.006 722.431 410.244L721.477 409.903C721.647 409.506 721.875 409.196 722.159 408.974C722.446 408.75 722.758 408.594 723.096 408.506C723.437 408.415 723.772 408.369 724.102 408.369C724.312 408.369 724.554 408.395 724.826 408.446C725.102 408.494 725.368 408.595 725.623 408.749C725.882 408.902 726.096 409.134 726.267 409.443C726.437 409.753 726.522 410.168 726.522 410.688V415H725.517V414.114H725.466C725.397 414.256 725.284 414.408 725.125 414.57C724.966 414.732 724.754 414.869 724.49 414.983C724.225 415.097 723.903 415.153 723.522 415.153ZM723.676 414.25C724.074 414.25 724.409 414.172 724.681 414.016C724.957 413.859 725.164 413.658 725.304 413.411C725.446 413.163 725.517 412.903 725.517 412.631V411.71C725.474 411.761 725.38 411.808 725.235 411.851C725.093 411.891 724.929 411.926 724.741 411.957C724.556 411.986 724.376 412.011 724.2 412.034C724.027 412.054 723.886 412.071 723.778 412.085C723.517 412.119 723.272 412.175 723.045 412.251C722.821 412.325 722.639 412.438 722.5 412.588C722.363 412.736 722.295 412.938 722.295 413.193C722.295 413.543 722.424 413.807 722.683 413.986C722.944 414.162 723.275 414.25 723.676 414.25ZM728.358 415V408.455H729.364V415H728.358ZM728.869 407.364C728.673 407.364 728.504 407.297 728.362 407.163C728.223 407.03 728.153 406.869 728.153 406.682C728.153 406.494 728.223 406.334 728.362 406.2C728.504 406.067 728.673 406 728.869 406C729.065 406 729.233 406.067 729.372 406.2C729.514 406.334 729.585 406.494 729.585 406.682C729.585 406.869 729.514 407.03 729.372 407.163C729.233 407.297 729.065 407.364 728.869 407.364ZM732.211 411.063V415H731.206V408.455H732.177V409.477H732.262C732.416 409.145 732.649 408.878 732.961 408.676C733.274 408.472 733.677 408.369 734.172 408.369C734.615 408.369 735.002 408.46 735.335 408.642C735.667 408.821 735.926 409.094 736.11 409.46C736.295 409.824 736.387 410.284 736.387 410.841V415H735.382V410.909C735.382 410.395 735.248 409.994 734.981 409.707C734.714 409.418 734.348 409.273 733.882 409.273C733.561 409.273 733.274 409.342 733.021 409.482C732.771 409.621 732.574 409.824 732.429 410.091C732.284 410.358 732.211 410.682 732.211 411.063ZM741.072 408.455V409.307H737.68V408.455H741.072ZM738.668 406.886H739.674V413.125C739.674 413.409 739.715 413.622 739.798 413.764C739.883 413.903 739.991 413.997 740.121 414.046C740.255 414.091 740.396 414.114 740.543 414.114C740.654 414.114 740.745 414.108 740.816 414.097C740.887 414.082 740.944 414.071 740.987 414.063L741.191 414.966C741.123 414.992 741.028 415.017 740.906 415.043C740.783 415.071 740.629 415.085 740.441 415.085C740.157 415.085 739.879 415.024 739.606 414.902C739.336 414.78 739.112 414.594 738.933 414.344C738.756 414.094 738.668 413.778 738.668 413.398V406.886ZM745.259 415.136C744.628 415.136 744.084 414.997 743.626 414.719C743.172 414.438 742.821 414.046 742.574 413.543C742.33 413.037 742.207 412.449 742.207 411.778C742.207 411.108 742.33 410.517 742.574 410.006C742.821 409.492 743.165 409.091 743.605 408.804C744.048 408.514 744.565 408.369 745.156 408.369C745.497 408.369 745.834 408.426 746.166 408.54C746.499 408.653 746.801 408.838 747.074 409.094C747.347 409.347 747.564 409.682 747.726 410.099C747.888 410.517 747.969 411.031 747.969 411.642V412.068H742.923V411.199H746.946C746.946 410.83 746.872 410.5 746.724 410.21C746.58 409.921 746.372 409.692 746.102 409.524C745.835 409.357 745.52 409.273 745.156 409.273C744.756 409.273 744.409 409.372 744.116 409.571C743.827 409.767 743.604 410.023 743.447 410.338C743.291 410.653 743.213 410.992 743.213 411.352V411.932C743.213 412.426 743.298 412.845 743.469 413.189C743.642 413.53 743.882 413.79 744.189 413.969C744.496 414.145 744.852 414.233 745.259 414.233C745.523 414.233 745.761 414.196 745.974 414.122C746.19 414.046 746.376 413.932 746.533 413.781C746.689 413.628 746.81 413.438 746.895 413.21L747.866 413.483C747.764 413.813 747.592 414.102 747.351 414.352C747.109 414.599 746.811 414.793 746.456 414.932C746.101 415.068 745.702 415.136 745.259 415.136ZM750.504 411.063V415H749.499V408.455H750.47V409.477H750.555C750.709 409.145 750.942 408.878 751.254 408.676C751.567 408.472 751.97 408.369 752.464 408.369C752.908 408.369 753.295 408.46 753.628 408.642C753.96 408.821 754.219 409.094 754.403 409.46C754.588 409.824 754.68 410.284 754.68 410.841V415H753.675V410.909C753.675 410.395 753.541 409.994 753.274 409.707C753.007 409.418 752.641 409.273 752.175 409.273C751.854 409.273 751.567 409.342 751.314 409.482C751.064 409.621 750.866 409.824 750.722 410.091C750.577 410.358 750.504 410.682 750.504 411.063ZM758.444 415.153C758.029 415.153 757.653 415.075 757.315 414.919C756.977 414.76 756.708 414.531 756.51 414.233C756.311 413.932 756.211 413.568 756.211 413.142C756.211 412.767 756.285 412.463 756.433 412.23C756.581 411.994 756.778 411.81 757.025 411.676C757.272 411.543 757.545 411.443 757.843 411.378C758.145 411.31 758.447 411.256 758.751 411.216C759.149 411.165 759.471 411.126 759.718 411.101C759.968 411.073 760.15 411.026 760.264 410.96C760.38 410.895 760.439 410.781 760.439 410.619V410.585C760.439 410.165 760.324 409.838 760.093 409.605C759.866 409.372 759.521 409.256 759.058 409.256C758.578 409.256 758.201 409.361 757.929 409.571C757.656 409.781 757.464 410.006 757.353 410.244L756.399 409.903C756.569 409.506 756.797 409.196 757.081 408.974C757.368 408.75 757.68 408.594 758.018 408.506C758.359 408.415 758.694 408.369 759.024 408.369C759.234 408.369 759.475 408.395 759.748 408.446C760.024 408.494 760.289 408.595 760.545 408.749C760.804 408.902 761.018 409.134 761.189 409.443C761.359 409.753 761.444 410.168 761.444 410.688V415H760.439V414.114H760.387C760.319 414.256 760.206 414.408 760.047 414.57C759.887 414.732 759.676 414.869 759.412 414.983C759.147 415.097 758.825 415.153 758.444 415.153ZM758.598 414.25C758.995 414.25 759.331 414.172 759.603 414.016C759.879 413.859 760.086 413.658 760.225 413.411C760.368 413.163 760.439 412.903 760.439 412.631V411.71C760.396 411.761 760.302 411.808 760.157 411.851C760.015 411.891 759.85 411.926 759.663 411.957C759.478 411.986 759.298 412.011 759.122 412.034C758.949 412.054 758.808 412.071 758.7 412.085C758.439 412.119 758.194 412.175 757.967 412.251C757.743 412.325 757.561 412.438 757.422 412.588C757.285 412.736 757.217 412.938 757.217 413.193C757.217 413.543 757.346 413.807 757.605 413.986C757.866 414.162 758.197 414.25 758.598 414.25ZM764.286 411.063V415H763.28V408.455H764.251V409.477H764.337C764.49 409.145 764.723 408.878 765.036 408.676C765.348 408.472 765.751 408.369 766.246 408.369C766.689 408.369 767.077 408.46 767.409 408.642C767.741 408.821 768 409.094 768.185 409.46C768.369 409.824 768.462 410.284 768.462 410.841V415H767.456V410.909C767.456 410.395 767.322 409.994 767.055 409.707C766.788 409.418 766.422 409.273 765.956 409.273C765.635 409.273 765.348 409.342 765.095 409.482C764.845 409.621 764.648 409.824 764.503 410.091C764.358 410.358 764.286 410.682 764.286 411.063ZM772.958 415.136C772.345 415.136 771.816 414.992 771.373 414.702C770.93 414.412 770.589 414.013 770.35 413.504C770.112 412.996 769.993 412.415 769.993 411.761C769.993 411.097 770.115 410.51 770.359 410.001C770.606 409.49 770.95 409.091 771.39 408.804C771.833 408.514 772.35 408.369 772.941 408.369C773.402 408.369 773.816 408.455 774.186 408.625C774.555 408.796 774.858 409.034 775.093 409.341C775.329 409.648 775.475 410.006 775.532 410.415H774.527C774.45 410.117 774.279 409.852 774.015 409.622C773.754 409.389 773.402 409.273 772.958 409.273C772.566 409.273 772.223 409.375 771.927 409.58C771.635 409.781 771.406 410.067 771.241 410.436C771.079 410.803 770.998 411.233 770.998 411.727C770.998 412.233 771.078 412.673 771.237 413.048C771.399 413.423 771.626 413.715 771.919 413.922C772.214 414.129 772.561 414.233 772.958 414.233C773.22 414.233 773.457 414.188 773.67 414.097C773.883 414.006 774.064 413.875 774.211 413.705C774.359 413.534 774.464 413.33 774.527 413.091H775.532C775.475 413.477 775.335 413.825 775.11 414.135C774.889 414.442 774.595 414.686 774.228 414.868C773.865 415.047 773.441 415.136 772.958 415.136ZM779.747 415.136C779.116 415.136 778.572 414.997 778.115 414.719C777.66 414.438 777.309 414.046 777.062 413.543C776.818 413.037 776.696 412.449 776.696 411.778C776.696 411.108 776.818 410.517 777.062 410.006C777.309 409.492 777.653 409.091 778.093 408.804C778.537 408.514 779.054 408.369 779.645 408.369C779.985 408.369 780.322 408.426 780.654 408.54C780.987 408.653 781.289 408.838 781.562 409.094C781.835 409.347 782.052 409.682 782.214 410.099C782.376 410.517 782.457 411.031 782.457 411.642V412.068H777.412V411.199H781.434C781.434 410.83 781.36 410.5 781.213 410.21C781.068 409.921 780.86 409.692 780.591 409.524C780.324 409.357 780.008 409.273 779.645 409.273C779.244 409.273 778.897 409.372 778.605 409.571C778.315 409.767 778.092 410.023 777.936 410.338C777.779 410.653 777.701 410.992 777.701 411.352V411.932C777.701 412.426 777.787 412.845 777.957 413.189C778.13 413.53 778.37 413.79 778.677 413.969C778.984 414.145 779.341 414.233 779.747 414.233C780.011 414.233 780.25 414.196 780.463 414.122C780.679 414.046 780.865 413.932 781.021 413.781C781.177 413.628 781.298 413.438 781.383 413.21L782.355 413.483C782.252 413.813 782.081 414.102 781.839 414.352C781.598 414.599 781.299 414.793 780.944 414.932C780.589 415.068 780.19 415.136 779.747 415.136Z" fill="black"/>
<path d="M715.83 464.455C715.778 464.023 715.571 463.688 715.207 463.449C714.844 463.21 714.398 463.091 713.869 463.091C713.483 463.091 713.145 463.153 712.855 463.278C712.568 463.403 712.344 463.575 712.182 463.794C712.023 464.013 711.943 464.261 711.943 464.54C711.943 464.773 711.999 464.973 712.109 465.141C712.223 465.305 712.368 465.443 712.544 465.554C712.72 465.662 712.905 465.751 713.098 465.822C713.291 465.891 713.469 465.946 713.631 465.989L714.517 466.227C714.744 466.287 714.997 466.369 715.276 466.474C715.557 466.58 715.825 466.723 716.081 466.905C716.339 467.084 716.553 467.314 716.72 467.595C716.888 467.876 716.972 468.222 716.972 468.631C716.972 469.102 716.848 469.528 716.601 469.909C716.357 470.29 715.999 470.592 715.527 470.817C715.058 471.041 714.489 471.153 713.818 471.153C713.193 471.153 712.652 471.053 712.195 470.851C711.74 470.649 711.382 470.368 711.121 470.007C710.862 469.646 710.716 469.227 710.682 468.75H711.773C711.801 469.08 711.912 469.352 712.105 469.568C712.301 469.781 712.548 469.94 712.847 470.045C713.148 470.148 713.472 470.199 713.818 470.199C714.222 470.199 714.584 470.134 714.905 470.003C715.226 469.869 715.48 469.685 715.668 469.449C715.855 469.21 715.949 468.932 715.949 468.614C715.949 468.324 715.868 468.088 715.706 467.906C715.544 467.724 715.331 467.577 715.067 467.463C714.803 467.349 714.517 467.25 714.21 467.165L713.136 466.858C712.455 466.662 711.915 466.382 711.517 466.018C711.119 465.655 710.92 465.179 710.92 464.591C710.92 464.102 711.053 463.676 711.317 463.312C711.584 462.946 711.942 462.662 712.391 462.46C712.842 462.256 713.347 462.153 713.903 462.153C714.466 462.153 714.966 462.254 715.403 462.456C715.841 462.655 716.188 462.928 716.443 463.274C716.702 463.621 716.838 464.014 716.852 464.455H715.83ZM722.698 468.324V464.455H723.703V471H722.698V469.892H722.63C722.476 470.224 722.238 470.507 721.914 470.74C721.59 470.97 721.181 471.085 720.686 471.085C720.277 471.085 719.914 470.996 719.596 470.817C719.277 470.635 719.027 470.362 718.846 469.999C718.664 469.632 718.573 469.17 718.573 468.614V464.455H719.578V468.545C719.578 469.023 719.712 469.403 719.979 469.688C720.249 469.972 720.593 470.114 721.01 470.114C721.26 470.114 721.515 470.05 721.773 469.922C722.034 469.794 722.253 469.598 722.429 469.334C722.608 469.07 722.698 468.733 722.698 468.324ZM725.545 473.455V464.455H726.517V465.494H726.636C726.71 465.381 726.813 465.236 726.943 465.06C727.077 464.881 727.267 464.722 727.514 464.582C727.764 464.44 728.102 464.369 728.528 464.369C729.08 464.369 729.565 464.507 729.986 464.783C730.406 465.058 730.734 465.449 730.97 465.955C731.206 466.46 731.324 467.057 731.324 467.744C731.324 468.438 731.206 469.038 730.97 469.547C730.734 470.053 730.408 470.445 729.99 470.723C729.572 470.999 729.091 471.136 728.545 471.136C728.125 471.136 727.788 471.067 727.536 470.928C727.283 470.786 727.088 470.625 726.952 470.446C726.815 470.264 726.71 470.114 726.636 469.994H726.551V473.455H725.545ZM726.534 467.727C726.534 468.222 726.607 468.658 726.751 469.036C726.896 469.411 727.108 469.705 727.386 469.918C727.665 470.128 728.006 470.233 728.409 470.233C728.83 470.233 729.18 470.122 729.462 469.901C729.746 469.676 729.959 469.375 730.101 468.997C730.246 468.616 730.318 468.193 730.318 467.727C730.318 467.267 730.247 466.852 730.105 466.483C729.966 466.111 729.754 465.817 729.47 465.601C729.189 465.382 728.835 465.273 728.409 465.273C728 465.273 727.656 465.376 727.378 465.584C727.099 465.788 726.889 466.075 726.747 466.445C726.605 466.811 726.534 467.239 726.534 467.727ZM732.858 473.455V464.455H733.83V465.494H733.949C734.023 465.381 734.125 465.236 734.256 465.06C734.389 464.881 734.58 464.722 734.827 464.582C735.077 464.44 735.415 464.369 735.841 464.369C736.392 464.369 736.878 464.507 737.298 464.783C737.719 465.058 738.047 465.449 738.283 465.955C738.518 466.46 738.636 467.057 738.636 467.744C738.636 468.438 738.518 469.038 738.283 469.547C738.047 470.053 737.72 470.445 737.303 470.723C736.885 470.999 736.403 471.136 735.858 471.136C735.438 471.136 735.101 471.067 734.848 470.928C734.595 470.786 734.401 470.625 734.264 470.446C734.128 470.264 734.023 470.114 733.949 469.994H733.864V473.455H732.858ZM733.847 467.727C733.847 468.222 733.919 468.658 734.064 469.036C734.209 469.411 734.42 469.705 734.699 469.918C734.977 470.128 735.318 470.233 735.722 470.233C736.142 470.233 736.493 470.122 736.774 469.901C737.058 469.676 737.271 469.375 737.413 468.997C737.558 468.616 737.631 468.193 737.631 467.727C737.631 467.267 737.56 466.852 737.418 466.483C737.278 466.111 737.067 465.817 736.783 465.601C736.501 465.382 736.148 465.273 735.722 465.273C735.313 465.273 734.969 465.376 734.69 465.584C734.412 465.788 734.202 466.075 734.06 466.445C733.918 466.811 733.847 467.239 733.847 467.727ZM742.83 471.136C742.239 471.136 741.72 470.996 741.274 470.714C740.831 470.433 740.484 470.04 740.234 469.534C739.987 469.028 739.864 468.437 739.864 467.761C739.864 467.08 739.987 466.484 740.234 465.976C740.484 465.467 740.831 465.072 741.274 464.791C741.72 464.51 742.239 464.369 742.83 464.369C743.42 464.369 743.938 464.51 744.381 464.791C744.827 465.072 745.173 465.467 745.42 465.976C745.67 466.484 745.795 467.08 745.795 467.761C745.795 468.437 745.67 469.028 745.42 469.534C745.173 470.04 744.827 470.433 744.381 470.714C743.938 470.996 743.42 471.136 742.83 471.136ZM742.83 470.233C743.278 470.233 743.648 470.118 743.938 469.888C744.227 469.658 744.442 469.355 744.581 468.98C744.72 468.605 744.79 468.199 744.79 467.761C744.79 467.324 744.72 466.916 744.581 466.538C744.442 466.161 744.227 465.855 743.938 465.622C743.648 465.389 743.278 465.273 742.83 465.273C742.381 465.273 742.011 465.389 741.722 465.622C741.432 465.855 741.217 466.161 741.078 466.538C740.939 466.916 740.869 467.324 740.869 467.761C740.869 468.199 740.939 468.605 741.078 468.98C741.217 469.355 741.432 469.658 741.722 469.888C742.011 470.118 742.381 470.233 742.83 470.233ZM747.331 471V464.455H748.302V465.443H748.37C748.49 465.119 748.706 464.857 749.018 464.655C749.331 464.453 749.683 464.352 750.075 464.352C750.149 464.352 750.241 464.354 750.352 464.357C750.463 464.359 750.547 464.364 750.603 464.369V465.392C750.569 465.384 750.491 465.371 750.369 465.354C750.25 465.334 750.123 465.324 749.99 465.324C749.672 465.324 749.387 465.391 749.137 465.524C748.89 465.655 748.694 465.837 748.549 466.07C748.407 466.3 748.336 466.562 748.336 466.858V471H747.331ZM755.052 464.455V465.307H751.66V464.455H755.052ZM752.649 462.886H753.654V469.125C753.654 469.409 753.696 469.622 753.778 469.764C753.863 469.903 753.971 469.997 754.102 470.045C754.235 470.091 754.376 470.114 754.524 470.114C754.635 470.114 754.725 470.108 754.797 470.097C754.868 470.082 754.924 470.071 754.967 470.062L755.172 470.966C755.103 470.991 755.008 471.017 754.886 471.043C754.764 471.071 754.609 471.085 754.422 471.085C754.137 471.085 753.859 471.024 753.586 470.902C753.316 470.78 753.092 470.594 752.913 470.344C752.737 470.094 752.649 469.778 752.649 469.398V462.886Z" fill="black"/>
<path d="M711.415 359H710.307L713.511 350.273H714.602L717.807 359H716.699L714.091 351.653H714.023L711.415 359ZM711.824 355.591H716.29V356.528H711.824V355.591ZM723.155 356.324V352.455H724.161V359H723.155V357.892H723.087C722.933 358.224 722.695 358.507 722.371 358.74C722.047 358.97 721.638 359.085 721.143 359.085C720.734 359.085 720.371 358.996 720.053 358.817C719.734 358.635 719.484 358.362 719.303 357.999C719.121 357.632 719.03 357.171 719.03 356.614V352.455H720.036V356.546C720.036 357.023 720.169 357.403 720.436 357.688C720.706 357.972 721.05 358.114 721.467 358.114C721.717 358.114 721.972 358.05 722.23 357.922C722.491 357.794 722.71 357.598 722.886 357.334C723.065 357.07 723.155 356.733 723.155 356.324ZM728.849 352.455V353.307H725.457V352.455H728.849ZM726.446 350.886H727.451V357.125C727.451 357.409 727.493 357.622 727.575 357.764C727.66 357.903 727.768 357.997 727.899 358.046C728.032 358.091 728.173 358.114 728.321 358.114C728.431 358.114 728.522 358.108 728.593 358.097C728.664 358.082 728.721 358.071 728.764 358.063L728.968 358.966C728.9 358.992 728.805 359.017 728.683 359.043C728.561 359.071 728.406 359.085 728.218 359.085C727.934 359.085 727.656 359.024 727.383 358.902C727.113 358.78 726.889 358.594 726.71 358.344C726.534 358.094 726.446 357.778 726.446 357.398V350.886ZM731.508 355.063V359H730.502V350.273H731.508V353.477H731.593C731.747 353.139 731.977 352.871 732.284 352.672C732.593 352.47 733.005 352.369 733.52 352.369C733.966 352.369 734.356 352.459 734.691 352.638C735.027 352.814 735.287 353.085 735.471 353.452C735.659 353.815 735.752 354.278 735.752 354.841V359H734.747V354.909C734.747 354.389 734.612 353.987 734.342 353.703C734.075 353.416 733.704 353.273 733.23 353.273C732.9 353.273 732.605 353.342 732.343 353.482C732.085 353.621 731.88 353.824 731.73 354.091C731.582 354.358 731.508 354.682 731.508 355.063ZM740.337 359.136C739.706 359.136 739.162 358.997 738.705 358.719C738.25 358.438 737.899 358.046 737.652 357.543C737.408 357.037 737.286 356.449 737.286 355.778C737.286 355.108 737.408 354.517 737.652 354.006C737.899 353.492 738.243 353.091 738.683 352.804C739.126 352.514 739.643 352.369 740.234 352.369C740.575 352.369 740.912 352.426 741.244 352.54C741.577 352.653 741.879 352.838 742.152 353.094C742.425 353.347 742.642 353.682 742.804 354.099C742.966 354.517 743.047 355.031 743.047 355.642V356.068H738.001V355.199H742.024C742.024 354.83 741.95 354.5 741.803 354.21C741.658 353.921 741.45 353.692 741.18 353.524C740.913 353.357 740.598 353.273 740.234 353.273C739.834 353.273 739.487 353.372 739.195 353.571C738.905 353.767 738.682 354.023 738.526 354.338C738.369 354.653 738.291 354.992 738.291 355.352V355.932C738.291 356.426 738.376 356.845 738.547 357.189C738.72 357.53 738.96 357.79 739.267 357.969C739.574 358.145 739.93 358.233 740.337 358.233C740.601 358.233 740.839 358.196 741.053 358.122C741.268 358.046 741.455 357.932 741.611 357.781C741.767 357.628 741.888 357.438 741.973 357.21L742.945 357.483C742.842 357.813 742.67 358.102 742.429 358.352C742.188 358.599 741.889 358.793 741.534 358.932C741.179 359.068 740.78 359.136 740.337 359.136ZM745.582 355.063V359H744.577V352.455H745.548V353.477H745.634C745.787 353.145 746.02 352.878 746.332 352.676C746.645 352.472 747.048 352.369 747.543 352.369C747.986 352.369 748.374 352.46 748.706 352.642C749.038 352.821 749.297 353.094 749.482 353.46C749.666 353.824 749.759 354.284 749.759 354.841V359H748.753V354.909C748.753 354.395 748.619 353.994 748.352 353.707C748.085 353.418 747.719 353.273 747.253 353.273C746.932 353.273 746.645 353.342 746.392 353.482C746.142 353.621 745.945 353.824 745.8 354.091C745.655 354.358 745.582 354.682 745.582 355.063ZM754.443 352.455V353.307H751.051V352.455H754.443ZM752.039 350.886H753.045V357.125C753.045 357.409 753.086 357.622 753.169 357.764C753.254 357.903 753.362 357.997 753.493 358.046C753.626 358.091 753.767 358.114 753.914 358.114C754.025 358.114 754.116 358.108 754.187 358.097C754.258 358.082 754.315 358.071 754.358 358.063L754.562 358.966C754.494 358.992 754.399 359.017 754.277 359.043C754.154 359.071 754 359.085 753.812 359.085C753.528 359.085 753.25 359.024 752.977 358.902C752.707 358.78 752.483 358.594 752.304 358.344C752.127 358.094 752.039 357.778 752.039 357.398V350.886ZM755.956 359V352.455H756.961V359H755.956ZM756.467 351.364C756.271 351.364 756.102 351.297 755.96 351.163C755.821 351.03 755.751 350.869 755.751 350.682C755.751 350.494 755.821 350.334 755.96 350.2C756.102 350.067 756.271 350 756.467 350C756.663 350 756.831 350.067 756.97 350.2C757.112 350.334 757.183 350.494 757.183 350.682C757.183 350.869 757.112 351.03 756.97 351.163C756.831 351.297 756.663 351.364 756.467 351.364ZM761.462 359.136C760.849 359.136 760.32 358.992 759.877 358.702C759.434 358.412 759.093 358.013 758.854 357.504C758.616 356.996 758.496 356.415 758.496 355.761C758.496 355.097 758.619 354.51 758.863 354.001C759.11 353.49 759.454 353.091 759.894 352.804C760.337 352.514 760.854 352.369 761.445 352.369C761.906 352.369 762.32 352.455 762.69 352.625C763.059 352.796 763.362 353.034 763.597 353.341C763.833 353.648 763.979 354.006 764.036 354.415H763.031C762.954 354.117 762.783 353.852 762.519 353.622C762.258 353.389 761.906 353.273 761.462 353.273C761.07 353.273 760.727 353.375 760.431 353.58C760.138 353.781 759.91 354.067 759.745 354.436C759.583 354.803 759.502 355.233 759.502 355.727C759.502 356.233 759.582 356.673 759.741 357.048C759.903 357.423 760.13 357.715 760.423 357.922C760.718 358.129 761.065 358.233 761.462 358.233C761.724 358.233 761.961 358.188 762.174 358.097C762.387 358.006 762.567 357.875 762.715 357.705C762.863 357.534 762.968 357.33 763.031 357.091H764.036C763.979 357.477 763.839 357.825 763.614 358.135C763.393 358.442 763.099 358.686 762.732 358.868C762.369 359.047 761.945 359.136 761.462 359.136ZM767.433 359.153C767.018 359.153 766.641 359.075 766.303 358.919C765.965 358.76 765.697 358.531 765.498 358.233C765.299 357.932 765.2 357.568 765.2 357.142C765.2 356.767 765.273 356.463 765.421 356.23C765.569 355.994 765.766 355.81 766.013 355.676C766.261 355.543 766.533 355.443 766.832 355.378C767.133 355.31 767.435 355.256 767.739 355.216C768.137 355.165 768.46 355.126 768.707 355.101C768.957 355.073 769.138 355.026 769.252 354.96C769.369 354.895 769.427 354.781 769.427 354.619V354.585C769.427 354.165 769.312 353.838 769.082 353.605C768.854 353.372 768.509 353.256 768.046 353.256C767.566 353.256 767.19 353.361 766.917 353.571C766.644 353.781 766.452 354.006 766.342 354.244L765.387 353.903C765.558 353.506 765.785 353.196 766.069 352.974C766.356 352.75 766.668 352.594 767.006 352.506C767.347 352.415 767.683 352.369 768.012 352.369C768.222 352.369 768.464 352.395 768.737 352.446C769.012 352.494 769.278 352.595 769.533 352.749C769.792 352.902 770.006 353.134 770.177 353.443C770.347 353.753 770.433 354.168 770.433 354.688V359H769.427V358.114H769.376C769.308 358.256 769.194 358.408 769.035 358.57C768.876 358.732 768.664 358.869 768.4 358.983C768.136 359.097 767.813 359.153 767.433 359.153ZM767.586 358.25C767.984 358.25 768.319 358.172 768.592 358.016C768.867 357.859 769.075 357.658 769.214 357.411C769.356 357.163 769.427 356.903 769.427 356.631V355.71C769.384 355.761 769.29 355.808 769.146 355.851C769.004 355.891 768.839 355.926 768.651 355.957C768.467 355.986 768.286 356.011 768.11 356.034C767.937 356.054 767.796 356.071 767.688 356.085C767.427 356.119 767.183 356.175 766.955 356.251C766.731 356.325 766.549 356.438 766.41 356.588C766.273 356.736 766.205 356.938 766.205 357.193C766.205 357.543 766.335 357.807 766.593 357.986C766.854 358.162 767.185 358.25 767.586 358.25ZM775.115 352.455V353.307H771.723V352.455H775.115ZM772.711 350.886H773.717V357.125C773.717 357.409 773.758 357.622 773.841 357.764C773.926 357.903 774.034 357.997 774.164 358.046C774.298 358.091 774.439 358.114 774.586 358.114C774.697 358.114 774.788 358.108 774.859 358.097C774.93 358.082 774.987 358.071 775.029 358.063L775.234 358.966C775.166 358.992 775.071 359.017 774.949 359.043C774.826 359.071 774.672 359.085 774.484 359.085C774.2 359.085 773.922 359.024 773.649 358.902C773.379 358.78 773.154 358.594 772.975 358.344C772.799 358.094 772.711 357.778 772.711 357.398V350.886ZM776.627 359V352.455H777.633V359H776.627ZM777.139 351.364C776.943 351.364 776.774 351.297 776.632 351.163C776.493 351.03 776.423 350.869 776.423 350.682C776.423 350.494 776.493 350.334 776.632 350.2C776.774 350.067 776.943 350 777.139 350C777.335 350 777.502 350.067 777.642 350.2C777.784 350.334 777.855 350.494 777.855 350.682C777.855 350.869 777.784 351.03 777.642 351.163C777.502 351.297 777.335 351.364 777.139 351.364ZM782.134 359.136C781.543 359.136 781.025 358.996 780.579 358.715C780.136 358.433 779.789 358.04 779.539 357.534C779.292 357.028 779.168 356.438 779.168 355.761C779.168 355.08 779.292 354.484 779.539 353.976C779.789 353.467 780.136 353.073 780.579 352.791C781.025 352.51 781.543 352.369 782.134 352.369C782.725 352.369 783.242 352.51 783.685 352.791C784.131 353.073 784.478 353.467 784.725 353.976C784.975 354.484 785.1 355.08 785.1 355.761C785.1 356.438 784.975 357.028 784.725 357.534C784.478 358.04 784.131 358.433 783.685 358.715C783.242 358.996 782.725 359.136 782.134 359.136ZM782.134 358.233C782.583 358.233 782.952 358.118 783.242 357.888C783.532 357.658 783.746 357.355 783.886 356.98C784.025 356.605 784.094 356.199 784.094 355.761C784.094 355.324 784.025 354.916 783.886 354.538C783.746 354.161 783.532 353.855 783.242 353.622C782.952 353.389 782.583 353.273 782.134 353.273C781.685 353.273 781.316 353.389 781.026 353.622C780.737 353.855 780.522 354.161 780.383 354.538C780.244 354.916 780.174 355.324 780.174 355.761C780.174 356.199 780.244 356.605 780.383 356.98C780.522 357.355 780.737 357.658 781.026 357.888C781.316 358.118 781.685 358.233 782.134 358.233ZM787.641 355.063V359H786.635V352.455H787.607V353.477H787.692C787.846 353.145 788.078 352.878 788.391 352.676C788.703 352.472 789.107 352.369 789.601 352.369C790.044 352.369 790.432 352.46 790.765 352.642C791.097 352.821 791.355 353.094 791.54 353.46C791.725 353.824 791.817 354.284 791.817 354.841V359H790.811V354.909C790.811 354.395 790.678 353.994 790.411 353.707C790.144 353.418 789.777 353.273 789.311 353.273C788.99 353.273 788.703 353.342 788.451 353.482C788.201 353.621 788.003 353.824 787.858 354.091C787.713 354.358 787.641 354.682 787.641 355.063Z" fill="black"/>
<path d="M715.75 527H713.057V518.273H715.869C716.716 518.273 717.44 518.447 718.043 518.797C718.645 519.143 719.107 519.642 719.428 520.292C719.749 520.94 719.909 521.716 719.909 522.619C719.909 523.528 719.747 524.311 719.423 524.967C719.099 525.621 718.628 526.123 718.009 526.476C717.389 526.825 716.636 527 715.75 527ZM714.114 526.062H715.682C716.403 526.062 717.001 525.923 717.476 525.645C717.95 525.366 718.304 524.97 718.537 524.456C718.77 523.942 718.886 523.329 718.886 522.619C718.886 521.915 718.771 521.308 718.541 520.8C718.311 520.288 717.967 519.896 717.51 519.623C717.053 519.348 716.483 519.21 715.801 519.21H714.114V526.062ZM723.472 527.153C723.057 527.153 722.68 527.075 722.342 526.919C722.004 526.76 721.736 526.531 721.537 526.233C721.338 525.932 721.239 525.568 721.239 525.142C721.239 524.767 721.313 524.463 721.46 524.23C721.608 523.994 721.805 523.81 722.053 523.676C722.3 523.542 722.572 523.443 722.871 523.378C723.172 523.31 723.474 523.256 723.778 523.216C724.176 523.165 724.499 523.126 724.746 523.101C724.996 523.072 725.178 523.025 725.291 522.96C725.408 522.895 725.466 522.781 725.466 522.619V522.585C725.466 522.165 725.351 521.838 725.121 521.605C724.893 521.372 724.548 521.256 724.085 521.256C723.605 521.256 723.229 521.361 722.956 521.571C722.683 521.781 722.491 522.006 722.381 522.244L721.426 521.903C721.597 521.506 721.824 521.196 722.108 520.974C722.395 520.75 722.707 520.594 723.045 520.506C723.386 520.415 723.722 520.369 724.051 520.369C724.261 520.369 724.503 520.395 724.776 520.446C725.051 520.494 725.317 520.595 725.572 520.748C725.831 520.902 726.045 521.133 726.216 521.443C726.386 521.753 726.472 522.167 726.472 522.687V527H725.466V526.114H725.415C725.347 526.256 725.233 526.408 725.074 526.569C724.915 526.731 724.703 526.869 724.439 526.983C724.175 527.096 723.852 527.153 723.472 527.153ZM723.625 526.25C724.023 526.25 724.358 526.172 724.631 526.016C724.906 525.859 725.114 525.658 725.253 525.41C725.395 525.163 725.466 524.903 725.466 524.631V523.71C725.423 523.761 725.33 523.808 725.185 523.851C725.043 523.891 724.878 523.926 724.69 523.957C724.506 523.986 724.325 524.011 724.149 524.034C723.976 524.054 723.835 524.071 723.727 524.085C723.466 524.119 723.222 524.175 722.994 524.251C722.77 524.325 722.588 524.437 722.449 524.588C722.313 524.736 722.244 524.937 722.244 525.193C722.244 525.542 722.374 525.807 722.632 525.986C722.893 526.162 723.224 526.25 723.625 526.25ZM731.154 520.454V521.307H727.762V520.454H731.154ZM728.75 518.886H729.756V525.125C729.756 525.409 729.797 525.622 729.88 525.764C729.965 525.903 730.073 525.997 730.203 526.045C730.337 526.091 730.478 526.114 730.625 526.114C730.736 526.114 730.827 526.108 730.898 526.096C730.969 526.082 731.026 526.071 731.069 526.062L731.273 526.966C731.205 526.991 731.11 527.017 730.988 527.042C730.865 527.071 730.711 527.085 730.523 527.085C730.239 527.085 729.961 527.024 729.688 526.902C729.418 526.78 729.194 526.594 729.015 526.344C728.838 526.094 728.75 525.778 728.75 525.398V518.886ZM734.593 527.153C734.178 527.153 733.801 527.075 733.463 526.919C733.125 526.76 732.857 526.531 732.658 526.233C732.459 525.932 732.36 525.568 732.36 525.142C732.36 524.767 732.434 524.463 732.581 524.23C732.729 523.994 732.926 523.81 733.174 523.676C733.421 523.542 733.694 523.443 733.992 523.378C734.293 523.31 734.596 523.256 734.9 523.216C735.297 523.165 735.62 523.126 735.867 523.101C736.117 523.072 736.299 523.025 736.412 522.96C736.529 522.895 736.587 522.781 736.587 522.619V522.585C736.587 522.165 736.472 521.838 736.242 521.605C736.015 521.372 735.669 521.256 735.206 521.256C734.726 521.256 734.35 521.361 734.077 521.571C733.804 521.781 733.613 522.006 733.502 522.244L732.547 521.903C732.718 521.506 732.945 521.196 733.229 520.974C733.516 520.75 733.828 520.594 734.167 520.506C734.507 520.415 734.843 520.369 735.172 520.369C735.382 520.369 735.624 520.395 735.897 520.446C736.172 520.494 736.438 520.595 736.694 520.748C736.952 520.902 737.167 521.133 737.337 521.443C737.507 521.753 737.593 522.167 737.593 522.687V527H736.587V526.114H736.536C736.468 526.256 736.354 526.408 736.195 526.569C736.036 526.731 735.824 526.869 735.56 526.983C735.296 527.096 734.973 527.153 734.593 527.153ZM734.746 526.25C735.144 526.25 735.479 526.172 735.752 526.016C736.027 525.859 736.235 525.658 736.374 525.41C736.516 525.163 736.587 524.903 736.587 524.631V523.71C736.544 523.761 736.451 523.808 736.306 523.851C736.164 523.891 735.999 523.926 735.811 523.957C735.627 523.986 735.446 524.011 735.27 524.034C735.097 524.054 734.956 524.071 734.848 524.085C734.587 524.119 734.343 524.175 734.115 524.251C733.891 524.325 733.709 524.437 733.57 524.588C733.434 524.736 733.365 524.937 733.365 525.193C733.365 525.542 733.495 525.807 733.753 525.986C734.015 526.162 734.346 526.25 734.746 526.25Z" fill="black"/>
<circle cx="809.5" cy="355.5" r="3.5" fill="#C92027"/>
<circle cx="809.5" cy="414.5" r="3.5" fill="#333333"/>
<circle cx="809.5" cy="467.5" r="3.5" fill="#C92027"/>
<circle cx="809.5" cy="523.5" r="3.5" fill="#333333"/>
<path d="M808 356L832.189 375.478C834.747 377.538 836.753 380.202 838.025 383.231V383.231C842.378 393.593 837.24 405.496 826.714 409.437L811.855 415" stroke="black"/>
<path d="M809 415L832.796 432.678C835.126 434.409 836.979 436.702 838.181 439.344V439.344C842.374 448.553 837.73 459.373 828.165 462.677L812.754 468" stroke="black"/>
<path d="M809 467L833.189 486.478C835.747 488.538 837.753 491.202 839.025 494.23V494.23C843.378 504.593 838.24 516.496 827.714 520.437L812.855 526" stroke="black"/>
<path d="M1299.5 552.5L1407.5 554.5L1398.5 566.5L1374 568.5H1350H1301L1295 563.5L1299.5 552.5Z" fill="#C92027"/>
<path d="M1347.5 568.5H1369.5L1373.5 578L1370.5 586.5H1347.5L1349.5 580L1351.5 574L1347.5 568.5Z" fill="#C92027"/>
<path d="M642.5 299L677 264L678.5 585H642.5V299Z" fill="#C92027"/>
<rect x="1249.5" y="634.5" width="223" height="56" fill="white" stroke="black"/>
<path d="M1322.93 655H1319.41C1319.2 653.987 1318.84 653.097 1318.32 652.33C1317.8 651.562 1317.18 650.919 1316.44 650.398C1315.71 649.867 1314.9 649.47 1314.01 649.205C1313.12 648.939 1312.19 648.807 1311.23 648.807C1309.47 648.807 1307.87 649.252 1306.44 650.142C1305.02 651.032 1303.89 652.344 1303.05 654.077C1302.21 655.81 1301.8 657.936 1301.8 660.455C1301.8 662.973 1302.21 665.099 1303.05 666.832C1303.89 668.565 1305.02 669.877 1306.44 670.767C1307.87 671.657 1309.47 672.102 1311.23 672.102C1312.19 672.102 1313.12 671.97 1314.01 671.705C1314.9 671.439 1315.71 671.046 1316.44 670.526C1317.18 669.995 1317.8 669.347 1318.32 668.58C1318.84 667.803 1319.2 666.913 1319.41 665.909H1322.93C1322.67 667.396 1322.18 668.726 1321.48 669.901C1320.78 671.075 1319.91 672.074 1318.87 672.898C1317.83 673.712 1316.66 674.332 1315.36 674.759C1314.07 675.185 1312.7 675.398 1311.23 675.398C1308.75 675.398 1306.54 674.792 1304.61 673.58C1302.68 672.367 1301.16 670.644 1300.05 668.409C1298.94 666.174 1298.39 663.523 1298.39 660.455C1298.39 657.386 1298.94 654.735 1300.05 652.5C1301.16 650.265 1302.68 648.542 1304.61 647.33C1306.54 646.117 1308.75 645.511 1311.23 645.511C1312.7 645.511 1314.07 645.724 1315.36 646.151C1316.66 646.577 1317.83 647.202 1318.87 648.026C1319.91 648.84 1320.78 649.834 1321.48 651.009C1322.18 652.173 1322.67 653.504 1322.93 655ZM1331.52 645.909V675H1328.17V645.909H1331.52ZM1337.66 675V653.182H1341.01V675H1337.66ZM1339.37 649.545C1338.71 649.545 1338.15 649.323 1337.68 648.878C1337.21 648.433 1336.98 647.898 1336.98 647.273C1336.98 646.648 1337.21 646.113 1337.68 645.668C1338.15 645.223 1338.71 645 1339.37 645C1340.02 645 1340.58 645.223 1341.04 645.668C1341.52 646.113 1341.75 646.648 1341.75 647.273C1341.75 647.898 1341.52 648.433 1341.04 648.878C1340.58 649.323 1340.02 649.545 1339.37 649.545ZM1356.3 675.455C1354.2 675.455 1352.39 674.991 1350.86 674.062C1349.35 673.125 1348.18 671.818 1347.35 670.142C1346.54 668.456 1346.13 666.496 1346.13 664.261C1346.13 662.027 1346.54 660.057 1347.35 658.352C1348.18 656.638 1349.32 655.303 1350.79 654.347C1352.27 653.381 1353.99 652.898 1355.96 652.898C1357.1 652.898 1358.22 653.087 1359.33 653.466C1360.44 653.845 1361.44 654.46 1362.35 655.312C1363.26 656.155 1363.99 657.273 1364.53 658.665C1365.07 660.057 1365.34 661.771 1365.34 663.807V665.227H1348.52V662.33H1361.93C1361.93 661.098 1361.68 660 1361.19 659.034C1360.71 658.068 1360.01 657.306 1359.11 656.747C1358.22 656.188 1357.17 655.909 1355.96 655.909C1354.63 655.909 1353.47 656.241 1352.5 656.903C1351.53 657.557 1350.79 658.409 1350.26 659.46C1349.74 660.511 1349.48 661.638 1349.48 662.841V664.773C1349.48 666.42 1349.77 667.817 1350.34 668.963C1350.91 670.099 1351.71 670.966 1352.74 671.562C1353.76 672.15 1354.95 672.443 1356.3 672.443C1357.18 672.443 1357.98 672.32 1358.69 672.074C1359.41 671.818 1360.03 671.439 1360.55 670.938C1361.07 670.426 1361.47 669.792 1361.76 669.034L1365 669.943C1364.65 671.042 1364.08 672.008 1363.28 672.841C1362.47 673.665 1361.48 674.309 1360.29 674.773C1359.11 675.227 1357.78 675.455 1356.3 675.455ZM1373.79 661.875V675H1370.44V653.182H1373.67V656.591H1373.96C1374.47 655.483 1375.25 654.593 1376.29 653.92C1377.33 653.239 1378.67 652.898 1380.32 652.898C1381.8 652.898 1383.09 653.201 1384.2 653.807C1385.31 654.403 1386.17 655.312 1386.78 656.534C1387.4 657.746 1387.71 659.28 1387.71 661.136V675H1384.36V661.364C1384.36 659.65 1383.91 658.314 1383.02 657.358C1382.13 656.392 1380.91 655.909 1379.36 655.909C1378.29 655.909 1377.33 656.141 1376.49 656.605C1375.65 657.069 1375 657.746 1374.51 658.636C1374.03 659.527 1373.79 660.606 1373.79 661.875ZM1403.32 653.182V656.023H1392.02V653.182H1403.32ZM1395.31 647.955H1398.66V668.75C1398.66 669.697 1398.8 670.407 1399.08 670.881C1399.36 671.345 1399.72 671.657 1400.15 671.818C1400.6 671.97 1401.07 672.045 1401.56 672.045C1401.93 672.045 1402.23 672.027 1402.47 671.989C1402.71 671.941 1402.9 671.903 1403.04 671.875L1403.72 674.886C1403.49 674.972 1403.18 675.057 1402.77 675.142C1402.36 675.237 1401.85 675.284 1401.22 675.284C1400.27 675.284 1399.35 675.08 1398.44 674.673C1397.54 674.266 1396.79 673.646 1396.19 672.812C1395.6 671.979 1395.31 670.928 1395.31 669.659V647.955ZM1423.43 658.068L1420.42 658.92C1420.23 658.419 1419.95 657.931 1419.58 657.457C1419.22 656.974 1418.73 656.577 1418.1 656.264C1417.48 655.952 1416.68 655.795 1415.7 655.795C1414.37 655.795 1413.25 656.103 1412.36 656.719C1411.48 657.325 1411.04 658.097 1411.04 659.034C1411.04 659.867 1411.35 660.526 1411.95 661.009C1412.56 661.491 1413.5 661.894 1414.79 662.216L1418.03 663.011C1419.98 663.485 1421.44 664.209 1422.39 665.185C1423.35 666.151 1423.83 667.396 1423.83 668.92C1423.83 670.17 1423.47 671.288 1422.75 672.273C1422.04 673.258 1421.04 674.034 1419.76 674.602C1418.49 675.17 1417 675.455 1415.3 675.455C1413.08 675.455 1411.24 674.972 1409.78 674.006C1408.32 673.04 1407.4 671.629 1407.01 669.773L1410.19 668.977C1410.49 670.152 1411.07 671.032 1411.91 671.619C1412.76 672.206 1413.87 672.5 1415.25 672.5C1416.81 672.5 1418.05 672.169 1418.97 671.506C1419.9 670.833 1420.36 670.028 1420.36 669.091C1420.36 668.333 1420.1 667.699 1419.57 667.188C1419.04 666.667 1418.22 666.278 1417.12 666.023L1413.49 665.17C1411.49 664.697 1410.02 663.963 1409.08 662.969C1408.15 661.965 1407.69 660.71 1407.69 659.205C1407.69 657.973 1408.04 656.884 1408.73 655.938C1409.43 654.991 1410.38 654.247 1411.58 653.707C1412.79 653.168 1414.17 652.898 1415.7 652.898C1417.86 652.898 1419.56 653.371 1420.79 654.318C1422.03 655.265 1422.91 656.515 1423.43 658.068Z" fill="black"/>
<rect x="15.5" y="634.5" width="223" height="56" fill="white" stroke="black"/>
<path d="M56.5227 676V646.909H60.0455V672.875H73.5682V676H56.5227ZM87.4318 676.455C85.4621 676.455 83.7339 675.986 82.2472 675.048C80.7699 674.111 79.6146 672.799 78.7812 671.114C77.9574 669.428 77.5455 667.458 77.5455 665.205C77.5455 662.932 77.9574 660.948 78.7812 659.253C79.6146 657.558 80.7699 656.241 82.2472 655.304C83.7339 654.366 85.4621 653.898 87.4318 653.898C89.4015 653.898 91.125 654.366 92.6023 655.304C94.089 656.241 95.2443 657.558 96.0682 659.253C96.9015 660.948 97.3182 662.932 97.3182 665.205C97.3182 667.458 96.9015 669.428 96.0682 671.114C95.2443 672.799 94.089 674.111 92.6023 675.048C91.125 675.986 89.4015 676.455 87.4318 676.455ZM87.4318 673.443C88.928 673.443 90.1591 673.06 91.125 672.293C92.0909 671.526 92.8059 670.517 93.2699 669.267C93.7339 668.017 93.9659 666.663 93.9659 665.205C93.9659 663.746 93.7339 662.387 93.2699 661.128C92.8059 659.868 92.0909 658.85 91.125 658.074C90.1591 657.297 88.928 656.909 87.4318 656.909C85.9356 656.909 84.7045 657.297 83.7386 658.074C82.7727 658.85 82.0578 659.868 81.5938 661.128C81.1297 662.387 80.8977 663.746 80.8977 665.205C80.8977 666.663 81.1297 668.017 81.5938 669.267C82.0578 670.517 82.7727 671.526 83.7386 672.293C84.7045 673.06 85.9356 673.443 87.4318 673.443ZM111.299 676.455C109.254 676.455 107.492 675.972 106.015 675.006C104.538 674.04 103.401 672.709 102.606 671.014C101.81 669.319 101.413 667.383 101.413 665.205C101.413 662.989 101.82 661.033 102.634 659.338C103.458 657.634 104.604 656.303 106.072 655.347C107.549 654.381 109.272 653.898 111.242 653.898C112.776 653.898 114.159 654.182 115.39 654.75C116.621 655.318 117.629 656.114 118.415 657.136C119.201 658.159 119.689 659.352 119.879 660.716H116.526C116.271 659.722 115.702 658.841 114.822 658.074C113.951 657.297 112.776 656.909 111.299 656.909C109.992 656.909 108.846 657.25 107.862 657.932C106.886 658.604 106.124 659.556 105.575 660.787C105.035 662.009 104.765 663.443 104.765 665.091C104.765 666.777 105.03 668.244 105.56 669.494C106.1 670.744 106.858 671.715 107.833 672.406C108.818 673.098 109.973 673.443 111.299 673.443C112.17 673.443 112.961 673.292 113.671 672.989C114.381 672.686 114.983 672.25 115.475 671.682C115.968 671.114 116.318 670.432 116.526 669.636H119.879C119.689 670.924 119.22 672.084 118.472 673.116C117.734 674.139 116.754 674.954 115.532 675.56C114.32 676.156 112.909 676.455 111.299 676.455ZM127.904 668.045L127.847 663.898H128.529L138.075 654.182H142.222L132.052 664.466H131.768L127.904 668.045ZM124.779 676V646.909H128.131V676H124.779ZM138.643 676L130.12 665.205L132.506 662.875L142.904 676H138.643ZM154.786 676.455C152.684 676.455 150.871 675.991 149.346 675.062C147.831 674.125 146.661 672.818 145.837 671.142C145.023 669.456 144.616 667.496 144.616 665.261C144.616 663.027 145.023 661.057 145.837 659.352C146.661 657.638 147.807 656.303 149.275 655.347C150.752 654.381 152.476 653.898 154.445 653.898C155.582 653.898 156.704 654.087 157.812 654.466C158.92 654.845 159.928 655.46 160.837 656.312C161.746 657.155 162.471 658.273 163.011 659.665C163.55 661.057 163.82 662.771 163.82 664.807V666.227H147.002V663.33H160.411C160.411 662.098 160.165 661 159.673 660.034C159.19 659.068 158.498 658.306 157.599 657.747C156.709 657.188 155.657 656.909 154.445 656.909C153.11 656.909 151.955 657.241 150.979 657.903C150.013 658.557 149.27 659.409 148.749 660.46C148.228 661.511 147.968 662.638 147.968 663.841V665.773C147.968 667.42 148.252 668.817 148.82 669.963C149.398 671.099 150.198 671.966 151.221 672.562C152.244 673.15 153.432 673.443 154.786 673.443C155.667 673.443 156.462 673.32 157.173 673.074C157.892 672.818 158.513 672.439 159.033 671.938C159.554 671.426 159.957 670.792 160.241 670.034L163.479 670.943C163.138 672.042 162.566 673.008 161.761 673.841C160.956 674.665 159.961 675.309 158.778 675.773C157.594 676.227 156.263 676.455 154.786 676.455ZM168.92 676V654.182H172.158V657.477H172.386C172.783 656.398 173.503 655.522 174.545 654.849C175.586 654.177 176.761 653.841 178.067 653.841C178.314 653.841 178.621 653.846 178.991 653.855C179.36 653.865 179.639 653.879 179.829 653.898V657.307C179.715 657.278 179.455 657.236 179.048 657.179C178.65 657.113 178.228 657.08 177.783 657.08C176.723 657.08 175.776 657.302 174.942 657.747C174.119 658.183 173.465 658.789 172.982 659.565C172.509 660.332 172.272 661.208 172.272 662.193V676H168.92ZM199.257 659.068L196.246 659.92C196.056 659.419 195.777 658.931 195.408 658.457C195.048 657.974 194.555 657.577 193.93 657.264C193.305 656.952 192.505 656.795 191.53 656.795C190.195 656.795 189.082 657.103 188.192 657.719C187.311 658.325 186.871 659.097 186.871 660.034C186.871 660.867 187.174 661.526 187.78 662.009C188.386 662.491 189.333 662.894 190.621 663.216L193.859 664.011C195.81 664.485 197.264 665.209 198.22 666.185C199.177 667.151 199.655 668.396 199.655 669.92C199.655 671.17 199.295 672.288 198.575 673.273C197.865 674.258 196.871 675.034 195.592 675.602C194.314 676.17 192.827 676.455 191.132 676.455C188.907 676.455 187.065 675.972 185.607 675.006C184.148 674.04 183.225 672.629 182.837 670.773L186.018 669.977C186.321 671.152 186.894 672.032 187.737 672.619C188.589 673.206 189.702 673.5 191.075 673.5C192.638 673.5 193.878 673.169 194.797 672.506C195.725 671.833 196.189 671.028 196.189 670.091C196.189 669.333 195.924 668.699 195.393 668.188C194.863 667.667 194.049 667.278 192.95 667.023L189.314 666.17C187.316 665.697 185.848 664.963 184.911 663.969C183.982 662.965 183.518 661.71 183.518 660.205C183.518 658.973 183.864 657.884 184.555 656.938C185.256 655.991 186.208 655.247 187.411 654.707C188.623 654.168 189.996 653.898 191.53 653.898C193.689 653.898 195.384 654.371 196.615 655.318C197.856 656.265 198.736 657.515 199.257 659.068Z" fill="black"/>
<rect x="1201.5" y="404.5" width="38" height="34" fill="white" stroke="black"/>
<path d="M1208.89 429H1207.41L1211.68 417.364H1213.14L1217.41 429H1215.93L1212.45 419.205H1212.36L1208.89 429ZM1209.43 424.455H1215.39V425.705H1209.43V424.455ZM1219.22 429V417.364H1223.15C1224.07 417.364 1224.81 417.529 1225.39 417.858C1225.98 418.184 1226.41 418.625 1226.69 419.182C1226.97 419.739 1227.11 420.36 1227.11 421.046C1227.11 421.731 1226.97 422.354 1226.69 422.915C1226.41 423.476 1225.98 423.922 1225.4 424.256C1224.82 424.585 1224.08 424.75 1223.18 424.75H1220.36V423.5H1223.13C1223.76 423.5 1224.26 423.392 1224.64 423.176C1225.02 422.96 1225.29 422.669 1225.46 422.301C1225.63 421.93 1225.72 421.511 1225.72 421.046C1225.72 420.58 1225.63 420.163 1225.46 419.796C1225.29 419.428 1225.01 419.14 1224.63 418.932C1224.25 418.72 1223.74 418.614 1223.11 418.614H1220.63V429H1219.22ZM1230.79 417.364V429H1229.38V417.364H1230.79Z" fill="black"/>
<circle r="4.5" transform="matrix(-1 0 0 1 999.5 84.4998)" fill="#333333"/>
<path d="M1001 85.0608L1019.65 95.518" stroke="black"/>
<rect x="1020.5" y="93.4998" width="38" height="34" fill="white" stroke="black"/>
<path d="M1027.89 118H1026.41L1030.68 106.363H1032.14L1036.41 118H1034.93L1031.45 108.204H1031.36L1027.89 118ZM1028.43 113.454H1034.39V114.704H1028.43V113.454ZM1038.22 118V106.363H1042.15C1043.07 106.363 1043.81 106.528 1044.39 106.858C1044.98 107.184 1045.41 107.625 1045.69 108.182C1045.97 108.738 1046.11 109.36 1046.11 110.045C1046.11 110.731 1045.97 111.354 1045.69 111.915C1045.41 112.475 1044.98 112.922 1044.4 113.255C1043.82 113.585 1043.08 113.75 1042.18 113.75H1039.36V112.5H1042.13C1042.76 112.5 1043.26 112.392 1043.64 112.176C1044.02 111.96 1044.29 111.668 1044.46 111.301C1044.63 110.93 1044.72 110.511 1044.72 110.045C1044.72 109.579 1044.63 109.163 1044.46 108.795C1044.29 108.428 1044.01 108.14 1043.63 107.932C1043.25 107.72 1042.74 107.613 1042.11 107.613H1039.63V118H1038.22ZM1049.79 106.363V118H1048.38V106.363H1049.79Z" fill="black"/>
<circle r="4.5" transform="matrix(-1 0 0 1 544.5 120.5)" fill="#333333"/>
<path d="M546.025 119.019L553.485 110" stroke="black"/>
<rect x="552.5" y="75.4999" width="38" height="34" fill="white" stroke="black"/>
<path d="M559.886 99.9999H558.409L562.682 88.3635H564.136L568.409 99.9999H566.932L563.455 90.2044H563.364L559.886 99.9999ZM560.432 95.4544H566.386V96.7044H560.432V95.4544ZM570.222 99.9999V88.3635H574.153C575.066 88.3635 575.813 88.5283 576.392 88.8578C576.975 89.1836 577.407 89.6249 577.688 90.1817C577.968 90.7385 578.108 91.3597 578.108 92.0453C578.108 92.7309 577.968 93.354 577.688 93.9147C577.411 94.4753 576.983 94.9222 576.403 95.2556C575.824 95.5851 575.081 95.7499 574.176 95.7499H571.358V94.4999H574.131C574.756 94.4999 575.258 94.3919 575.636 94.176C576.015 93.9601 576.29 93.6684 576.46 93.301C576.634 92.9298 576.722 92.5112 576.722 92.0453C576.722 91.5794 576.634 91.1628 576.46 90.7953C576.29 90.4279 576.013 90.14 575.631 89.9317C575.248 89.7196 574.741 89.6135 574.108 89.6135H571.631V99.9999H570.222ZM581.787 88.3635V99.9999H580.378V88.3635H581.787Z" fill="black"/>
<ellipse cx="333.5" cy="80.4998" rx="22.5" ry="21.5" fill="#C93E20"/>
<ellipse cx="378.5" cy="551.5" rx="22.5" ry="21.5" fill="white"/>
<rect x="1408" y="331" width="39" height="34" fill="#C92027"/>
<path d="M1050 316H1064V300H1050V316Z" fill="white"/>
<path d="M1050 316H1064V300H1050V316Z" fill="white"/>
<path d="M1050 316H1064V300H1050V316Z" stroke="black"/>
<path d="M935 386H949V370H935V386Z" fill="white"/>
<path d="M935 386H949V370H935V386Z" fill="white"/>
<path d="M935 386H949V370H935V386Z" stroke="black"/>
<path d="M364 244H378V228H364V244Z" fill="white"/>
<path d="M364 244H378V228H364V244Z" fill="white"/>
<path d="M364 244H378V228H364V244Z" stroke="black"/>
<path d="M564 432H578V416H564V432Z" fill="white"/>
<path d="M564 432H578V416H564V432Z" fill="white"/>
<path d="M564 432H578V416H564V432Z" stroke="black"/>
<circle cx="717" cy="291" r="5" fill="#C92027"/>
<path d="M248.051 584.241L10.5519 485.967L8.42383 508.223L245.922 605.948L309.576 576.85V559.83L248.051 584.241Z" fill="white" stroke="#333333"/>
<path d="M2.10596 318.626L73.1821 287.052L316.947 392.298V410.19L249.03 440.185L2.10596 339.675V318.626Z" fill="white"/>
<path d="M2.10596 318.626L73.1821 287.052L316.947 392.298M2.10596 318.626L249.03 421.767L316.947 392.298M2.10596 318.626V339.675L249.03 440.185L316.947 410.19V392.298" stroke="#333333"/>
<path d="M1.05298 487.143L2.10596 340.728L126.358 390.72L249.142 441.131L316.947 411.243V558.775L249.142 588.056L60.973 509.103L1.05298 487.143Z" fill="white" stroke="#333333"/>
<g filter="url(#filter0_f_8_6)">
<path d="M238.164 492.456L202.172 477.548V516.887L238.164 531.796V492.456Z" fill="url(#paint0_linear_8_6)"/>
</g>
<path d="M250.083 442.29V587.53" stroke="#BCBDBF"/>
<path d="M196.907 419.662L192.695 563.849" stroke="#BCBDBF"/>
<path d="M146.364 398.613L142.615 543.574" stroke="#BCBDBF"/>
<path d="M96.8742 378.616L92.0288 522.932" stroke="#BCBDBF"/>
<path d="M250.083 480.705L53.1755 400.718" stroke="#BCBDBF"/>
<path d="M250.609 549.115L51.5961 465.97" stroke="#BCBDBF"/>
<path d="M194.801 476.495L51.5961 415.452" stroke="#BCBDBF"/>
<path d="M194.801 492.282L144.258 470.18" stroke="#BCBDBF"/>
<path d="M194.801 510.174L144.258 488.072" stroke="#BCBDBF"/>
<path d="M144.258 470.18L93.7152 448.079" stroke="#BCBDBF"/>
<path d="M144.258 488.072L93.7152 465.97" stroke="#BCBDBF"/>
<path d="M103.192 452.289L51.5961 430.187" stroke="#BCBDBF"/>
<path d="M103.192 470.18L51.5961 448.079" stroke="#BCBDBF"/>
<path d="M53.3413 360.846L2.10596 340.42L1.57947 487.02L49.8592 504.547L53.3413 360.846Z" fill="#C92027"/>
<defs>
<filter id="filter0_f_8_6" x="198.172" y="473.548" width="43.9919" height="62.2484" filterUnits="userSpaceOnUse" color-interpolation-filters="sRGB">
<feFlood flood-opacity="0" result="BackgroundImageFix"/>
<feBlend mode="normal" in="SourceGraphic" in2="BackgroundImageFix" result="shape"/>
<feGaussianBlur stdDeviation="2" result="effect1_foregroundBlur_8_6"/>
</filter>
<linearGradient id="paint0_linear_8_6" x1="220.168" y1="485.002" x2="206.259" y2="518.58" gradientUnits="userSpaceOnUse">
<stop offset="0.229167"/>
<stop offset="1"/>
</linearGradient>
</defs>
</svg>
