<svg width="514" height="446" viewBox="0 0 514 446" fill="none" xmlns="http://www.w3.org/2000/svg">
<g clip-path="url(#clip0_1_96)">
<path d="M256.485 447.561L42.0271 324.808C38.6842 322.895 38.6692 318.079 42.0002 316.145L86 290.597L256.23 176.851C257.908 175.73 260.094 175.727 261.775 176.844L471.335 316.072C474.413 318.117 474.286 322.679 471.099 324.549L261.499 447.534C259.954 448.441 258.041 448.451 256.485 447.561Z" fill="url(#paint0_linear_1_96)"/>
<path d="M260.194 70.2221L476.5 208.5V248.079C476.5 249.884 475.528 251.548 473.956 252.435L259.956 373.115C258.432 373.975 256.568 373.975 255.044 373.115L41.044 252.435C39.4722 251.548 38.5 249.884 38.5 248.079V208.5L86.5 177.871L254.807 70.2227C256.449 69.1724 258.551 69.1722 260.194 70.2221Z" fill="#E0E4EF"/>
<path d="M91 175L86.5 177.871M38.5 208.5L255.014 332.575C256.554 333.458 258.446 333.458 259.986 332.575L476.5 208.5M38.5 208.5L86.5 177.871M38.5 208.5V248.079C38.5 249.884 39.4722 251.548 41.044 252.435L255.044 373.115C256.568 373.975 258.432 373.975 259.956 373.115L473.956 252.435C475.528 251.548 476.5 249.884 476.5 248.079V208.5M476.5 208.5L260.194 70.2221C258.551 69.1722 256.449 69.1724 254.807 70.2227L86.5 177.871" stroke="url(#paint1_linear_1_96)" stroke-width="2"/>
<path d="M52.1643 30.2831L4.91216 54.0534C3.22854 54.9003 2.16419 56.622 2.15915 58.5067L2.01395 112.809C2.00391 116.563 5.98102 118.989 9.31446 117.261L55.3278 93.4165C56.9455 92.5782 57.9791 90.9262 58.0256 89.1047L59.4097 34.8773C59.5061 31.1003 55.5396 28.5852 52.1643 30.2831Z" fill="url(#paint2_linear_1_96)"/>
<path d="M512.5 57.3719V106.289C512.5 110.035 508.533 112.45 505.205 110.731L455.205 84.8975C453.544 84.0392 452.5 82.3254 452.5 80.4554V28.0212C452.5 24.5953 455.787 22.336 458.838 23.1969C459.284 23.3228 459.725 23.5156 460.15 23.7812L464.5 26.5L510.019 53.053C511.555 53.949 512.5 55.5935 512.5 57.3719Z" fill="url(#paint3_linear_1_96)"/>
<path d="M125.953 207.066L76.5424 183.277C73.1336 181.636 69.2075 184.229 69.3786 188.008L71.634 237.826C71.7117 239.542 72.6651 241.098 74.1589 241.947L119.986 267.984C123.27 269.85 127.358 267.54 127.454 263.764L128.782 211.698C128.833 209.732 127.725 207.919 125.953 207.066Z" fill="url(#paint4_linear_1_96)"/>
<path d="M407.14 218.562L364.696 240.6C363.04 241.46 362 243.171 362 245.038V298.18C362 301.951 366.016 304.365 369.347 302.595L414.674 278.502C416.397 277.586 417.43 275.753 417.32 273.805L414.436 222.718C414.231 219.096 410.359 216.891 407.14 218.562Z" fill="url(#paint5_linear_1_96)"/>
<path d="M39.5 125.5L255.481 -1.02451C257.038 -1.93617 258.964 -1.93904 260.523 -1.03202L478 125.5L481.244 140.91C481.694 143.047 480.706 145.228 478.803 146.298L260.482 269.104C258.943 269.969 257.062 269.959 255.533 269.077L42.0022 145.943C40.454 145.05 39.5 143.399 39.5 141.612V125.5Z" fill="#58648E"/>
<path d="M204.722 161.159L178.166 149.284L181.286 147.648L204.99 158.249L216.968 151.972L219.82 153.248L204.722 161.159ZM232.515 146.998C230.77 147.912 228.812 148.523 226.639 148.831C224.475 149.134 222.254 149.134 219.977 148.833C217.709 148.527 215.546 147.914 213.488 146.994C211.414 146.067 209.968 145.065 209.15 143.991C208.341 142.912 208.162 141.839 208.615 140.77C209.076 139.697 210.179 138.704 211.924 137.79C213.668 136.875 215.623 136.267 217.787 135.964C219.96 135.656 222.185 135.658 224.462 135.967C226.747 136.272 228.927 136.889 231.002 137.817C233.06 138.737 234.489 139.734 235.289 140.809C236.098 141.88 236.272 142.951 235.811 144.024C235.358 145.093 234.26 146.084 232.515 146.998ZM229.766 145.769C231.091 145.074 231.832 144.346 231.987 143.585C232.142 142.823 231.855 142.08 231.125 141.354C230.395 140.629 229.364 139.968 228.033 139.373C226.702 138.777 225.256 138.33 223.695 138.031C222.134 137.733 220.571 137.649 219.007 137.78C217.443 137.912 215.998 138.325 214.673 139.019C213.347 139.714 212.611 140.443 212.465 141.209C212.318 141.974 212.614 142.722 213.353 143.451C214.091 144.181 215.126 144.843 216.458 145.438C217.789 146.034 219.231 146.479 220.783 146.774C222.335 147.069 223.889 147.149 225.445 147.013C227 146.878 228.441 146.463 229.766 145.769ZM253.656 135.92C251.844 136.869 249.843 137.49 247.652 137.781C245.462 138.073 243.241 138.057 240.989 137.734C238.737 137.411 236.617 136.805 234.629 135.916C232.606 135.012 231.181 134.024 230.355 132.954C229.529 131.876 229.329 130.801 229.756 129.729C230.183 128.649 231.269 127.652 233.014 126.738C234.372 126.026 235.856 125.5 237.465 125.161C239.075 124.821 240.694 124.678 242.324 124.73C243.954 124.783 245.475 125.044 246.887 125.513L243.918 127.069C242.784 126.781 241.477 126.686 239.996 126.781C238.516 126.869 237.121 127.255 235.813 127.941C234.655 128.547 233.952 129.218 233.702 129.954C233.452 130.681 233.645 131.423 234.282 132.181C234.92 132.93 235.99 133.641 237.494 134.314C239.033 135.002 240.608 135.478 242.219 135.742C243.838 136.002 245.395 136.047 246.89 135.876C248.393 135.701 249.732 135.306 250.907 134.691C251.678 134.286 252.24 133.857 252.593 133.404C252.945 132.951 253.08 132.494 252.998 132.033C252.915 131.573 252.603 131.132 252.061 130.71L255.031 129.154C256.039 129.768 256.682 130.459 256.962 131.228C257.241 131.988 257.117 132.775 256.588 133.59C256.059 134.396 255.081 135.173 253.656 135.92ZM260.687 124.78L256.85 123.113L257.454 122.796L257.04 114.399L260.714 112.474L261.093 121.393L260.842 121.525L260.687 124.78ZM265.181 129.477L238.624 117.602L241.593 116.046L268.15 127.921L265.181 129.477ZM277.46 123.042L260.056 122.591L260.044 120.533L281.235 121.065L277.46 123.042ZM257.736 110.357L254.883 109.081L274.208 98.9543L277.061 100.23L268.958 104.476L292.662 115.076L289.542 116.711L265.838 106.111L257.736 110.357ZM310.893 105.926C309.031 106.902 307.001 107.554 304.803 107.883C302.605 108.203 300.376 108.213 298.117 107.911C295.857 107.601 293.706 106.989 291.666 106.077C289.626 105.165 288.189 104.172 287.354 103.098C286.519 102.016 286.315 100.939 286.742 99.867C287.169 98.7869 288.255 97.7898 289.999 96.8756C291.006 96.3481 292.173 95.9046 293.5 95.5449C294.827 95.1853 296.282 94.9684 297.865 94.8944C299.44 94.8165 301.102 94.9364 302.851 95.2542C304.599 95.5719 306.403 96.1464 308.262 96.9775L309.558 97.5574L294.662 105.364L292.016 104.181L303.894 97.9568C302.77 97.4542 301.549 97.1201 300.231 96.9543C298.921 96.7842 297.613 96.7939 296.306 96.9833C295.008 97.1684 293.822 97.5423 292.748 98.1049C291.566 98.7247 290.845 99.3962 290.586 100.12C290.327 100.835 290.446 101.528 290.945 102.198C291.443 102.869 292.241 103.45 293.339 103.941L295.102 104.73C296.607 105.403 298.133 105.841 299.683 106.045C301.232 106.241 302.731 106.223 304.182 105.992C305.624 105.757 306.944 105.325 308.144 104.696C308.924 104.288 309.516 103.868 309.92 103.438C310.324 103 310.528 102.557 310.531 102.11C310.526 101.66 310.303 101.214 309.863 100.773L313.562 99.6408C314.262 100.248 314.637 100.908 314.684 101.622C314.724 102.332 314.431 103.056 313.806 103.795C313.172 104.53 312.201 105.24 310.893 105.926ZM331.262 95.2514C329.451 96.2008 327.45 96.8212 325.259 97.1126C323.069 97.404 320.848 97.3883 318.596 97.0655C316.344 96.7427 314.224 96.1368 312.236 95.2476C310.213 94.343 308.788 93.3557 307.962 92.2857C307.136 91.2074 306.936 90.1324 307.363 89.0607C307.79 87.9807 308.876 86.9835 310.621 86.0693C311.979 85.3572 313.463 84.8315 315.072 84.492C316.682 84.1525 318.301 84.0092 319.931 84.0618C321.561 84.1145 323.082 84.3753 324.494 84.844L321.525 86.4C320.391 86.1128 319.084 86.017 317.603 86.1126C316.123 86.2 314.728 86.5866 313.42 87.2723C312.262 87.8788 311.559 88.5499 311.309 89.2853C311.059 90.0125 311.252 90.7549 311.889 91.5124C312.527 92.2616 313.597 92.9726 315.101 93.6452C316.64 94.3334 318.215 94.8095 319.826 95.0736C321.445 95.3334 323.002 95.378 324.497 95.2075C326 95.0326 327.339 94.6374 328.513 94.0221C329.285 93.6177 329.847 93.1888 330.2 92.7354C330.552 92.2821 330.687 91.8251 330.605 91.3646C330.522 90.9041 330.21 90.4631 329.668 90.0417L332.638 88.4857C333.646 89.0994 334.289 89.7905 334.569 90.5591C334.848 91.3195 334.724 92.1069 334.195 92.9213C333.666 93.7275 332.688 94.5042 331.262 95.2514Z" fill="white"/>
<g clip-path="url(#clip1_1_96)">
<path d="M104.543 212.579C104.579 212.464 104.592 212.327 104.58 212.177C104.569 212.027 104.533 211.866 104.476 211.704C104.418 211.542 104.34 211.382 104.246 211.232C104.152 211.083 104.043 210.947 103.926 210.833C103.809 210.719 103.686 210.629 103.564 210.568C103.442 210.507 103.323 210.476 103.215 210.477C103.107 210.478 103.011 210.51 102.933 210.573C102.855 210.636 102.796 210.728 102.76 210.843L95.2994 234.709C95.2266 234.941 95.2508 235.256 95.3666 235.583C95.4824 235.911 95.6803 236.224 95.9167 236.454C96.1532 236.684 96.4088 236.813 96.6274 236.811C96.8461 236.809 97.0097 236.677 97.0824 236.444L104.543 212.579V212.579ZM94.0534 211.617C94.1403 211.772 94.2092 211.935 94.2562 212.097C94.3032 212.258 94.3274 212.416 94.3274 212.56C94.3274 212.703 94.3032 212.831 94.2562 212.935C94.2092 213.039 94.1403 213.118 94.0534 213.166L88.1838 216.451L94.0534 226.93C94.2286 227.243 94.3269 227.581 94.3269 227.872C94.3269 228.162 94.2286 228.381 94.0534 228.479C93.8783 228.577 93.6408 228.546 93.3932 228.395C93.1455 228.243 92.908 227.982 92.7329 227.669L86.2049 216.013C86.118 215.858 86.0491 215.695 86.0021 215.533C85.9551 215.372 85.9309 215.214 85.9309 215.07C85.9309 214.927 85.9551 214.799 86.0021 214.695C86.0491 214.591 86.118 214.512 86.2049 214.464L92.7329 210.808C92.8195 210.759 92.9225 210.742 93.0358 210.756C93.149 210.77 93.2705 210.816 93.3932 210.891C93.5158 210.967 93.6373 211.069 93.7506 211.194C93.8639 211.319 93.9668 211.462 94.0534 211.617V211.617ZM105.789 218.809C105.702 218.857 105.633 218.936 105.586 219.04C105.539 219.144 105.515 219.271 105.515 219.415C105.515 219.559 105.539 219.716 105.586 219.878C105.633 220.04 105.702 220.203 105.789 220.358L111.659 230.836L105.789 234.121C105.702 234.17 105.633 234.248 105.587 234.353C105.54 234.457 105.515 234.584 105.515 234.728C105.515 234.872 105.54 235.029 105.587 235.191C105.633 235.352 105.702 235.515 105.789 235.67C105.876 235.825 105.979 235.969 106.092 236.093C106.205 236.218 106.327 236.32 106.449 236.395C106.572 236.471 106.693 236.517 106.807 236.531C106.92 236.545 107.023 236.528 107.109 236.479L113.638 232.823C113.724 232.775 113.793 232.697 113.84 232.593C113.887 232.488 113.911 232.361 113.911 232.217C113.911 232.073 113.887 231.916 113.84 231.754C113.793 231.592 113.724 231.43 113.638 231.275L107.109 219.618C107.023 219.463 106.92 219.319 106.807 219.195C106.693 219.07 106.572 218.967 106.449 218.892C106.327 218.817 106.205 218.771 106.092 218.757C105.979 218.742 105.876 218.76 105.789 218.809V218.809Z" fill="white"/>
</g>
<g clip-path="url(#clip2_1_96)">
<path d="M24.8781 76.6753C23.6137 77.5668 22.5133 78.8813 21.7838 80.3717C21.0543 81.8621 20.7459 83.4259 20.9164 84.7693C21.0869 86.1127 21.7247 87.1432 22.7099 87.6672C23.6951 88.1911 24.9599 88.1726 26.2667 87.6149L41.0057 81.2825C41.9517 80.8754 42.8851 80.2549 43.7443 79.4618C44.6036 78.6687 45.3693 77.7211 45.9911 76.6813C46.6128 75.6415 47.0765 74.5331 47.3516 73.429C47.6267 72.325 47.7069 71.2503 47.5871 70.2758C47.4673 69.3012 47.15 68.4489 46.6563 67.7749C46.1626 67.1009 45.5035 66.6204 44.7225 66.3652C43.9415 66.1101 43.0563 66.0859 42.1251 66.2943C41.194 66.5027 40.2379 66.939 39.32 67.5745L37.5423 68.868" stroke="white" stroke-width="2" stroke-linecap="round" stroke-linejoin="round"/>
<path d="M39.32 67.5745C38.8458 65.7976 37.7014 64.5729 36.1188 64.1487C34.5361 63.7246 32.6335 64.1327 30.7969 65.2903C28.9602 66.4479 27.3267 68.2684 26.2276 70.3828C25.1286 72.4972 24.6461 74.7472 24.8781 76.6768C24.8781 76.6768 25.0936 77.8749 25.519 78.4239" stroke="white" stroke-width="2" stroke-linecap="round" stroke-linejoin="round"/>
</g>
<g clip-path="url(#clip3_1_96)">
<path d="M396.573 244.297C395.67 241.234 391.33 241.234 390.427 244.297L390.208 245.041C390.073 245.499 389.837 245.922 389.517 246.277C389.198 246.632 388.803 246.912 388.361 247.095C387.92 247.278 387.443 247.36 386.966 247.334C386.488 247.309 386.023 247.177 385.603 246.948L384.925 246.576C382.118 245.049 379.049 248.118 380.578 250.923L380.948 251.603C381.924 253.397 380.998 255.63 379.041 256.208L378.297 256.427C375.234 257.33 375.234 261.67 378.297 262.573L379.041 262.792C379.499 262.927 379.922 263.163 380.277 263.483C380.632 263.802 380.912 264.197 381.095 264.639C381.278 265.08 381.36 265.557 381.334 266.034C381.309 266.512 381.177 266.977 380.948 267.397L380.576 268.075C379.049 270.882 382.118 273.951 384.923 272.422L385.603 272.052C386.023 271.823 386.488 271.691 386.966 271.666C387.443 271.64 387.92 271.722 388.361 271.905C388.803 272.088 389.198 272.368 389.517 272.723C389.837 273.078 390.073 273.501 390.208 273.959L390.427 274.703C391.33 277.766 395.67 277.766 396.573 274.703L396.792 273.959C396.927 273.501 397.163 273.078 397.483 272.723C397.802 272.368 398.197 272.088 398.639 271.905C399.08 271.722 399.557 271.64 400.034 271.666C400.512 271.691 400.977 271.823 401.397 272.052L402.075 272.424C404.882 273.951 407.951 270.882 406.422 268.077L406.052 267.397C405.823 266.977 405.691 266.512 405.666 266.034C405.64 265.557 405.722 265.08 405.905 264.639C406.088 264.197 406.368 263.802 406.723 263.483C407.078 263.163 407.501 262.927 407.959 262.792L408.703 262.573C411.766 261.67 411.766 257.33 408.703 256.427L407.959 256.208C407.501 256.073 407.078 255.837 406.723 255.517C406.368 255.198 406.088 254.803 405.905 254.361C405.722 253.92 405.64 253.443 405.666 252.966C405.691 252.488 405.823 252.023 406.052 251.603L406.424 250.925C407.951 248.118 404.882 245.049 402.077 246.578L401.397 246.948C400.977 247.177 400.512 247.309 400.034 247.334C399.557 247.36 399.08 247.278 398.639 247.095C398.197 246.912 397.802 246.632 397.483 246.277C397.163 245.922 396.927 245.499 396.792 245.041L396.573 244.297V244.297ZM393.5 265.909C391.8 265.909 390.17 265.234 388.968 264.032C387.766 262.83 387.091 261.2 387.091 259.5C387.091 257.8 387.766 256.17 388.968 254.968C390.17 253.766 391.8 253.091 393.5 253.091C395.199 253.091 396.829 253.766 398.031 254.967C399.232 256.169 399.907 257.799 399.907 259.498C399.907 261.197 399.232 262.827 398.031 264.028C396.829 265.23 395.199 265.905 393.5 265.905V265.909Z" fill="white"/>
</g>
<g clip-path="url(#clip4_1_96)">
<path d="M489.93 71.1606L471.739 61.8917C470.303 61.1604 469.162 61.8732 469.188 63.4838L469.382 75.1489C469.408 76.7595 470.594 78.658 472.029 79.3893L490.22 88.6582C491.655 89.3895 492.797 88.6767 492.771 87.0661L492.577 75.4011C492.551 73.7904 491.365 71.8919 489.93 71.1606Z" stroke="white" stroke-width="2" stroke-linecap="round" stroke-linejoin="round"/>
<path d="M472.941 56.7212C472.922 55.561 473.314 54.6577 474.032 54.2098C474.749 53.7619 475.733 53.8062 476.767 54.333L484.563 58.3054C485.597 58.8322 486.596 59.7983 487.341 60.9911C488.086 62.184 488.515 63.5059 488.534 64.666L488.631 70.4986L473.038 62.5537L472.941 56.7212Z" stroke="white" stroke-width="2" stroke-linecap="round" stroke-linejoin="round"/>
</g>
</g>
<defs>
<linearGradient id="paint0_linear_1_96" x1="256.25" y1="175" x2="256.25" y2="449" gradientUnits="userSpaceOnUse">
<stop offset="0.276042"/>
<stop offset="1" stop-color="#D9D9D9" stop-opacity="0.48"/>
</linearGradient>
<linearGradient id="paint1_linear_1_96" x1="257.5" y1="68.5" x2="257.5" y2="374.5" gradientUnits="userSpaceOnUse">
<stop stop-color="white"/>
<stop offset="1" stop-color="white" stop-opacity="0"/>
</linearGradient>
<linearGradient id="paint2_linear_1_96" x1="33.1764" y1="24.8451" x2="26.9412" y2="122.647" gradientUnits="userSpaceOnUse">
<stop stop-color="#58648E"/>
<stop offset="1" stop-color="#CE111E"/>
</linearGradient>
<linearGradient id="paint3_linear_1_96" x1="482.5" y1="19" x2="482.5" y2="114.5" gradientUnits="userSpaceOnUse">
<stop stop-color="#CE111E"/>
<stop offset="0.677083" stop-color="#5A6291"/>
</linearGradient>
<linearGradient id="paint4_linear_1_96" x1="98.2201" y1="178.323" x2="102.517" y2="273.226" gradientUnits="userSpaceOnUse">
<stop stop-color="#CE111E"/>
<stop offset="0.755208" stop-color="#5A6291"/>
</linearGradient>
<linearGradient id="paint5_linear_1_96" x1="389.75" y1="215" x2="389.75" y2="306.5" gradientUnits="userSpaceOnUse">
<stop offset="0.390625" stop-color="#5A6291"/>
<stop offset="1" stop-color="#CE111E"/>
</linearGradient>
<clipPath id="clip0_1_96">
<rect width="514" height="446" fill="white"/>
</clipPath>
<clipPath id="clip1_1_96">
<rect width="35" height="35" fill="white" transform="matrix(0.85264 0.522499 0 1 85 197)"/>
</clipPath>
<clipPath id="clip2_1_96">
<rect width="35" height="35" fill="white" transform="matrix(0.918791 -0.394744 0.00820296 0.999966 18 63.3615)"/>
</clipPath>
<clipPath id="clip3_1_96">
<rect width="35" height="35" fill="white" transform="translate(376 242)"/>
</clipPath>
<clipPath id="clip4_1_96">
<rect width="35" height="35" fill="white" transform="matrix(0.891007 0.453991 0.0165799 0.999863 465 44)"/>
</clipPath>
</defs>
</svg>
