<svg width="1656" height="670" viewBox="0 0 1656 670" fill="none" xmlns="http://www.w3.org/2000/svg">
<circle r="4.5" transform="matrix(-1 0 0 1 1367.5 431.5)" fill="#333333"/>
<path d="M1370 430L1381 426" stroke="black"/>
<path d="M1483 526C1366.6 496.8 1361 427.5 1371 396L1403 326.5" stroke="black" stroke-width="2"/>
<path d="M349 337C600.233 27.9476 704 106.5 748 140.5L857.992 248.416" stroke="black" stroke-width="2"/>
<path d="M988.193 253.459C1185.61 10.605 1267.15 72.3317 1301.73 99.0491L1406.5 204" stroke="black" stroke-width="2"/>
<path d="M1333.01 269.85L1327.27 274.754C1326.84 275.128 1326.28 275.333 1325.7 275.333C1324.66 275.333 1323.74 276.002 1323.41 276.992L1321.13 283.915C1320.39 286.148 1320.3 288.545 1320.86 290.828L1322.24 296.386C1323.35 300.885 1325.95 304.876 1329.62 307.71C1333.22 310.491 1337.64 312 1342.19 312H1452.08C1456.28 312 1460.38 310.772 1463.89 308.469C1468.87 305.193 1472.27 299.994 1473.27 294.114L1473.58 292.351C1474.49 287.017 1473.18 281.542 1469.95 277.197L1468.11 274.717C1466.19 272.122 1463.32 270.388 1460.12 269.892L1459.71 269.828C1453.22 268.819 1448.78 262.736 1449.79 256.245C1449.89 255.638 1449.94 255.025 1449.94 254.41V248.684C1449.94 242.612 1447.98 236.701 1444.36 231.824C1442.81 229.729 1440.97 227.859 1438.91 226.268L1438.01 225.574C1431.63 220.663 1423.81 218 1415.76 218H1412.92C1407.79 218 1402.75 219.351 1398.3 221.919L1395.78 223.377C1392.8 225.093 1390.36 227.589 1388.71 230.596L1386.82 234.035C1383.63 239.838 1376.8 242.604 1370.47 240.656C1367.67 239.796 1364.68 239.836 1361.91 240.77L1361.36 240.954C1359.31 241.644 1357.43 242.748 1355.82 244.198L1349.07 250.309C1346.94 252.234 1345.72 254.971 1345.72 257.842V260.293C1345.72 264.549 1342.27 268 1338.02 268C1336.18 268 1334.4 268.656 1333.01 269.85Z" fill="white" stroke="black"/>
<path d="M822 299L857 262.5H1004.5V585.5H858.5H822V299Z" fill="white"/>
<path d="M857 262.5L822 299V585.5H858.5M857 262.5H1004.5V585.5H858.5M857 262.5L858.5 585.5" stroke="black"/>
<path d="M891.5 265L894.401 254.022C895.155 251.169 896.428 248.48 898.157 246.089L899.264 244.558C902.099 240.638 906.093 237.708 910.683 236.181L911.053 236.058C913.159 235.357 915.363 235 917.582 235H918.061C922.449 235 926.707 236.494 930.132 239.237V239.237C931.977 240.713 933.535 242.516 934.729 244.555L937.211 248.795C939.365 252.473 940.5 256.659 940.5 260.921V265" stroke="black"/>
<path d="M929.5 265V254.83C929.5 251.923 929.97 249.034 930.891 246.276L932.988 239.997C934.019 236.912 935.675 234.073 937.853 231.658L937.97 231.528C941.01 228.158 944.977 225.76 949.374 224.635L950.232 224.415C953.847 223.49 957.648 223.597 961.205 224.724V224.724C964.586 225.795 967.621 227.749 969.997 230.383L971.672 232.24C975.449 236.428 977.82 241.694 978.451 247.298L979.5 256.6V265" stroke="black"/>
<path d="M989.5 277H874.5V303H989.5V277Z" stroke="black"/>
<path d="M900.986 289.729L900.658 289.238C899.935 288.152 898.716 287.5 897.412 287.5C895.934 287.5 894.582 288.335 893.921 289.657L893.569 290.361C892.714 292.071 893.46 294.149 895.207 294.925C896.034 295.293 896.974 295.311 897.814 294.974L899.575 294.27C900.738 293.805 901.5 292.679 901.5 291.427C901.5 290.823 901.321 290.232 900.986 289.729Z" stroke="black"/>
<path d="M896 296.5L900.417 308.648C902.737 315.026 907.154 320.428 912.945 323.967L913.133 324.081C918.87 327.587 925.636 329.015 932.3 328.127V328.127C940.104 327.086 947.161 322.952 951.885 316.654L952.024 316.468C955.903 311.296 958 305.005 958 298.54V293.5M958 293.5L956.401 290.701C956.138 290.242 956 289.722 956 289.192V289.192C956 287.883 956.838 286.721 958.08 286.307L958.449 286.184C958.814 286.062 959.196 286 959.581 286H959.643C960.82 286 961.935 286.523 962.689 287.426L963.312 288.175C963.757 288.708 964 289.38 964 290.074V290.074C964 290.975 963.59 291.828 962.887 292.391L962.555 292.656C961.872 293.202 961.024 293.5 960.149 293.5H958Z" stroke="black"/>
<path d="M1503 488.5L1478 555.5L1475 563.5L1481.5 569.5H1527L1530.5 574.5L1527 584.5L1518.5 587.5H1530.5H1551L1554.5 578L1551 569.5L1579.5 567L1587.5 555.5L1612.5 488.5L1607.5 483H1510.5L1503 488.5Z" fill="white"/>
<path d="M1506.5 587.5H1518.5M1518.5 587.5H1530.5H1551L1554.5 578L1551 569.5L1579.5 567L1587.5 555.5L1612.5 488.5L1607.5 483H1510.5L1503 488.5L1478 555.5L1475 563.5L1481.5 569.5H1527L1530.5 574.5L1527 584.5L1518.5 587.5Z" stroke="black" stroke-width="2"/>
<line x1="1534.56" y1="501.828" x2="1503.56" y2="522.828" stroke="black" stroke-width="2"/>
<line x1="1549.56" y1="522.828" x2="1518.56" y2="543.828" stroke="black" stroke-width="2"/>
<line x1="1558.54" y1="501.84" x2="1496.54" y2="541.84" stroke="black" stroke-width="2"/>
<rect x="874.5" y="337.5" width="114" height="34" fill="white" stroke="black"/>
<rect x="874.5" y="393.5" width="114" height="34" fill="white" stroke="black"/>
<rect x="874.5" y="449.5" width="114" height="34" fill="white" stroke="black"/>
<rect x="874.5" y="505.5" width="114" height="34" fill="white" stroke="black"/>
<path d="M891.057 406.273H892.318L895.284 413.517H895.386L898.352 406.273H899.614V415H898.625V408.369H898.54L895.812 415H894.858L892.131 408.369H892.045V415H891.057V406.273ZM903.522 415.153C903.108 415.153 902.731 415.075 902.393 414.919C902.055 414.76 901.787 414.531 901.588 414.233C901.389 413.932 901.289 413.568 901.289 413.142C901.289 412.767 901.363 412.463 901.511 412.23C901.659 411.994 901.856 411.81 902.103 411.676C902.35 411.543 902.623 411.443 902.922 411.378C903.223 411.31 903.525 411.256 903.829 411.216C904.227 411.165 904.549 411.126 904.797 411.101C905.047 411.073 905.228 411.026 905.342 410.96C905.458 410.895 905.517 410.781 905.517 410.619V410.585C905.517 410.165 905.402 409.838 905.172 409.605C904.944 409.372 904.599 409.256 904.136 409.256C903.656 409.256 903.279 409.361 903.007 409.571C902.734 409.781 902.542 410.006 902.431 410.244L901.477 409.903C901.647 409.506 901.875 409.196 902.159 408.974C902.446 408.75 902.758 408.594 903.096 408.506C903.437 408.415 903.772 408.369 904.102 408.369C904.312 408.369 904.554 408.395 904.826 408.446C905.102 408.494 905.368 408.595 905.623 408.749C905.882 408.902 906.096 409.134 906.267 409.443C906.437 409.753 906.522 410.168 906.522 410.688V415H905.517V414.114H905.466C905.397 414.256 905.284 414.408 905.125 414.57C904.966 414.732 904.754 414.869 904.49 414.983C904.225 415.097 903.903 415.153 903.522 415.153ZM903.676 414.25C904.074 414.25 904.409 414.172 904.681 414.016C904.957 413.859 905.164 413.658 905.304 413.411C905.446 413.163 905.517 412.903 905.517 412.631V411.71C905.474 411.761 905.38 411.808 905.235 411.851C905.093 411.891 904.929 411.926 904.741 411.957C904.556 411.986 904.376 412.011 904.2 412.034C904.027 412.054 903.886 412.071 903.778 412.085C903.517 412.119 903.272 412.175 903.045 412.251C902.821 412.325 902.639 412.438 902.5 412.588C902.363 412.736 902.295 412.938 902.295 413.193C902.295 413.543 902.424 413.807 902.683 413.986C902.944 414.162 903.275 414.25 903.676 414.25ZM908.358 415V408.455H909.364V415H908.358ZM908.869 407.364C908.673 407.364 908.504 407.297 908.362 407.163C908.223 407.03 908.153 406.869 908.153 406.682C908.153 406.494 908.223 406.334 908.362 406.2C908.504 406.067 908.673 406 908.869 406C909.065 406 909.233 406.067 909.372 406.2C909.514 406.334 909.585 406.494 909.585 406.682C909.585 406.869 909.514 407.03 909.372 407.163C909.233 407.297 909.065 407.364 908.869 407.364ZM912.211 411.063V415H911.206V408.455H912.177V409.477H912.262C912.416 409.145 912.649 408.878 912.961 408.676C913.274 408.472 913.677 408.369 914.172 408.369C914.615 408.369 915.002 408.46 915.335 408.642C915.667 408.821 915.926 409.094 916.11 409.46C916.295 409.824 916.387 410.284 916.387 410.841V415H915.382V410.909C915.382 410.395 915.248 409.994 914.981 409.707C914.714 409.418 914.348 409.273 913.882 409.273C913.561 409.273 913.274 409.342 913.021 409.482C912.771 409.621 912.574 409.824 912.429 410.091C912.284 410.358 912.211 410.682 912.211 411.063ZM921.072 408.455V409.307H917.68V408.455H921.072ZM918.668 406.886H919.674V413.125C919.674 413.409 919.715 413.622 919.798 413.764C919.883 413.903 919.991 413.997 920.121 414.046C920.255 414.091 920.396 414.114 920.543 414.114C920.654 414.114 920.745 414.108 920.816 414.097C920.887 414.082 920.944 414.071 920.987 414.063L921.191 414.966C921.123 414.992 921.028 415.017 920.906 415.043C920.783 415.071 920.629 415.085 920.441 415.085C920.157 415.085 919.879 415.024 919.606 414.902C919.336 414.78 919.112 414.594 918.933 414.344C918.756 414.094 918.668 413.778 918.668 413.398V406.886ZM925.259 415.136C924.628 415.136 924.084 414.997 923.626 414.719C923.172 414.438 922.821 414.046 922.574 413.543C922.33 413.037 922.207 412.449 922.207 411.778C922.207 411.108 922.33 410.517 922.574 410.006C922.821 409.492 923.165 409.091 923.605 408.804C924.048 408.514 924.565 408.369 925.156 408.369C925.497 408.369 925.834 408.426 926.166 408.54C926.499 408.653 926.801 408.838 927.074 409.094C927.347 409.347 927.564 409.682 927.726 410.099C927.888 410.517 927.969 411.031 927.969 411.642V412.068H922.923V411.199H926.946C926.946 410.83 926.872 410.5 926.724 410.21C926.58 409.921 926.372 409.692 926.102 409.524C925.835 409.357 925.52 409.273 925.156 409.273C924.756 409.273 924.409 409.372 924.116 409.571C923.827 409.767 923.604 410.023 923.447 410.338C923.291 410.653 923.213 410.992 923.213 411.352V411.932C923.213 412.426 923.298 412.845 923.469 413.189C923.642 413.53 923.882 413.79 924.189 413.969C924.496 414.145 924.852 414.233 925.259 414.233C925.523 414.233 925.761 414.196 925.974 414.122C926.19 414.046 926.376 413.932 926.533 413.781C926.689 413.628 926.81 413.438 926.895 413.21L927.866 413.483C927.764 413.813 927.592 414.102 927.351 414.352C927.109 414.599 926.811 414.793 926.456 414.932C926.101 415.068 925.702 415.136 925.259 415.136ZM930.504 411.063V415H929.499V408.455H930.47V409.477H930.555C930.709 409.145 930.942 408.878 931.254 408.676C931.567 408.472 931.97 408.369 932.464 408.369C932.908 408.369 933.295 408.46 933.628 408.642C933.96 408.821 934.219 409.094 934.403 409.46C934.588 409.824 934.68 410.284 934.68 410.841V415H933.675V410.909C933.675 410.395 933.541 409.994 933.274 409.707C933.007 409.418 932.641 409.273 932.175 409.273C931.854 409.273 931.567 409.342 931.314 409.482C931.064 409.621 930.866 409.824 930.722 410.091C930.577 410.358 930.504 410.682 930.504 411.063ZM938.444 415.153C938.029 415.153 937.653 415.075 937.315 414.919C936.977 414.76 936.708 414.531 936.51 414.233C936.311 413.932 936.211 413.568 936.211 413.142C936.211 412.767 936.285 412.463 936.433 412.23C936.581 411.994 936.778 411.81 937.025 411.676C937.272 411.543 937.545 411.443 937.843 411.378C938.145 411.31 938.447 411.256 938.751 411.216C939.149 411.165 939.471 411.126 939.718 411.101C939.968 411.073 940.15 411.026 940.264 410.96C940.38 410.895 940.439 410.781 940.439 410.619V410.585C940.439 410.165 940.324 409.838 940.093 409.605C939.866 409.372 939.521 409.256 939.058 409.256C938.578 409.256 938.201 409.361 937.929 409.571C937.656 409.781 937.464 410.006 937.353 410.244L936.399 409.903C936.569 409.506 936.797 409.196 937.081 408.974C937.368 408.75 937.68 408.594 938.018 408.506C938.359 408.415 938.694 408.369 939.024 408.369C939.234 408.369 939.475 408.395 939.748 408.446C940.024 408.494 940.289 408.595 940.545 408.749C940.804 408.902 941.018 409.134 941.189 409.443C941.359 409.753 941.444 410.168 941.444 410.688V415H940.439V414.114H940.387C940.319 414.256 940.206 414.408 940.047 414.57C939.887 414.732 939.676 414.869 939.412 414.983C939.147 415.097 938.825 415.153 938.444 415.153ZM938.598 414.25C938.995 414.25 939.331 414.172 939.603 414.016C939.879 413.859 940.086 413.658 940.225 413.411C940.368 413.163 940.439 412.903 940.439 412.631V411.71C940.396 411.761 940.302 411.808 940.157 411.851C940.015 411.891 939.85 411.926 939.663 411.957C939.478 411.986 939.298 412.011 939.122 412.034C938.949 412.054 938.808 412.071 938.7 412.085C938.439 412.119 938.194 412.175 937.967 412.251C937.743 412.325 937.561 412.438 937.422 412.588C937.285 412.736 937.217 412.938 937.217 413.193C937.217 413.543 937.346 413.807 937.605 413.986C937.866 414.162 938.197 414.25 938.598 414.25ZM944.286 411.063V415H943.28V408.455H944.251V409.477H944.337C944.49 409.145 944.723 408.878 945.036 408.676C945.348 408.472 945.751 408.369 946.246 408.369C946.689 408.369 947.077 408.46 947.409 408.642C947.741 408.821 948 409.094 948.185 409.46C948.369 409.824 948.462 410.284 948.462 410.841V415H947.456V410.909C947.456 410.395 947.322 409.994 947.055 409.707C946.788 409.418 946.422 409.273 945.956 409.273C945.635 409.273 945.348 409.342 945.095 409.482C944.845 409.621 944.648 409.824 944.503 410.091C944.358 410.358 944.286 410.682 944.286 411.063ZM952.958 415.136C952.345 415.136 951.816 414.992 951.373 414.702C950.93 414.412 950.589 414.013 950.35 413.504C950.112 412.996 949.993 412.415 949.993 411.761C949.993 411.097 950.115 410.51 950.359 410.001C950.606 409.49 950.95 409.091 951.39 408.804C951.833 408.514 952.35 408.369 952.941 408.369C953.402 408.369 953.816 408.455 954.186 408.625C954.555 408.796 954.858 409.034 955.093 409.341C955.329 409.648 955.475 410.006 955.532 410.415H954.527C954.45 410.117 954.279 409.852 954.015 409.622C953.754 409.389 953.402 409.273 952.958 409.273C952.566 409.273 952.223 409.375 951.927 409.58C951.635 409.781 951.406 410.067 951.241 410.436C951.079 410.803 950.998 411.233 950.998 411.727C950.998 412.233 951.078 412.673 951.237 413.048C951.399 413.423 951.626 413.715 951.919 413.922C952.214 414.129 952.561 414.233 952.958 414.233C953.22 414.233 953.457 414.188 953.67 414.097C953.883 414.006 954.064 413.875 954.211 413.705C954.359 413.534 954.464 413.33 954.527 413.091H955.532C955.475 413.477 955.335 413.825 955.11 414.135C954.889 414.442 954.595 414.686 954.228 414.868C953.865 415.047 953.441 415.136 952.958 415.136ZM959.747 415.136C959.116 415.136 958.572 414.997 958.115 414.719C957.66 414.438 957.309 414.046 957.062 413.543C956.818 413.037 956.696 412.449 956.696 411.778C956.696 411.108 956.818 410.517 957.062 410.006C957.309 409.492 957.653 409.091 958.093 408.804C958.537 408.514 959.054 408.369 959.645 408.369C959.985 408.369 960.322 408.426 960.654 408.54C960.987 408.653 961.289 408.838 961.562 409.094C961.835 409.347 962.052 409.682 962.214 410.099C962.376 410.517 962.457 411.031 962.457 411.642V412.068H957.412V411.199H961.434C961.434 410.83 961.36 410.5 961.213 410.21C961.068 409.921 960.86 409.692 960.591 409.524C960.324 409.357 960.008 409.273 959.645 409.273C959.244 409.273 958.897 409.372 958.605 409.571C958.315 409.767 958.092 410.023 957.936 410.338C957.779 410.653 957.701 410.992 957.701 411.352V411.932C957.701 412.426 957.787 412.845 957.957 413.189C958.13 413.53 958.37 413.79 958.677 413.969C958.984 414.145 959.341 414.233 959.747 414.233C960.011 414.233 960.25 414.196 960.463 414.122C960.679 414.046 960.865 413.932 961.021 413.781C961.177 413.628 961.298 413.438 961.383 413.21L962.355 413.483C962.252 413.813 962.081 414.102 961.839 414.352C961.598 414.599 961.299 414.793 960.944 414.932C960.589 415.068 960.19 415.136 959.747 415.136Z" fill="black"/>
<path d="M895.83 464.455C895.778 464.023 895.571 463.688 895.207 463.449C894.844 463.21 894.398 463.091 893.869 463.091C893.483 463.091 893.145 463.153 892.855 463.278C892.568 463.403 892.344 463.575 892.182 463.794C892.023 464.013 891.943 464.261 891.943 464.54C891.943 464.773 891.999 464.973 892.109 465.141C892.223 465.305 892.368 465.443 892.544 465.554C892.72 465.662 892.905 465.751 893.098 465.822C893.291 465.891 893.469 465.946 893.631 465.989L894.517 466.227C894.744 466.287 894.997 466.369 895.276 466.474C895.557 466.58 895.825 466.723 896.081 466.905C896.339 467.084 896.553 467.314 896.72 467.595C896.888 467.876 896.972 468.222 896.972 468.631C896.972 469.102 896.848 469.528 896.601 469.909C896.357 470.29 895.999 470.592 895.527 470.817C895.058 471.041 894.489 471.153 893.818 471.153C893.193 471.153 892.652 471.053 892.195 470.851C891.74 470.649 891.382 470.368 891.121 470.007C890.862 469.646 890.716 469.227 890.682 468.75H891.773C891.801 469.08 891.912 469.352 892.105 469.568C892.301 469.781 892.548 469.94 892.847 470.045C893.148 470.148 893.472 470.199 893.818 470.199C894.222 470.199 894.584 470.134 894.905 470.003C895.226 469.869 895.48 469.685 895.668 469.449C895.855 469.21 895.949 468.932 895.949 468.614C895.949 468.324 895.868 468.088 895.706 467.906C895.544 467.724 895.331 467.577 895.067 467.463C894.803 467.349 894.517 467.25 894.21 467.165L893.136 466.858C892.455 466.662 891.915 466.382 891.517 466.018C891.119 465.655 890.92 465.179 890.92 464.591C890.92 464.102 891.053 463.676 891.317 463.312C891.584 462.946 891.942 462.662 892.391 462.46C892.842 462.256 893.347 462.153 893.903 462.153C894.466 462.153 894.966 462.254 895.403 462.456C895.841 462.655 896.188 462.928 896.443 463.274C896.702 463.621 896.838 464.014 896.852 464.455H895.83ZM902.698 468.324V464.455H903.703V471H902.698V469.892H902.63C902.476 470.224 902.238 470.507 901.914 470.74C901.59 470.97 901.181 471.085 900.686 471.085C900.277 471.085 899.914 470.996 899.596 470.817C899.277 470.635 899.027 470.362 898.846 469.999C898.664 469.632 898.573 469.17 898.573 468.614V464.455H899.578V468.545C899.578 469.023 899.712 469.403 899.979 469.688C900.249 469.972 900.593 470.114 901.01 470.114C901.26 470.114 901.515 470.05 901.773 469.922C902.034 469.794 902.253 469.598 902.429 469.334C902.608 469.07 902.698 468.733 902.698 468.324ZM905.545 473.455V464.455H906.517V465.494H906.636C906.71 465.381 906.813 465.236 906.943 465.06C907.077 464.881 907.267 464.722 907.514 464.582C907.764 464.44 908.102 464.369 908.528 464.369C909.08 464.369 909.565 464.507 909.986 464.783C910.406 465.058 910.734 465.449 910.97 465.955C911.206 466.46 911.324 467.057 911.324 467.744C911.324 468.438 911.206 469.038 910.97 469.547C910.734 470.053 910.408 470.445 909.99 470.723C909.572 470.999 909.091 471.136 908.545 471.136C908.125 471.136 907.788 471.067 907.536 470.928C907.283 470.786 907.088 470.625 906.952 470.446C906.815 470.264 906.71 470.114 906.636 469.994H906.551V473.455H905.545ZM906.534 467.727C906.534 468.222 906.607 468.658 906.751 469.036C906.896 469.411 907.108 469.705 907.386 469.918C907.665 470.128 908.006 470.233 908.409 470.233C908.83 470.233 909.18 470.122 909.462 469.901C909.746 469.676 909.959 469.375 910.101 468.997C910.246 468.616 910.318 468.193 910.318 467.727C910.318 467.267 910.247 466.852 910.105 466.483C909.966 466.111 909.754 465.817 909.47 465.601C909.189 465.382 908.835 465.273 908.409 465.273C908 465.273 907.656 465.376 907.378 465.584C907.099 465.788 906.889 466.075 906.747 466.445C906.605 466.811 906.534 467.239 906.534 467.727ZM912.858 473.455V464.455H913.83V465.494H913.949C914.023 465.381 914.125 465.236 914.256 465.06C914.389 464.881 914.58 464.722 914.827 464.582C915.077 464.44 915.415 464.369 915.841 464.369C916.392 464.369 916.878 464.507 917.298 464.783C917.719 465.058 918.047 465.449 918.283 465.955C918.518 466.46 918.636 467.057 918.636 467.744C918.636 468.438 918.518 469.038 918.283 469.547C918.047 470.053 917.72 470.445 917.303 470.723C916.885 470.999 916.403 471.136 915.858 471.136C915.438 471.136 915.101 471.067 914.848 470.928C914.595 470.786 914.401 470.625 914.264 470.446C914.128 470.264 914.023 470.114 913.949 469.994H913.864V473.455H912.858ZM913.847 467.727C913.847 468.222 913.919 468.658 914.064 469.036C914.209 469.411 914.42 469.705 914.699 469.918C914.977 470.128 915.318 470.233 915.722 470.233C916.142 470.233 916.493 470.122 916.774 469.901C917.058 469.676 917.271 469.375 917.413 468.997C917.558 468.616 917.631 468.193 917.631 467.727C917.631 467.267 917.56 466.852 917.418 466.483C917.278 466.111 917.067 465.817 916.783 465.601C916.501 465.382 916.148 465.273 915.722 465.273C915.313 465.273 914.969 465.376 914.69 465.584C914.412 465.788 914.202 466.075 914.06 466.445C913.918 466.811 913.847 467.239 913.847 467.727ZM922.83 471.136C922.239 471.136 921.72 470.996 921.274 470.714C920.831 470.433 920.484 470.04 920.234 469.534C919.987 469.028 919.864 468.437 919.864 467.761C919.864 467.08 919.987 466.484 920.234 465.976C920.484 465.467 920.831 465.072 921.274 464.791C921.72 464.51 922.239 464.369 922.83 464.369C923.42 464.369 923.938 464.51 924.381 464.791C924.827 465.072 925.173 465.467 925.42 465.976C925.67 466.484 925.795 467.08 925.795 467.761C925.795 468.437 925.67 469.028 925.42 469.534C925.173 470.04 924.827 470.433 924.381 470.714C923.938 470.996 923.42 471.136 922.83 471.136ZM922.83 470.233C923.278 470.233 923.648 470.118 923.938 469.888C924.227 469.658 924.442 469.355 924.581 468.98C924.72 468.605 924.79 468.199 924.79 467.761C924.79 467.324 924.72 466.916 924.581 466.538C924.442 466.161 924.227 465.855 923.938 465.622C923.648 465.389 923.278 465.273 922.83 465.273C922.381 465.273 922.011 465.389 921.722 465.622C921.432 465.855 921.217 466.161 921.078 466.538C920.939 466.916 920.869 467.324 920.869 467.761C920.869 468.199 920.939 468.605 921.078 468.98C921.217 469.355 921.432 469.658 921.722 469.888C922.011 470.118 922.381 470.233 922.83 470.233ZM927.331 471V464.455H928.302V465.443H928.37C928.49 465.119 928.706 464.857 929.018 464.655C929.331 464.453 929.683 464.352 930.075 464.352C930.149 464.352 930.241 464.354 930.352 464.357C930.463 464.359 930.547 464.364 930.603 464.369V465.392C930.569 465.384 930.491 465.371 930.369 465.354C930.25 465.334 930.123 465.324 929.99 465.324C929.672 465.324 929.387 465.391 929.137 465.524C928.89 465.655 928.694 465.837 928.549 466.07C928.407 466.3 928.336 466.562 928.336 466.858V471H927.331ZM935.052 464.455V465.307H931.66V464.455H935.052ZM932.649 462.886H933.654V469.125C933.654 469.409 933.696 469.622 933.778 469.764C933.863 469.903 933.971 469.997 934.102 470.045C934.235 470.091 934.376 470.114 934.524 470.114C934.635 470.114 934.725 470.108 934.797 470.097C934.868 470.082 934.924 470.071 934.967 470.062L935.172 470.966C935.103 470.991 935.008 471.017 934.886 471.043C934.764 471.071 934.609 471.085 934.422 471.085C934.137 471.085 933.859 471.024 933.586 470.902C933.316 470.78 933.092 470.594 932.913 470.344C932.737 470.094 932.649 469.778 932.649 469.398V462.886Z" fill="black"/>
<path d="M891.415 359H890.307L893.511 350.273H894.602L897.807 359H896.699L894.091 351.653H894.023L891.415 359ZM891.824 355.591H896.29V356.528H891.824V355.591ZM903.155 356.324V352.455H904.161V359H903.155V357.892H903.087C902.933 358.224 902.695 358.507 902.371 358.74C902.047 358.97 901.638 359.085 901.143 359.085C900.734 359.085 900.371 358.996 900.053 358.817C899.734 358.635 899.484 358.362 899.303 357.999C899.121 357.632 899.03 357.171 899.03 356.614V352.455H900.036V356.546C900.036 357.023 900.169 357.403 900.436 357.688C900.706 357.972 901.05 358.114 901.467 358.114C901.717 358.114 901.972 358.05 902.23 357.922C902.491 357.794 902.71 357.598 902.886 357.334C903.065 357.07 903.155 356.733 903.155 356.324ZM908.849 352.455V353.307H905.457V352.455H908.849ZM906.446 350.886H907.451V357.125C907.451 357.409 907.493 357.622 907.575 357.764C907.66 357.903 907.768 357.997 907.899 358.046C908.032 358.091 908.173 358.114 908.321 358.114C908.431 358.114 908.522 358.108 908.593 358.097C908.664 358.082 908.721 358.071 908.764 358.063L908.968 358.966C908.9 358.992 908.805 359.017 908.683 359.043C908.561 359.071 908.406 359.085 908.218 359.085C907.934 359.085 907.656 359.024 907.383 358.902C907.113 358.78 906.889 358.594 906.71 358.344C906.534 358.094 906.446 357.778 906.446 357.398V350.886ZM911.508 355.063V359H910.502V350.273H911.508V353.477H911.593C911.747 353.139 911.977 352.871 912.284 352.672C912.593 352.47 913.005 352.369 913.52 352.369C913.966 352.369 914.356 352.459 914.691 352.638C915.027 352.814 915.287 353.085 915.471 353.452C915.659 353.815 915.752 354.278 915.752 354.841V359H914.747V354.909C914.747 354.389 914.612 353.987 914.342 353.703C914.075 353.416 913.704 353.273 913.23 353.273C912.9 353.273 912.605 353.342 912.343 353.482C912.085 353.621 911.88 353.824 911.73 354.091C911.582 354.358 911.508 354.682 911.508 355.063ZM920.337 359.136C919.706 359.136 919.162 358.997 918.705 358.719C918.25 358.438 917.899 358.046 917.652 357.543C917.408 357.037 917.286 356.449 917.286 355.778C917.286 355.108 917.408 354.517 917.652 354.006C917.899 353.492 918.243 353.091 918.683 352.804C919.126 352.514 919.643 352.369 920.234 352.369C920.575 352.369 920.912 352.426 921.244 352.54C921.577 352.653 921.879 352.838 922.152 353.094C922.425 353.347 922.642 353.682 922.804 354.099C922.966 354.517 923.047 355.031 923.047 355.642V356.068H918.001V355.199H922.024C922.024 354.83 921.95 354.5 921.803 354.21C921.658 353.921 921.45 353.692 921.18 353.524C920.913 353.357 920.598 353.273 920.234 353.273C919.834 353.273 919.487 353.372 919.195 353.571C918.905 353.767 918.682 354.023 918.526 354.338C918.369 354.653 918.291 354.992 918.291 355.352V355.932C918.291 356.426 918.376 356.845 918.547 357.189C918.72 357.53 918.96 357.79 919.267 357.969C919.574 358.145 919.93 358.233 920.337 358.233C920.601 358.233 920.839 358.196 921.053 358.122C921.268 358.046 921.455 357.932 921.611 357.781C921.767 357.628 921.888 357.438 921.973 357.21L922.945 357.483C922.842 357.813 922.67 358.102 922.429 358.352C922.188 358.599 921.889 358.793 921.534 358.932C921.179 359.068 920.78 359.136 920.337 359.136ZM925.582 355.063V359H924.577V352.455H925.548V353.477H925.634C925.787 353.145 926.02 352.878 926.332 352.676C926.645 352.472 927.048 352.369 927.543 352.369C927.986 352.369 928.374 352.46 928.706 352.642C929.038 352.821 929.297 353.094 929.482 353.46C929.666 353.824 929.759 354.284 929.759 354.841V359H928.753V354.909C928.753 354.395 928.619 353.994 928.352 353.707C928.085 353.418 927.719 353.273 927.253 353.273C926.932 353.273 926.645 353.342 926.392 353.482C926.142 353.621 925.945 353.824 925.8 354.091C925.655 354.358 925.582 354.682 925.582 355.063ZM934.443 352.455V353.307H931.051V352.455H934.443ZM932.039 350.886H933.045V357.125C933.045 357.409 933.086 357.622 933.169 357.764C933.254 357.903 933.362 357.997 933.493 358.046C933.626 358.091 933.767 358.114 933.914 358.114C934.025 358.114 934.116 358.108 934.187 358.097C934.258 358.082 934.315 358.071 934.358 358.063L934.562 358.966C934.494 358.992 934.399 359.017 934.277 359.043C934.154 359.071 934 359.085 933.812 359.085C933.528 359.085 933.25 359.024 932.977 358.902C932.707 358.78 932.483 358.594 932.304 358.344C932.127 358.094 932.039 357.778 932.039 357.398V350.886ZM935.956 359V352.455H936.961V359H935.956ZM936.467 351.364C936.271 351.364 936.102 351.297 935.96 351.163C935.821 351.03 935.751 350.869 935.751 350.682C935.751 350.494 935.821 350.334 935.96 350.2C936.102 350.067 936.271 350 936.467 350C936.663 350 936.831 350.067 936.97 350.2C937.112 350.334 937.183 350.494 937.183 350.682C937.183 350.869 937.112 351.03 936.97 351.163C936.831 351.297 936.663 351.364 936.467 351.364ZM941.462 359.136C940.849 359.136 940.32 358.992 939.877 358.702C939.434 358.412 939.093 358.013 938.854 357.504C938.616 356.996 938.496 356.415 938.496 355.761C938.496 355.097 938.619 354.51 938.863 354.001C939.11 353.49 939.454 353.091 939.894 352.804C940.337 352.514 940.854 352.369 941.445 352.369C941.906 352.369 942.32 352.455 942.69 352.625C943.059 352.796 943.362 353.034 943.597 353.341C943.833 353.648 943.979 354.006 944.036 354.415H943.031C942.954 354.117 942.783 353.852 942.519 353.622C942.258 353.389 941.906 353.273 941.462 353.273C941.07 353.273 940.727 353.375 940.431 353.58C940.138 353.781 939.91 354.067 939.745 354.436C939.583 354.803 939.502 355.233 939.502 355.727C939.502 356.233 939.582 356.673 939.741 357.048C939.903 357.423 940.13 357.715 940.423 357.922C940.718 358.129 941.065 358.233 941.462 358.233C941.724 358.233 941.961 358.188 942.174 358.097C942.387 358.006 942.567 357.875 942.715 357.705C942.863 357.534 942.968 357.33 943.031 357.091H944.036C943.979 357.477 943.839 357.825 943.614 358.135C943.393 358.442 943.099 358.686 942.732 358.868C942.369 359.047 941.945 359.136 941.462 359.136ZM947.433 359.153C947.018 359.153 946.641 359.075 946.303 358.919C945.965 358.76 945.697 358.531 945.498 358.233C945.299 357.932 945.2 357.568 945.2 357.142C945.2 356.767 945.273 356.463 945.421 356.23C945.569 355.994 945.766 355.81 946.013 355.676C946.261 355.543 946.533 355.443 946.832 355.378C947.133 355.31 947.435 355.256 947.739 355.216C948.137 355.165 948.46 355.126 948.707 355.101C948.957 355.073 949.138 355.026 949.252 354.96C949.369 354.895 949.427 354.781 949.427 354.619V354.585C949.427 354.165 949.312 353.838 949.082 353.605C948.854 353.372 948.509 353.256 948.046 353.256C947.566 353.256 947.19 353.361 946.917 353.571C946.644 353.781 946.452 354.006 946.342 354.244L945.387 353.903C945.558 353.506 945.785 353.196 946.069 352.974C946.356 352.75 946.668 352.594 947.006 352.506C947.347 352.415 947.683 352.369 948.012 352.369C948.222 352.369 948.464 352.395 948.737 352.446C949.012 352.494 949.278 352.595 949.533 352.749C949.792 352.902 950.006 353.134 950.177 353.443C950.347 353.753 950.433 354.168 950.433 354.688V359H949.427V358.114H949.376C949.308 358.256 949.194 358.408 949.035 358.57C948.876 358.732 948.664 358.869 948.4 358.983C948.136 359.097 947.813 359.153 947.433 359.153ZM947.586 358.25C947.984 358.25 948.319 358.172 948.592 358.016C948.867 357.859 949.075 357.658 949.214 357.411C949.356 357.163 949.427 356.903 949.427 356.631V355.71C949.384 355.761 949.29 355.808 949.146 355.851C949.004 355.891 948.839 355.926 948.651 355.957C948.467 355.986 948.286 356.011 948.11 356.034C947.937 356.054 947.796 356.071 947.688 356.085C947.427 356.119 947.183 356.175 946.955 356.251C946.731 356.325 946.549 356.438 946.41 356.588C946.273 356.736 946.205 356.938 946.205 357.193C946.205 357.543 946.335 357.807 946.593 357.986C946.854 358.162 947.185 358.25 947.586 358.25ZM955.115 352.455V353.307H951.723V352.455H955.115ZM952.711 350.886H953.717V357.125C953.717 357.409 953.758 357.622 953.841 357.764C953.926 357.903 954.034 357.997 954.164 358.046C954.298 358.091 954.439 358.114 954.586 358.114C954.697 358.114 954.788 358.108 954.859 358.097C954.93 358.082 954.987 358.071 955.029 358.063L955.234 358.966C955.166 358.992 955.071 359.017 954.949 359.043C954.826 359.071 954.672 359.085 954.484 359.085C954.2 359.085 953.922 359.024 953.649 358.902C953.379 358.78 953.154 358.594 952.975 358.344C952.799 358.094 952.711 357.778 952.711 357.398V350.886ZM956.627 359V352.455H957.633V359H956.627ZM957.139 351.364C956.943 351.364 956.774 351.297 956.632 351.163C956.493 351.03 956.423 350.869 956.423 350.682C956.423 350.494 956.493 350.334 956.632 350.2C956.774 350.067 956.943 350 957.139 350C957.335 350 957.502 350.067 957.642 350.2C957.784 350.334 957.855 350.494 957.855 350.682C957.855 350.869 957.784 351.03 957.642 351.163C957.502 351.297 957.335 351.364 957.139 351.364ZM962.134 359.136C961.543 359.136 961.025 358.996 960.579 358.715C960.136 358.433 959.789 358.04 959.539 357.534C959.292 357.028 959.168 356.438 959.168 355.761C959.168 355.08 959.292 354.484 959.539 353.976C959.789 353.467 960.136 353.073 960.579 352.791C961.025 352.51 961.543 352.369 962.134 352.369C962.725 352.369 963.242 352.51 963.685 352.791C964.131 353.073 964.478 353.467 964.725 353.976C964.975 354.484 965.1 355.08 965.1 355.761C965.1 356.438 964.975 357.028 964.725 357.534C964.478 358.04 964.131 358.433 963.685 358.715C963.242 358.996 962.725 359.136 962.134 359.136ZM962.134 358.233C962.583 358.233 962.952 358.118 963.242 357.888C963.532 357.658 963.746 357.355 963.886 356.98C964.025 356.605 964.094 356.199 964.094 355.761C964.094 355.324 964.025 354.916 963.886 354.538C963.746 354.161 963.532 353.855 963.242 353.622C962.952 353.389 962.583 353.273 962.134 353.273C961.685 353.273 961.316 353.389 961.026 353.622C960.737 353.855 960.522 354.161 960.383 354.538C960.244 354.916 960.174 355.324 960.174 355.761C960.174 356.199 960.244 356.605 960.383 356.98C960.522 357.355 960.737 357.658 961.026 357.888C961.316 358.118 961.685 358.233 962.134 358.233ZM967.641 355.063V359H966.635V352.455H967.607V353.477H967.692C967.846 353.145 968.078 352.878 968.391 352.676C968.703 352.472 969.107 352.369 969.601 352.369C970.044 352.369 970.432 352.46 970.765 352.642C971.097 352.821 971.355 353.094 971.54 353.46C971.725 353.824 971.817 354.284 971.817 354.841V359H970.811V354.909C970.811 354.395 970.678 353.994 970.411 353.707C970.144 353.418 969.777 353.273 969.311 353.273C968.99 353.273 968.703 353.342 968.451 353.482C968.201 353.621 968.003 353.824 967.858 354.091C967.713 354.358 967.641 354.682 967.641 355.063Z" fill="black"/>
<path d="M895.75 527H893.057V518.273H895.869C896.716 518.273 897.44 518.447 898.043 518.797C898.645 519.143 899.107 519.642 899.428 520.292C899.749 520.94 899.909 521.716 899.909 522.619C899.909 523.528 899.747 524.311 899.423 524.967C899.099 525.621 898.628 526.123 898.009 526.476C897.389 526.825 896.636 527 895.75 527ZM894.114 526.062H895.682C896.403 526.062 897.001 525.923 897.476 525.645C897.95 525.366 898.304 524.97 898.537 524.456C898.77 523.942 898.886 523.329 898.886 522.619C898.886 521.915 898.771 521.308 898.541 520.8C898.311 520.288 897.967 519.896 897.51 519.623C897.053 519.348 896.483 519.21 895.801 519.21H894.114V526.062ZM903.472 527.153C903.057 527.153 902.68 527.075 902.342 526.919C902.004 526.76 901.736 526.531 901.537 526.233C901.338 525.932 901.239 525.568 901.239 525.142C901.239 524.767 901.313 524.463 901.46 524.23C901.608 523.994 901.805 523.81 902.053 523.676C902.3 523.542 902.572 523.443 902.871 523.378C903.172 523.31 903.474 523.256 903.778 523.216C904.176 523.165 904.499 523.126 904.746 523.101C904.996 523.072 905.178 523.025 905.291 522.96C905.408 522.895 905.466 522.781 905.466 522.619V522.585C905.466 522.165 905.351 521.838 905.121 521.605C904.893 521.372 904.548 521.256 904.085 521.256C903.605 521.256 903.229 521.361 902.956 521.571C902.683 521.781 902.491 522.006 902.381 522.244L901.426 521.903C901.597 521.506 901.824 521.196 902.108 520.974C902.395 520.75 902.707 520.594 903.045 520.506C903.386 520.415 903.722 520.369 904.051 520.369C904.261 520.369 904.503 520.395 904.776 520.446C905.051 520.494 905.317 520.595 905.572 520.748C905.831 520.902 906.045 521.133 906.216 521.443C906.386 521.753 906.472 522.167 906.472 522.687V527H905.466V526.114H905.415C905.347 526.256 905.233 526.408 905.074 526.569C904.915 526.731 904.703 526.869 904.439 526.983C904.175 527.096 903.852 527.153 903.472 527.153ZM903.625 526.25C904.023 526.25 904.358 526.172 904.631 526.016C904.906 525.859 905.114 525.658 905.253 525.41C905.395 525.163 905.466 524.903 905.466 524.631V523.71C905.423 523.761 905.33 523.808 905.185 523.851C905.043 523.891 904.878 523.926 904.69 523.957C904.506 523.986 904.325 524.011 904.149 524.034C903.976 524.054 903.835 524.071 903.727 524.085C903.466 524.119 903.222 524.175 902.994 524.251C902.77 524.325 902.588 524.437 902.449 524.588C902.313 524.736 902.244 524.937 902.244 525.193C902.244 525.542 902.374 525.807 902.632 525.986C902.893 526.162 903.224 526.25 903.625 526.25ZM911.154 520.454V521.307H907.762V520.454H911.154ZM908.75 518.886H909.756V525.125C909.756 525.409 909.797 525.622 909.88 525.764C909.965 525.903 910.073 525.997 910.203 526.045C910.337 526.091 910.478 526.114 910.625 526.114C910.736 526.114 910.827 526.108 910.898 526.096C910.969 526.082 911.026 526.071 911.069 526.062L911.273 526.966C911.205 526.991 911.11 527.017 910.988 527.042C910.865 527.071 910.711 527.085 910.523 527.085C910.239 527.085 909.961 527.024 909.688 526.902C909.418 526.78 909.194 526.594 909.015 526.344C908.838 526.094 908.75 525.778 908.75 525.398V518.886ZM914.593 527.153C914.178 527.153 913.801 527.075 913.463 526.919C913.125 526.76 912.857 526.531 912.658 526.233C912.459 525.932 912.36 525.568 912.36 525.142C912.36 524.767 912.434 524.463 912.581 524.23C912.729 523.994 912.926 523.81 913.174 523.676C913.421 523.542 913.694 523.443 913.992 523.378C914.293 523.31 914.596 523.256 914.9 523.216C915.297 523.165 915.62 523.126 915.867 523.101C916.117 523.072 916.299 523.025 916.412 522.96C916.529 522.895 916.587 522.781 916.587 522.619V522.585C916.587 522.165 916.472 521.838 916.242 521.605C916.015 521.372 915.669 521.256 915.206 521.256C914.726 521.256 914.35 521.361 914.077 521.571C913.804 521.781 913.613 522.006 913.502 522.244L912.547 521.903C912.718 521.506 912.945 521.196 913.229 520.974C913.516 520.75 913.828 520.594 914.167 520.506C914.507 520.415 914.843 520.369 915.172 520.369C915.382 520.369 915.624 520.395 915.897 520.446C916.172 520.494 916.438 520.595 916.694 520.748C916.952 520.902 917.167 521.133 917.337 521.443C917.507 521.753 917.593 522.167 917.593 522.687V527H916.587V526.114H916.536C916.468 526.256 916.354 526.408 916.195 526.569C916.036 526.731 915.824 526.869 915.56 526.983C915.296 527.096 914.973 527.153 914.593 527.153ZM914.746 526.25C915.144 526.25 915.479 526.172 915.752 526.016C916.027 525.859 916.235 525.658 916.374 525.41C916.516 525.163 916.587 524.903 916.587 524.631V523.71C916.544 523.761 916.451 523.808 916.306 523.851C916.164 523.891 915.999 523.926 915.811 523.957C915.627 523.986 915.446 524.011 915.27 524.034C915.097 524.054 914.956 524.071 914.848 524.085C914.587 524.119 914.343 524.175 914.115 524.251C913.891 524.325 913.709 524.437 913.57 524.588C913.434 524.736 913.365 524.937 913.365 525.193C913.365 525.542 913.495 525.807 913.753 525.986C914.015 526.162 914.346 526.25 914.746 526.25Z" fill="black"/>
<circle cx="989.5" cy="355.5" r="3.5" fill="#C92027"/>
<circle cx="989.5" cy="414.5" r="3.5" fill="#333333"/>
<circle cx="989.5" cy="467.5" r="3.5" fill="#C92027"/>
<circle cx="989.5" cy="523.5" r="3.5" fill="#333333"/>
<path d="M988 356L1012.19 375.478C1014.75 377.538 1016.75 380.202 1018.02 383.231V383.231C1022.38 393.593 1017.24 405.496 1006.71 409.437L991.855 415" stroke="black"/>
<path d="M989 415L1012.8 432.678C1015.13 434.409 1016.98 436.702 1018.18 439.344V439.344C1022.37 448.553 1017.73 459.373 1008.16 462.677L992.754 468" stroke="black"/>
<path d="M989 467L1013.19 486.478C1015.75 488.538 1017.75 491.202 1019.02 494.23V494.23C1023.38 504.593 1018.24 516.496 1007.71 520.437L992.855 526" stroke="black"/>
<path d="M1479.5 552.5L1587.5 554.5L1578.5 566.5L1554 568.5H1530H1481L1475 563.5L1479.5 552.5Z" fill="#C92027"/>
<path d="M1527.5 568.5H1549.5L1553.5 578L1550.5 586.5H1527.5L1529.5 580L1531.5 574L1527.5 568.5Z" fill="#C92027"/>
<path d="M822.5 299L857 264L858.5 585H822.5V299Z" fill="#C92027"/>
<rect x="1432.5" y="613.5" width="223" height="56" fill="white" stroke="black"/>
<path d="M1505.93 634H1502.41C1502.2 632.986 1501.84 632.096 1501.32 631.329C1500.8 630.562 1500.18 629.918 1499.44 629.397C1498.71 628.867 1497.9 628.469 1497.01 628.204C1496.12 627.939 1495.19 627.807 1494.23 627.807C1492.47 627.807 1490.87 628.252 1489.44 629.142C1488.02 630.032 1486.89 631.344 1486.05 633.076C1485.21 634.809 1484.8 636.935 1484.8 639.454C1484.8 641.973 1485.21 644.099 1486.05 645.832C1486.89 647.565 1488.02 648.877 1489.44 649.767C1490.87 650.657 1492.47 651.102 1494.23 651.102C1495.19 651.102 1496.12 650.969 1497.01 650.704C1497.9 650.439 1498.71 650.046 1499.44 649.525C1500.18 648.995 1500.8 648.346 1501.32 647.579C1501.84 646.803 1502.2 645.913 1502.41 644.909H1505.93C1505.67 646.396 1505.18 647.726 1504.48 648.9C1503.78 650.075 1502.91 651.074 1501.87 651.897C1500.83 652.712 1499.66 653.332 1498.36 653.758C1497.07 654.184 1495.7 654.397 1494.23 654.397C1491.75 654.397 1489.54 653.791 1487.61 652.579C1485.68 651.367 1484.16 649.644 1483.05 647.409C1481.94 645.174 1481.39 642.522 1481.39 639.454C1481.39 636.386 1481.94 633.735 1483.05 631.5C1484.16 629.265 1485.68 627.541 1487.61 626.329C1489.54 625.117 1491.75 624.511 1494.23 624.511C1495.7 624.511 1497.07 624.724 1498.36 625.15C1499.66 625.576 1500.83 626.201 1501.87 627.025C1502.91 627.84 1503.78 628.834 1504.48 630.008C1505.18 631.173 1505.67 632.504 1505.93 634ZM1514.52 624.909V654H1511.17V624.909H1514.52ZM1520.66 654V632.182H1524.01V654H1520.66ZM1522.37 628.545C1521.71 628.545 1521.15 628.323 1520.68 627.878C1520.21 627.433 1519.98 626.897 1519.98 626.272C1519.98 625.647 1520.21 625.112 1520.68 624.667C1521.15 624.222 1521.71 624 1522.37 624C1523.02 624 1523.58 624.222 1524.04 624.667C1524.52 625.112 1524.75 625.647 1524.75 626.272C1524.75 626.897 1524.52 627.433 1524.04 627.878C1523.58 628.323 1523.02 628.545 1522.37 628.545ZM1539.3 654.454C1537.2 654.454 1535.39 653.99 1533.86 653.062C1532.35 652.125 1531.18 650.818 1530.35 649.142C1529.54 647.456 1529.13 645.496 1529.13 643.261C1529.13 641.026 1529.54 639.057 1530.35 637.352C1531.18 635.638 1532.32 634.303 1533.79 633.346C1535.27 632.38 1536.99 631.897 1538.96 631.897C1540.1 631.897 1541.22 632.087 1542.33 632.466C1543.44 632.844 1544.44 633.46 1545.35 634.312C1546.26 635.155 1546.99 636.272 1547.53 637.665C1548.07 639.057 1548.34 640.771 1548.34 642.807V644.227H1531.52V641.329H1544.93C1544.93 640.098 1544.68 639 1544.19 638.034C1543.71 637.068 1543.01 636.306 1542.11 635.747C1541.22 635.188 1540.17 634.909 1538.96 634.909C1537.63 634.909 1536.47 635.24 1535.5 635.903C1534.53 636.557 1533.79 637.409 1533.26 638.46C1532.74 639.511 1532.48 640.638 1532.48 641.841V643.772C1532.48 645.42 1532.77 646.817 1533.34 647.963C1533.91 649.099 1534.71 649.966 1535.74 650.562C1536.76 651.149 1537.95 651.443 1539.3 651.443C1540.18 651.443 1540.98 651.32 1541.69 651.074C1542.41 650.818 1543.03 650.439 1543.55 649.937C1544.07 649.426 1544.47 648.791 1544.76 648.034L1548 648.943C1547.65 650.041 1547.08 651.007 1546.28 651.841C1545.47 652.665 1544.48 653.308 1543.29 653.772C1542.11 654.227 1540.78 654.454 1539.3 654.454ZM1556.79 640.875V654H1553.44V632.182H1556.67V635.591H1556.96C1557.47 634.483 1558.25 633.593 1559.29 632.92C1560.33 632.238 1561.67 631.897 1563.32 631.897C1564.8 631.897 1566.09 632.201 1567.2 632.807C1568.31 633.403 1569.17 634.312 1569.78 635.534C1570.4 636.746 1570.71 638.28 1570.71 640.136V654H1567.36V640.363C1567.36 638.649 1566.91 637.314 1566.02 636.358C1565.13 635.392 1563.91 634.909 1562.36 634.909C1561.29 634.909 1560.33 635.141 1559.49 635.605C1558.65 636.069 1558 636.746 1557.51 637.636C1557.03 638.526 1556.79 639.606 1556.79 640.875ZM1586.32 632.182V635.022H1575.02V632.182H1586.32ZM1578.31 626.954H1581.66V647.75C1581.66 648.697 1581.8 649.407 1582.08 649.88C1582.36 650.344 1582.72 650.657 1583.15 650.818C1583.6 650.969 1584.07 651.045 1584.56 651.045C1584.93 651.045 1585.23 651.026 1585.47 650.988C1585.71 650.941 1585.9 650.903 1586.04 650.875L1586.72 653.886C1586.49 653.971 1586.18 654.057 1585.77 654.142C1585.36 654.236 1584.85 654.284 1584.22 654.284C1583.27 654.284 1582.35 654.08 1581.44 653.673C1580.54 653.266 1579.79 652.646 1579.19 651.812C1578.6 650.979 1578.31 649.928 1578.31 648.659V626.954ZM1606.43 637.068L1603.42 637.92C1603.23 637.418 1602.95 636.931 1602.58 636.457C1602.22 635.974 1601.73 635.576 1601.1 635.264C1600.48 634.951 1599.68 634.795 1598.7 634.795C1597.37 634.795 1596.25 635.103 1595.36 635.719C1594.48 636.325 1594.04 637.096 1594.04 638.034C1594.04 638.867 1594.35 639.525 1594.95 640.008C1595.56 640.491 1596.5 640.894 1597.79 641.216L1601.03 642.011C1602.98 642.485 1604.44 643.209 1605.39 644.184C1606.35 645.15 1606.83 646.396 1606.83 647.92C1606.83 649.17 1606.47 650.288 1605.75 651.272C1605.04 652.257 1604.04 653.034 1602.76 653.602C1601.49 654.17 1600 654.454 1598.3 654.454C1596.08 654.454 1594.24 653.971 1592.78 653.005C1591.32 652.04 1590.4 650.629 1590.01 648.772L1593.19 647.977C1593.49 649.151 1594.07 650.032 1594.91 650.619C1595.76 651.206 1596.87 651.5 1598.25 651.5C1599.81 651.5 1601.05 651.168 1601.97 650.505C1602.9 649.833 1603.36 649.028 1603.36 648.091C1603.36 647.333 1603.1 646.699 1602.57 646.187C1602.04 645.666 1601.22 645.278 1600.12 645.022L1596.49 644.17C1594.49 643.697 1593.02 642.963 1592.08 641.969C1591.15 640.965 1590.69 639.71 1590.69 638.204C1590.69 636.973 1591.04 635.884 1591.73 634.937C1592.43 633.99 1593.38 633.247 1594.58 632.707C1595.79 632.167 1597.17 631.897 1598.7 631.897C1600.86 631.897 1602.56 632.371 1603.79 633.318C1605.03 634.265 1605.91 635.515 1606.43 637.068Z" fill="black"/>
<rect x="114.5" y="610.5" width="223" height="56" fill="white" stroke="black"/>
<path d="M155.523 652V622.909H159.045V648.875H172.568V652H155.523ZM186.432 652.454C184.462 652.454 182.734 651.986 181.247 651.048C179.77 650.111 178.615 648.799 177.781 647.114C176.957 645.428 176.545 643.458 176.545 641.204C176.545 638.932 176.957 636.948 177.781 635.253C178.615 633.558 179.77 632.241 181.247 631.304C182.734 630.366 184.462 629.898 186.432 629.898C188.402 629.898 190.125 630.366 191.602 631.304C193.089 632.241 194.244 633.558 195.068 635.253C195.902 636.948 196.318 638.932 196.318 641.204C196.318 643.458 195.902 645.428 195.068 647.114C194.244 648.799 193.089 650.111 191.602 651.048C190.125 651.986 188.402 652.454 186.432 652.454ZM186.432 649.443C187.928 649.443 189.159 649.06 190.125 648.292C191.091 647.525 191.806 646.517 192.27 645.267C192.734 644.017 192.966 642.663 192.966 641.204C192.966 639.746 192.734 638.387 192.27 637.128C191.806 635.868 191.091 634.85 190.125 634.074C189.159 633.297 187.928 632.909 186.432 632.909C184.936 632.909 183.705 633.297 182.739 634.074C181.773 634.85 181.058 635.868 180.594 637.128C180.13 638.387 179.898 639.746 179.898 641.204C179.898 642.663 180.13 644.017 180.594 645.267C181.058 646.517 181.773 647.525 182.739 648.292C183.705 649.06 184.936 649.443 186.432 649.443ZM210.299 652.454C208.254 652.454 206.492 651.971 205.015 651.006C203.538 650.04 202.401 648.709 201.606 647.014C200.81 645.319 200.413 643.382 200.413 641.204C200.413 638.989 200.82 637.033 201.634 635.338C202.458 633.633 203.604 632.303 205.072 631.346C206.549 630.381 208.272 629.898 210.242 629.898C211.776 629.898 213.159 630.182 214.39 630.75C215.621 631.318 216.629 632.114 217.415 633.136C218.201 634.159 218.689 635.352 218.879 636.716H215.526C215.271 635.721 214.702 634.841 213.822 634.074C212.951 633.297 211.776 632.909 210.299 632.909C208.992 632.909 207.846 633.25 206.862 633.932C205.886 634.604 205.124 635.556 204.575 636.787C204.035 638.008 203.765 639.443 203.765 641.091C203.765 642.776 204.03 644.244 204.56 645.494C205.1 646.744 205.858 647.715 206.833 648.406C207.818 649.097 208.973 649.443 210.299 649.443C211.17 649.443 211.961 649.292 212.671 648.989C213.381 648.685 213.983 648.25 214.475 647.682C214.968 647.114 215.318 646.432 215.526 645.636H218.879C218.689 646.924 218.22 648.084 217.472 649.116C216.734 650.139 215.754 650.953 214.532 651.56C213.32 652.156 211.909 652.454 210.299 652.454ZM226.904 644.045L226.847 639.898H227.529L237.075 630.182H241.222L231.052 640.466H230.768L226.904 644.045ZM223.779 652V622.909H227.131V652H223.779ZM237.643 652L229.12 641.204L231.506 638.875L241.904 652H237.643ZM253.786 652.454C251.684 652.454 249.871 651.99 248.346 651.062C246.831 650.125 245.661 648.818 244.837 647.142C244.023 645.456 243.616 643.496 243.616 641.261C243.616 639.026 244.023 637.057 244.837 635.352C245.661 633.638 246.807 632.303 248.275 631.346C249.752 630.381 251.476 629.898 253.445 629.898C254.582 629.898 255.704 630.087 256.812 630.466C257.92 630.845 258.928 631.46 259.837 632.312C260.746 633.155 261.471 634.273 262.011 635.665C262.55 637.057 262.82 638.771 262.82 640.807V642.227H246.002V639.329H259.411C259.411 638.098 259.165 637 258.673 636.034C258.19 635.068 257.498 634.306 256.599 633.747C255.709 633.188 254.657 632.909 253.445 632.909C252.11 632.909 250.955 633.24 249.979 633.903C249.013 634.557 248.27 635.409 247.749 636.46C247.228 637.511 246.968 638.638 246.968 639.841V641.773C246.968 643.42 247.252 644.817 247.82 645.963C248.398 647.099 249.198 647.966 250.221 648.562C251.244 649.149 252.432 649.443 253.786 649.443C254.667 649.443 255.462 649.32 256.173 649.074C256.892 648.818 257.513 648.439 258.033 647.937C258.554 647.426 258.957 646.792 259.241 646.034L262.479 646.943C262.138 648.042 261.566 649.007 260.761 649.841C259.956 650.665 258.961 651.309 257.778 651.773C256.594 652.227 255.263 652.454 253.786 652.454ZM267.92 652V630.182H271.158V633.477H271.386C271.783 632.398 272.503 631.522 273.545 630.849C274.586 630.177 275.761 629.841 277.067 629.841C277.314 629.841 277.621 629.846 277.991 629.855C278.36 629.864 278.639 629.879 278.829 629.898V633.307C278.715 633.278 278.455 633.236 278.048 633.179C277.65 633.113 277.228 633.079 276.783 633.079C275.723 633.079 274.776 633.302 273.942 633.747C273.119 634.183 272.465 634.789 271.982 635.565C271.509 636.332 271.272 637.208 271.272 638.193V652H267.92ZM298.257 635.068L295.246 635.92C295.056 635.418 294.777 634.931 294.408 634.457C294.048 633.974 293.555 633.577 292.93 633.264C292.305 632.952 291.505 632.795 290.53 632.795C289.195 632.795 288.082 633.103 287.192 633.719C286.311 634.325 285.871 635.096 285.871 636.034C285.871 636.867 286.174 637.525 286.78 638.008C287.386 638.491 288.333 638.894 289.621 639.216L292.859 640.011C294.81 640.485 296.264 641.209 297.22 642.185C298.177 643.15 298.655 644.396 298.655 645.92C298.655 647.17 298.295 648.288 297.575 649.273C296.865 650.257 295.871 651.034 294.592 651.602C293.314 652.17 291.827 652.454 290.132 652.454C287.907 652.454 286.065 651.971 284.607 651.006C283.148 650.04 282.225 648.629 281.837 646.773L285.018 645.977C285.321 647.151 285.894 648.032 286.737 648.619C287.589 649.206 288.702 649.5 290.075 649.5C291.638 649.5 292.878 649.168 293.797 648.506C294.725 647.833 295.189 647.028 295.189 646.091C295.189 645.333 294.924 644.699 294.393 644.187C293.863 643.667 293.049 643.278 291.95 643.023L288.314 642.17C286.316 641.697 284.848 640.963 283.911 639.969C282.982 638.965 282.518 637.71 282.518 636.204C282.518 634.973 282.864 633.884 283.555 632.937C284.256 631.99 285.208 631.247 286.411 630.707C287.623 630.167 288.996 629.898 290.53 629.898C292.689 629.898 294.384 630.371 295.615 631.318C296.856 632.265 297.736 633.515 298.257 635.068Z" fill="black"/>
<rect x="1381.5" y="404.5" width="38" height="34" fill="white" stroke="black"/>
<path d="M1388.89 429H1387.41L1391.68 417.364H1393.14L1397.41 429H1395.93L1392.45 419.205H1392.36L1388.89 429ZM1389.43 424.455H1395.39V425.705H1389.43V424.455ZM1399.22 429V417.364H1403.15C1404.07 417.364 1404.81 417.529 1405.39 417.858C1405.98 418.184 1406.41 418.625 1406.69 419.182C1406.97 419.739 1407.11 420.36 1407.11 421.046C1407.11 421.731 1406.97 422.354 1406.69 422.915C1406.41 423.476 1405.98 423.922 1405.4 424.256C1404.82 424.585 1404.08 424.75 1403.18 424.75H1400.36V423.5H1403.13C1403.76 423.5 1404.26 423.392 1404.64 423.176C1405.02 422.96 1405.29 422.669 1405.46 422.301C1405.63 421.93 1405.72 421.511 1405.72 421.046C1405.72 420.58 1405.63 420.163 1405.46 419.796C1405.29 419.428 1405.01 419.14 1404.63 418.932C1404.25 418.72 1403.74 418.614 1403.11 418.614H1400.63V429H1399.22ZM1410.79 417.364V429H1409.38V417.364H1410.79Z" fill="black"/>
<circle r="4.5" transform="matrix(-1 0 0 1 1179.5 84.5)" fill="#333333"/>
<path d="M1181 85.061L1199.65 95.5182" stroke="black"/>
<rect x="1200.5" y="93.5" width="38" height="34" fill="white" stroke="black"/>
<path d="M1207.89 118H1206.41L1210.68 106.364H1212.14L1216.41 118H1214.93L1211.45 108.205H1211.36L1207.89 118ZM1208.43 113.455H1214.39V114.705H1208.43V113.455ZM1218.22 118V106.364H1222.15C1223.07 106.364 1223.81 106.528 1224.39 106.858C1224.98 107.184 1225.41 107.625 1225.69 108.182C1225.97 108.739 1226.11 109.36 1226.11 110.045C1226.11 110.731 1225.97 111.354 1225.69 111.915C1225.41 112.475 1224.98 112.922 1224.4 113.256C1223.82 113.585 1223.08 113.75 1222.18 113.75H1219.36V112.5H1222.13C1222.76 112.5 1223.26 112.392 1223.64 112.176C1224.02 111.96 1224.29 111.669 1224.46 111.301C1224.63 110.93 1224.72 110.511 1224.72 110.045C1224.72 109.58 1224.63 109.163 1224.46 108.795C1224.29 108.428 1224.01 108.14 1223.63 107.932C1223.25 107.72 1222.74 107.614 1222.11 107.614H1219.63V118H1218.22ZM1229.79 106.364V118H1228.38V106.364H1229.79Z" fill="black"/>
<circle r="4.5" transform="matrix(-1 0 0 1 724.5 120.5)" fill="#333333"/>
<path d="M726.025 119.019L733.485 110" stroke="black"/>
<rect x="732.5" y="75.5001" width="38" height="34" fill="white" stroke="black"/>
<path d="M739.886 100H738.409L742.682 88.3637H744.136L748.409 100H746.932L743.455 90.2046H743.364L739.886 100ZM740.432 95.4546H746.386V96.7046H740.432V95.4546ZM750.222 100V88.3637H754.153C755.066 88.3637 755.813 88.5285 756.392 88.858C756.975 89.1838 757.407 89.6251 757.688 90.1819C757.968 90.7387 758.108 91.3599 758.108 92.0455C758.108 92.7311 757.968 93.3542 757.688 93.9148C757.411 94.4754 756.983 94.9224 756.403 95.2557C755.824 95.5853 755.081 95.7501 754.176 95.7501H751.358V94.5001H754.131C754.756 94.5001 755.258 94.3921 755.636 94.1762C756.015 93.9603 756.29 93.6686 756.46 93.3012C756.634 92.93 756.722 92.5114 756.722 92.0455C756.722 91.5796 756.634 91.1629 756.46 90.7955C756.29 90.4281 756.013 90.1402 755.631 89.9319C755.248 89.7198 754.741 89.6137 754.108 89.6137H751.631V100H750.222ZM761.787 88.3637V100H760.378V88.3637H761.787Z" fill="black"/>
<ellipse cx="513.5" cy="80.5" rx="22.5" ry="21.5" fill="#C93E20"/>
<ellipse cx="558.5" cy="551.5" rx="22.5" ry="21.5" fill="white"/>
<rect x="1588" y="331" width="39" height="34" fill="#C92027"/>
<path d="M1230.5 315.5H1243.5V300.5H1230.5V315.5Z" fill="white" stroke="black"/>
<path d="M1115 386H1129V370H1115V386Z" fill="white"/>
<path d="M1115 386H1129V370H1115V386Z" fill="white"/>
<path d="M1115 386H1129V370H1115V386Z" stroke="black"/>
<path d="M544 244H558V228H544V244Z" fill="white"/>
<path d="M544 244H558V228H544V244Z" fill="white"/>
<path d="M544 244H558V228H544V244Z" stroke="black"/>
<path d="M744.5 431.5H757.5V416.5H744.5V431.5Z" fill="white" stroke="black"/>
<circle cx="897" cy="291" r="5" fill="#C92027"/>
<g clip-path="url(#clip0_7_5)">
<path d="M272.232 573.043L11.5805 465.279L9.245 489.683L269.896 596.846L339.755 564.939V546.275L272.232 573.043Z" fill="white" stroke="#333333"/>
<path d="M2.31128 281.777L80.3162 247.154L347.844 362.564V382.184L273.306 415.076L2.31128 304.859V281.777Z" fill="white"/>
<path d="M2.31128 281.777L80.3162 247.154L347.844 362.564M2.31128 281.777L273.306 394.879L347.844 362.564M2.31128 281.777V304.859L273.306 415.076L347.844 382.184V362.564" stroke="#333333"/>
<path d="M1.15564 466.568L2.31127 306.013L138.676 360.833L273.43 416.113L347.844 383.338V545.118L273.43 577.226L66.9169 490.649L1.15564 466.568Z" fill="white" stroke="#333333"/>
<g filter="url(#filter0_f_7_5)">
<path d="M261.381 472.394L221.881 456.046V499.185L261.381 515.533V472.394Z" fill="url(#paint0_linear_7_5)"/>
</g>
<path d="M274.462 417.384V576.649" stroke="#BCBDBF"/>
<path d="M216.103 392.571L211.48 550.682" stroke="#BCBDBF"/>
<path d="M160.632 369.489L156.517 528.448" stroke="#BCBDBF"/>
<path d="M106.318 347.561L101 505.813" stroke="#BCBDBF"/>
<path d="M274.462 459.508L58.3593 371.797" stroke="#BCBDBF"/>
<path d="M275.04 534.525L56.6259 443.351" stroke="#BCBDBF"/>
<path d="M213.791 454.892L56.6259 387.954" stroke="#BCBDBF"/>
<path d="M213.791 472.203L158.321 447.967" stroke="#BCBDBF"/>
<path d="M213.791 491.823L158.321 467.587" stroke="#BCBDBF"/>
<path d="M158.321 447.967L102.851 423.731" stroke="#BCBDBF"/>
<path d="M158.321 467.587L102.851 443.351" stroke="#BCBDBF"/>
<path d="M113.252 428.348L56.6259 404.112" stroke="#BCBDBF"/>
<path d="M113.252 447.967L56.6259 423.731" stroke="#BCBDBF"/>
<path d="M58.5412 328.075L2.31121 305.676L1.7334 466.433L54.7197 485.653L58.5412 328.075Z" fill="#C92027"/>
</g>
<defs>
<filter id="filter0_f_7_5" x="217.881" y="452.046" width="47.5005" height="67.4874" filterUnits="userSpaceOnUse" color-interpolation-filters="sRGB">
<feFlood flood-opacity="0" result="BackgroundImageFix"/>
<feBlend mode="normal" in="SourceGraphic" in2="BackgroundImageFix" result="shape"/>
<feGaussianBlur stdDeviation="2" result="effect1_foregroundBlur_7_5"/>
</filter>
<linearGradient id="paint0_linear_7_5" x1="241.631" y1="464.22" x2="226.388" y2="501.05" gradientUnits="userSpaceOnUse">
<stop offset="0.229167"/>
<stop offset="1"/>
</linearGradient>
<clipPath id="clip0_7_5">
<rect width="349" height="352" fill="white" transform="translate(0 246)"/>
</clipPath>
</defs>
</svg>
