<svg width="1656" height="656" viewBox="0 0 1656 656" fill="none" xmlns="http://www.w3.org/2000/svg">
<circle r="4.5" transform="matrix(-1 0 0 1 1367.5 417.5)" fill="#333333"/>
<path d="M1370 416L1381 412" stroke="black"/>
<path d="M1483 512C1366.6 482.8 1361 413.5 1371 382L1403 312.5" stroke="black" stroke-width="2"/>
<path d="M1004 230C1138.75 83.5606 1207 130 1250.5 159L1336.5 211" stroke="black" stroke-width="2"/>
<path d="M349 323C600.233 13.9476 704 92.5 748 126.5L857.992 234.416" stroke="black" stroke-width="2"/>
<path d="M1333.01 255.85L1327.27 260.754C1326.84 261.128 1326.28 261.333 1325.7 261.333C1324.66 261.333 1323.74 262.002 1323.41 262.992L1321.13 269.915C1320.39 272.148 1320.3 274.544 1320.86 276.828L1322.24 282.386C1323.35 286.885 1325.95 290.876 1329.62 293.71C1333.22 296.491 1337.64 298 1342.19 298H1452.08C1456.28 298 1460.38 296.772 1463.89 294.469C1468.87 291.193 1472.27 285.994 1473.27 280.114L1473.58 278.351C1474.49 273.017 1473.18 267.542 1469.95 263.197L1468.11 260.717C1466.19 258.122 1463.32 256.388 1460.12 255.892L1459.71 255.828C1453.22 254.819 1448.78 248.736 1449.79 242.245C1449.89 241.638 1449.94 241.025 1449.94 240.41V234.684C1449.94 228.612 1447.98 222.701 1444.36 217.824C1442.81 215.729 1440.97 213.859 1438.91 212.267L1438.01 211.574C1431.63 206.663 1423.81 204 1415.76 204H1412.92C1407.79 204 1402.75 205.351 1398.3 207.919L1395.78 209.377C1392.8 211.093 1390.36 213.589 1388.71 216.596L1386.82 220.034C1383.63 225.838 1376.8 228.604 1370.47 226.656C1367.67 225.796 1364.68 225.836 1361.91 226.77L1361.36 226.954C1359.31 227.644 1357.43 228.748 1355.82 230.198L1349.07 236.309C1346.94 238.234 1345.72 240.971 1345.72 243.842V246.293C1345.72 250.549 1342.27 254 1338.02 254C1336.18 254 1334.4 254.656 1333.01 255.85Z" fill="white" stroke="black"/>
<path d="M822 285L857 248.5H1004.5V571.5H858.5H822V285Z" fill="white"/>
<path d="M857 248.5L822 285V571.5H858.5M857 248.5H1004.5V571.5H858.5M857 248.5L858.5 571.5" stroke="black"/>
<path d="M891.5 251L894.401 240.022C895.155 237.169 896.428 234.48 898.157 232.089L899.264 230.558C902.099 226.638 906.093 223.708 910.683 222.181L911.053 222.058C913.159 221.357 915.363 221 917.582 221H918.061C922.449 221 926.707 222.494 930.132 225.237V225.237C931.977 226.713 933.535 228.516 934.729 230.555L937.211 234.794C939.365 238.473 940.5 242.659 940.5 246.921V251" stroke="black"/>
<path d="M929.5 251V240.83C929.5 237.922 929.97 235.034 930.891 232.276L932.988 225.997C934.019 222.912 935.675 220.073 937.853 217.658L937.97 217.528C941.01 214.158 944.977 211.76 949.374 210.635L950.232 210.415C953.847 209.49 957.648 209.597 961.205 210.724V210.724C964.586 211.795 967.621 213.749 969.997 216.383L971.672 218.24C975.449 222.428 977.82 227.694 978.451 233.298L979.5 242.6V251" stroke="black"/>
<path d="M989.5 263H874.5V289H989.5V263Z" stroke="black"/>
<path d="M900.986 275.729L900.658 275.238C899.935 274.152 898.716 273.5 897.412 273.5C895.934 273.5 894.582 274.335 893.921 275.657L893.569 276.361C892.714 278.071 893.46 280.149 895.207 280.925C896.034 281.293 896.974 281.31 897.814 280.974L899.575 280.27C900.738 279.805 901.5 278.679 901.5 277.427C901.5 276.823 901.321 276.232 900.986 275.729Z" stroke="black"/>
<path d="M896 282.5L900.417 294.648C902.737 301.026 907.154 306.427 912.945 309.967L913.133 310.081C918.87 313.587 925.636 315.015 932.3 314.127V314.127C940.104 313.086 947.161 308.952 951.885 302.654L952.024 302.468C955.903 297.296 958 291.005 958 284.54V279.5M958 279.5L956.401 276.701C956.138 276.242 956 275.722 956 275.192V275.192C956 273.883 956.838 272.721 958.08 272.307L958.449 272.184C958.814 272.062 959.196 272 959.581 272H959.643C960.82 272 961.935 272.523 962.689 273.426L963.312 274.175C963.757 274.708 964 275.38 964 276.074V276.074C964 276.975 963.59 277.828 962.887 278.391L962.555 278.656C961.872 279.202 961.024 279.5 960.149 279.5H958Z" stroke="black"/>
<path d="M1503 474.5L1478 541.5L1475 549.5L1481.5 555.5H1527L1530.5 560.5L1527 570.5L1518.5 573.5H1530.5H1551L1554.5 564L1551 555.5L1579.5 553L1587.5 541.5L1612.5 474.5L1607.5 469H1510.5L1503 474.5Z" fill="white"/>
<path d="M1506.5 573.5H1518.5M1518.5 573.5H1530.5H1551L1554.5 564L1551 555.5L1579.5 553L1587.5 541.5L1612.5 474.5L1607.5 469H1510.5L1503 474.5L1478 541.5L1475 549.5L1481.5 555.5H1527L1530.5 560.5L1527 570.5L1518.5 573.5Z" stroke="black" stroke-width="2"/>
<line x1="1534.56" y1="487.828" x2="1503.56" y2="508.828" stroke="black" stroke-width="2"/>
<line x1="1549.56" y1="508.828" x2="1518.56" y2="529.828" stroke="black" stroke-width="2"/>
<line x1="1558.54" y1="487.84" x2="1496.54" y2="527.84" stroke="black" stroke-width="2"/>
<rect x="874.5" y="323.5" width="114" height="34" fill="white" stroke="black"/>
<rect x="874.5" y="379.5" width="114" height="34" fill="white" stroke="black"/>
<rect x="874.5" y="435.5" width="114" height="34" fill="white" stroke="black"/>
<rect x="874.5" y="491.5" width="114" height="34" fill="white" stroke="black"/>
<path d="M891.057 392.273H892.318L895.284 399.517H895.386L898.352 392.273H899.614V401H898.625V394.369H898.54L895.812 401H894.858L892.131 394.369H892.045V401H891.057V392.273ZM903.522 401.153C903.108 401.153 902.731 401.075 902.393 400.919C902.055 400.76 901.787 400.531 901.588 400.233C901.389 399.932 901.289 399.568 901.289 399.142C901.289 398.767 901.363 398.463 901.511 398.23C901.659 397.994 901.856 397.81 902.103 397.676C902.35 397.543 902.623 397.443 902.922 397.378C903.223 397.31 903.525 397.256 903.829 397.216C904.227 397.165 904.549 397.126 904.797 397.101C905.047 397.072 905.228 397.026 905.342 396.96C905.458 396.895 905.517 396.781 905.517 396.619V396.585C905.517 396.165 905.402 395.838 905.172 395.605C904.944 395.372 904.599 395.256 904.136 395.256C903.656 395.256 903.279 395.361 903.007 395.571C902.734 395.781 902.542 396.006 902.431 396.244L901.477 395.903C901.647 395.506 901.875 395.196 902.159 394.974C902.446 394.75 902.758 394.594 903.096 394.506C903.437 394.415 903.772 394.369 904.102 394.369C904.312 394.369 904.554 394.395 904.826 394.446C905.102 394.494 905.368 394.595 905.623 394.749C905.882 394.902 906.096 395.134 906.267 395.443C906.437 395.753 906.522 396.168 906.522 396.688V401H905.517V400.114H905.466C905.397 400.256 905.284 400.408 905.125 400.57C904.966 400.732 904.754 400.869 904.49 400.983C904.225 401.097 903.903 401.153 903.522 401.153ZM903.676 400.25C904.074 400.25 904.409 400.172 904.681 400.016C904.957 399.859 905.164 399.658 905.304 399.411C905.446 399.163 905.517 398.903 905.517 398.631V397.71C905.474 397.761 905.38 397.808 905.235 397.851C905.093 397.891 904.929 397.926 904.741 397.957C904.556 397.986 904.376 398.011 904.2 398.034C904.027 398.054 903.886 398.071 903.778 398.085C903.517 398.119 903.272 398.175 903.045 398.251C902.821 398.325 902.639 398.437 902.5 398.588C902.363 398.736 902.295 398.937 902.295 399.193C902.295 399.543 902.424 399.807 902.683 399.986C902.944 400.162 903.275 400.25 903.676 400.25ZM908.358 401V394.455H909.364V401H908.358ZM908.869 393.364C908.673 393.364 908.504 393.297 908.362 393.163C908.223 393.03 908.153 392.869 908.153 392.682C908.153 392.494 908.223 392.334 908.362 392.2C908.504 392.067 908.673 392 908.869 392C909.065 392 909.233 392.067 909.372 392.2C909.514 392.334 909.585 392.494 909.585 392.682C909.585 392.869 909.514 393.03 909.372 393.163C909.233 393.297 909.065 393.364 908.869 393.364ZM912.211 397.062V401H911.206V394.455H912.177V395.477H912.262C912.416 395.145 912.649 394.878 912.961 394.676C913.274 394.472 913.677 394.369 914.172 394.369C914.615 394.369 915.002 394.46 915.335 394.642C915.667 394.821 915.926 395.094 916.11 395.46C916.295 395.824 916.387 396.284 916.387 396.841V401H915.382V396.909C915.382 396.395 915.248 395.994 914.981 395.707C914.714 395.418 914.348 395.273 913.882 395.273C913.561 395.273 913.274 395.342 913.021 395.482C912.771 395.621 912.574 395.824 912.429 396.091C912.284 396.358 912.211 396.682 912.211 397.062ZM921.072 394.455V395.307H917.68V394.455H921.072ZM918.668 392.886H919.674V399.125C919.674 399.409 919.715 399.622 919.798 399.764C919.883 399.903 919.991 399.997 920.121 400.045C920.255 400.091 920.396 400.114 920.543 400.114C920.654 400.114 920.745 400.108 920.816 400.097C920.887 400.082 920.944 400.071 920.987 400.062L921.191 400.966C921.123 400.991 921.028 401.017 920.906 401.043C920.783 401.071 920.629 401.085 920.441 401.085C920.157 401.085 919.879 401.024 919.606 400.902C919.336 400.78 919.112 400.594 918.933 400.344C918.756 400.094 918.668 399.778 918.668 399.398V392.886ZM925.259 401.136C924.628 401.136 924.084 400.997 923.626 400.719C923.172 400.438 922.821 400.045 922.574 399.543C922.33 399.037 922.207 398.449 922.207 397.778C922.207 397.108 922.33 396.517 922.574 396.006C922.821 395.491 923.165 395.091 923.605 394.804C924.048 394.514 924.565 394.369 925.156 394.369C925.497 394.369 925.834 394.426 926.166 394.54C926.499 394.653 926.801 394.838 927.074 395.094C927.347 395.347 927.564 395.682 927.726 396.099C927.888 396.517 927.969 397.031 927.969 397.642V398.068H922.923V397.199H926.946C926.946 396.83 926.872 396.5 926.724 396.21C926.58 395.92 926.372 395.692 926.102 395.524C925.835 395.357 925.52 395.273 925.156 395.273C924.756 395.273 924.409 395.372 924.116 395.571C923.827 395.767 923.604 396.023 923.447 396.338C923.291 396.653 923.213 396.991 923.213 397.352V397.932C923.213 398.426 923.298 398.845 923.469 399.189C923.642 399.53 923.882 399.79 924.189 399.969C924.496 400.145 924.852 400.233 925.259 400.233C925.523 400.233 925.761 400.196 925.974 400.122C926.19 400.045 926.376 399.932 926.533 399.781C926.689 399.628 926.81 399.437 926.895 399.21L927.866 399.483C927.764 399.812 927.592 400.102 927.351 400.352C927.109 400.599 926.811 400.793 926.456 400.932C926.101 401.068 925.702 401.136 925.259 401.136ZM930.504 397.062V401H929.499V394.455H930.47V395.477H930.555C930.709 395.145 930.942 394.878 931.254 394.676C931.567 394.472 931.97 394.369 932.464 394.369C932.908 394.369 933.295 394.46 933.628 394.642C933.96 394.821 934.219 395.094 934.403 395.46C934.588 395.824 934.68 396.284 934.68 396.841V401H933.675V396.909C933.675 396.395 933.541 395.994 933.274 395.707C933.007 395.418 932.641 395.273 932.175 395.273C931.854 395.273 931.567 395.342 931.314 395.482C931.064 395.621 930.866 395.824 930.722 396.091C930.577 396.358 930.504 396.682 930.504 397.062ZM938.444 401.153C938.029 401.153 937.653 401.075 937.315 400.919C936.977 400.76 936.708 400.531 936.51 400.233C936.311 399.932 936.211 399.568 936.211 399.142C936.211 398.767 936.285 398.463 936.433 398.23C936.581 397.994 936.778 397.81 937.025 397.676C937.272 397.543 937.545 397.443 937.843 397.378C938.145 397.31 938.447 397.256 938.751 397.216C939.149 397.165 939.471 397.126 939.718 397.101C939.968 397.072 940.15 397.026 940.264 396.96C940.38 396.895 940.439 396.781 940.439 396.619V396.585C940.439 396.165 940.324 395.838 940.093 395.605C939.866 395.372 939.521 395.256 939.058 395.256C938.578 395.256 938.201 395.361 937.929 395.571C937.656 395.781 937.464 396.006 937.353 396.244L936.399 395.903C936.569 395.506 936.797 395.196 937.081 394.974C937.368 394.75 937.68 394.594 938.018 394.506C938.359 394.415 938.694 394.369 939.024 394.369C939.234 394.369 939.475 394.395 939.748 394.446C940.024 394.494 940.289 394.595 940.545 394.749C940.804 394.902 941.018 395.134 941.189 395.443C941.359 395.753 941.444 396.168 941.444 396.688V401H940.439V400.114H940.387C940.319 400.256 940.206 400.408 940.047 400.57C939.887 400.732 939.676 400.869 939.412 400.983C939.147 401.097 938.825 401.153 938.444 401.153ZM938.598 400.25C938.995 400.25 939.331 400.172 939.603 400.016C939.879 399.859 940.086 399.658 940.225 399.411C940.368 399.163 940.439 398.903 940.439 398.631V397.71C940.396 397.761 940.302 397.808 940.157 397.851C940.015 397.891 939.85 397.926 939.663 397.957C939.478 397.986 939.298 398.011 939.122 398.034C938.949 398.054 938.808 398.071 938.7 398.085C938.439 398.119 938.194 398.175 937.967 398.251C937.743 398.325 937.561 398.437 937.422 398.588C937.285 398.736 937.217 398.937 937.217 399.193C937.217 399.543 937.346 399.807 937.605 399.986C937.866 400.162 938.197 400.25 938.598 400.25ZM944.286 397.062V401H943.28V394.455H944.251V395.477H944.337C944.49 395.145 944.723 394.878 945.036 394.676C945.348 394.472 945.751 394.369 946.246 394.369C946.689 394.369 947.077 394.46 947.409 394.642C947.741 394.821 948 395.094 948.185 395.46C948.369 395.824 948.462 396.284 948.462 396.841V401H947.456V396.909C947.456 396.395 947.322 395.994 947.055 395.707C946.788 395.418 946.422 395.273 945.956 395.273C945.635 395.273 945.348 395.342 945.095 395.482C944.845 395.621 944.648 395.824 944.503 396.091C944.358 396.358 944.286 396.682 944.286 397.062ZM952.958 401.136C952.345 401.136 951.816 400.991 951.373 400.702C950.93 400.412 950.589 400.013 950.35 399.504C950.112 398.996 949.993 398.415 949.993 397.761C949.993 397.097 950.115 396.51 950.359 396.001C950.606 395.49 950.95 395.091 951.39 394.804C951.833 394.514 952.35 394.369 952.941 394.369C953.402 394.369 953.816 394.455 954.186 394.625C954.555 394.795 954.858 395.034 955.093 395.341C955.329 395.648 955.475 396.006 955.532 396.415H954.527C954.45 396.116 954.279 395.852 954.015 395.622C953.754 395.389 953.402 395.273 952.958 395.273C952.566 395.273 952.223 395.375 951.927 395.58C951.635 395.781 951.406 396.067 951.241 396.436C951.079 396.803 950.998 397.233 950.998 397.727C950.998 398.233 951.078 398.673 951.237 399.048C951.399 399.423 951.626 399.714 951.919 399.922C952.214 400.129 952.561 400.233 952.958 400.233C953.22 400.233 953.457 400.188 953.67 400.097C953.883 400.006 954.064 399.875 954.211 399.705C954.359 399.534 954.464 399.33 954.527 399.091H955.532C955.475 399.477 955.335 399.825 955.11 400.135C954.889 400.442 954.595 400.686 954.228 400.868C953.865 401.047 953.441 401.136 952.958 401.136ZM959.747 401.136C959.116 401.136 958.572 400.997 958.115 400.719C957.66 400.438 957.309 400.045 957.062 399.543C956.818 399.037 956.696 398.449 956.696 397.778C956.696 397.108 956.818 396.517 957.062 396.006C957.309 395.491 957.653 395.091 958.093 394.804C958.537 394.514 959.054 394.369 959.645 394.369C959.985 394.369 960.322 394.426 960.654 394.54C960.987 394.653 961.289 394.838 961.562 395.094C961.835 395.347 962.052 395.682 962.214 396.099C962.376 396.517 962.457 397.031 962.457 397.642V398.068H957.412V397.199H961.434C961.434 396.83 961.36 396.5 961.213 396.21C961.068 395.92 960.86 395.692 960.591 395.524C960.324 395.357 960.008 395.273 959.645 395.273C959.244 395.273 958.897 395.372 958.605 395.571C958.315 395.767 958.092 396.023 957.936 396.338C957.779 396.653 957.701 396.991 957.701 397.352V397.932C957.701 398.426 957.787 398.845 957.957 399.189C958.13 399.53 958.37 399.79 958.677 399.969C958.984 400.145 959.341 400.233 959.747 400.233C960.011 400.233 960.25 400.196 960.463 400.122C960.679 400.045 960.865 399.932 961.021 399.781C961.177 399.628 961.298 399.437 961.383 399.21L962.355 399.483C962.252 399.812 962.081 400.102 961.839 400.352C961.598 400.599 961.299 400.793 960.944 400.932C960.589 401.068 960.19 401.136 959.747 401.136Z" fill="black"/>
<path d="M895.83 450.455C895.778 450.023 895.571 449.688 895.207 449.449C894.844 449.21 894.398 449.091 893.869 449.091C893.483 449.091 893.145 449.154 892.855 449.279C892.568 449.404 892.344 449.575 892.182 449.794C892.023 450.013 891.943 450.261 891.943 450.54C891.943 450.773 891.999 450.973 892.109 451.141C892.223 451.306 892.368 451.443 892.544 451.554C892.72 451.662 892.905 451.752 893.098 451.823C893.291 451.891 893.469 451.946 893.631 451.989L894.517 452.227C894.744 452.287 894.997 452.369 895.276 452.475C895.557 452.58 895.825 452.723 896.081 452.905C896.339 453.084 896.553 453.314 896.72 453.595C896.888 453.877 896.972 454.222 896.972 454.631C896.972 455.102 896.848 455.529 896.601 455.909C896.357 456.29 895.999 456.592 895.527 456.817C895.058 457.041 894.489 457.154 893.818 457.154C893.193 457.154 892.652 457.053 892.195 456.851C891.74 456.649 891.382 456.368 891.121 456.007C890.862 455.646 890.716 455.227 890.682 454.75H891.773C891.801 455.08 891.912 455.352 892.105 455.568C892.301 455.781 892.548 455.94 892.847 456.046C893.148 456.148 893.472 456.199 893.818 456.199C894.222 456.199 894.584 456.134 894.905 456.003C895.226 455.869 895.48 455.685 895.668 455.449C895.855 455.21 895.949 454.932 895.949 454.614C895.949 454.324 895.868 454.088 895.706 453.906C895.544 453.725 895.331 453.577 895.067 453.463C894.803 453.35 894.517 453.25 894.21 453.165L893.136 452.858C892.455 452.662 891.915 452.382 891.517 452.019C891.119 451.655 890.92 451.179 890.92 450.591C890.92 450.102 891.053 449.676 891.317 449.313C891.584 448.946 891.942 448.662 892.391 448.46C892.842 448.256 893.347 448.154 893.903 448.154C894.466 448.154 894.966 448.254 895.403 448.456C895.841 448.655 896.188 448.928 896.443 449.274C896.702 449.621 896.838 450.014 896.852 450.455H895.83ZM902.698 454.324V450.455H903.703V457H902.698V455.892H902.63C902.476 456.225 902.238 456.507 901.914 456.74C901.59 456.97 901.181 457.085 900.686 457.085C900.277 457.085 899.914 456.996 899.596 456.817C899.277 456.635 899.027 456.362 898.846 455.999C898.664 455.632 898.573 455.171 898.573 454.614V450.455H899.578V454.546C899.578 455.023 899.712 455.404 899.979 455.688C900.249 455.972 900.593 456.114 901.01 456.114C901.26 456.114 901.515 456.05 901.773 455.922C902.034 455.794 902.253 455.598 902.429 455.334C902.608 455.07 902.698 454.733 902.698 454.324ZM905.545 459.455V450.455H906.517V451.494H906.636C906.71 451.381 906.813 451.236 906.943 451.06C907.077 450.881 907.267 450.722 907.514 450.583C907.764 450.44 908.102 450.369 908.528 450.369C909.08 450.369 909.565 450.507 909.986 450.783C910.406 451.058 910.734 451.449 910.97 451.955C911.206 452.46 911.324 453.057 911.324 453.744C911.324 454.438 911.206 455.038 910.97 455.547C910.734 456.053 910.408 456.445 909.99 456.723C909.572 456.999 909.091 457.136 908.545 457.136C908.125 457.136 907.788 457.067 907.536 456.928C907.283 456.786 907.088 456.625 906.952 456.446C906.815 456.264 906.71 456.114 906.636 455.994H906.551V459.455H905.545ZM906.534 453.727C906.534 454.222 906.607 454.658 906.751 455.036C906.896 455.411 907.108 455.705 907.386 455.918C907.665 456.128 908.006 456.233 908.409 456.233C908.83 456.233 909.18 456.122 909.462 455.901C909.746 455.676 909.959 455.375 910.101 454.997C910.246 454.617 910.318 454.193 910.318 453.727C910.318 453.267 910.247 452.852 910.105 452.483C909.966 452.111 909.754 451.817 909.47 451.601C909.189 451.382 908.835 451.273 908.409 451.273C908 451.273 907.656 451.377 907.378 451.584C907.099 451.788 906.889 452.075 906.747 452.445C906.605 452.811 906.534 453.239 906.534 453.727ZM912.858 459.455V450.455H913.83V451.494H913.949C914.023 451.381 914.125 451.236 914.256 451.06C914.389 450.881 914.58 450.722 914.827 450.583C915.077 450.44 915.415 450.369 915.841 450.369C916.392 450.369 916.878 450.507 917.298 450.783C917.719 451.058 918.047 451.449 918.283 451.955C918.518 452.46 918.636 453.057 918.636 453.744C918.636 454.438 918.518 455.038 918.283 455.547C918.047 456.053 917.72 456.445 917.303 456.723C916.885 456.999 916.403 457.136 915.858 457.136C915.438 457.136 915.101 457.067 914.848 456.928C914.595 456.786 914.401 456.625 914.264 456.446C914.128 456.264 914.023 456.114 913.949 455.994H913.864V459.455H912.858ZM913.847 453.727C913.847 454.222 913.919 454.658 914.064 455.036C914.209 455.411 914.42 455.705 914.699 455.918C914.977 456.128 915.318 456.233 915.722 456.233C916.142 456.233 916.493 456.122 916.774 455.901C917.058 455.676 917.271 455.375 917.413 454.997C917.558 454.617 917.631 454.193 917.631 453.727C917.631 453.267 917.56 452.852 917.418 452.483C917.278 452.111 917.067 451.817 916.783 451.601C916.501 451.382 916.148 451.273 915.722 451.273C915.313 451.273 914.969 451.377 914.69 451.584C914.412 451.788 914.202 452.075 914.06 452.445C913.918 452.811 913.847 453.239 913.847 453.727ZM922.83 457.136C922.239 457.136 921.72 456.996 921.274 456.715C920.831 456.433 920.484 456.04 920.234 455.534C919.987 455.029 919.864 454.438 919.864 453.761C919.864 453.08 919.987 452.484 920.234 451.976C920.484 451.467 920.831 451.073 921.274 450.791C921.72 450.51 922.239 450.369 922.83 450.369C923.42 450.369 923.938 450.51 924.381 450.791C924.827 451.073 925.173 451.467 925.42 451.976C925.67 452.484 925.795 453.08 925.795 453.761C925.795 454.438 925.67 455.029 925.42 455.534C925.173 456.04 924.827 456.433 924.381 456.715C923.938 456.996 923.42 457.136 922.83 457.136ZM922.83 456.233C923.278 456.233 923.648 456.118 923.938 455.888C924.227 455.658 924.442 455.355 924.581 454.98C924.72 454.605 924.79 454.199 924.79 453.761C924.79 453.324 924.72 452.916 924.581 452.538C924.442 452.161 924.227 451.855 923.938 451.622C923.648 451.389 923.278 451.273 922.83 451.273C922.381 451.273 922.011 451.389 921.722 451.622C921.432 451.855 921.217 452.161 921.078 452.538C920.939 452.916 920.869 453.324 920.869 453.761C920.869 454.199 920.939 454.605 921.078 454.98C921.217 455.355 921.432 455.658 921.722 455.888C922.011 456.118 922.381 456.233 922.83 456.233ZM927.331 457V450.455H928.302V451.443H928.37C928.49 451.119 928.706 450.857 929.018 450.655C929.331 450.453 929.683 450.352 930.075 450.352C930.149 450.352 930.241 450.354 930.352 450.357C930.463 450.359 930.547 450.364 930.603 450.369V451.392C930.569 451.384 930.491 451.371 930.369 451.354C930.25 451.334 930.123 451.324 929.99 451.324C929.672 451.324 929.387 451.391 929.137 451.524C928.89 451.655 928.694 451.837 928.549 452.07C928.407 452.3 928.336 452.563 928.336 452.858V457H927.331ZM935.052 450.455V451.307H931.66V450.455H935.052ZM932.649 448.886H933.654V455.125C933.654 455.409 933.696 455.622 933.778 455.764C933.863 455.904 933.971 455.997 934.102 456.046C934.235 456.091 934.376 456.114 934.524 456.114C934.635 456.114 934.725 456.108 934.797 456.097C934.868 456.083 934.924 456.071 934.967 456.063L935.172 456.966C935.103 456.992 935.008 457.017 934.886 457.043C934.764 457.071 934.609 457.085 934.422 457.085C934.137 457.085 933.859 457.024 933.586 456.902C933.316 456.78 933.092 456.594 932.913 456.344C932.737 456.094 932.649 455.779 932.649 455.398V448.886Z" fill="black"/>
<path d="M891.415 345H890.307L893.511 336.273H894.602L897.807 345H896.699L894.091 337.653H894.023L891.415 345ZM891.824 341.591H896.29V342.528H891.824V341.591ZM903.155 342.324V338.455H904.161V345H903.155V343.892H903.087C902.933 344.224 902.695 344.507 902.371 344.74C902.047 344.97 901.638 345.085 901.143 345.085C900.734 345.085 900.371 344.996 900.053 344.817C899.734 344.635 899.484 344.362 899.303 343.999C899.121 343.632 899.03 343.17 899.03 342.614V338.455H900.036V342.545C900.036 343.023 900.169 343.403 900.436 343.688C900.706 343.972 901.05 344.114 901.467 344.114C901.717 344.114 901.972 344.05 902.23 343.922C902.491 343.794 902.71 343.598 902.886 343.334C903.065 343.07 903.155 342.733 903.155 342.324ZM908.849 338.455V339.307H905.457V338.455H908.849ZM906.446 336.886H907.451V343.125C907.451 343.409 907.493 343.622 907.575 343.764C907.66 343.903 907.768 343.997 907.899 344.045C908.032 344.091 908.173 344.114 908.321 344.114C908.431 344.114 908.522 344.108 908.593 344.097C908.664 344.082 908.721 344.071 908.764 344.062L908.968 344.966C908.9 344.991 908.805 345.017 908.683 345.043C908.561 345.071 908.406 345.085 908.218 345.085C907.934 345.085 907.656 345.024 907.383 344.902C907.113 344.78 906.889 344.594 906.71 344.344C906.534 344.094 906.446 343.778 906.446 343.398V336.886ZM911.508 341.062V345H910.502V336.273H911.508V339.477H911.593C911.747 339.139 911.977 338.871 912.284 338.672C912.593 338.47 913.005 338.369 913.52 338.369C913.966 338.369 914.356 338.459 914.691 338.638C915.027 338.814 915.287 339.085 915.471 339.452C915.659 339.815 915.752 340.278 915.752 340.841V345H914.747V340.909C914.747 340.389 914.612 339.987 914.342 339.703C914.075 339.416 913.704 339.273 913.23 339.273C912.9 339.273 912.605 339.342 912.343 339.482C912.085 339.621 911.88 339.824 911.73 340.091C911.582 340.358 911.508 340.682 911.508 341.062ZM920.337 345.136C919.706 345.136 919.162 344.997 918.705 344.719C918.25 344.438 917.899 344.045 917.652 343.543C917.408 343.037 917.286 342.449 917.286 341.778C917.286 341.108 917.408 340.517 917.652 340.006C917.899 339.491 918.243 339.091 918.683 338.804C919.126 338.514 919.643 338.369 920.234 338.369C920.575 338.369 920.912 338.426 921.244 338.54C921.577 338.653 921.879 338.838 922.152 339.094C922.425 339.347 922.642 339.682 922.804 340.099C922.966 340.517 923.047 341.031 923.047 341.642V342.068H918.001V341.199H922.024C922.024 340.83 921.95 340.5 921.803 340.21C921.658 339.92 921.45 339.692 921.18 339.524C920.913 339.357 920.598 339.273 920.234 339.273C919.834 339.273 919.487 339.372 919.195 339.571C918.905 339.767 918.682 340.023 918.526 340.338C918.369 340.653 918.291 340.991 918.291 341.352V341.932C918.291 342.426 918.376 342.845 918.547 343.189C918.72 343.53 918.96 343.79 919.267 343.969C919.574 344.145 919.93 344.233 920.337 344.233C920.601 344.233 920.839 344.196 921.053 344.122C921.268 344.045 921.455 343.932 921.611 343.781C921.767 343.628 921.888 343.437 921.973 343.21L922.945 343.483C922.842 343.812 922.67 344.102 922.429 344.352C922.188 344.599 921.889 344.793 921.534 344.932C921.179 345.068 920.78 345.136 920.337 345.136ZM925.582 341.062V345H924.577V338.455H925.548V339.477H925.634C925.787 339.145 926.02 338.878 926.332 338.676C926.645 338.472 927.048 338.369 927.543 338.369C927.986 338.369 928.374 338.46 928.706 338.642C929.038 338.821 929.297 339.094 929.482 339.46C929.666 339.824 929.759 340.284 929.759 340.841V345H928.753V340.909C928.753 340.395 928.619 339.994 928.352 339.707C928.085 339.418 927.719 339.273 927.253 339.273C926.932 339.273 926.645 339.342 926.392 339.482C926.142 339.621 925.945 339.824 925.8 340.091C925.655 340.358 925.582 340.682 925.582 341.062ZM934.443 338.455V339.307H931.051V338.455H934.443ZM932.039 336.886H933.045V343.125C933.045 343.409 933.086 343.622 933.169 343.764C933.254 343.903 933.362 343.997 933.493 344.045C933.626 344.091 933.767 344.114 933.914 344.114C934.025 344.114 934.116 344.108 934.187 344.097C934.258 344.082 934.315 344.071 934.358 344.062L934.562 344.966C934.494 344.991 934.399 345.017 934.277 345.043C934.154 345.071 934 345.085 933.812 345.085C933.528 345.085 933.25 345.024 932.977 344.902C932.707 344.78 932.483 344.594 932.304 344.344C932.127 344.094 932.039 343.778 932.039 343.398V336.886ZM935.956 345V338.455H936.961V345H935.956ZM936.467 337.364C936.271 337.364 936.102 337.297 935.96 337.163C935.821 337.03 935.751 336.869 935.751 336.682C935.751 336.494 935.821 336.334 935.96 336.2C936.102 336.067 936.271 336 936.467 336C936.663 336 936.831 336.067 936.97 336.2C937.112 336.334 937.183 336.494 937.183 336.682C937.183 336.869 937.112 337.03 936.97 337.163C936.831 337.297 936.663 337.364 936.467 337.364ZM941.462 345.136C940.849 345.136 940.32 344.991 939.877 344.702C939.434 344.412 939.093 344.013 938.854 343.504C938.616 342.996 938.496 342.415 938.496 341.761C938.496 341.097 938.619 340.51 938.863 340.001C939.11 339.49 939.454 339.091 939.894 338.804C940.337 338.514 940.854 338.369 941.445 338.369C941.906 338.369 942.32 338.455 942.69 338.625C943.059 338.795 943.362 339.034 943.597 339.341C943.833 339.648 943.979 340.006 944.036 340.415H943.031C942.954 340.116 942.783 339.852 942.519 339.622C942.258 339.389 941.906 339.273 941.462 339.273C941.07 339.273 940.727 339.375 940.431 339.58C940.138 339.781 939.91 340.067 939.745 340.436C939.583 340.803 939.502 341.233 939.502 341.727C939.502 342.233 939.582 342.673 939.741 343.048C939.903 343.423 940.13 343.714 940.423 343.922C940.718 344.129 941.065 344.233 941.462 344.233C941.724 344.233 941.961 344.188 942.174 344.097C942.387 344.006 942.567 343.875 942.715 343.705C942.863 343.534 942.968 343.33 943.031 343.091H944.036C943.979 343.477 943.839 343.825 943.614 344.135C943.393 344.442 943.099 344.686 942.732 344.868C942.369 345.047 941.945 345.136 941.462 345.136ZM947.433 345.153C947.018 345.153 946.641 345.075 946.303 344.919C945.965 344.76 945.697 344.531 945.498 344.233C945.299 343.932 945.2 343.568 945.2 343.142C945.2 342.767 945.273 342.463 945.421 342.23C945.569 341.994 945.766 341.81 946.013 341.676C946.261 341.543 946.533 341.443 946.832 341.378C947.133 341.31 947.435 341.256 947.739 341.216C948.137 341.165 948.46 341.126 948.707 341.101C948.957 341.072 949.138 341.026 949.252 340.96C949.369 340.895 949.427 340.781 949.427 340.619V340.585C949.427 340.165 949.312 339.838 949.082 339.605C948.854 339.372 948.509 339.256 948.046 339.256C947.566 339.256 947.19 339.361 946.917 339.571C946.644 339.781 946.452 340.006 946.342 340.244L945.387 339.903C945.558 339.506 945.785 339.196 946.069 338.974C946.356 338.75 946.668 338.594 947.006 338.506C947.347 338.415 947.683 338.369 948.012 338.369C948.222 338.369 948.464 338.395 948.737 338.446C949.012 338.494 949.278 338.595 949.533 338.749C949.792 338.902 950.006 339.134 950.177 339.443C950.347 339.753 950.433 340.168 950.433 340.688V345H949.427V344.114H949.376C949.308 344.256 949.194 344.408 949.035 344.57C948.876 344.732 948.664 344.869 948.4 344.983C948.136 345.097 947.813 345.153 947.433 345.153ZM947.586 344.25C947.984 344.25 948.319 344.172 948.592 344.016C948.867 343.859 949.075 343.658 949.214 343.411C949.356 343.163 949.427 342.903 949.427 342.631V341.71C949.384 341.761 949.29 341.808 949.146 341.851C949.004 341.891 948.839 341.926 948.651 341.957C948.467 341.986 948.286 342.011 948.11 342.034C947.937 342.054 947.796 342.071 947.688 342.085C947.427 342.119 947.183 342.175 946.955 342.251C946.731 342.325 946.549 342.437 946.41 342.588C946.273 342.736 946.205 342.937 946.205 343.193C946.205 343.543 946.335 343.807 946.593 343.986C946.854 344.162 947.185 344.25 947.586 344.25ZM955.115 338.455V339.307H951.723V338.455H955.115ZM952.711 336.886H953.717V343.125C953.717 343.409 953.758 343.622 953.841 343.764C953.926 343.903 954.034 343.997 954.164 344.045C954.298 344.091 954.439 344.114 954.586 344.114C954.697 344.114 954.788 344.108 954.859 344.097C954.93 344.082 954.987 344.071 955.029 344.062L955.234 344.966C955.166 344.991 955.071 345.017 954.949 345.043C954.826 345.071 954.672 345.085 954.484 345.085C954.2 345.085 953.922 345.024 953.649 344.902C953.379 344.78 953.154 344.594 952.975 344.344C952.799 344.094 952.711 343.778 952.711 343.398V336.886ZM956.627 345V338.455H957.633V345H956.627ZM957.139 337.364C956.943 337.364 956.774 337.297 956.632 337.163C956.493 337.03 956.423 336.869 956.423 336.682C956.423 336.494 956.493 336.334 956.632 336.2C956.774 336.067 956.943 336 957.139 336C957.335 336 957.502 336.067 957.642 336.2C957.784 336.334 957.855 336.494 957.855 336.682C957.855 336.869 957.784 337.03 957.642 337.163C957.502 337.297 957.335 337.364 957.139 337.364ZM962.134 345.136C961.543 345.136 961.025 344.996 960.579 344.714C960.136 344.433 959.789 344.04 959.539 343.534C959.292 343.028 959.168 342.437 959.168 341.761C959.168 341.08 959.292 340.484 959.539 339.976C959.789 339.467 960.136 339.072 960.579 338.791C961.025 338.51 961.543 338.369 962.134 338.369C962.725 338.369 963.242 338.51 963.685 338.791C964.131 339.072 964.478 339.467 964.725 339.976C964.975 340.484 965.1 341.08 965.1 341.761C965.1 342.437 964.975 343.028 964.725 343.534C964.478 344.04 964.131 344.433 963.685 344.714C963.242 344.996 962.725 345.136 962.134 345.136ZM962.134 344.233C962.583 344.233 962.952 344.118 963.242 343.888C963.532 343.658 963.746 343.355 963.886 342.98C964.025 342.605 964.094 342.199 964.094 341.761C964.094 341.324 964.025 340.916 963.886 340.538C963.746 340.161 963.532 339.855 963.242 339.622C962.952 339.389 962.583 339.273 962.134 339.273C961.685 339.273 961.316 339.389 961.026 339.622C960.737 339.855 960.522 340.161 960.383 340.538C960.244 340.916 960.174 341.324 960.174 341.761C960.174 342.199 960.244 342.605 960.383 342.98C960.522 343.355 960.737 343.658 961.026 343.888C961.316 344.118 961.685 344.233 962.134 344.233ZM967.641 341.062V345H966.635V338.455H967.607V339.477H967.692C967.846 339.145 968.078 338.878 968.391 338.676C968.703 338.472 969.107 338.369 969.601 338.369C970.044 338.369 970.432 338.46 970.765 338.642C971.097 338.821 971.355 339.094 971.54 339.46C971.725 339.824 971.817 340.284 971.817 340.841V345H970.811V340.909C970.811 340.395 970.678 339.994 970.411 339.707C970.144 339.418 969.777 339.273 969.311 339.273C968.99 339.273 968.703 339.342 968.451 339.482C968.201 339.621 968.003 339.824 967.858 340.091C967.713 340.358 967.641 340.682 967.641 341.062Z" fill="black"/>
<path d="M895.75 513H893.057V504.273H895.869C896.716 504.273 897.44 504.448 898.043 504.797C898.645 505.144 899.107 505.642 899.428 506.293C899.749 506.94 899.909 507.716 899.909 508.619C899.909 509.529 899.747 510.311 899.423 510.967C899.099 511.621 898.628 512.124 898.009 512.476C897.389 512.825 896.636 513 895.75 513ZM894.114 512.063H895.682C896.403 512.063 897.001 511.923 897.476 511.645C897.95 511.367 898.304 510.97 898.537 510.456C898.77 509.942 898.886 509.33 898.886 508.619C898.886 507.915 898.771 507.308 898.541 506.8C898.311 506.288 897.967 505.896 897.51 505.624C897.053 505.348 896.483 505.21 895.801 505.21H894.114V512.063ZM903.472 513.154C903.057 513.154 902.68 513.075 902.342 512.919C902.004 512.76 901.736 512.531 901.537 512.233C901.338 511.932 901.239 511.568 901.239 511.142C901.239 510.767 901.313 510.463 901.46 510.23C901.608 509.994 901.805 509.81 902.053 509.676C902.3 509.543 902.572 509.443 902.871 509.378C903.172 509.31 903.474 509.256 903.778 509.216C904.176 509.165 904.499 509.127 904.746 509.101C904.996 509.073 905.178 509.026 905.291 508.96C905.408 508.895 905.466 508.781 905.466 508.619V508.585C905.466 508.165 905.351 507.838 905.121 507.605C904.893 507.372 904.548 507.256 904.085 507.256C903.605 507.256 903.229 507.361 902.956 507.571C902.683 507.781 902.491 508.006 902.381 508.244L901.426 507.904C901.597 507.506 901.824 507.196 902.108 506.975C902.395 506.75 902.707 506.594 903.045 506.506C903.386 506.415 903.722 506.369 904.051 506.369C904.261 506.369 904.503 506.395 904.776 506.446C905.051 506.494 905.317 506.595 905.572 506.749C905.831 506.902 906.045 507.134 906.216 507.443C906.386 507.753 906.472 508.168 906.472 508.688V513H905.466V512.114H905.415C905.347 512.256 905.233 512.408 905.074 512.57C904.915 512.732 904.703 512.869 904.439 512.983C904.175 513.097 903.852 513.154 903.472 513.154ZM903.625 512.25C904.023 512.25 904.358 512.172 904.631 512.016C904.906 511.859 905.114 511.658 905.253 511.411C905.395 511.163 905.466 510.904 905.466 510.631V509.71C905.423 509.761 905.33 509.808 905.185 509.851C905.043 509.891 904.878 509.926 904.69 509.958C904.506 509.986 904.325 510.011 904.149 510.034C903.976 510.054 903.835 510.071 903.727 510.085C903.466 510.119 903.222 510.175 902.994 510.252C902.77 510.325 902.588 510.438 902.449 510.588C902.313 510.736 902.244 510.938 902.244 511.193C902.244 511.543 902.374 511.807 902.632 511.986C902.893 512.162 903.224 512.25 903.625 512.25ZM911.154 506.455V507.307H907.762V506.455H911.154ZM908.75 504.886H909.756V511.125C909.756 511.409 909.797 511.622 909.88 511.764C909.965 511.904 910.073 511.997 910.203 512.046C910.337 512.091 910.478 512.114 910.625 512.114C910.736 512.114 910.827 512.108 910.898 512.097C910.969 512.083 911.026 512.071 911.069 512.063L911.273 512.966C911.205 512.992 911.11 513.017 910.988 513.043C910.865 513.071 910.711 513.085 910.523 513.085C910.239 513.085 909.961 513.024 909.688 512.902C909.418 512.78 909.194 512.594 909.015 512.344C908.838 512.094 908.75 511.779 908.75 511.398V504.886ZM914.593 513.154C914.178 513.154 913.801 513.075 913.463 512.919C913.125 512.76 912.857 512.531 912.658 512.233C912.459 511.932 912.36 511.568 912.36 511.142C912.36 510.767 912.434 510.463 912.581 510.23C912.729 509.994 912.926 509.81 913.174 509.676C913.421 509.543 913.694 509.443 913.992 509.378C914.293 509.31 914.596 509.256 914.9 509.216C915.297 509.165 915.62 509.127 915.867 509.101C916.117 509.073 916.299 509.026 916.412 508.96C916.529 508.895 916.587 508.781 916.587 508.619V508.585C916.587 508.165 916.472 507.838 916.242 507.605C916.015 507.372 915.669 507.256 915.206 507.256C914.726 507.256 914.35 507.361 914.077 507.571C913.804 507.781 913.613 508.006 913.502 508.244L912.547 507.904C912.718 507.506 912.945 507.196 913.229 506.975C913.516 506.75 913.828 506.594 914.167 506.506C914.507 506.415 914.843 506.369 915.172 506.369C915.382 506.369 915.624 506.395 915.897 506.446C916.172 506.494 916.438 506.595 916.694 506.749C916.952 506.902 917.167 507.134 917.337 507.443C917.507 507.753 917.593 508.168 917.593 508.688V513H916.587V512.114H916.536C916.468 512.256 916.354 512.408 916.195 512.57C916.036 512.732 915.824 512.869 915.56 512.983C915.296 513.097 914.973 513.154 914.593 513.154ZM914.746 512.25C915.144 512.25 915.479 512.172 915.752 512.016C916.027 511.859 916.235 511.658 916.374 511.411C916.516 511.163 916.587 510.904 916.587 510.631V509.71C916.544 509.761 916.451 509.808 916.306 509.851C916.164 509.891 915.999 509.926 915.811 509.958C915.627 509.986 915.446 510.011 915.27 510.034C915.097 510.054 914.956 510.071 914.848 510.085C914.587 510.119 914.343 510.175 914.115 510.252C913.891 510.325 913.709 510.438 913.57 510.588C913.434 510.736 913.365 510.938 913.365 511.193C913.365 511.543 913.495 511.807 913.753 511.986C914.015 512.162 914.346 512.25 914.746 512.25Z" fill="black"/>
<circle cx="989.5" cy="341.5" r="3.5" fill="#C92027"/>
<circle cx="989.5" cy="400.5" r="3.5" fill="#333333"/>
<circle cx="989.5" cy="453.5" r="3.5" fill="#C92027"/>
<circle cx="989.5" cy="509.5" r="3.5" fill="#333333"/>
<path d="M988 342L1012.19 361.478C1014.75 363.538 1016.75 366.202 1018.02 369.231V369.231C1022.38 379.593 1017.24 391.496 1006.71 395.437L991.855 401" stroke="black"/>
<path d="M989 401L1012.8 418.678C1015.13 420.409 1016.98 422.702 1018.18 425.343V425.343C1022.37 434.553 1017.73 445.373 1008.16 448.677L992.754 454" stroke="black"/>
<path d="M989 453L1013.19 472.478C1015.75 474.538 1017.75 477.202 1019.02 480.231V480.231C1023.38 490.593 1018.24 502.496 1007.71 506.437L992.855 512" stroke="black"/>
<path d="M1479.5 538.5L1587.5 540.5L1578.5 552.5L1554 554.5H1530H1481L1475 549.5L1479.5 538.5Z" fill="#C92027"/>
<path d="M1527.5 554.5H1549.5L1553.5 564L1550.5 572.5H1527.5L1529.5 566L1531.5 560L1527.5 554.5Z" fill="#C92027"/>
<path d="M822.5 285L857 250L858.5 571H822.5V285Z" fill="#C92027"/>
<rect x="1432.5" y="599.5" width="223" height="56" fill="white" stroke="black"/>
<path d="M1505.93 620H1502.41C1502.2 618.987 1501.84 618.096 1501.32 617.329C1500.8 616.562 1500.18 615.918 1499.44 615.398C1498.71 614.867 1497.9 614.47 1497.01 614.204C1496.12 613.939 1495.19 613.807 1494.23 613.807C1492.47 613.807 1490.87 614.252 1489.44 615.142C1488.02 616.032 1486.89 617.344 1486.05 619.077C1485.21 620.81 1484.8 622.935 1484.8 625.454C1484.8 627.973 1485.21 630.099 1486.05 631.832C1486.89 633.565 1488.02 634.877 1489.44 635.767C1490.87 636.657 1492.47 637.102 1494.23 637.102C1495.19 637.102 1496.12 636.97 1497.01 636.704C1497.9 636.439 1498.71 636.046 1499.44 635.525C1500.18 634.995 1500.8 634.346 1501.32 633.579C1501.84 632.803 1502.2 631.913 1502.41 630.909H1505.93C1505.67 632.396 1505.18 633.726 1504.48 634.9C1503.78 636.075 1502.91 637.074 1501.87 637.898C1500.83 638.712 1499.66 639.332 1498.36 639.758C1497.07 640.185 1495.7 640.398 1494.23 640.398C1491.75 640.398 1489.54 639.792 1487.61 638.579C1485.68 637.367 1484.16 635.644 1483.05 633.409C1481.94 631.174 1481.39 628.523 1481.39 625.454C1481.39 622.386 1481.94 619.735 1483.05 617.5C1484.16 615.265 1485.68 613.542 1487.61 612.329C1489.54 611.117 1491.75 610.511 1494.23 610.511C1495.7 610.511 1497.07 610.724 1498.36 611.15C1499.66 611.577 1500.83 612.202 1501.87 613.025C1502.91 613.84 1503.78 614.834 1504.48 616.008C1505.18 617.173 1505.67 618.504 1505.93 620ZM1514.52 610.909V640H1511.17V610.909H1514.52ZM1520.66 640V618.182H1524.01V640H1520.66ZM1522.37 614.545C1521.71 614.545 1521.15 614.323 1520.68 613.878C1520.21 613.433 1519.98 612.898 1519.98 612.273C1519.98 611.648 1520.21 611.113 1520.68 610.667C1521.15 610.222 1521.71 610 1522.37 610C1523.02 610 1523.58 610.222 1524.04 610.667C1524.52 611.113 1524.75 611.648 1524.75 612.273C1524.75 612.898 1524.52 613.433 1524.04 613.878C1523.58 614.323 1523.02 614.545 1522.37 614.545ZM1539.3 640.454C1537.2 640.454 1535.39 639.99 1533.86 639.062C1532.35 638.125 1531.18 636.818 1530.35 635.142C1529.54 633.456 1529.13 631.496 1529.13 629.261C1529.13 627.026 1529.54 625.057 1530.35 623.352C1531.18 621.638 1532.32 620.303 1533.79 619.346C1535.27 618.381 1536.99 617.898 1538.96 617.898C1540.1 617.898 1541.22 618.087 1542.33 618.466C1543.44 618.845 1544.44 619.46 1545.35 620.312C1546.26 621.155 1546.99 622.273 1547.53 623.665C1548.07 625.057 1548.34 626.771 1548.34 628.807V630.227H1531.52V627.329H1544.93C1544.93 626.098 1544.68 625 1544.19 624.034C1543.71 623.068 1543.01 622.306 1542.11 621.747C1541.22 621.188 1540.17 620.909 1538.96 620.909C1537.63 620.909 1536.47 621.24 1535.5 621.903C1534.53 622.557 1533.79 623.409 1533.26 624.46C1532.74 625.511 1532.48 626.638 1532.48 627.841V629.773C1532.48 631.42 1532.77 632.817 1533.34 633.963C1533.91 635.099 1534.71 635.966 1535.74 636.562C1536.76 637.149 1537.95 637.443 1539.3 637.443C1540.18 637.443 1540.98 637.32 1541.69 637.074C1542.41 636.818 1543.03 636.439 1543.55 635.937C1544.07 635.426 1544.47 634.792 1544.76 634.034L1548 634.943C1547.65 636.042 1547.08 637.007 1546.28 637.841C1545.47 638.665 1544.48 639.309 1543.29 639.773C1542.11 640.227 1540.78 640.454 1539.3 640.454ZM1556.79 626.875V640H1553.44V618.182H1556.67V621.591H1556.96C1557.47 620.483 1558.25 619.593 1559.29 618.92C1560.33 618.239 1561.67 617.898 1563.32 617.898C1564.8 617.898 1566.09 618.201 1567.2 618.807C1568.31 619.403 1569.17 620.312 1569.78 621.534C1570.4 622.746 1570.71 624.28 1570.71 626.136V640H1567.36V626.364C1567.36 624.649 1566.91 623.314 1566.02 622.358C1565.13 621.392 1563.91 620.909 1562.36 620.909C1561.29 620.909 1560.33 621.141 1559.49 621.605C1558.65 622.069 1558 622.746 1557.51 623.636C1557.03 624.526 1556.79 625.606 1556.79 626.875ZM1586.32 618.182V621.023H1575.02V618.182H1586.32ZM1578.31 612.954H1581.66V633.75C1581.66 634.697 1581.8 635.407 1582.08 635.881C1582.36 636.345 1582.72 636.657 1583.15 636.818C1583.6 636.97 1584.07 637.045 1584.56 637.045C1584.93 637.045 1585.23 637.026 1585.47 636.989C1585.71 636.941 1585.9 636.903 1586.04 636.875L1586.72 639.886C1586.49 639.971 1586.18 640.057 1585.77 640.142C1585.36 640.237 1584.85 640.284 1584.22 640.284C1583.27 640.284 1582.35 640.08 1581.44 639.673C1580.54 639.266 1579.79 638.646 1579.19 637.812C1578.6 636.979 1578.31 635.928 1578.31 634.659V612.954ZM1606.43 623.068L1603.42 623.92C1603.23 623.418 1602.95 622.931 1602.58 622.457C1602.22 621.974 1601.73 621.577 1601.1 621.264C1600.48 620.952 1599.68 620.795 1598.7 620.795C1597.37 620.795 1596.25 621.103 1595.36 621.719C1594.48 622.325 1594.04 623.096 1594.04 624.034C1594.04 624.867 1594.35 625.525 1594.95 626.008C1595.56 626.491 1596.5 626.894 1597.79 627.216L1601.03 628.011C1602.98 628.485 1604.44 629.209 1605.39 630.185C1606.35 631.15 1606.83 632.396 1606.83 633.92C1606.83 635.17 1606.47 636.288 1605.75 637.273C1605.04 638.257 1604.04 639.034 1602.76 639.602C1601.49 640.17 1600 640.454 1598.3 640.454C1596.08 640.454 1594.24 639.971 1592.78 639.006C1591.32 638.04 1590.4 636.629 1590.01 634.773L1593.19 633.977C1593.49 635.151 1594.07 636.032 1594.91 636.619C1595.76 637.206 1596.87 637.5 1598.25 637.5C1599.81 637.5 1601.05 637.168 1601.97 636.506C1602.9 635.833 1603.36 635.028 1603.36 634.091C1603.36 633.333 1603.1 632.699 1602.57 632.187C1602.04 631.667 1601.22 631.278 1600.12 631.023L1596.49 630.17C1594.49 629.697 1593.02 628.963 1592.08 627.969C1591.15 626.965 1590.69 625.71 1590.69 624.204C1590.69 622.973 1591.04 621.884 1591.73 620.937C1592.43 619.99 1593.38 619.247 1594.58 618.707C1595.79 618.167 1597.17 617.898 1598.7 617.898C1600.86 617.898 1602.56 618.371 1603.79 619.318C1605.03 620.265 1605.91 621.515 1606.43 623.068Z" fill="black"/>
<rect x="114.5" y="596.5" width="223" height="56" fill="white" stroke="black"/>
<path d="M164.523 637V607.909H168.045V633.875H181.568V637H164.523ZM195.432 637.455C193.462 637.455 191.734 636.986 190.247 636.048C188.77 635.111 187.615 633.799 186.781 632.114C185.957 630.428 185.545 628.458 185.545 626.205C185.545 623.932 185.957 621.948 186.781 620.253C187.615 618.558 188.77 617.242 190.247 616.304C191.734 615.367 193.462 614.898 195.432 614.898C197.402 614.898 199.125 615.367 200.602 616.304C202.089 617.242 203.244 618.558 204.068 620.253C204.902 621.948 205.318 623.932 205.318 626.205C205.318 628.458 204.902 630.428 204.068 632.114C203.244 633.799 202.089 635.111 200.602 636.048C199.125 636.986 197.402 637.455 195.432 637.455ZM195.432 634.443C196.928 634.443 198.159 634.06 199.125 633.293C200.091 632.526 200.806 631.517 201.27 630.267C201.734 629.017 201.966 627.663 201.966 626.205C201.966 624.746 201.734 623.387 201.27 622.128C200.806 620.868 200.091 619.851 199.125 619.074C198.159 618.297 196.928 617.909 195.432 617.909C193.936 617.909 192.705 618.297 191.739 619.074C190.773 619.851 190.058 620.868 189.594 622.128C189.13 623.387 188.898 624.746 188.898 626.205C188.898 627.663 189.13 629.017 189.594 630.267C190.058 631.517 190.773 632.526 191.739 633.293C192.705 634.06 193.936 634.443 195.432 634.443ZM219.299 637.455C217.254 637.455 215.492 636.972 214.015 636.006C212.538 635.04 211.401 633.709 210.606 632.014C209.81 630.319 209.413 628.383 209.413 626.205C209.413 623.989 209.82 622.033 210.634 620.338C211.458 618.634 212.604 617.303 214.072 616.347C215.549 615.381 217.272 614.898 219.242 614.898C220.776 614.898 222.159 615.182 223.39 615.75C224.621 616.318 225.629 617.114 226.415 618.136C227.201 619.159 227.689 620.352 227.879 621.716H224.526C224.271 620.722 223.702 619.841 222.822 619.074C221.951 618.297 220.776 617.909 219.299 617.909C217.992 617.909 216.846 618.25 215.862 618.932C214.886 619.604 214.124 620.556 213.575 621.787C213.035 623.009 212.765 624.443 212.765 626.091C212.765 627.777 213.03 629.244 213.56 630.494C214.1 631.744 214.858 632.715 215.833 633.406C216.818 634.098 217.973 634.443 219.299 634.443C220.17 634.443 220.961 634.292 221.671 633.989C222.381 633.686 222.983 633.25 223.475 632.682C223.968 632.114 224.318 631.432 224.526 630.636H227.879C227.689 631.924 227.22 633.084 226.472 634.117C225.734 635.139 224.754 635.954 223.532 636.56C222.32 637.156 220.909 637.455 219.299 637.455ZM235.904 629.046L235.847 624.898H236.529L246.075 615.182H250.222L240.052 625.466H239.768L235.904 629.046ZM232.779 637V607.909H236.131V637H232.779ZM246.643 637L238.12 626.205L240.506 623.875L250.904 637H246.643ZM262.786 637.455C260.684 637.455 258.871 636.991 257.346 636.063C255.831 635.125 254.661 633.818 253.837 632.142C253.023 630.457 252.616 628.496 252.616 626.261C252.616 624.027 253.023 622.057 253.837 620.352C254.661 618.638 255.807 617.303 257.275 616.347C258.752 615.381 260.476 614.898 262.445 614.898C263.582 614.898 264.704 615.087 265.812 615.466C266.92 615.845 267.928 616.46 268.837 617.313C269.746 618.155 270.471 619.273 271.011 620.665C271.55 622.057 271.82 623.771 271.82 625.807V627.227H255.002V624.33H268.411C268.411 623.099 268.165 622 267.673 621.034C267.19 620.068 266.498 619.306 265.599 618.747C264.709 618.189 263.657 617.909 262.445 617.909C261.11 617.909 259.955 618.241 258.979 618.904C258.013 619.557 257.27 620.409 256.749 621.46C256.228 622.511 255.968 623.638 255.968 624.841V626.773C255.968 628.421 256.252 629.817 256.82 630.963C257.398 632.1 258.198 632.966 259.221 633.563C260.244 634.15 261.432 634.443 262.786 634.443C263.667 634.443 264.462 634.32 265.173 634.074C265.892 633.818 266.513 633.44 267.033 632.938C267.554 632.426 267.957 631.792 268.241 631.034L271.479 631.943C271.138 633.042 270.566 634.008 269.761 634.841C268.956 635.665 267.961 636.309 266.778 636.773C265.594 637.227 264.263 637.455 262.786 637.455ZM276.92 637V615.182H280.158V618.477H280.386C280.783 617.398 281.503 616.522 282.545 615.85C283.586 615.177 284.761 614.841 286.067 614.841C286.314 614.841 286.621 614.846 286.991 614.855C287.36 614.865 287.639 614.879 287.829 614.898V618.307C287.715 618.279 287.455 618.236 287.048 618.179C286.65 618.113 286.228 618.08 285.783 618.08C284.723 618.08 283.776 618.302 282.942 618.747C282.119 619.183 281.465 619.789 280.982 620.565C280.509 621.333 280.272 622.208 280.272 623.193V637H276.92ZM307.257 620.068L304.246 620.921C304.056 620.419 303.777 619.931 303.408 619.458C303.048 618.975 302.555 618.577 301.93 618.264C301.305 617.952 300.505 617.796 299.53 617.796C298.195 617.796 297.082 618.103 296.192 618.719C295.311 619.325 294.871 620.097 294.871 621.034C294.871 621.868 295.174 622.526 295.78 623.009C296.386 623.492 297.333 623.894 298.621 624.216L301.859 625.011C303.81 625.485 305.264 626.209 306.22 627.185C307.177 628.151 307.655 629.396 307.655 630.921C307.655 632.171 307.295 633.288 306.575 634.273C305.865 635.258 304.871 636.034 303.592 636.602C302.314 637.171 300.827 637.455 299.132 637.455C296.907 637.455 295.065 636.972 293.607 636.006C292.148 635.04 291.225 633.629 290.837 631.773L294.018 630.977C294.321 632.152 294.894 633.032 295.737 633.619C296.589 634.207 297.702 634.5 299.075 634.5C300.638 634.5 301.878 634.169 302.797 633.506C303.725 632.833 304.189 632.029 304.189 631.091C304.189 630.333 303.924 629.699 303.393 629.188C302.863 628.667 302.049 628.279 300.95 628.023L297.314 627.171C295.316 626.697 293.848 625.963 292.911 624.969C291.982 623.965 291.518 622.71 291.518 621.205C291.518 619.974 291.864 618.885 292.555 617.938C293.256 616.991 294.208 616.247 295.411 615.708C296.623 615.168 297.996 614.898 299.53 614.898C301.689 614.898 303.384 615.371 304.615 616.318C305.856 617.265 306.736 618.515 307.257 620.068Z" fill="black"/>
<rect x="709.5" y="599.5" width="404" height="56" fill="white" stroke="black"/>
<path d="M762.807 640L754.852 610.909H758.432L764.511 634.602H764.795L770.989 610.909H774.966L781.159 634.602H781.443L787.523 610.909H791.102L783.148 640H779.511L773.091 616.818H772.864L766.443 640H762.807ZM802.153 640.455C800.051 640.455 798.238 639.991 796.713 639.062C795.198 638.125 794.028 636.818 793.205 635.142C792.39 633.456 791.983 631.496 791.983 629.261C791.983 627.027 792.39 625.057 793.205 623.352C794.028 621.638 795.174 620.303 796.642 619.347C798.119 618.381 799.843 617.898 801.812 617.898C802.949 617.898 804.071 618.087 805.179 618.466C806.287 618.845 807.295 619.46 808.205 620.312C809.114 621.155 809.838 622.273 810.378 623.665C810.918 625.057 811.188 626.771 811.188 628.807V630.227H794.369V627.33H807.778C807.778 626.098 807.532 625 807.04 624.034C806.557 623.068 805.866 622.306 804.966 621.747C804.076 621.188 803.025 620.909 801.812 620.909C800.477 620.909 799.322 621.241 798.347 621.903C797.381 622.557 796.637 623.409 796.116 624.46C795.596 625.511 795.335 626.638 795.335 627.841V629.773C795.335 631.42 795.619 632.817 796.188 633.963C796.765 635.099 797.565 635.966 798.588 636.562C799.611 637.15 800.799 637.443 802.153 637.443C803.034 637.443 803.83 637.32 804.54 637.074C805.259 636.818 805.88 636.439 806.401 635.938C806.921 635.426 807.324 634.792 807.608 634.034L810.847 634.943C810.506 636.042 809.933 637.008 809.128 637.841C808.323 638.665 807.329 639.309 806.145 639.773C804.961 640.227 803.631 640.455 802.153 640.455ZM816.741 640V610.909H820.094V621.648H820.378C820.624 621.269 820.965 620.786 821.401 620.199C821.846 619.602 822.48 619.072 823.304 618.608C824.137 618.134 825.264 617.898 826.685 617.898C828.522 617.898 830.141 618.357 831.543 619.276C832.944 620.194 834.038 621.496 834.824 623.182C835.61 624.867 836.003 626.856 836.003 629.148C836.003 631.458 835.61 633.461 834.824 635.156C834.038 636.842 832.949 638.149 831.557 639.077C830.165 639.995 828.56 640.455 826.741 640.455C825.34 640.455 824.218 640.223 823.375 639.759C822.532 639.285 821.884 638.75 821.429 638.153C820.974 637.547 820.624 637.045 820.378 636.648H819.98V640H816.741ZM820.037 629.091C820.037 630.739 820.278 632.192 820.761 633.452C821.244 634.702 821.95 635.682 822.878 636.392C823.806 637.093 824.942 637.443 826.287 637.443C827.688 637.443 828.858 637.074 829.795 636.335C830.742 635.587 831.453 634.583 831.926 633.324C832.409 632.055 832.651 630.644 832.651 629.091C832.651 627.557 832.414 626.174 831.94 624.943C831.476 623.703 830.771 622.723 829.824 622.003C828.886 621.274 827.707 620.909 826.287 620.909C824.923 620.909 823.777 621.255 822.849 621.946C821.921 622.628 821.221 623.584 820.747 624.815C820.274 626.037 820.037 627.462 820.037 629.091ZM854.028 640H850.335L861.017 610.909H864.653L875.335 640H871.642L862.949 615.511H862.722L854.028 640ZM855.392 628.636H870.278V631.761H855.392V628.636ZM879.412 648.182V618.182H882.651V621.648H883.048C883.295 621.269 883.635 620.786 884.071 620.199C884.516 619.602 885.151 619.072 885.974 618.608C886.808 618.134 887.935 617.898 889.355 617.898C891.192 617.898 892.812 618.357 894.213 619.276C895.615 620.194 896.708 621.496 897.494 623.182C898.28 624.867 898.673 626.856 898.673 629.148C898.673 631.458 898.28 633.461 897.494 635.156C896.708 636.842 895.619 638.149 894.227 639.077C892.835 639.995 891.23 640.455 889.412 640.455C888.01 640.455 886.888 640.223 886.045 639.759C885.203 639.285 884.554 638.75 884.099 638.153C883.645 637.547 883.295 637.045 883.048 636.648H882.764V648.182H879.412ZM882.707 629.091C882.707 630.739 882.949 632.192 883.432 633.452C883.915 634.702 884.62 635.682 885.548 636.392C886.476 637.093 887.613 637.443 888.957 637.443C890.359 637.443 891.528 637.074 892.466 636.335C893.413 635.587 894.123 634.583 894.597 633.324C895.08 632.055 895.321 630.644 895.321 629.091C895.321 627.557 895.084 626.174 894.611 624.943C894.147 623.703 893.441 622.723 892.494 622.003C891.557 621.274 890.378 620.909 888.957 620.909C887.594 620.909 886.448 621.255 885.52 621.946C884.592 622.628 883.891 623.584 883.418 624.815C882.944 626.037 882.707 627.462 882.707 629.091ZM903.787 648.182V618.182H907.026V621.648H907.423C907.67 621.269 908.01 620.786 908.446 620.199C908.891 619.602 909.526 619.072 910.349 618.608C911.183 618.134 912.31 617.898 913.73 617.898C915.567 617.898 917.187 618.357 918.588 619.276C919.99 620.194 921.083 621.496 921.869 623.182C922.655 624.867 923.048 626.856 923.048 629.148C923.048 631.458 922.655 633.461 921.869 635.156C921.083 636.842 919.994 638.149 918.602 639.077C917.21 639.995 915.605 640.455 913.787 640.455C912.385 640.455 911.263 640.223 910.42 639.759C909.578 639.285 908.929 638.75 908.474 638.153C908.02 637.547 907.67 637.045 907.423 636.648H907.139V648.182H903.787ZM907.082 629.091C907.082 630.739 907.324 632.192 907.807 633.452C908.29 634.702 908.995 635.682 909.923 636.392C910.851 637.093 911.988 637.443 913.332 637.443C914.734 637.443 915.903 637.074 916.841 636.335C917.788 635.587 918.498 634.583 918.972 633.324C919.455 632.055 919.696 630.644 919.696 629.091C919.696 627.557 919.459 626.174 918.986 624.943C918.522 623.703 917.816 622.723 916.869 622.003C915.932 621.274 914.753 620.909 913.332 620.909C911.969 620.909 910.823 621.255 909.895 621.946C908.967 622.628 908.266 623.584 907.793 624.815C907.319 626.037 907.082 627.462 907.082 629.091ZM931.514 610.909V640H928.162V610.909H931.514ZM937.654 640V618.182H941.006V640H937.654ZM939.359 614.545C938.705 614.545 938.142 614.323 937.668 613.878C937.204 613.433 936.972 612.898 936.972 612.273C936.972 611.648 937.204 611.113 937.668 610.668C938.142 610.223 938.705 610 939.359 610C940.012 610 940.571 610.223 941.035 610.668C941.508 611.113 941.745 611.648 941.745 612.273C941.745 612.898 941.508 613.433 941.035 613.878C940.571 614.323 940.012 614.545 939.359 614.545ZM956.01 640.455C953.964 640.455 952.203 639.972 950.726 639.006C949.249 638.04 948.112 636.709 947.317 635.014C946.521 633.319 946.124 631.383 946.124 629.205C946.124 626.989 946.531 625.033 947.345 623.338C948.169 621.634 949.315 620.303 950.783 619.347C952.26 618.381 953.983 617.898 955.953 617.898C957.487 617.898 958.87 618.182 960.101 618.75C961.332 619.318 962.34 620.114 963.126 621.136C963.912 622.159 964.4 623.352 964.589 624.716H961.237C960.982 623.722 960.413 622.841 959.533 622.074C958.661 621.297 957.487 620.909 956.01 620.909C954.703 620.909 953.557 621.25 952.572 621.932C951.597 622.604 950.835 623.556 950.286 624.787C949.746 626.009 949.476 627.443 949.476 629.091C949.476 630.777 949.741 632.244 950.271 633.494C950.811 634.744 951.569 635.715 952.544 636.406C953.529 637.098 954.684 637.443 956.01 637.443C956.881 637.443 957.672 637.292 958.382 636.989C959.092 636.686 959.694 636.25 960.186 635.682C960.679 635.114 961.029 634.432 961.237 633.636H964.589C964.4 634.924 963.931 636.084 963.183 637.116C962.445 638.139 961.464 638.954 960.243 639.56C959.031 640.156 957.62 640.455 956.01 640.455ZM975.911 640.511C974.528 640.511 973.273 640.251 972.146 639.73C971.019 639.2 970.125 638.438 969.462 637.443C968.799 636.439 968.467 635.227 968.467 633.807C968.467 632.557 968.714 631.544 969.206 630.767C969.698 629.981 970.357 629.366 971.18 628.92C972.004 628.475 972.913 628.144 973.908 627.926C974.911 627.699 975.92 627.519 976.933 627.386C978.259 627.216 979.334 627.088 980.158 627.003C980.991 626.908 981.597 626.752 981.976 626.534C982.364 626.316 982.558 625.937 982.558 625.398V625.284C982.558 623.883 982.175 622.794 981.408 622.017C980.65 621.241 979.5 620.852 977.956 620.852C976.356 620.852 975.101 621.203 974.192 621.903C973.283 622.604 972.643 623.352 972.274 624.148L969.092 623.011C969.661 621.686 970.418 620.653 971.365 619.915C972.321 619.167 973.363 618.646 974.49 618.352C975.626 618.049 976.744 617.898 977.842 617.898C978.543 617.898 979.348 617.983 980.257 618.153C981.176 618.314 982.061 618.651 982.913 619.162C983.775 619.673 984.49 620.445 985.058 621.477C985.626 622.509 985.911 623.892 985.911 625.625V640H982.558V637.045H982.388C982.161 637.519 981.782 638.026 981.251 638.565C980.721 639.105 980.016 639.564 979.135 639.943C978.254 640.322 977.179 640.511 975.911 640.511ZM976.422 637.5C977.748 637.5 978.865 637.24 979.774 636.719C980.693 636.198 981.384 635.526 981.848 634.702C982.321 633.878 982.558 633.011 982.558 632.102V629.034C982.416 629.205 982.104 629.361 981.621 629.503C981.147 629.635 980.598 629.754 979.973 629.858C979.357 629.953 978.756 630.038 978.169 630.114C977.591 630.18 977.123 630.237 976.763 630.284C975.892 630.398 975.077 630.582 974.32 630.838C973.571 631.084 972.965 631.458 972.501 631.96C972.047 632.453 971.82 633.125 971.82 633.977C971.82 635.142 972.25 636.023 973.112 636.619C973.983 637.206 975.087 637.5 976.422 637.5ZM1001.52 618.182V621.023H990.211V618.182H1001.52ZM993.506 612.955H996.859V633.75C996.859 634.697 996.996 635.407 997.271 635.881C997.555 636.345 997.915 636.657 998.35 636.818C998.795 636.97 999.264 637.045 999.756 637.045C1000.13 637.045 1000.43 637.027 1000.67 636.989C1000.9 636.941 1001.09 636.903 1001.23 636.875L1001.92 639.886C1001.69 639.972 1001.37 640.057 1000.96 640.142C1000.56 640.237 1000.04 640.284 999.415 640.284C998.469 640.284 997.54 640.08 996.631 639.673C995.732 639.266 994.984 638.646 994.387 637.812C993.8 636.979 993.506 635.928 993.506 634.659V612.955ZM1006.56 640V618.182H1009.91V640H1006.56ZM1008.26 614.545C1007.61 614.545 1007.05 614.323 1006.57 613.878C1006.11 613.433 1005.88 612.898 1005.88 612.273C1005.88 611.648 1006.11 611.113 1006.57 610.668C1007.05 610.223 1007.61 610 1008.26 610C1008.92 610 1009.48 610.223 1009.94 610.668C1010.41 611.113 1010.65 611.648 1010.65 612.273C1010.65 612.898 1010.41 613.433 1009.94 613.878C1009.48 614.323 1008.92 614.545 1008.26 614.545ZM1024.92 640.455C1022.95 640.455 1021.22 639.986 1019.73 639.048C1018.25 638.111 1017.1 636.799 1016.27 635.114C1015.44 633.428 1015.03 631.458 1015.03 629.205C1015.03 626.932 1015.44 624.948 1016.27 623.253C1017.1 621.558 1018.25 620.241 1019.73 619.304C1021.22 618.366 1022.95 617.898 1024.92 617.898C1026.89 617.898 1028.61 618.366 1030.09 619.304C1031.57 620.241 1032.73 621.558 1033.55 623.253C1034.39 624.948 1034.8 626.932 1034.8 629.205C1034.8 631.458 1034.39 633.428 1033.55 635.114C1032.73 636.799 1031.57 638.111 1030.09 639.048C1028.61 639.986 1026.89 640.455 1024.92 640.455ZM1024.92 637.443C1026.41 637.443 1027.64 637.06 1028.61 636.293C1029.58 635.526 1030.29 634.517 1030.75 633.267C1031.22 632.017 1031.45 630.663 1031.45 629.205C1031.45 627.746 1031.22 626.387 1030.75 625.128C1030.29 623.868 1029.58 622.85 1028.61 622.074C1027.64 621.297 1026.41 620.909 1024.92 620.909C1023.42 620.909 1022.19 621.297 1021.22 622.074C1020.26 622.85 1019.54 623.868 1019.08 625.128C1018.61 626.387 1018.38 627.746 1018.38 629.205C1018.38 630.663 1018.61 632.017 1019.08 633.267C1019.54 634.517 1020.26 635.526 1021.22 636.293C1022.19 637.06 1023.42 637.443 1024.92 637.443ZM1043.27 626.875V640H1039.92V618.182H1043.16V621.591H1043.44C1043.95 620.483 1044.73 619.593 1045.77 618.92C1046.81 618.239 1048.16 617.898 1049.81 617.898C1051.28 617.898 1052.58 618.201 1053.68 618.807C1054.79 619.403 1055.65 620.312 1056.27 621.534C1056.88 622.746 1057.19 624.28 1057.19 626.136V640H1053.84V626.364C1053.84 624.65 1053.4 623.314 1052.5 622.358C1051.61 621.392 1050.39 620.909 1048.84 620.909C1047.77 620.909 1046.81 621.141 1045.97 621.605C1045.14 622.069 1044.48 622.746 1044 623.636C1043.51 624.527 1043.27 625.606 1043.27 626.875ZM1078.77 623.068L1075.76 623.92C1075.57 623.419 1075.29 622.931 1074.92 622.457C1074.56 621.974 1074.07 621.577 1073.45 621.264C1072.82 620.952 1072.02 620.795 1071.05 620.795C1069.71 620.795 1068.6 621.103 1067.71 621.719C1066.83 622.325 1066.39 623.097 1066.39 624.034C1066.39 624.867 1066.69 625.526 1067.3 626.009C1067.9 626.491 1068.85 626.894 1070.14 627.216L1073.38 628.011C1075.33 628.485 1076.78 629.209 1077.74 630.185C1078.69 631.151 1079.17 632.396 1079.17 633.92C1079.17 635.17 1078.81 636.288 1078.09 637.273C1077.38 638.258 1076.39 639.034 1075.11 639.602C1073.83 640.17 1072.34 640.455 1070.65 640.455C1068.42 640.455 1066.58 639.972 1065.12 639.006C1063.66 638.04 1062.74 636.629 1062.35 634.773L1065.53 633.977C1065.84 635.152 1066.41 636.032 1067.25 636.619C1068.11 637.206 1069.22 637.5 1070.59 637.5C1072.15 637.5 1073.39 637.169 1074.31 636.506C1075.24 635.833 1075.7 635.028 1075.7 634.091C1075.7 633.333 1075.44 632.699 1074.91 632.188C1074.38 631.667 1073.56 631.278 1072.47 631.023L1068.83 630.17C1066.83 629.697 1065.36 628.963 1064.43 627.969C1063.5 626.965 1063.03 625.71 1063.03 624.205C1063.03 622.973 1063.38 621.884 1064.07 620.938C1064.77 619.991 1065.72 619.247 1066.93 618.707C1068.14 618.168 1069.51 617.898 1071.05 617.898C1073.2 617.898 1074.9 618.371 1076.13 619.318C1077.37 620.265 1078.25 621.515 1078.77 623.068Z" fill="black"/>
<rect x="1381.5" y="390.5" width="38" height="34" fill="white" stroke="black"/>
<path d="M1388.89 415H1387.41L1391.68 403.364H1393.14L1397.41 415H1395.93L1392.45 405.205H1392.36L1388.89 415ZM1389.43 410.455H1395.39V411.705H1389.43V410.455ZM1399.22 415V403.364H1403.15C1404.07 403.364 1404.81 403.528 1405.39 403.858C1405.98 404.184 1406.41 404.625 1406.69 405.182C1406.97 405.739 1407.11 406.36 1407.11 407.045C1407.11 407.731 1406.97 408.354 1406.69 408.915C1406.41 409.475 1405.98 409.922 1405.4 410.256C1404.82 410.585 1404.08 410.75 1403.18 410.75H1400.36V409.5H1403.13C1403.76 409.5 1404.26 409.392 1404.64 409.176C1405.02 408.96 1405.29 408.669 1405.46 408.301C1405.63 407.93 1405.72 407.511 1405.72 407.045C1405.72 406.58 1405.63 406.163 1405.46 405.795C1405.29 405.428 1405.01 405.14 1404.63 404.932C1404.25 404.72 1403.74 404.614 1403.11 404.614H1400.63V415H1399.22ZM1410.79 403.364V415H1409.38V403.364H1410.79Z" fill="black"/>
<circle r="4.5" transform="matrix(-1 0 0 1 1209.5 135.5)" fill="#333333"/>
<path d="M1211 133L1232 129" stroke="black"/>
<rect x="1232.5" y="100.5" width="38" height="34" fill="white" stroke="black"/>
<path d="M1239.89 125H1238.41L1242.68 113.364H1244.14L1248.41 125H1246.93L1243.45 115.204H1243.36L1239.89 125ZM1240.43 120.454H1246.39V121.704H1240.43V120.454ZM1250.22 125V113.364H1254.15C1255.07 113.364 1255.81 113.528 1256.39 113.858C1256.98 114.184 1257.41 114.625 1257.69 115.182C1257.97 115.739 1258.11 116.36 1258.11 117.045C1258.11 117.731 1257.97 118.354 1257.69 118.915C1257.41 119.475 1256.98 119.922 1256.4 120.256C1255.82 120.585 1255.08 120.75 1254.18 120.75H1251.36V119.5H1254.13C1254.76 119.5 1255.26 119.392 1255.64 119.176C1256.02 118.96 1256.29 118.668 1256.46 118.301C1256.63 117.93 1256.72 117.511 1256.72 117.045C1256.72 116.579 1256.63 116.163 1256.46 115.795C1256.29 115.428 1256.01 115.14 1255.63 114.932C1255.25 114.72 1254.74 114.614 1254.11 114.614H1251.63V125H1250.22ZM1261.79 113.364V125H1260.38V113.364H1261.79Z" fill="black"/>
<circle r="4.5" transform="matrix(-1 0 0 1 724.5 106.5)" fill="#333333"/>
<path d="M726.025 105.019L733.485 96" stroke="black"/>
<rect x="732.5" y="61.5" width="38" height="34" fill="white" stroke="black"/>
<path d="M739.886 86H738.409L742.682 74.3636H744.136L748.409 86H746.932L743.455 76.2045H743.364L739.886 86ZM740.432 81.4545H746.386V82.7045H740.432V81.4545ZM750.222 86V74.3636H754.153C755.066 74.3636 755.813 74.5284 756.392 74.858C756.975 75.1837 757.407 75.625 757.688 76.1818C757.968 76.7386 758.108 77.3598 758.108 78.0455C758.108 78.7311 757.968 79.3542 757.688 79.9148C757.411 80.4754 756.983 80.9223 756.403 81.2557C755.824 81.5852 755.081 81.75 754.176 81.75H751.358V80.5H754.131C754.756 80.5 755.258 80.392 755.636 80.1761C756.015 79.9602 756.29 79.6686 756.46 79.3011C756.634 78.9299 756.722 78.5114 756.722 78.0455C756.722 77.5795 756.634 77.1629 756.46 76.7955C756.29 76.428 756.013 76.1402 755.631 75.9318C755.248 75.7197 754.741 75.6136 754.108 75.6136H751.631V86H750.222ZM761.787 74.3636V86H760.378V74.3636H761.787Z" fill="black"/>
<ellipse cx="513.5" cy="66.4999" rx="22.5" ry="21.5" fill="#C93E20"/>
<ellipse cx="558.5" cy="537.5" rx="22.5" ry="21.5" fill="white"/>
<rect x="1588" y="317" width="39" height="34" fill="#C92027"/>
<path d="M1230 302H1244V286H1230V302Z" fill="white"/>
<path d="M1230 302H1244V286H1230V302Z" fill="white"/>
<path d="M1230 302H1244V286H1230V302Z" stroke="black"/>
<path d="M744 418H758V402H744V418Z" fill="white"/>
<path d="M744 418H758V402H744V418Z" fill="white"/>
<path d="M744 418H758V402H744V418Z" stroke="black"/>
<circle cx="897" cy="277" r="5" fill="#C92027"/>
<path d="M272.232 559.043L11.5805 451.279L9.245 475.683L269.896 582.846L339.755 550.939V532.274L272.232 559.043Z" fill="white" stroke="#333333"/>
<path d="M2.31128 267.777L80.3162 233.154L347.844 348.564V368.184L273.306 401.075L2.31128 290.859V267.777Z" fill="white"/>
<path d="M2.31128 267.777L80.3162 233.154L347.844 348.564M2.31128 267.777L273.306 380.879L347.844 348.564M2.31128 267.777V290.859L273.306 401.075L347.844 368.184V348.564" stroke="#333333"/>
<path d="M1.15564 452.568L2.31127 292.013L138.676 346.833L273.43 402.113L347.844 369.338V531.118L273.43 563.226L66.9169 476.649L1.15564 452.568Z" fill="white" stroke="#333333"/>
<g filter="url(#filter0_f_4_352)">
<path d="M261.381 458.394L221.881 442.046V485.185L261.381 501.533V458.394Z" fill="url(#paint0_linear_4_352)"/>
</g>
<path d="M274.462 403.384V562.649" stroke="#BCBDBF"/>
<path d="M216.103 378.57L211.48 536.682" stroke="#BCBDBF"/>
<path d="M160.632 355.489L156.517 514.448" stroke="#BCBDBF"/>
<path d="M106.318 333.561L101 491.813" stroke="#BCBDBF"/>
<path d="M274.462 445.508L58.3593 357.797" stroke="#BCBDBF"/>
<path d="M275.04 520.525L56.6259 429.351" stroke="#BCBDBF"/>
<path d="M213.791 440.892L56.6259 373.954" stroke="#BCBDBF"/>
<path d="M213.791 458.203L158.321 433.967" stroke="#BCBDBF"/>
<path d="M213.791 477.823L158.321 453.587" stroke="#BCBDBF"/>
<path d="M158.321 433.967L102.851 409.731" stroke="#BCBDBF"/>
<path d="M158.321 453.587L102.851 429.351" stroke="#BCBDBF"/>
<path d="M113.252 414.348L56.6259 390.111" stroke="#BCBDBF"/>
<path d="M113.252 433.967L56.6259 409.731" stroke="#BCBDBF"/>
<path d="M58.5412 314.074L2.31121 291.675L1.7334 452.433L54.7197 471.653L58.5412 314.074Z" fill="#C92027"/>
<defs>
<filter id="filter0_f_4_352" x="217.881" y="438.046" width="47.5005" height="67.4874" filterUnits="userSpaceOnUse" color-interpolation-filters="sRGB">
<feFlood flood-opacity="0" result="BackgroundImageFix"/>
<feBlend mode="normal" in="SourceGraphic" in2="BackgroundImageFix" result="shape"/>
<feGaussianBlur stdDeviation="2" result="effect1_foregroundBlur_4_352"/>
</filter>
<linearGradient id="paint0_linear_4_352" x1="241.631" y1="450.22" x2="226.388" y2="487.05" gradientUnits="userSpaceOnUse">
<stop offset="0.229167"/>
<stop offset="1"/>
</linearGradient>
</defs>
</svg>
