<svg width="60" height="20" viewBox="0 0 60 20" fill="none" xmlns="http://www.w3.org/2000/svg">
<rect width="60" height="20" fill="#F1F1F1"/>
<path d="M14.5895 10H14.1278L15.4631 6.36364H15.9176L17.2528 10H16.7912L15.7045 6.93892H15.6761L14.5895 10ZM14.7599 8.57955H16.6207V8.97017H14.7599V8.57955ZM19.3096 6.36364V10H18.8692V6.36364H19.3096ZM21.2425 10V6.36364H22.4712C22.7553 6.36364 22.9885 6.41217 23.1708 6.50923C23.353 6.60511 23.488 6.7371 23.5756 6.90518C23.6632 7.07327 23.707 7.26444 23.707 7.47869C23.707 7.69295 23.6632 7.88293 23.5756 8.04865C23.488 8.21437 23.3536 8.34458 23.1725 8.43928C22.9914 8.53279 22.76 8.57955 22.4783 8.57955H21.484V8.18182H22.4641C22.6582 8.18182 22.8145 8.15341 22.9328 8.09659C23.0524 8.03977 23.1388 7.95928 23.1921 7.85511C23.2465 7.74976 23.2737 7.62429 23.2737 7.47869C23.2737 7.3331 23.2465 7.20585 23.1921 7.09695C23.1376 6.98804 23.0506 6.904 22.9311 6.84482C22.8115 6.78445 22.6535 6.75426 22.457 6.75426H21.6828V10H21.2425ZM22.9541 8.36648L23.849 10H23.3377L22.457 8.36648H22.9541ZM25.4907 10V6.36364H26.7194C27.0047 6.36364 27.2379 6.41513 27.419 6.51811C27.6013 6.61991 27.7362 6.75781 27.8238 6.93182C27.9114 7.10582 27.9552 7.29995 27.9552 7.5142C27.9552 7.72846 27.9114 7.92318 27.8238 8.09837C27.7374 8.27356 27.6037 8.41323 27.4225 8.5174C27.2414 8.62038 27.0094 8.67188 26.7265 8.67188H25.8458V8.28125H26.7123C26.9076 8.28125 27.0645 8.24751 27.1828 8.18004C27.3012 8.11257 27.387 8.02143 27.4403 7.90661C27.4948 7.7906 27.522 7.6598 27.522 7.5142C27.522 7.36861 27.4948 7.2384 27.4403 7.12358C27.387 7.00876 27.3006 6.9188 27.1811 6.85369C27.0615 6.78741 26.9029 6.75426 26.7052 6.75426H25.9311V10H25.4907ZM32.7827 8.18182C32.7827 8.56534 32.7135 8.89678 32.575 9.17614C32.4365 9.45549 32.2465 9.67093 32.005 9.82244C31.7636 9.97396 31.4878 10.0497 31.1776 10.0497C30.8675 10.0497 30.5917 9.97396 30.3502 9.82244C30.1087 9.67093 29.9187 9.45549 29.7803 9.17614C29.6418 8.89678 29.5725 8.56534 29.5725 8.18182C29.5725 7.7983 29.6418 7.46686 29.7803 7.1875C29.9187 6.90814 30.1087 6.69271 30.3502 6.54119C30.5917 6.38968 30.8675 6.31392 31.1776 6.31392C31.4878 6.31392 31.7636 6.38968 32.005 6.54119C32.2465 6.69271 32.4365 6.90814 32.575 7.1875C32.7135 7.46686 32.7827 7.7983 32.7827 8.18182ZM32.3566 8.18182C32.3566 7.86695 32.3039 7.60121 32.1986 7.38459C32.0944 7.16797 31.953 7.00402 31.7742 6.89276C31.5967 6.78149 31.3978 6.72585 31.1776 6.72585C30.9575 6.72585 30.758 6.78149 30.5793 6.89276C30.4017 7.00402 30.2603 7.16797 30.1549 7.38459C30.0507 7.60121 29.9987 7.86695 29.9987 8.18182C29.9987 8.49669 30.0507 8.76243 30.1549 8.97905C30.2603 9.19567 30.4017 9.35961 30.5793 9.47088C30.758 9.58215 30.9575 9.63778 31.1776 9.63778C31.3978 9.63778 31.5967 9.58215 31.7742 9.47088C31.953 9.35961 32.0944 9.19567 32.1986 8.97905C32.3039 8.76243 32.3566 8.49669 32.3566 8.18182ZM34.5732 10V6.36364H35.8018C36.0859 6.36364 36.3191 6.41217 36.5014 6.50923C36.6837 6.60511 36.8187 6.7371 36.9062 6.90518C36.9938 7.07327 37.0376 7.26444 37.0376 7.47869C37.0376 7.69295 36.9938 7.88293 36.9062 8.04865C36.8187 8.21437 36.6843 8.34458 36.5032 8.43928C36.3221 8.53279 36.0907 8.57955 35.8089 8.57955H34.8146V8.18182H35.7947C35.9889 8.18182 36.1451 8.15341 36.2635 8.09659C36.383 8.03977 36.4695 7.95928 36.5227 7.85511C36.5772 7.74976 36.6044 7.62429 36.6044 7.47869C36.6044 7.3331 36.5772 7.20585 36.5227 7.09695C36.4683 6.98804 36.3813 6.904 36.2617 6.84482C36.1422 6.78445 35.9841 6.75426 35.7876 6.75426H35.0135V10H34.5732ZM36.2848 8.36648L37.1797 10H36.6683L35.7876 8.36648H36.2848ZM38.6225 6.75426V6.36364H41.3498V6.75426H40.2063V10H39.766V6.75426H38.6225ZM17.3239 12.3636V16H16.8977L14.9162 13.1449H14.8807V16H14.4403V12.3636H14.8665L16.8551 15.2259H16.8906V12.3636H17.3239ZM21.6414 12.3636H22.0817V14.7713C22.0817 15.0199 22.0231 15.2418 21.9059 15.4371C21.7899 15.6313 21.626 15.7846 21.4141 15.897C21.2022 16.0083 20.9536 16.0639 20.6683 16.0639C20.3831 16.0639 20.1345 16.0083 19.9226 15.897C19.7107 15.7846 19.5462 15.6313 19.429 15.4371C19.313 15.2418 19.255 15.0199 19.255 14.7713V12.3636H19.6953V14.7358C19.6953 14.9134 19.7344 15.0714 19.8125 15.2099C19.8906 15.3472 20.0019 15.4555 20.1463 15.5348C20.2919 15.6129 20.4659 15.652 20.6683 15.652C20.8708 15.652 21.0448 15.6129 21.1904 15.5348C21.336 15.4555 21.4472 15.3472 21.5242 15.2099C21.6023 15.0714 21.6414 14.9134 21.6414 14.7358V12.3636ZM24.011 16V12.3636H25.2397C25.5238 12.3636 25.757 12.4122 25.9393 12.5092C26.1216 12.6051 26.2565 12.7371 26.3441 12.9052C26.4317 13.0733 26.4755 13.2644 26.4755 13.4787C26.4755 13.6929 26.4317 13.8829 26.3441 14.0487C26.2565 14.2144 26.1222 14.3446 25.9411 14.4393C25.76 14.5328 25.5286 14.5795 25.2468 14.5795H24.2525V14.1818H25.2326C25.4268 14.1818 25.583 14.1534 25.7014 14.0966C25.8209 14.0398 25.9074 13.9593 25.9606 13.8551C26.0151 13.7498 26.0423 13.6243 26.0423 13.4787C26.0423 13.3331 26.0151 13.2058 25.9606 13.0969C25.9062 12.988 25.8192 12.904 25.6996 12.8448C25.5801 12.7844 25.422 12.7543 25.2255 12.7543H24.4514V16H24.011ZM25.7227 14.3665L26.6176 16H26.1062L25.2255 14.3665H25.7227ZM31.1428 12.3636V16H30.7167L28.7351 13.1449H28.6996V16H28.2593V12.3636H28.6854L30.6741 15.2259H30.7096V12.3636H31.1428ZM33.0739 16V12.3636H34.3452C34.5986 12.3636 34.8075 12.4074 34.972 12.495C35.1366 12.5814 35.2591 12.698 35.3396 12.8448C35.4201 12.9904 35.4603 13.152 35.4603 13.3295C35.4603 13.4858 35.4325 13.6148 35.3768 13.7166C35.3224 13.8184 35.2502 13.8989 35.1602 13.9581C35.0714 14.0173 34.975 14.0611 34.8708 14.0895V14.125C34.9821 14.1321 35.0939 14.1712 35.2064 14.2422C35.3188 14.3132 35.413 14.415 35.4887 14.5476C35.5645 14.6802 35.6023 14.8423 35.6023 15.0341C35.6023 15.2164 35.5609 15.3803 35.4781 15.5259C35.3952 15.6715 35.2644 15.7869 35.0857 15.8722C34.9069 15.9574 34.6743 16 34.3879 16H33.0739ZM33.5143 15.6094H34.3879C34.6755 15.6094 34.8797 15.5537 35.0004 15.4425C35.1223 15.33 35.1833 15.1939 35.1833 15.0341C35.1833 14.911 35.1519 14.7973 35.0892 14.6932C35.0265 14.5878 34.9371 14.5038 34.8211 14.4411C34.7051 14.3771 34.5678 14.3452 34.4092 14.3452H33.5143V15.6094ZM33.5143 13.9616H34.331C34.4636 13.9616 34.5832 13.9356 34.6897 13.8835C34.7974 13.8314 34.8826 13.758 34.9454 13.6634C35.0093 13.5687 35.0413 13.4574 35.0413 13.3295C35.0413 13.1697 34.9856 13.0342 34.8744 12.9229C34.7631 12.8105 34.5867 12.7543 34.3452 12.7543H33.5143V13.9616ZM37.3759 16V12.3636H39.5705V12.7543H37.8162V13.983H39.4569V14.3736H37.8162V15.6094H39.5989V16H37.3759ZM41.4142 16V12.3636H42.6429C42.927 12.3636 43.1601 12.4122 43.3424 12.5092C43.5247 12.6051 43.6597 12.7371 43.7473 12.9052C43.8349 13.0733 43.8787 13.2644 43.8787 13.4787C43.8787 13.6929 43.8349 13.8829 43.7473 14.0487C43.6597 14.2144 43.5253 14.3446 43.3442 14.4393C43.1631 14.5328 42.9317 14.5795 42.65 14.5795H41.6556V14.1818H42.6358C42.8299 14.1818 42.9861 14.1534 43.1045 14.0966C43.2241 14.0398 43.3105 13.9593 43.3637 13.8551C43.4182 13.7498 43.4454 13.6243 43.4454 13.4787C43.4454 13.3331 43.4182 13.2058 43.3637 13.0969C43.3093 12.988 43.2223 12.904 43.1027 12.8448C42.9832 12.7844 42.8252 12.7543 42.6287 12.7543H41.8545V16H41.4142ZM43.1258 14.3665L44.0207 16H43.5093L42.6287 14.3665H43.1258ZM48.1482 13.5C48.1091 13.3804 48.0577 13.2733 47.9937 13.1786C47.931 13.0827 47.8558 13.0011 47.7682 12.9336C47.6818 12.8661 47.5836 12.8146 47.4735 12.7791C47.3634 12.7436 47.2427 12.7259 47.1113 12.7259C46.8958 12.7259 46.6999 12.7815 46.5236 12.8928C46.3472 13.004 46.2069 13.168 46.1028 13.3846C45.9986 13.6012 45.9465 13.867 45.9465 14.1818C45.9465 14.4967 45.9992 14.7624 46.1045 14.979C46.2099 15.1957 46.3525 15.3596 46.5324 15.4709C46.7124 15.5821 46.9148 15.6378 47.1397 15.6378C47.348 15.6378 47.5315 15.5934 47.6901 15.5046C47.8499 15.4147 47.9742 15.288 48.063 15.1246C48.1529 14.9601 48.1979 14.7666 48.1979 14.544L48.3329 14.5724H47.2391V14.1818H48.6241V14.5724C48.6241 14.8719 48.5601 15.1323 48.4323 15.3537C48.3056 15.575 48.1305 15.7467 47.9067 15.8686C47.6842 15.9893 47.4285 16.0497 47.1397 16.0497C46.8177 16.0497 46.5348 15.974 46.291 15.8224C46.0483 15.6709 45.8589 15.4555 45.7228 15.1761C45.5878 14.8968 45.5204 14.5653 45.5204 14.1818C45.5204 13.8942 45.5588 13.6355 45.6358 13.4059C45.7139 13.1751 45.824 12.9786 45.966 12.8164C46.1081 12.6542 46.2762 12.5299 46.4703 12.4435C46.6644 12.3571 46.8781 12.3139 47.1113 12.3139C47.303 12.3139 47.4818 12.3429 47.6475 12.4009C47.8144 12.4577 47.963 12.5388 48.0932 12.6442C48.2246 12.7483 48.334 12.8732 48.4216 13.0188C48.5092 13.1632 48.5696 13.3236 48.6028 13.5H48.1482Z" fill="#777777"/>
<path d="M14.5895 10V10.5H14.9426L15.0607 10.1673L14.5895 10ZM14.1278 10L13.6585 9.82766L13.4116 10.5H14.1278V10ZM15.4631 6.36364V5.86364H15.114L14.9937 6.19129L15.4631 6.36364ZM15.9176 6.36364L16.387 6.19129L16.2667 5.86364H15.9176V6.36364ZM17.2528 10V10.5H17.9691L17.7222 9.82766L17.2528 10ZM16.7912 10L16.32 10.1673L16.4381 10.5H16.7912V10ZM15.7045 6.93892L16.1757 6.77165L16.0576 6.43892H15.7045V6.93892ZM15.6761 6.93892V6.43892H15.3231L15.2049 6.77165L15.6761 6.93892ZM14.7599 8.57955V8.07955H14.2599V8.57955H14.7599ZM16.6207 8.57955H17.1207V8.07955H16.6207V8.57955ZM16.6207 8.97017V9.47017H17.1207V8.97017H16.6207ZM14.7599 8.97017H14.2599V9.47017H14.7599V8.97017ZM14.5895 9.5H14.1278V10.5H14.5895V9.5ZM14.5972 10.1723L15.9324 6.53598L14.9937 6.19129L13.6585 9.82766L14.5972 10.1723ZM15.4631 6.86364H15.9176V5.86364H15.4631V6.86364ZM15.4483 6.53598L16.7835 10.1723L17.7222 9.82766L16.387 6.19129L15.4483 6.53598ZM17.2528 9.5H16.7912V10.5H17.2528V9.5ZM17.2624 9.83273L16.1757 6.77165L15.2334 7.10619L16.32 10.1673L17.2624 9.83273ZM15.7045 6.43892H15.6761V7.43892H15.7045V6.43892ZM15.2049 6.77165L14.1183 9.83273L15.0607 10.1673L16.1473 7.10619L15.2049 6.77165ZM14.7599 9.07955H16.6207V8.07955H14.7599V9.07955ZM16.1207 8.57955V8.97017H17.1207V8.57955H16.1207ZM16.6207 8.47017H14.7599V9.47017H16.6207V8.47017ZM15.2599 8.97017V8.57955H14.2599V8.97017H15.2599ZM19.3096 6.36364H19.8096V5.86364H19.3096V6.36364ZM19.3096 10V10.5H19.8096V10H19.3096ZM18.8692 10H18.3692V10.5H18.8692V10ZM18.8692 6.36364V5.86364H18.3692V6.36364H18.8692ZM18.8096 6.36364V10H19.8096V6.36364H18.8096ZM19.3096 9.5H18.8692V10.5H19.3096V9.5ZM19.3692 10V6.36364H18.3692V10H19.3692ZM18.8692 6.86364H19.3096V5.86364H18.8692V6.86364ZM21.2425 10H20.7425V10.5H21.2425V10ZM21.2425 6.36364V5.86364H20.7425V6.36364H21.2425ZM23.1708 6.50923L22.9358 6.95057L22.938 6.95175L23.1708 6.50923ZM23.5756 6.90518L23.1322 7.13625L23.1322 7.13625L23.5756 6.90518ZM23.5756 8.04865L23.1335 7.815L23.1335 7.815L23.5756 8.04865ZM23.1725 8.43928L23.4019 8.88355L23.4042 8.88236L23.1725 8.43928ZM21.484 8.57955H20.984V9.07955H21.484V8.57955ZM21.484 8.18182V7.68182H20.984V8.18182H21.484ZM22.9328 8.09659L22.7182 7.64499L22.7165 7.64583L22.9328 8.09659ZM23.1921 7.85511L22.7479 7.62554L22.7469 7.62747L23.1921 7.85511ZM22.9311 6.84482L22.7057 7.29116L22.7092 7.29291L22.9311 6.84482ZM21.6828 6.75426V6.25426H21.1828V6.75426H21.6828ZM21.6828 10V10.5H22.1828V10H21.6828ZM22.9541 8.36648L23.3926 8.12625L23.2503 7.86648H22.9541V8.36648ZM23.849 10V10.5H24.693L24.2875 9.75977L23.849 10ZM23.3377 10L22.8975 10.2373L23.0392 10.5H23.3377V10ZM22.457 8.36648V7.86648H21.6194L22.0169 8.60376L22.457 8.36648ZM21.7425 10V6.36364H20.7425V10H21.7425ZM21.2425 6.86364H22.4712V5.86364H21.2425V6.86364ZM22.4712 6.86364C22.7026 6.86364 22.8478 6.90375 22.9358 6.95057L23.4058 6.0679C23.1291 5.92058 22.808 5.86364 22.4712 5.86364V6.86364ZM22.938 6.95175C23.0384 7.00455 23.0957 7.06633 23.1322 7.13625L24.019 6.67412C23.8802 6.40786 23.6677 6.20567 23.4035 6.06671L22.938 6.95175ZM23.1322 7.13625C23.178 7.22415 23.207 7.33429 23.207 7.47869H24.207C24.207 7.19459 24.1484 6.92239 24.019 6.67411L23.1322 7.13625ZM23.207 7.47869C23.207 7.62325 23.1779 7.73099 23.1335 7.815L24.0176 8.2823C24.1484 8.03487 24.207 7.76264 24.207 7.47869H23.207ZM23.1335 7.815C23.0975 7.88311 23.0407 7.94396 22.9409 7.99619L23.4042 8.88236C23.6665 8.7452 23.8784 8.54563 24.0176 8.2823L23.1335 7.815ZM22.9431 7.995C22.8548 8.04062 22.7091 8.07955 22.4783 8.07955V9.07955C22.811 9.07955 23.1281 9.02496 23.4019 8.88355L22.9431 7.995ZM22.4783 8.07955H21.484V9.07955H22.4783V8.07955ZM21.984 8.57955V8.18182H20.984V8.57955H21.984ZM21.484 8.68182H22.4641V7.68182H21.484V8.68182ZM22.4641 8.68182C22.7002 8.68182 22.9389 8.64832 23.1492 8.54735L22.7165 7.64583C22.6901 7.6585 22.6162 7.68182 22.4641 7.68182V8.68182ZM23.1474 8.54819C23.3527 8.45064 23.5274 8.29762 23.6372 8.08276L22.7469 7.62747C22.7467 7.62782 22.7468 7.62759 22.7471 7.62717C22.7474 7.62675 22.7474 7.62692 22.7465 7.62775C22.7449 7.6292 22.7373 7.63592 22.7182 7.645L23.1474 8.54819ZM23.6362 8.08469C23.7348 7.894 23.7737 7.68626 23.7737 7.47869H22.7737C22.7737 7.56232 22.7582 7.60553 22.7479 7.62554L23.6362 8.08469ZM23.7737 7.47869C23.7737 7.27053 23.7346 7.06399 23.6393 6.87334L22.7448 7.32055C22.7584 7.34771 22.7737 7.39566 22.7737 7.47869H23.7737ZM23.6393 6.87334C23.5314 6.65765 23.3601 6.49932 23.1529 6.39672L22.7092 7.29291C22.7411 7.30869 22.7438 7.31843 22.7448 7.32055L23.6393 6.87334ZM23.1564 6.39849C22.942 6.29023 22.698 6.25426 22.457 6.25426V7.25426C22.609 7.25426 22.681 7.27866 22.7057 7.29114L23.1564 6.39849ZM22.457 6.25426H21.6828V7.25426H22.457V6.25426ZM21.1828 6.75426V10H22.1828V6.75426H21.1828ZM21.6828 9.5H21.2425V10.5H21.6828V9.5ZM22.5156 8.6067L23.4105 10.2402L24.2875 9.75977L23.3926 8.12625L22.5156 8.6067ZM23.849 9.5H23.3377V10.5H23.849V9.5ZM23.7778 9.76272L22.8971 8.1292L22.0169 8.60376L22.8975 10.2373L23.7778 9.76272ZM22.457 8.86648H22.9541V7.86648H22.457V8.86648ZM25.4907 10H24.9907V10.5H25.4907V10ZM25.4907 6.36364V5.86364H24.9907V6.36364H25.4907ZM27.419 6.51811L27.1718 6.95277L27.1752 6.95465L27.419 6.51811ZM27.8238 6.93182L27.3772 7.15664L27.3772 7.15664L27.8238 6.93182ZM27.8238 8.09837L27.3766 7.87476L27.3754 7.87719L27.8238 8.09837ZM27.4225 8.5174L27.6697 8.95205L27.6718 8.95082L27.4225 8.5174ZM25.8458 8.67188H25.3458V9.17188H25.8458V8.67188ZM25.8458 8.28125V7.78125H25.3458V8.28125H25.8458ZM27.1828 8.18004L26.9352 7.74565L26.9352 7.74565L27.1828 8.18004ZM27.4403 7.90661L26.9877 7.69415L26.9867 7.69619L27.4403 7.90661ZM27.4403 7.12358L26.9867 7.33401L26.9885 7.33782L27.4403 7.12358ZM27.1811 6.85369L26.9386 7.29099L26.942 7.29281L27.1811 6.85369ZM25.9311 6.75426V6.25426H25.4311V6.75426H25.9311ZM25.9311 10V10.5H26.4311V10H25.9311ZM25.9907 10V6.36364H24.9907V10H25.9907ZM25.4907 6.86364H26.7194V5.86364H25.4907V6.86364ZM26.7194 6.86364C26.9487 6.86364 27.0888 6.90555 27.1718 6.95276L27.6661 6.08347C27.387 5.92471 27.0607 5.86364 26.7194 5.86364V6.86364ZM27.1752 6.95465C27.2768 7.01141 27.3378 7.07839 27.3772 7.15664L28.2704 6.707C28.1346 6.43723 27.9257 6.22841 27.6628 6.08157L27.1752 6.95465ZM27.3772 7.15664C27.4263 7.25416 27.4552 7.37012 27.4552 7.5142H28.4552C28.4552 7.22979 28.3965 6.95749 28.2704 6.707L27.3772 7.15664ZM27.4552 7.5142C27.4552 7.65824 27.4263 7.77534 27.3766 7.87476L28.271 8.32197C28.3965 8.07102 28.4552 7.79867 28.4552 7.5142H27.4552ZM27.3754 7.87719C27.336 7.95717 27.2747 8.02564 27.1733 8.08398L27.6718 8.95082C27.9326 8.80083 28.1389 8.58994 28.2722 8.31955L27.3754 7.87719ZM27.1754 8.08276C27.0918 8.13027 26.9525 8.17188 26.7265 8.17188V9.17188C27.0663 9.17188 27.391 9.1105 27.6697 8.95205L27.1754 8.08276ZM26.7265 8.17188H25.8458V9.17188H26.7265V8.17188ZM26.3458 8.67188V8.28125H25.3458V8.67188H26.3458ZM25.8458 8.78125H26.7123V7.78125H25.8458V8.78125ZM26.7123 8.78125C26.9591 8.78125 27.2109 8.73957 27.4304 8.61443L26.9352 7.74565C26.918 7.75546 26.8562 7.78125 26.7123 7.78125V8.78125ZM27.4304 8.61443C27.6318 8.49966 27.7935 8.33341 27.8939 8.11702L26.9867 7.69619C26.9806 7.70944 26.9706 7.72548 26.9352 7.74565L27.4304 8.61443ZM27.8929 8.11906C27.9826 7.92807 28.022 7.72322 28.022 7.5142H27.022C27.022 7.59638 27.0069 7.65314 26.9877 7.69415L27.8929 8.11906ZM28.022 7.5142C28.022 7.3053 27.9826 7.10023 27.8921 6.90934L26.9885 7.33782C27.0069 7.37657 27.022 7.43191 27.022 7.5142H28.022ZM27.8939 6.91316C27.792 6.69358 27.6264 6.52685 27.4202 6.41458L26.942 7.29281C26.9749 7.31075 26.9821 7.32394 26.9867 7.334L27.8939 6.91316ZM27.4235 6.41641C27.204 6.29469 26.9523 6.25426 26.7052 6.25426V7.25426C26.8535 7.25426 26.919 7.28012 26.9386 7.29098L27.4235 6.41641ZM26.7052 6.25426H25.9311V7.25426H26.7052V6.25426ZM25.4311 6.75426V10H26.4311V6.75426H25.4311ZM25.9311 9.5H25.4907V10.5H25.9311V9.5ZM32.575 9.17614L32.127 8.95405L32.127 8.95405L32.575 9.17614ZM32.005 9.82244L32.2708 10.246L32.2708 10.246L32.005 9.82244ZM30.3502 9.82244L30.0845 10.246L30.0845 10.246L30.3502 9.82244ZM29.7803 9.17614L30.2282 8.95405L30.2282 8.95405L29.7803 9.17614ZM29.7803 7.1875L29.3323 6.96541L29.7803 7.1875ZM32.005 6.54119L32.2708 6.11766L32.2708 6.11766L32.005 6.54119ZM32.575 7.1875L32.127 7.40959L32.127 7.40959L32.575 7.1875ZM32.1986 7.38459L31.748 7.60128L31.7489 7.60327L32.1986 7.38459ZM31.7742 6.89276L31.5087 7.31644L31.51 7.31723L31.7742 6.89276ZM30.5793 6.89276L30.315 6.46828L30.3138 6.46907L30.5793 6.89276ZM30.1549 7.38459L29.7053 7.16591L29.7043 7.1679L30.1549 7.38459ZM30.1549 8.97905L29.7043 9.19574L29.7053 9.19773L30.1549 8.97905ZM30.5793 9.47088L30.3138 9.89456L30.315 9.89535L30.5793 9.47088ZM31.7742 9.47088L31.51 9.04641L31.5087 9.0472L31.7742 9.47088ZM32.1986 8.97905L31.7489 8.76037L31.748 8.76236L32.1986 8.97905ZM32.2827 8.18182C32.2827 8.50569 32.2243 8.75778 32.127 8.95405L33.023 9.39822C33.2027 9.03578 33.2827 8.625 33.2827 8.18182H32.2827ZM32.127 8.95405C32.0255 9.15875 31.8954 9.30099 31.7393 9.39891L32.2708 10.246C32.5977 10.0409 32.8475 9.75224 33.023 9.39822L32.127 8.95405ZM31.7393 9.39891C31.5844 9.49609 31.4023 9.54972 31.1776 9.54972V10.5497C31.5732 10.5497 31.9427 10.4518 32.2708 10.246L31.7393 9.39891ZM31.1776 9.54972C30.9529 9.54972 30.7708 9.49609 30.616 9.39891L30.0845 10.246C30.4125 10.4518 30.7821 10.5497 31.1776 10.5497V9.54972ZM30.616 9.39891C30.4599 9.30099 30.3297 9.15875 30.2282 8.95405L29.3323 9.39822C29.5078 9.75224 29.7576 10.0409 30.0845 10.246L30.616 9.39891ZM30.2282 8.95405C30.1309 8.75778 30.0725 8.50569 30.0725 8.18182H29.0725C29.0725 8.625 29.1526 9.03578 29.3323 9.39822L30.2282 8.95405ZM30.0725 8.18182C30.0725 7.85795 30.1309 7.60586 30.2282 7.40959L29.3323 6.96541C29.1526 7.32786 29.0725 7.73864 29.0725 8.18182H30.0725ZM30.2282 7.40959C30.3297 7.20489 30.4599 7.06265 30.616 6.96473L30.0845 6.11766C29.7576 6.32277 29.5078 6.6114 29.3323 6.96541L30.2282 7.40959ZM30.616 6.96473C30.7708 6.86755 30.9529 6.81392 31.1776 6.81392V5.81392C30.7821 5.81392 30.4125 5.91181 30.0845 6.11766L30.616 6.96473ZM31.1776 6.81392C31.4023 6.81392 31.5844 6.86755 31.7393 6.96473L32.2708 6.11766C31.9427 5.91181 31.5732 5.81392 31.1776 5.81392V6.81392ZM31.7393 6.96473C31.8954 7.06265 32.0255 7.20489 32.127 7.40959L33.023 6.96541C32.8475 6.6114 32.5977 6.32277 32.2708 6.11766L31.7393 6.96473ZM32.127 7.40959C32.2243 7.60586 32.2827 7.85795 32.2827 8.18182H33.2827C33.2827 7.73864 33.2027 7.32786 33.023 6.96541L32.127 7.40959ZM32.8566 8.18182C32.8566 7.81354 32.7953 7.46826 32.6482 7.16591L31.7489 7.60327C31.8126 7.73415 31.8566 7.92036 31.8566 8.18182H32.8566ZM32.6492 7.1679C32.5099 6.87816 32.3087 6.63654 32.0385 6.46828L31.51 7.31723C31.5972 7.37151 31.679 7.45778 31.748 7.60127L32.6492 7.1679ZM32.0397 6.46907C31.7785 6.30535 31.4867 6.22585 31.1776 6.22585V7.22585C31.3089 7.22585 31.4149 7.25762 31.5087 7.31644L32.0397 6.46907ZM31.1776 6.22585C30.8685 6.22585 30.5768 6.30534 30.315 6.46828L30.8435 7.31723C30.9392 7.25764 31.0464 7.22585 31.1776 7.22585V6.22585ZM30.3138 6.46907C30.0455 6.63717 29.8453 6.87793 29.7053 7.16591L30.6045 7.60327C30.6752 7.45801 30.7579 7.37088 30.8448 7.31644L30.3138 6.46907ZM29.7043 7.1679C29.5592 7.46971 29.4987 7.81424 29.4987 8.18182H30.4987C30.4987 7.91966 30.5423 7.73271 30.6055 7.60127L29.7043 7.1679ZM29.4987 8.18182C29.4987 8.5494 29.5592 8.89393 29.7043 9.19573L30.6055 8.76236C30.5423 8.63093 30.4987 8.44397 30.4987 8.18182H29.4987ZM29.7053 9.19773C29.8453 9.48571 30.0455 9.72647 30.3138 9.89456L30.8448 9.0472C30.7579 8.99276 30.6752 8.90562 30.6045 8.76037L29.7053 9.19773ZM30.315 9.89535C30.5768 10.0583 30.8685 10.1378 31.1776 10.1378V9.13778C31.0464 9.13778 30.9392 9.106 30.8435 9.04641L30.315 9.89535ZM31.1776 10.1378C31.4867 10.1378 31.7785 10.0583 32.0397 9.89456L31.5087 9.0472C31.4149 9.10601 31.3089 9.13778 31.1776 9.13778V10.1378ZM32.0385 9.89535C32.3087 9.7271 32.5099 9.48548 32.6492 9.19573L31.748 8.76236C31.679 8.90586 31.5972 8.99212 31.51 9.04641L32.0385 9.89535ZM32.6482 9.19773C32.7953 8.89537 32.8566 8.55009 32.8566 8.18182H31.8566C31.8566 8.44328 31.8126 8.62948 31.7489 8.76037L32.6482 9.19773ZM34.5732 10H34.0732V10.5H34.5732V10ZM34.5732 6.36364V5.86364H34.0732V6.36364H34.5732ZM36.5014 6.50923L36.2664 6.95057L36.2687 6.95175L36.5014 6.50923ZM36.9062 6.90518L36.4628 7.13625L36.4628 7.13625L36.9062 6.90518ZM36.9062 8.04865L36.4642 7.815L36.4642 7.815L36.9062 8.04865ZM36.5032 8.43928L36.7326 8.88355L36.7349 8.88236L36.5032 8.43928ZM34.8146 8.57955H34.3146V9.07955H34.8146V8.57955ZM34.8146 8.18182V7.68182H34.3146V8.18182H34.8146ZM36.2635 8.09659L36.0489 7.64499L36.0471 7.64583L36.2635 8.09659ZM36.5227 7.85511L36.0785 7.62554L36.0776 7.62747L36.5227 7.85511ZM36.2617 6.84482L36.0363 7.29116L36.0399 7.29291L36.2617 6.84482ZM35.0135 6.75426V6.25426H34.5135V6.75426H35.0135ZM35.0135 10V10.5H35.5135V10H35.0135ZM36.2848 8.36648L36.7233 8.12625L36.581 7.86648H36.2848V8.36648ZM37.1797 10V10.5H38.0237L37.6182 9.75977L37.1797 10ZM36.6683 10L36.2282 10.2373L36.3699 10.5H36.6683V10ZM35.7876 8.36648V7.86648H34.95L35.3475 8.60376L35.7876 8.36648ZM35.0732 10V6.36364H34.0732V10H35.0732ZM34.5732 6.86364H35.8018V5.86364H34.5732V6.86364ZM35.8018 6.86364C36.0332 6.86364 36.1785 6.90375 36.2664 6.95057L36.7364 6.0679C36.4598 5.92058 36.1387 5.86364 35.8018 5.86364V6.86364ZM36.2687 6.95175C36.369 7.00455 36.4264 7.06633 36.4628 7.13625L37.3497 6.67412C37.2109 6.40786 36.9984 6.20567 36.7342 6.06671L36.2687 6.95175ZM36.4628 7.13625C36.5087 7.22415 36.5376 7.33429 36.5376 7.47869H37.5376C37.5376 7.19459 37.479 6.92239 37.3497 6.67411L36.4628 7.13625ZM36.5376 7.47869C36.5376 7.62325 36.5086 7.73099 36.4642 7.815L37.3483 8.2823C37.4791 8.03487 37.5376 7.76264 37.5376 7.47869H36.5376ZM36.4642 7.815C36.4282 7.88311 36.3714 7.94396 36.2715 7.99619L36.7349 8.88236C36.9972 8.7452 37.2091 8.54563 37.3483 8.2823L36.4642 7.815ZM36.2738 7.995C36.1855 8.04062 36.0397 8.07955 35.8089 8.07955V9.07955C36.1416 9.07955 36.4587 9.02496 36.7326 8.88355L36.2738 7.995ZM35.8089 8.07955H34.8146V9.07955H35.8089V8.07955ZM35.3146 8.57955V8.18182H34.3146V8.57955H35.3146ZM34.8146 8.68182H35.7947V7.68182H34.8146V8.68182ZM35.7947 8.68182C36.0309 8.68182 36.2695 8.64832 36.4799 8.54735L36.0471 7.64583C36.0207 7.6585 35.9469 7.68182 35.7947 7.68182V8.68182ZM36.4781 8.54819C36.6834 8.45064 36.858 8.29762 36.9679 8.08276L36.0776 7.62747C36.0774 7.62782 36.0775 7.62759 36.0778 7.62717C36.0781 7.62675 36.0781 7.62692 36.0772 7.62775C36.0756 7.6292 36.068 7.63592 36.0489 7.645L36.4781 8.54819ZM36.9669 8.08469C37.0655 7.894 37.1044 7.68626 37.1044 7.47869H36.1044C36.1044 7.56232 36.0889 7.60553 36.0785 7.62554L36.9669 8.08469ZM37.1044 7.47869C37.1044 7.27053 37.0653 7.06399 36.9699 6.87334L36.0755 7.32055C36.0891 7.34771 36.1044 7.39566 36.1044 7.47869H37.1044ZM36.9699 6.87334C36.8621 6.65765 36.6908 6.49932 36.4835 6.39672L36.0399 7.29291C36.0718 7.30869 36.0745 7.31843 36.0755 7.32055L36.9699 6.87334ZM36.4871 6.39849C36.2727 6.29023 36.0286 6.25426 35.7876 6.25426V7.25426C35.9396 7.25426 36.0116 7.27866 36.0363 7.29114L36.4871 6.39849ZM35.7876 6.25426H35.0135V7.25426H35.7876V6.25426ZM34.5135 6.75426V10H35.5135V6.75426H34.5135ZM35.0135 9.5H34.5732V10.5H35.0135V9.5ZM35.8463 8.6067L36.7412 10.2402L37.6182 9.75977L36.7233 8.12625L35.8463 8.6067ZM37.1797 9.5H36.6683V10.5H37.1797V9.5ZM37.1084 9.76272L36.2278 8.1292L35.3475 8.60376L36.2282 10.2373L37.1084 9.76272ZM35.7876 8.86648H36.2848V7.86648H35.7876V8.86648ZM38.6225 6.75426H38.1225V7.25426H38.6225V6.75426ZM38.6225 6.36364V5.86364H38.1225V6.36364H38.6225ZM41.3498 6.36364H41.8498V5.86364H41.3498V6.36364ZM41.3498 6.75426V7.25426H41.8498V6.75426H41.3498ZM40.2063 6.75426V6.25426H39.7063V6.75426H40.2063ZM40.2063 10V10.5H40.7063V10H40.2063ZM39.766 10H39.266V10.5H39.766V10ZM39.766 6.75426H40.266V6.25426H39.766V6.75426ZM39.1225 6.75426V6.36364H38.1225V6.75426H39.1225ZM38.6225 6.86364H41.3498V5.86364H38.6225V6.86364ZM40.8498 6.36364V6.75426H41.8498V6.36364H40.8498ZM41.3498 6.25426H40.2063V7.25426H41.3498V6.25426ZM39.7063 6.75426V10H40.7063V6.75426H39.7063ZM40.2063 9.5H39.766V10.5H40.2063V9.5ZM40.266 10V6.75426H39.266V10H40.266ZM39.766 6.25426H38.6225V7.25426H39.766V6.25426ZM17.3239 12.3636H17.8239V11.8636H17.3239V12.3636ZM17.3239 16V16.5H17.8239V16H17.3239ZM16.8977 16L16.487 16.2851L16.6361 16.5H16.8977V16ZM14.9162 13.1449L15.327 12.8598L15.1778 12.6449H14.9162V13.1449ZM14.8807 13.1449V12.6449H14.3807V13.1449H14.8807ZM14.8807 16V16.5H15.3807V16H14.8807ZM14.4403 16H13.9403V16.5H14.4403V16ZM14.4403 12.3636V11.8636H13.9403V12.3636H14.4403ZM14.8665 12.3636L15.2771 12.0783L15.1279 11.8636H14.8665V12.3636ZM16.8551 15.2259L16.4445 15.5111L16.5937 15.7259H16.8551V15.2259ZM16.8906 15.2259V15.7259H17.3906V15.2259H16.8906ZM16.8906 12.3636V11.8636H16.3906V12.3636H16.8906ZM16.8239 12.3636V16H17.8239V12.3636H16.8239ZM17.3239 15.5H16.8977V16.5H17.3239V15.5ZM17.3085 15.7149L15.327 12.8598L14.5054 13.43L16.487 16.2851L17.3085 15.7149ZM14.9162 12.6449H14.8807V13.6449H14.9162V12.6449ZM14.3807 13.1449V16H15.3807V13.1449H14.3807ZM14.8807 15.5H14.4403V16.5H14.8807V15.5ZM14.9403 16V12.3636H13.9403V16H14.9403ZM14.4403 12.8636H14.8665V11.8636H14.4403V12.8636ZM14.4559 12.6489L16.4445 15.5111L17.2657 14.9406L15.2771 12.0783L14.4559 12.6489ZM16.8551 15.7259H16.8906V14.7259H16.8551V15.7259ZM17.3906 15.2259V12.3636H16.3906V15.2259H17.3906ZM16.8906 12.8636H17.3239V11.8636H16.8906V12.8636ZM21.6414 12.3636V11.8636H21.1414V12.3636H21.6414ZM22.0817 12.3636H22.5817V11.8636H22.0817V12.3636ZM21.9059 15.4371L21.4772 15.1799L21.4767 15.1807L21.9059 15.4371ZM21.4141 15.897L21.6465 16.3397L21.6485 16.3387L21.4141 15.897ZM19.9226 15.897L19.6882 16.3387L19.6901 16.3397L19.9226 15.897ZM19.429 15.4371L18.9991 15.6925L19.0009 15.6955L19.429 15.4371ZM19.255 12.3636V11.8636H18.755V12.3636H19.255ZM19.6953 12.3636H20.1953V11.8636H19.6953V12.3636ZM19.8125 15.2099L19.377 15.4555L19.3779 15.4571L19.8125 15.2099ZM20.1463 15.5348L19.9056 15.9731L19.9099 15.9754L20.1463 15.5348ZM21.1904 15.5348L21.4268 15.9754L21.4295 15.9739L21.1904 15.5348ZM21.5242 15.2099L21.0887 14.9642L21.088 14.9655L21.5242 15.2099ZM21.6414 12.8636H22.0817V11.8636H21.6414V12.8636ZM21.5817 12.3636V14.7713H22.5817V12.3636H21.5817ZM21.5817 14.7713C21.5817 14.9378 21.5435 15.0693 21.4772 15.1799L22.3347 15.6944C22.5027 15.4144 22.5817 15.102 22.5817 14.7713H21.5817ZM21.4767 15.1807C21.4104 15.2916 21.316 15.383 21.1797 15.4554L21.6485 16.3387C21.9359 16.1861 22.1694 15.9709 22.3351 15.6936L21.4767 15.1807ZM21.1816 15.4543C21.054 15.5214 20.8881 15.5639 20.6683 15.5639V16.5639C21.0191 16.5639 21.3504 16.4952 21.6465 16.3397L21.1816 15.4543ZM20.6683 15.5639C20.4486 15.5639 20.2827 15.5214 20.1551 15.4543L19.6901 16.3397C19.9863 16.4952 20.3176 16.5639 20.6683 16.5639V15.5639ZM20.157 15.4554C20.0202 15.3828 19.9247 15.2908 19.857 15.1787L19.0009 15.6955C19.1676 15.9717 19.4012 16.1863 19.6882 16.3387L20.157 15.4554ZM19.8589 15.1818C19.793 15.0709 19.755 14.9388 19.755 14.7713H18.755C18.755 15.101 18.8329 15.4127 18.9991 15.6925L19.8589 15.1818ZM19.755 14.7713V12.3636H18.755V14.7713H19.755ZM19.255 12.8636H19.6953V11.8636H19.255V12.8636ZM19.1953 12.3636V14.7358H20.1953V12.3636H19.1953ZM19.1953 14.7358C19.1953 14.9892 19.2518 15.2336 19.377 15.4555L20.248 14.9642C20.2169 14.9091 20.1953 14.8375 20.1953 14.7358H19.1953ZM19.3779 15.4571C19.5038 15.6784 19.6838 15.8512 19.9056 15.9731L20.387 15.0965C20.32 15.0597 20.2775 15.016 20.2471 14.9626L19.3779 15.4571ZM19.9099 15.9754C20.1428 16.1004 20.4018 16.152 20.6683 16.152V15.152C20.5301 15.152 20.441 15.1255 20.3827 15.0942L19.9099 15.9754ZM20.6683 16.152C20.9349 16.152 21.1939 16.1004 21.4268 15.9754L20.954 15.0942C20.8957 15.1255 20.8066 15.152 20.6683 15.152V16.152ZM21.4295 15.9739C21.6532 15.8521 21.8349 15.6782 21.9604 15.4543L21.088 14.9655C21.0596 15.0161 21.0187 15.0589 20.9512 15.0957L21.4295 15.9739ZM21.9597 15.4555C22.0848 15.2336 22.1414 14.9892 22.1414 14.7358H21.1414C21.1414 14.8375 21.1197 14.9091 21.0887 14.9642L21.9597 15.4555ZM22.1414 14.7358V12.3636H21.1414V14.7358H22.1414ZM24.011 16H23.511V16.5H24.011V16ZM24.011 12.3636V11.8636H23.511V12.3636H24.011ZM25.9393 12.5092L25.7043 12.9506L25.7066 12.9518L25.9393 12.5092ZM26.3441 12.9052L25.9007 13.1363L25.9007 13.1363L26.3441 12.9052ZM26.3441 14.0487L25.9021 13.815L25.9021 13.815L26.3441 14.0487ZM25.9411 14.4393L26.1705 14.8836L26.1728 14.8824L25.9411 14.4393ZM24.2525 14.5795H23.7525V15.0795H24.2525V14.5795ZM24.2525 14.1818V13.6818H23.7525V14.1818H24.2525ZM25.7014 14.0966L25.4868 13.645L25.485 13.6458L25.7014 14.0966ZM25.9606 13.8551L25.5164 13.6255L25.5154 13.6275L25.9606 13.8551ZM25.6996 12.8448L25.4742 13.2912L25.4778 13.2929L25.6996 12.8448ZM24.4514 12.7543V12.2543H23.9514V12.7543H24.4514ZM24.4514 16V16.5H24.9514V16H24.4514ZM25.7227 14.3665L26.1612 14.1263L26.0189 13.8665H25.7227V14.3665ZM26.6176 16V16.5H27.4616L27.0561 15.7598L26.6176 16ZM26.1062 16L25.6661 16.2373L25.8077 16.5H26.1062V16ZM25.2255 14.3665V13.8665H24.3879L24.7854 14.6038L25.2255 14.3665ZM24.511 16V12.3636H23.511V16H24.511ZM24.011 12.8636H25.2397V11.8636H24.011V12.8636ZM25.2397 12.8636C25.4711 12.8636 25.6164 12.9038 25.7043 12.9506L26.1743 12.0679C25.8976 11.9206 25.5765 11.8636 25.2397 11.8636V12.8636ZM25.7066 12.9518C25.8069 13.0046 25.8643 13.0663 25.9007 13.1363L26.7875 12.6741C26.6488 12.4079 26.4363 12.2057 26.1721 12.0667L25.7066 12.9518ZM25.9007 13.1363C25.9465 13.2242 25.9755 13.3343 25.9755 13.4787H26.9755C26.9755 13.1946 26.9169 12.9224 26.7875 12.6741L25.9007 13.1363ZM25.9755 13.4787C25.9755 13.6232 25.9465 13.731 25.9021 13.815L26.7862 14.2823C26.917 14.0349 26.9755 13.7626 26.9755 13.4787H25.9755ZM25.9021 13.815C25.8661 13.8831 25.8093 13.944 25.7094 13.9962L26.1728 14.8824C26.4351 14.7452 26.647 14.5456 26.7862 14.2823L25.9021 13.815ZM25.7117 13.995C25.6233 14.0406 25.4776 14.0795 25.2468 14.0795V15.0795C25.5795 15.0795 25.8966 15.025 26.1705 14.8835L25.7117 13.995ZM25.2468 14.0795H24.2525V15.0795H25.2468V14.0795ZM24.7525 14.5795V14.1818H23.7525V14.5795H24.7525ZM24.2525 14.6818H25.2326V13.6818H24.2525V14.6818ZM25.2326 14.6818C25.4688 14.6818 25.7074 14.6483 25.9178 14.5474L25.485 13.6458C25.4586 13.6585 25.3848 13.6818 25.2326 13.6818V14.6818ZM25.916 14.5482C26.1213 14.4506 26.2959 14.2976 26.4058 14.0828L25.5154 13.6275C25.5153 13.6278 25.5154 13.6276 25.5157 13.6272C25.516 13.6267 25.5159 13.6269 25.5151 13.6277C25.5135 13.6292 25.5059 13.6359 25.4868 13.645L25.916 14.5482ZM26.4048 14.0847C26.5034 13.894 26.5423 13.6863 26.5423 13.4787H25.5423C25.5423 13.5623 25.5268 13.6055 25.5164 13.6255L26.4048 14.0847ZM26.5423 13.4787C26.5423 13.2705 26.5032 13.064 26.4078 12.8733L25.5134 13.3206C25.527 13.3477 25.5423 13.3957 25.5423 13.4787H26.5423ZM26.4078 12.8733C26.3 12.6577 26.1287 12.4993 25.9214 12.3967L25.4778 13.2929C25.5096 13.3087 25.5123 13.3184 25.5134 13.3206L26.4078 12.8733ZM25.925 12.3985C25.7106 12.2902 25.4665 12.2543 25.2255 12.2543V13.2543C25.3775 13.2543 25.4495 13.2787 25.4742 13.2911L25.925 12.3985ZM25.2255 12.2543H24.4514V13.2543H25.2255V12.2543ZM23.9514 12.7543V16H24.9514V12.7543H23.9514ZM24.4514 15.5H24.011V16.5H24.4514V15.5ZM25.2842 14.6067L26.1791 16.2402L27.0561 15.7598L26.1612 14.1263L25.2842 14.6067ZM26.6176 15.5H26.1062V16.5H26.6176V15.5ZM26.5463 15.7627L25.6656 14.1292L24.7854 14.6038L25.6661 16.2373L26.5463 15.7627ZM25.2255 14.8665H25.7227V13.8665H25.2255V14.8665ZM31.1428 12.3636H31.6428V11.8636H31.1428V12.3636ZM31.1428 16V16.5H31.6428V16H31.1428ZM30.7167 16L30.3059 16.2851L30.4551 16.5H30.7167V16ZM28.7351 13.1449L29.1459 12.8598L28.9967 12.6449H28.7351V13.1449ZM28.6996 13.1449V12.6449H28.1996V13.1449H28.6996ZM28.6996 16V16.5H29.1996V16H28.6996ZM28.2593 16H27.7593V16.5H28.2593V16ZM28.2593 12.3636V11.8636H27.7593V12.3636H28.2593ZM28.6854 12.3636L29.096 12.0783L28.9469 11.8636H28.6854V12.3636ZM30.6741 15.2259L30.2634 15.5111L30.4126 15.7259H30.6741V15.2259ZM30.7096 15.2259V15.7259H31.2096V15.2259H30.7096ZM30.7096 12.3636V11.8636H30.2096V12.3636H30.7096ZM30.6428 12.3636V16H31.6428V12.3636H30.6428ZM31.1428 15.5H30.7167V16.5H31.1428V15.5ZM31.1274 15.7149L29.1459 12.8598L28.3244 13.43L30.3059 16.2851L31.1274 15.7149ZM28.7351 12.6449H28.6996V13.6449H28.7351V12.6449ZM28.1996 13.1449V16H29.1996V13.1449H28.1996ZM28.6996 15.5H28.2593V16.5H28.6996V15.5ZM28.7593 16V12.3636H27.7593V16H28.7593ZM28.2593 12.8636H28.6854V11.8636H28.2593V12.8636ZM28.2748 12.6489L30.2634 15.5111L31.0847 14.9406L29.096 12.0783L28.2748 12.6489ZM30.6741 15.7259H30.7096V14.7259H30.6741V15.7259ZM31.2096 15.2259V12.3636H30.2096V15.2259H31.2096ZM30.7096 12.8636H31.1428V11.8636H30.7096V12.8636ZM33.0739 16H32.5739V16.5H33.0739V16ZM33.0739 12.3636V11.8636H32.5739V12.3636H33.0739ZM34.972 12.495L34.737 12.9364L34.7395 12.9377L34.972 12.495ZM35.3396 12.8448L34.9012 13.0852L34.902 13.0867L35.3396 12.8448ZM35.3768 13.7166L34.9381 13.4768L34.936 13.4808L35.3768 13.7166ZM35.1602 13.9581L34.8854 13.5404L34.8829 13.5421L35.1602 13.9581ZM34.8708 14.0895L34.7393 13.6071L34.3708 13.7076V14.0895H34.8708ZM34.8708 14.125H34.3708V14.5941L34.839 14.624L34.8708 14.125ZM35.2064 14.2422L34.9394 14.6649L34.9394 14.6649L35.2064 14.2422ZM35.4781 15.5259L35.9126 15.7732L35.9126 15.7732L35.4781 15.5259ZM35.0857 15.8722L34.8705 15.4208L34.8705 15.4208L35.0857 15.8722ZM33.5143 15.6094H33.0143V16.1094H33.5143V15.6094ZM35.0004 15.4425L35.3393 15.8101L35.3394 15.81L35.0004 15.4425ZM35.0892 14.6932L34.6596 14.949L34.6609 14.9511L35.0892 14.6932ZM34.8211 14.4411L34.5798 14.879L34.5832 14.8809L34.8211 14.4411ZM33.5143 14.3452V13.8452H33.0143V14.3452H33.5143ZM33.5143 13.9616H33.0143V14.4616H33.5143V13.9616ZM34.6897 13.8835L34.472 13.4334L34.4701 13.4343L34.6897 13.8835ZM34.9454 13.6634L34.5309 13.3836L34.5286 13.3872L34.9454 13.6634ZM34.8744 12.9229L34.5189 13.2746L34.5208 13.2765L34.8744 12.9229ZM33.5143 12.7543V12.2543H33.0143V12.7543H33.5143ZM33.5739 16V12.3636H32.5739V16H33.5739ZM33.0739 12.8636H34.3452V11.8636H33.0739V12.8636ZM34.3452 12.8636C34.5447 12.8636 34.6661 12.8986 34.7371 12.9364L35.207 12.0537C34.9488 11.9162 34.6524 11.8636 34.3452 11.8636V12.8636ZM34.7395 12.9377C34.827 12.9836 34.8731 13.034 34.9012 13.0852L35.778 12.6044C35.6451 12.3621 35.4461 12.1793 35.2045 12.0524L34.7395 12.9377ZM34.902 13.0867C34.9388 13.1533 34.9603 13.2307 34.9603 13.3295H35.9603C35.9603 13.0732 35.9013 12.8275 35.7771 12.6029L34.902 13.0867ZM34.9603 13.3295C34.9603 13.4299 34.942 13.4697 34.9381 13.4768L35.8156 13.9564C35.9229 13.76 35.9603 13.5417 35.9603 13.3295H34.9603ZM34.936 13.4808C34.9179 13.5145 34.9007 13.5303 34.8854 13.5404L35.435 14.3758C35.5997 14.2675 35.7269 14.1223 35.8177 13.9524L34.936 13.4808ZM34.8829 13.5421C34.8394 13.5711 34.7922 13.5927 34.7393 13.6071L35.0024 14.5719C35.1578 14.5295 35.3035 14.4635 35.4376 14.3741L34.8829 13.5421ZM34.3708 14.0895V14.125H35.3708V14.0895H34.3708ZM34.839 14.624C34.852 14.6248 34.8841 14.63 34.9394 14.6649L35.4734 13.8194C35.3038 13.7123 35.1122 13.6394 34.9027 13.626L34.839 14.624ZM34.9394 14.6649C34.9731 14.6862 35.0134 14.7235 35.0546 14.7957L35.9228 14.2995C35.8125 14.1065 35.6646 13.9402 35.4734 13.8194L34.9394 14.6649ZM35.0546 14.7957C35.0775 14.8357 35.1023 14.9074 35.1023 15.0341H36.1023C36.1023 14.7773 36.0515 14.5246 35.9228 14.2995L35.0546 14.7957ZM35.1023 15.0341C35.1023 15.1375 35.0797 15.2149 35.0435 15.2786L35.9126 15.7732C36.0421 15.5457 36.1023 15.2952 36.1023 15.0341H35.1023ZM35.0435 15.2786C35.0199 15.3201 34.9742 15.3714 34.8705 15.4208L35.3009 16.3235C35.5546 16.2025 35.7705 16.0229 35.9126 15.7732L35.0435 15.2786ZM34.8705 15.4208C34.7821 15.463 34.6306 15.5 34.3879 15.5V16.5C34.718 16.5 35.0318 16.4518 35.3009 16.3235L34.8705 15.4208ZM34.3879 15.5H33.0739V16.5H34.3879V15.5ZM33.5143 16.1094H34.3879V15.1094H33.5143V16.1094ZM34.3879 16.1094C34.7148 16.1094 35.078 16.051 35.3393 15.8101L34.6616 15.0748C34.6747 15.0627 34.6717 15.0726 34.6253 15.0852C34.5782 15.0981 34.502 15.1094 34.3879 15.1094V16.1094ZM35.3394 15.81C35.5596 15.607 35.6833 15.3394 35.6833 15.0341H34.6833C34.6833 15.0421 34.6826 15.0467 34.6822 15.0486C34.6818 15.0505 34.6815 15.0513 34.6813 15.0517C34.6811 15.0521 34.6802 15.054 34.6777 15.0574C34.6751 15.0609 34.6702 15.0669 34.6614 15.0749L35.3394 15.81ZM35.6833 15.0341C35.6833 14.8213 35.6278 14.6183 35.5175 14.4352L34.6609 14.9511C34.6761 14.9764 34.6833 15.0007 34.6833 15.0341H35.6833ZM35.5188 14.4374C35.4064 14.2487 35.2481 14.1035 35.0589 14.0012L34.5832 14.8809C34.6261 14.904 34.6465 14.927 34.6596 14.949L35.5188 14.4374ZM35.0624 14.0031C34.8592 13.8912 34.6355 13.8452 34.4092 13.8452V14.8452C34.5 14.8452 34.551 14.8631 34.5798 14.879L35.0624 14.0031ZM34.4092 13.8452H33.5143V14.8452H34.4092V13.8452ZM33.0143 14.3452V15.6094H34.0143V14.3452H33.0143ZM33.5143 14.4616H34.331V13.4616H33.5143V14.4616ZM34.331 14.4616C34.5307 14.4616 34.7267 14.422 34.9093 14.3327L34.4701 13.4343C34.4396 13.4492 34.3966 13.4616 34.331 13.4616V14.4616ZM34.9074 14.3337C35.0914 14.2447 35.2472 14.1131 35.3622 13.9395L34.5286 13.3872C34.5181 13.403 34.5035 13.4182 34.4721 13.4334L34.9074 14.3337ZM35.3598 13.9431C35.486 13.7561 35.5413 13.5448 35.5413 13.3295H34.5413C34.5413 13.37 34.5326 13.3812 34.531 13.3836L35.3598 13.9431ZM35.5413 13.3295C35.5413 13.0394 35.4346 12.776 35.2279 12.5694L34.5208 13.2765C34.5331 13.2888 34.5361 13.2958 34.537 13.2979C34.5379 13.3002 34.5413 13.3088 34.5413 13.3295H35.5413ZM35.2298 12.5713C34.9852 12.324 34.6512 12.2543 34.3452 12.2543V13.2543C34.4292 13.2543 34.48 13.2643 34.5068 13.2728C34.5311 13.2806 34.529 13.2848 34.5189 13.2746L35.2298 12.5713ZM34.3452 12.2543H33.5143V13.2543H34.3452V12.2543ZM33.0143 12.7543V13.9616H34.0143V12.7543H33.0143ZM37.3759 16H36.8759V16.5H37.3759V16ZM37.3759 12.3636V11.8636H36.8759V12.3636H37.3759ZM39.5705 12.3636H40.0705V11.8636H39.5705V12.3636ZM39.5705 12.7543V13.2543H40.0705V12.7543H39.5705ZM37.8162 12.7543V12.2543H37.3162V12.7543H37.8162ZM37.8162 13.983H37.3162V14.483H37.8162V13.983ZM39.4569 13.983H39.9569V13.483H39.4569V13.983ZM39.4569 14.3736V14.8736H39.9569V14.3736H39.4569ZM37.8162 14.3736V13.8736H37.3162V14.3736H37.8162ZM37.8162 15.6094H37.3162V16.1094H37.8162V15.6094ZM39.5989 15.6094H40.0989V15.1094H39.5989V15.6094ZM39.5989 16V16.5H40.0989V16H39.5989ZM37.8759 16V12.3636H36.8759V16H37.8759ZM37.3759 12.8636H39.5705V11.8636H37.3759V12.8636ZM39.0705 12.3636V12.7543H40.0705V12.3636H39.0705ZM39.5705 12.2543H37.8162V13.2543H39.5705V12.2543ZM37.3162 12.7543V13.983H38.3162V12.7543H37.3162ZM37.8162 14.483H39.4569V13.483H37.8162V14.483ZM38.9569 13.983V14.3736H39.9569V13.983H38.9569ZM39.4569 13.8736H37.8162V14.8736H39.4569V13.8736ZM37.3162 14.3736V15.6094H38.3162V14.3736H37.3162ZM37.8162 16.1094H39.5989V15.1094H37.8162V16.1094ZM39.0989 15.6094V16H40.0989V15.6094H39.0989ZM39.5989 15.5H37.3759V16.5H39.5989V15.5ZM41.4142 16H40.9142V16.5H41.4142V16ZM41.4142 12.3636V11.8636H40.9142V12.3636H41.4142ZM43.3424 12.5092L43.1074 12.9506L43.1097 12.9518L43.3424 12.5092ZM43.7473 12.9052L43.3039 13.1363L43.3039 13.1363L43.7473 12.9052ZM43.7473 14.0487L43.3052 13.815L43.3052 13.815L43.7473 14.0487ZM43.3442 14.4393L43.5736 14.8836L43.5759 14.8824L43.3442 14.4393ZM41.6556 14.5795H41.1556V15.0795H41.6556V14.5795ZM41.6556 14.1818V13.6818H41.1556V14.1818H41.6556ZM43.1045 14.0966L42.8899 13.645L42.8881 13.6458L43.1045 14.0966ZM43.3637 13.8551L42.9196 13.6255L42.9186 13.6275L43.3637 13.8551ZM43.1027 12.8448L42.8774 13.2912L42.8809 13.2929L43.1027 12.8448ZM41.8545 12.7543V12.2543H41.3545V12.7543H41.8545ZM41.8545 16V16.5H42.3545V16H41.8545ZM43.1258 14.3665L43.5643 14.1263L43.422 13.8665H43.1258V14.3665ZM44.0207 16V16.5H44.8647L44.4592 15.7598L44.0207 16ZM43.5093 16L43.0692 16.2373L43.2109 16.5H43.5093V16ZM42.6287 14.3665V13.8665H41.7911L42.1885 14.6038L42.6287 14.3665ZM41.9142 16V12.3636H40.9142V16H41.9142ZM41.4142 12.8636H42.6429V11.8636H41.4142V12.8636ZM42.6429 12.8636C42.8742 12.8636 43.0195 12.9038 43.1074 12.9506L43.5774 12.0679C43.3008 11.9206 42.9797 11.8636 42.6429 11.8636V12.8636ZM43.1097 12.9518C43.2101 13.0046 43.2674 13.0663 43.3039 13.1363L44.1907 12.6741C44.0519 12.4079 43.8394 12.2057 43.5752 12.0667L43.1097 12.9518ZM43.3039 13.1363C43.3497 13.2242 43.3787 13.3343 43.3787 13.4787H44.3787C44.3787 13.1946 44.3201 12.9224 44.1907 12.6741L43.3039 13.1363ZM43.3787 13.4787C43.3787 13.6232 43.3496 13.731 43.3052 13.815L44.1893 14.2823C44.3201 14.0349 44.3787 13.7626 44.3787 13.4787H43.3787ZM43.3052 13.815C43.2692 13.8831 43.2124 13.944 43.1125 13.9962L43.5759 14.8824C43.8382 14.7452 44.0501 14.5456 44.1893 14.2823L43.3052 13.815ZM43.1148 13.995C43.0265 14.0406 42.8807 14.0795 42.65 14.0795V15.0795C42.9826 15.0795 43.2997 15.025 43.5736 14.8835L43.1148 13.995ZM42.65 14.0795H41.6556V15.0795H42.65V14.0795ZM42.1556 14.5795V14.1818H41.1556V14.5795H42.1556ZM41.6556 14.6818H42.6358V13.6818H41.6556V14.6818ZM42.6358 14.6818C42.8719 14.6818 43.1105 14.6483 43.3209 14.5474L42.8881 13.6458C42.8617 13.6585 42.7879 13.6818 42.6358 13.6818V14.6818ZM43.3191 14.5482C43.5244 14.4506 43.699 14.2976 43.8089 14.0828L42.9186 13.6275C42.9184 13.6278 42.9185 13.6276 42.9188 13.6272C42.9191 13.6267 42.9191 13.6269 42.9182 13.6277C42.9166 13.6292 42.909 13.6359 42.8899 13.645L43.3191 14.5482ZM43.8079 14.0847C43.9065 13.894 43.9454 13.6863 43.9454 13.4787H42.9454C42.9454 13.5623 42.9299 13.6055 42.9196 13.6255L43.8079 14.0847ZM43.9454 13.4787C43.9454 13.2705 43.9063 13.064 43.811 12.8733L42.9165 13.3206C42.9301 13.3477 42.9454 13.3957 42.9454 13.4787H43.9454ZM43.811 12.8733C43.7031 12.6577 43.5318 12.4993 43.3246 12.3967L42.8809 13.2929C42.9128 13.3087 42.9155 13.3184 42.9165 13.3206L43.811 12.8733ZM43.3281 12.3985C43.1137 12.2902 42.8697 12.2543 42.6287 12.2543V13.2543C42.7807 13.2543 42.8526 13.2787 42.8774 13.2911L43.3281 12.3985ZM42.6287 12.2543H41.8545V13.2543H42.6287V12.2543ZM41.3545 12.7543V16H42.3545V12.7543H41.3545ZM41.8545 15.5H41.4142V16.5H41.8545V15.5ZM42.6873 14.6067L43.5822 16.2402L44.4592 15.7598L43.5643 14.1263L42.6873 14.6067ZM44.0207 15.5H43.5093V16.5H44.0207V15.5ZM43.9495 15.7627L43.0688 14.1292L42.1885 14.6038L43.0692 16.2373L43.9495 15.7627ZM42.6287 14.8665H43.1258V13.8665H42.6287V14.8665ZM48.1482 13.5L47.6729 13.6553L47.7856 14H48.1482V13.5ZM47.9937 13.1786L47.5753 13.4524L47.5793 13.4584L47.9937 13.1786ZM47.7682 12.9336L47.4605 13.3277L47.4631 13.3297L47.7682 12.9336ZM47.4735 12.7791L47.627 12.3033L47.627 12.3033L47.4735 12.7791ZM46.1028 13.3846L46.5534 13.6013L46.5534 13.6013L46.1028 13.3846ZM46.1045 14.979L45.6549 15.1977L45.6549 15.1977L46.1045 14.979ZM46.5324 15.4709L46.2695 15.8961L46.5324 15.4709ZM47.6901 15.5046L47.9343 15.9409L47.9354 15.9403L47.6901 15.5046ZM48.063 15.1246L47.6243 14.8848L47.6237 14.8859L48.063 15.1246ZM48.1979 14.544L48.3009 14.0548L47.6979 13.9278V14.544H48.1979ZM48.3329 14.5724V15.0724L48.4359 14.0832L48.3329 14.5724ZM47.2391 14.5724H46.7391V15.0724H47.2391V14.5724ZM47.2391 14.1818V13.6818H46.7391V14.1818H47.2391ZM48.6241 14.1818H49.1241V13.6818H48.6241V14.1818ZM48.4323 15.3537L47.9993 15.1036L47.9983 15.1054L48.4323 15.3537ZM47.9067 15.8686L48.1452 16.3081L48.146 16.3076L47.9067 15.8686ZM46.291 15.8224L46.0261 16.2466L46.0271 16.2471L46.291 15.8224ZM45.7228 15.1761L45.2726 15.3936L45.2733 15.3952L45.7228 15.1761ZM45.6358 13.4059L45.1622 13.2456L45.1617 13.247L45.6358 13.4059ZM45.966 12.8164L46.3422 13.1459L46.3422 13.1459L45.966 12.8164ZM46.4703 12.4435L46.267 11.9867L46.4703 12.4435ZM47.6475 12.4009L47.4823 12.8729L47.4864 12.8742L47.6475 12.4009ZM48.0932 12.6442L47.7787 13.0329L47.7825 13.036L48.0932 12.6442ZM48.4216 13.0188L47.9932 13.2766L47.9941 13.2781L48.4216 13.0188ZM48.6028 13.5V14H49.2055L49.0942 13.4077L48.6028 13.5ZM48.6235 13.3447C48.5714 13.1855 48.5005 13.0357 48.4082 12.8989L47.5793 13.4584C47.6148 13.5109 47.6468 13.5754 47.6729 13.6553L48.6235 13.3447ZM48.4121 12.9049C48.3199 12.7639 48.2069 12.6403 48.0733 12.5375L47.4631 13.3297C47.5048 13.3618 47.5421 13.4016 47.5753 13.4524L48.4121 12.9049ZM48.076 12.5395C47.9408 12.434 47.7898 12.3558 47.627 12.3033L47.32 13.255C47.3774 13.2735 47.4228 13.2983 47.4605 13.3277L48.076 12.5395ZM47.627 12.3033C47.4611 12.2497 47.2878 12.2259 47.1113 12.2259V13.2259C47.1975 13.2259 47.2657 13.2375 47.32 13.255L47.627 12.3033ZM47.1113 12.2259C46.8047 12.2259 46.5158 12.3065 46.2568 12.4699L46.7903 13.3156C46.8841 13.2565 46.987 13.2259 47.1113 13.2259V12.2259ZM46.2568 12.4699C45.9895 12.6385 45.7907 12.8798 45.6521 13.1679L46.5534 13.6013C46.6232 13.4561 46.7049 13.3695 46.7903 13.3156L46.2568 12.4699ZM45.6521 13.1679C45.507 13.4697 45.4465 13.8142 45.4465 14.1818H46.4465C46.4465 13.9197 46.4902 13.7327 46.5534 13.6013L45.6521 13.1679ZM45.4465 14.1818C45.4465 14.5501 45.5078 14.8954 45.6549 15.1977L46.5542 14.7604C46.4905 14.6295 46.4465 14.4433 46.4465 14.1818H45.4465ZM45.6549 15.1977C45.7958 15.4874 45.9983 15.7284 46.2695 15.8961L46.7954 15.0456C46.7068 14.9908 46.624 14.904 46.5542 14.7604L45.6549 15.1977ZM46.2695 15.8961C46.5334 16.0594 46.828 16.1378 47.1397 16.1378V15.1378C47.0016 15.1378 46.8913 15.1049 46.7954 15.0456L46.2695 15.8961ZM47.1397 16.1378C47.4209 16.1378 47.6908 16.0772 47.9343 15.9409L47.4459 15.0683C47.3722 15.1096 47.2752 15.1378 47.1397 15.1378V16.1378ZM47.9354 15.9403C48.1783 15.8036 48.3693 15.6081 48.5023 15.3634L47.6237 14.8859C47.5791 14.9679 47.5215 15.0257 47.4448 15.0689L47.9354 15.9403ZM48.5017 15.3645C48.6388 15.1138 48.6979 14.8348 48.6979 14.544H47.6979C47.6979 14.6984 47.6671 14.8064 47.6243 14.8848L48.5017 15.3645ZM48.0949 15.0333L48.2299 15.0617L48.4359 14.0832L48.3009 14.0548L48.0949 15.0333ZM48.3329 14.0724H47.2391V15.0724H48.3329V14.0724ZM47.7391 14.5724V14.1818H46.7391V14.5724H47.7391ZM47.2391 14.6818H48.6241V13.6818H47.2391V14.6818ZM48.1241 14.1818V14.5724H49.1241V14.1818H48.1241ZM48.1241 14.5724C48.1241 14.7993 48.0762 14.9705 47.9993 15.1036L48.8653 15.6038C49.044 15.2942 49.1241 14.9445 49.1241 14.5724H48.1241ZM47.9983 15.1054C47.9176 15.2464 47.8098 15.352 47.6675 15.4296L48.146 16.3076C48.4511 16.1414 48.6937 15.9037 48.8663 15.602L47.9983 15.1054ZM47.6683 15.4291C47.5287 15.5049 47.3571 15.5497 47.1397 15.5497V16.5497C47.4999 16.5497 47.8397 16.4738 48.1452 16.3081L47.6683 15.4291ZM47.1397 15.5497C46.8993 15.5497 46.7101 15.4942 46.5548 15.3978L46.0271 16.2471C46.3595 16.4537 46.7361 16.5497 47.1397 16.5497V15.5497ZM46.5558 15.3983C46.3995 15.3008 46.271 15.1597 46.1723 14.9571L45.2733 15.3952C45.4468 15.7513 45.6971 16.0411 46.0261 16.2466L46.5558 15.3983ZM46.173 14.9587C46.0776 14.7612 46.0204 14.5074 46.0204 14.1818H45.0204C45.0204 14.6233 45.098 15.0323 45.2726 15.3936L46.173 14.9587ZM46.0204 14.1818C46.0204 13.9383 46.053 13.7346 46.1099 13.5647L45.1617 13.247C45.0647 13.5365 45.0204 13.85 45.0204 14.1818H46.0204ZM46.1094 13.5662C46.1692 13.3895 46.2487 13.2526 46.3422 13.1459L45.5899 12.487C45.3993 12.7046 45.2586 12.9606 45.1622 13.2456L46.1094 13.5662ZM46.3422 13.1459C46.4372 13.0373 46.5466 12.9569 46.6736 12.9003L46.267 11.9867C46.0057 12.103 45.7789 12.2712 45.5899 12.487L46.3422 13.1459ZM46.6736 12.9003C46.7977 12.8451 46.9413 12.8139 47.1113 12.8139V11.8139C46.8149 11.8139 46.5311 11.8692 46.267 11.9867L46.6736 12.9003ZM47.1113 12.8139C47.252 12.8139 47.3744 12.8351 47.4823 12.8729L47.8127 11.929C47.5892 11.8508 47.3541 11.8139 47.1113 11.8139V12.8139ZM47.4864 12.8742C47.6005 12.9131 47.6966 12.9665 47.7787 13.0329L48.4077 12.2555C48.2293 12.1112 48.0283 12.0024 47.8086 11.9276L47.4864 12.8742ZM47.7825 13.036C47.8663 13.1024 47.9361 13.1817 47.9932 13.2766L48.8501 12.7611C48.732 12.5648 48.5828 12.3943 48.4038 12.2524L47.7825 13.036ZM47.9941 13.2781C48.0487 13.368 48.0886 13.4713 48.1114 13.5923L49.0942 13.4077C49.0506 13.176 48.9698 12.9584 48.8491 12.7595L47.9941 13.2781ZM48.6028 13H48.1482V14H48.6028V13Z" fill="#777777"/>
</svg>
