<svg width="60" height="20" viewBox="0 0 60 20" fill="none" xmlns="http://www.w3.org/2000/svg">
<rect width="60" height="20" fill="#F1F1F1"/>
<path d="M16.7045 13V7.18182H18.7386C19.1439 7.18182 19.4782 7.25189 19.7415 7.39205C20.0047 7.5303 20.2008 7.71686 20.3295 7.9517C20.4583 8.18466 20.5227 8.44318 20.5227 8.72727C20.5227 8.97727 20.4782 9.18371 20.3892 9.34659C20.3021 9.50947 20.1866 9.63826 20.0426 9.73295C19.9006 9.82765 19.7462 9.89773 19.5795 9.94318V10C19.7576 10.0114 19.9366 10.0739 20.1165 10.1875C20.2964 10.3011 20.447 10.464 20.5682 10.6761C20.6894 10.8883 20.75 11.1477 20.75 11.4545C20.75 11.7462 20.6837 12.0085 20.5511 12.2415C20.4186 12.4744 20.2093 12.6591 19.9233 12.7955C19.6373 12.9318 19.2652 13 18.8068 13H16.7045ZM17.4091 12.375H18.8068C19.267 12.375 19.5938 12.286 19.7869 12.108C19.982 11.928 20.0795 11.7102 20.0795 11.4545C20.0795 11.2576 20.0294 11.0758 19.929 10.9091C19.8286 10.7405 19.6856 10.6061 19.5 10.5057C19.3144 10.4034 19.0947 10.3523 18.8409 10.3523H17.4091V12.375ZM17.4091 9.73864H18.7159C18.928 9.73864 19.1193 9.69697 19.2898 9.61364C19.4621 9.5303 19.5985 9.41288 19.6989 9.26136C19.8011 9.10985 19.8523 8.93182 19.8523 8.72727C19.8523 8.47159 19.7633 8.25473 19.5852 8.0767C19.4072 7.89678 19.125 7.80682 18.7386 7.80682H17.4091V9.73864ZM23.1009 13.1023C22.8243 13.1023 22.5734 13.0502 22.348 12.946C22.1226 12.84 21.9437 12.6875 21.8111 12.4886C21.6785 12.2879 21.6122 12.0455 21.6122 11.7614C21.6122 11.5114 21.6615 11.3087 21.7599 11.1534C21.8584 10.9962 21.9901 10.8731 22.1548 10.7841C22.3196 10.6951 22.5014 10.6288 22.7003 10.5852C22.901 10.5398 23.1027 10.5038 23.3054 10.4773C23.5705 10.4432 23.7855 10.4176 23.9503 10.4006C24.117 10.3816 24.2382 10.3504 24.3139 10.3068C24.3916 10.2633 24.4304 10.1875 24.4304 10.0795V10.0568C24.4304 9.77652 24.3537 9.55871 24.2003 9.40341C24.0488 9.24811 23.8187 9.17045 23.5099 9.17045C23.1899 9.17045 22.9389 9.24053 22.7571 9.38068C22.5753 9.52083 22.4474 9.67045 22.3736 9.82955L21.7372 9.60227C21.8509 9.33712 22.0024 9.13068 22.1918 8.98295C22.383 8.83333 22.5914 8.72917 22.8168 8.67045C23.044 8.60985 23.2675 8.57955 23.4872 8.57955C23.6274 8.57955 23.7884 8.59659 23.9702 8.63068C24.1539 8.66288 24.331 8.73011 24.5014 8.83239C24.6738 8.93466 24.8168 9.08902 24.9304 9.29545C25.044 9.50189 25.1009 9.77841 25.1009 10.125V13H24.4304V12.4091H24.3963C24.3509 12.5038 24.2751 12.6051 24.169 12.7131C24.063 12.821 23.9219 12.9129 23.7457 12.9886C23.5696 13.0644 23.3546 13.1023 23.1009 13.1023ZM23.2031 12.5C23.4683 12.5 23.6918 12.4479 23.8736 12.3438C24.0573 12.2396 24.1955 12.1051 24.2884 11.9403C24.383 11.7756 24.4304 11.6023 24.4304 11.4205V10.8068C24.402 10.8409 24.3395 10.8722 24.2429 10.9006C24.1482 10.9271 24.0384 10.9508 23.9134 10.9716C23.7902 10.9905 23.67 11.0076 23.5526 11.0227C23.437 11.036 23.3433 11.0473 23.2713 11.0568C23.0971 11.0795 22.9342 11.1165 22.7827 11.1676C22.633 11.2169 22.5118 11.2917 22.419 11.392C22.3281 11.4905 22.2827 11.625 22.2827 11.7955C22.2827 12.0284 22.3688 12.2045 22.5412 12.3239C22.7154 12.4413 22.9361 12.5 23.2031 12.5ZM26.6001 14.6364C26.4865 14.6364 26.3852 14.6269 26.2962 14.608C26.2071 14.5909 26.1456 14.5739 26.1115 14.5568L26.282 13.9659C26.4448 14.0076 26.5888 14.0227 26.7138 14.0114C26.8388 14 26.9496 13.9441 27.0462 13.8438C27.1446 13.7453 27.2346 13.5852 27.3161 13.3636L27.4411 13.0227L25.8274 8.63636H26.5547L27.7592 12.1136H27.8047L29.0092 8.63636H29.7365L27.8842 13.6364C27.8009 13.8617 27.6977 14.0483 27.5746 14.196C27.4515 14.3456 27.3085 14.4564 27.1456 14.5284C26.9846 14.6004 26.8028 14.6364 26.6001 14.6364ZM31.7692 13L30.1783 7.18182H30.8942L32.1101 11.9205H32.1669L33.4055 7.18182H34.201L35.4396 11.9205H35.4964L36.7124 7.18182H37.4283L35.8374 13H35.1101L33.826 8.36364H33.7805L32.4964 13H31.7692ZM39.093 13.1023C38.8165 13.1023 38.5656 13.0502 38.3402 12.946C38.1148 12.84 37.9358 12.6875 37.8033 12.4886C37.6707 12.2879 37.6044 12.0455 37.6044 11.7614C37.6044 11.5114 37.6536 11.3087 37.7521 11.1534C37.8506 10.9962 37.9822 10.8731 38.147 10.7841C38.3118 10.6951 38.4936 10.6288 38.6925 10.5852C38.8932 10.5398 39.0949 10.5038 39.2976 10.4773C39.5627 10.4432 39.7777 10.4176 39.9425 10.4006C40.1091 10.3816 40.2304 10.3504 40.3061 10.3068C40.3838 10.2633 40.4226 10.1875 40.4226 10.0795V10.0568C40.4226 9.77652 40.3459 9.55871 40.1925 9.40341C40.041 9.24811 39.8108 9.17045 39.5021 9.17045C39.1821 9.17045 38.9311 9.24053 38.7493 9.38068C38.5675 9.52083 38.4396 9.67045 38.3658 9.82955L37.7294 9.60227C37.843 9.33712 37.9946 9.13068 38.1839 8.98295C38.3752 8.83333 38.5836 8.72917 38.8089 8.67045C39.0362 8.60985 39.2597 8.57955 39.4794 8.57955C39.6196 8.57955 39.7805 8.59659 39.9624 8.63068C40.1461 8.66288 40.3232 8.73011 40.4936 8.83239C40.666 8.93466 40.8089 9.08902 40.9226 9.29545C41.0362 9.50189 41.093 9.77841 41.093 10.125V13H40.4226V12.4091H40.3885C40.343 12.5038 40.2673 12.6051 40.1612 12.7131C40.0552 12.821 39.9141 12.9129 39.7379 12.9886C39.5618 13.0644 39.3468 13.1023 39.093 13.1023ZM39.1953 12.5C39.4605 12.5 39.6839 12.4479 39.8658 12.3438C40.0495 12.2396 40.1877 12.1051 40.2805 11.9403C40.3752 11.7756 40.4226 11.6023 40.4226 11.4205V10.8068C40.3942 10.8409 40.3317 10.8722 40.2351 10.9006C40.1404 10.9271 40.0305 10.9508 39.9055 10.9716C39.7824 10.9905 39.6622 11.0076 39.5447 11.0227C39.4292 11.036 39.3355 11.0473 39.2635 11.0568C39.0893 11.0795 38.9264 11.1165 38.7749 11.1676C38.6252 11.2169 38.504 11.2917 38.4112 11.392C38.3203 11.4905 38.2749 11.625 38.2749 11.7955C38.2749 12.0284 38.361 12.2045 38.5334 12.3239C38.7076 12.4413 38.9283 12.5 39.1953 12.5Z" fill="#777777"/>
<path d="M16.7045 13H16.2045V13.5H16.7045V13ZM16.7045 7.18182V6.68182H16.2045V7.18182H16.7045ZM19.7415 7.39205L19.5065 7.8334L19.509 7.83471L19.7415 7.39205ZM20.3295 7.9517L19.8911 8.19212L19.892 8.19362L20.3295 7.9517ZM20.3892 9.34659L19.9504 9.1068L19.9483 9.11077L20.3892 9.34659ZM20.0426 9.73295L19.7678 9.31524L19.7653 9.31693L20.0426 9.73295ZM19.5795 9.94318L19.448 9.4608L19.0795 9.56128V9.94318H19.5795ZM19.5795 10H19.0795V10.4691L19.5477 10.499L19.5795 10ZM20.1165 10.1875L19.8495 10.6102L19.8495 10.6102L20.1165 10.1875ZM20.5511 12.2415L20.9857 12.4888L20.9857 12.4888L20.5511 12.2415ZM19.9233 12.7955L19.7081 12.3441L19.7081 12.3441L19.9233 12.7955ZM17.4091 12.375H16.9091V12.875H17.4091V12.375ZM19.7869 12.108L20.1258 12.4756L20.1259 12.4755L19.7869 12.108ZM19.929 10.9091L19.4994 11.1649L19.5007 11.1671L19.929 10.9091ZM19.5 10.5057L19.2587 10.9436L19.2621 10.9455L19.5 10.5057ZM17.4091 10.3523V9.85227H16.9091V10.3523H17.4091ZM17.4091 9.73864H16.9091V10.2386H17.4091V9.73864ZM19.2898 9.61364L19.0721 9.16349L19.0702 9.16444L19.2898 9.61364ZM19.6989 9.26136L19.2844 8.98162L19.282 8.98522L19.6989 9.26136ZM19.5852 8.0767L19.2298 8.42839L19.2317 8.43026L19.5852 8.0767ZM17.4091 7.80682V7.30682H16.9091V7.80682H17.4091ZM17.2045 13V7.18182H16.2045V13H17.2045ZM16.7045 7.68182H18.7386V6.68182H16.7045V7.68182ZM18.7386 7.68182C19.0901 7.68182 19.3369 7.74308 19.5065 7.8334L19.9764 6.95069C19.6196 6.76071 19.1978 6.68182 18.7386 6.68182V7.68182ZM19.509 7.83471C19.6952 7.93249 19.8148 8.05282 19.8911 8.19212L20.768 7.71129C20.5868 7.38089 20.3143 7.12812 19.974 6.94938L19.509 7.83471ZM19.892 8.19362C19.9771 8.34754 20.0227 8.52193 20.0227 8.72727H21.0227C21.0227 8.36444 20.9396 8.02178 20.7671 7.70979L19.892 8.19362ZM20.0227 8.72727C20.0227 8.92135 19.9878 9.03856 19.9505 9.10681L20.828 9.58637C20.9687 9.32887 21.0227 9.03319 21.0227 8.72727H20.0227ZM19.9483 9.11077C19.8976 9.20557 19.8371 9.26966 19.7678 9.31525L20.3174 10.1507C20.536 10.0069 20.7066 9.81337 20.8301 9.58242L19.9483 9.11077ZM19.7653 9.31693C19.6685 9.38146 19.5634 9.42931 19.448 9.4608L19.7111 10.4256C19.929 10.3661 20.1327 10.2738 20.32 10.149L19.7653 9.31693ZM19.0795 9.94318V10H20.0795V9.94318H19.0795ZM19.5477 10.499C19.6275 10.5041 19.7267 10.5327 19.8495 10.6102L20.3835 9.76476C20.1464 9.61503 19.8877 9.51865 19.6114 9.50102L19.5477 10.499ZM19.8495 10.6102C19.9506 10.6741 20.0474 10.7725 20.1341 10.9242L21.0023 10.4281C20.8466 10.1555 20.6422 9.92815 20.3835 9.76476L19.8495 10.6102ZM20.1341 10.9242C20.2024 11.0438 20.25 11.2128 20.25 11.4545H21.25C21.25 11.0827 21.1764 10.7327 21.0023 10.4281L20.1341 10.9242ZM20.25 11.4545C20.25 11.6674 20.2025 11.8431 20.1166 11.9942L20.9857 12.4888C21.1649 12.1739 21.25 11.8251 21.25 11.4545H20.25ZM20.1166 11.9942C20.0432 12.1231 19.919 12.2436 19.7081 12.3441L20.1385 13.2468C20.4995 13.0746 20.7939 12.8258 20.9857 12.4888L20.1166 11.9942ZM19.7081 12.3441C19.5125 12.4374 19.2215 12.5 18.8068 12.5V13.5C19.3088 13.5 19.7622 13.4262 20.1385 13.2468L19.7081 12.3441ZM18.8068 12.5H16.7045V13.5H18.8068V12.5ZM17.4091 12.875H18.8068V11.875H17.4091V12.875ZM18.8068 12.875C19.3063 12.875 19.792 12.7832 20.1258 12.4756L19.4481 11.7403C19.3955 11.7888 19.2278 11.875 18.8068 11.875V12.875ZM20.1259 12.4755C20.4192 12.205 20.5795 11.8557 20.5795 11.4545H19.5795C19.5795 11.5647 19.5448 11.6511 19.4479 11.7404L20.1259 12.4755ZM20.5795 11.4545C20.5795 11.1679 20.5052 10.8967 20.3573 10.6511L19.5007 11.1671C19.5535 11.2548 19.5795 11.3473 19.5795 11.4545H20.5795ZM20.3586 10.6533C20.2086 10.4014 19.9966 10.2058 19.7379 10.0659L19.2621 10.9455C19.3746 11.0063 19.4486 11.0797 19.4994 11.1649L20.3586 10.6533ZM19.7413 10.0678C19.4685 9.91743 19.1624 9.85227 18.8409 9.85227V10.8523C19.0269 10.8523 19.1603 10.8894 19.2587 10.9436L19.7413 10.0678ZM18.8409 9.85227H17.4091V10.8523H18.8409V9.85227ZM16.9091 10.3523V12.375H17.9091V10.3523H16.9091ZM17.4091 10.2386H18.7159V9.23864H17.4091V10.2386ZM18.7159 10.2386C18.9951 10.2386 19.2628 10.1834 19.5094 10.0628L19.0702 9.16444C18.9758 9.21058 18.861 9.23864 18.7159 9.23864V10.2386ZM19.5074 10.0638C19.7561 9.94354 19.9631 9.7679 20.1157 9.53751L19.282 8.98522C19.2339 9.05786 19.1682 9.11706 19.0721 9.16349L19.5074 10.0638ZM20.1133 9.5411C20.2778 9.29731 20.3523 9.0192 20.3523 8.72727H19.3523C19.3523 8.84443 19.3244 8.92238 19.2844 8.98163L20.1133 9.5411ZM20.3523 8.72727C20.3523 8.34129 20.2122 7.99657 19.9388 7.72315L19.2317 8.43026C19.3143 8.5129 19.3523 8.60189 19.3523 8.72727H20.3523ZM19.9406 7.72503C19.6293 7.41033 19.1894 7.30682 18.7386 7.30682V8.30682C19.0606 8.30682 19.1851 8.38323 19.2298 8.42838L19.9406 7.72503ZM18.7386 7.30682H17.4091V8.30682H18.7386V7.30682ZM16.9091 7.80682V9.73864H17.9091V7.80682H16.9091ZM22.348 12.946L22.1351 13.3984L22.1382 13.3999L22.348 12.946ZM21.8111 12.4886L21.3938 12.7642L21.3951 12.766L21.8111 12.4886ZM21.7599 11.1534L22.1822 11.4212L22.1837 11.4189L21.7599 11.1534ZM22.7003 10.5852L22.8073 11.0737L22.8107 11.0729L22.7003 10.5852ZM23.3054 10.4773L23.2416 9.98135L23.2405 9.9815L23.3054 10.4773ZM23.9503 10.4006L24.0017 10.8979L24.0067 10.8974L23.9503 10.4006ZM24.3139 10.3068L24.0693 9.87072L24.0647 9.87337L24.3139 10.3068ZM24.2003 9.40341L23.8424 9.75258L23.8446 9.75479L24.2003 9.40341ZM22.7571 9.38068L23.0624 9.77669L23.0624 9.77669L22.7571 9.38068ZM22.3736 9.82955L22.2054 10.3004L22.635 10.4538L22.8271 10.0401L22.3736 9.82955ZM21.7372 9.60227L21.2776 9.40531L21.0681 9.89424L21.569 10.0731L21.7372 9.60227ZM22.1918 8.98295L22.4993 9.37721L22.4998 9.37679L22.1918 8.98295ZM22.8168 8.67045L22.9428 9.15431L22.9456 9.15357L22.8168 8.67045ZM23.9702 8.63068L23.878 9.12215L23.8839 9.12318L23.9702 8.63068ZM24.5014 8.83239L24.2442 9.26114L24.2463 9.26238L24.5014 8.83239ZM24.9304 9.29545L24.4924 9.53657L24.4924 9.53657L24.9304 9.29545ZM25.1009 13V13.5H25.6009V13H25.1009ZM24.4304 13H23.9304V13.5H24.4304V13ZM24.4304 12.4091H24.9304V11.9091H24.4304V12.4091ZM24.3963 12.4091V11.9091H24.0817L23.9455 12.1927L24.3963 12.4091ZM24.169 12.7131L24.5257 13.0635L24.5257 13.0635L24.169 12.7131ZM23.7457 12.9886L23.5482 12.5293L23.5482 12.5293L23.7457 12.9886ZM23.8736 12.3438L23.627 11.9088L23.625 11.9099L23.8736 12.3438ZM24.2884 11.9403L23.8548 11.6912L23.8527 11.695L24.2884 11.9403ZM24.4304 10.8068H24.9304V9.42579L24.0463 10.4867L24.4304 10.8068ZM24.2429 10.9006L24.3777 11.3821L24.384 11.3803L24.2429 10.9006ZM23.9134 10.9716L23.9894 11.4658L23.9956 11.4648L23.9134 10.9716ZM23.5526 11.0227L23.6096 11.5195L23.6165 11.5186L23.5526 11.0227ZM23.2713 11.0568L23.336 11.5526L23.3365 11.5525L23.2713 11.0568ZM22.7827 11.1676L22.939 11.6426L22.9426 11.6414L22.7827 11.1676ZM22.419 11.392L22.0519 11.0526L22.0516 11.0529L22.419 11.392ZM22.5412 12.3239L22.2566 12.735L22.2618 12.7385L22.5412 12.3239ZM23.1009 12.6023C22.8885 12.6023 22.7103 12.5626 22.5578 12.4922L22.1382 13.3999C22.4365 13.5377 22.7602 13.6023 23.1009 13.6023V12.6023ZM22.5609 12.4936C22.4143 12.4246 22.307 12.3311 22.2271 12.2113L21.3951 12.766C21.5803 13.0439 21.831 13.2553 22.1351 13.3984L22.5609 12.4936ZM22.2283 12.2131C22.1589 12.108 22.1122 11.9655 22.1122 11.7614H21.1122C21.1122 12.1254 21.1981 12.4678 21.3938 12.7642L22.2283 12.2131ZM22.1122 11.7614C22.1122 11.5732 22.1497 11.4725 22.1822 11.4212L21.3377 10.8856C21.1732 11.145 21.1122 11.4496 21.1122 11.7614H22.1122ZM22.1837 11.4189C22.2358 11.3357 22.303 11.2723 22.3925 11.224L21.9172 10.3442C21.6771 10.4739 21.4811 10.6568 21.3362 10.888L22.1837 11.4189ZM22.3925 11.224C22.5128 11.159 22.6501 11.1081 22.8073 11.0736L22.5933 10.0968C22.3528 10.1495 22.1264 10.2311 21.9172 10.3442L22.3925 11.224ZM22.8107 11.0729C22.9965 11.0308 23.183 10.9975 23.3703 10.973L23.2405 9.9815C23.0225 10.01 22.8056 10.0487 22.5899 10.0976L22.8107 11.0729ZM23.3692 10.9732C23.6324 10.9393 23.8428 10.9144 24.0017 10.8979L23.8988 9.90322C23.7282 9.92087 23.5087 9.94701 23.2416 9.98135L23.3692 10.9732ZM24.0067 10.8974C24.1903 10.8765 24.3958 10.8365 24.5632 10.7403L24.0647 9.87337C24.0786 9.86536 24.0755 9.86996 24.0414 9.87876C24.0093 9.88702 23.9613 9.8961 23.8938 9.90377L24.0067 10.8974ZM24.5585 10.7429C24.8299 10.5906 24.9304 10.3229 24.9304 10.0795H23.9304C23.9304 10.0749 23.9312 10.0384 23.9563 9.98928C23.9839 9.93548 24.0265 9.89476 24.0693 9.87075L24.5585 10.7429ZM24.9304 10.0795V10.0568H23.9304V10.0795H24.9304ZM24.9304 10.0568C24.9304 9.68401 24.8261 9.32544 24.556 9.05203L23.8446 9.75479C23.8813 9.79198 23.9304 9.86902 23.9304 10.0568H24.9304ZM24.5582 9.05425C24.2787 8.76782 23.8957 8.67045 23.5099 8.67045V9.67045C23.7416 9.67045 23.8188 9.72839 23.8424 9.75257L24.5582 9.05425ZM23.5099 8.67045C23.1221 8.67045 22.7498 8.755 22.4518 8.98468L23.0624 9.77669C23.128 9.72607 23.2576 9.67045 23.5099 9.67045V8.67045ZM22.4518 8.98468C22.2254 9.15924 22.0366 9.3681 21.9201 9.61899L22.8271 10.0401C22.8583 9.97281 22.9252 9.88243 23.0624 9.77669L22.4518 8.98468ZM22.5417 9.35867L21.9054 9.1314L21.569 10.0731L22.2054 10.3004L22.5417 9.35867ZM22.1968 9.79923C22.2839 9.59608 22.3886 9.46356 22.4993 9.37721L21.8842 8.5887C21.6162 8.7978 21.4179 9.07816 21.2776 9.40531L22.1968 9.79923ZM22.4998 9.37679C22.6396 9.26747 22.7864 9.19504 22.9428 9.15431L22.6907 8.1866C22.3963 8.26329 22.1265 8.3992 21.8837 8.58912L22.4998 9.37679ZM22.9456 9.15357C23.1338 9.10339 23.314 9.07955 23.4872 9.07955V8.07955C23.2211 8.07955 22.9543 8.11631 22.6879 8.18734L22.9456 9.15357ZM23.4872 9.07955C23.5885 9.07955 23.7176 9.09203 23.878 9.12212L24.0623 8.13925C23.8591 8.10115 23.6663 8.07955 23.4872 8.07955V9.07955ZM23.8839 9.12318C24.0033 9.14411 24.1228 9.18832 24.2442 9.26113L24.7587 8.40364C24.5391 8.27191 24.3045 8.18165 24.0565 8.13819L23.8839 9.12318ZM24.2463 9.26238C24.3293 9.31168 24.4141 9.39441 24.4924 9.53657L25.3684 9.05434C25.2194 8.78362 25.0182 8.55764 24.7566 8.40239L24.2463 9.26238ZM24.4924 9.53657C24.5507 9.64246 24.6009 9.82584 24.6009 10.125H25.6009C25.6009 9.73098 25.5374 9.36133 25.3684 9.05434L24.4924 9.53657ZM24.6009 10.125V13H25.6009V10.125H24.6009ZM25.1009 12.5H24.4304V13.5H25.1009V12.5ZM24.9304 13V12.4091H23.9304V13H24.9304ZM24.4304 11.9091H24.3963V12.9091H24.4304V11.9091ZM23.9455 12.1927C23.9318 12.2213 23.8954 12.2782 23.8124 12.3627L24.5257 13.0635C24.6548 12.9321 24.7699 12.7863 24.8471 12.6255L23.9455 12.1927ZM23.8124 12.3627C23.7621 12.4138 23.68 12.4726 23.5482 12.5293L23.9433 13.448C24.1637 13.3531 24.3638 13.2283 24.5257 13.0635L23.8124 12.3627ZM23.5482 12.5293C23.4511 12.5711 23.3076 12.6023 23.1009 12.6023V13.6023C23.4017 13.6023 23.6881 13.5577 23.9433 13.448L23.5482 12.5293ZM23.2031 13C23.5327 13 23.8471 12.9352 24.1221 12.7776L23.625 11.9099C23.5364 11.9607 23.4038 12 23.2031 12V13ZM24.1202 12.7787C24.3735 12.6351 24.5815 12.4387 24.724 12.1857L23.8527 11.695C23.8096 11.7716 23.7411 11.8441 23.627 11.9088L24.1202 12.7787ZM24.7219 12.1895C24.8581 11.9525 24.9304 11.6937 24.9304 11.4205H23.9304C23.9304 11.5108 23.908 11.5987 23.8548 11.6912L24.7219 12.1895ZM24.9304 11.4205V10.8068H23.9304V11.4205H24.9304ZM24.0463 10.4867C24.0722 10.4557 24.0965 10.4362 24.1109 10.4258C24.1257 10.4152 24.136 10.4099 24.1386 10.4086C24.1426 10.4066 24.133 10.4117 24.1018 10.4209L24.384 11.3803C24.4494 11.361 24.5193 11.3363 24.5858 11.303C24.6472 11.2724 24.7381 11.2186 24.8145 11.1269L24.0463 10.4867ZM24.1081 10.4191C24.0348 10.4396 23.9432 10.4597 23.8312 10.4784L23.9956 11.4648C24.1335 11.4418 24.2616 11.4146 24.3777 11.3821L24.1081 10.4191ZM23.8373 10.4774C23.718 10.4958 23.6018 10.5122 23.4886 10.5268L23.6165 11.5186C23.7382 11.5029 23.8625 11.4853 23.9894 11.4658L23.8373 10.4774ZM23.4956 10.526C23.3787 10.5394 23.2819 10.5511 23.2061 10.5611L23.3365 11.5525C23.4046 11.5436 23.4954 11.5326 23.6096 11.5195L23.4956 10.526ZM23.2066 10.561C23.0032 10.5876 22.8081 10.6313 22.6228 10.6939L22.9426 11.6414C23.0603 11.6016 23.191 11.5715 23.336 11.5526L23.2066 10.561ZM22.6264 10.6927C22.4085 10.7644 22.2106 10.881 22.0519 11.0526L22.7862 11.7315C22.8131 11.7024 22.8576 11.6693 22.939 11.6426L22.6264 10.6927ZM22.0516 11.0529C21.8541 11.2669 21.7827 11.5347 21.7827 11.7955H22.7827C22.7827 11.7541 22.7882 11.7334 22.7904 11.7269C22.792 11.7221 22.7914 11.7259 22.7864 11.7312L22.0516 11.0529ZM21.7827 11.7955C21.7827 12.1712 21.9327 12.5107 22.2566 12.735L22.8258 11.9128C22.8049 11.8983 22.7993 11.8885 22.7964 11.8825C22.7925 11.8746 22.7827 11.85 22.7827 11.7955H21.7827ZM22.2618 12.7385C22.5384 12.9249 22.8634 13 23.2031 13V12C23.0087 12 22.8925 11.9577 22.8206 11.9092L22.2618 12.7385ZM26.2962 14.608L26.4002 14.1188L26.3902 14.1169L26.2962 14.608ZM26.1115 14.5568L25.6311 14.4182L25.5158 14.818L25.8879 15.004L26.1115 14.5568ZM26.282 13.9659L26.4059 13.4815L25.936 13.3613L25.8015 13.8273L26.282 13.9659ZM26.7138 14.0114L26.6685 13.5134L26.6685 13.5134L26.7138 14.0114ZM27.0462 13.8438L26.6925 13.4901L26.6859 13.4971L27.0462 13.8438ZM27.3161 13.3636L27.7854 13.5361L27.7855 13.5358L27.3161 13.3636ZM27.4411 13.0227L27.9105 13.1949L27.9737 13.0224L27.9103 12.8501L27.4411 13.0227ZM25.8274 8.63636V8.13636H25.1107L25.3582 8.80899L25.8274 8.63636ZM26.5547 8.63636L27.0271 8.4727L26.9106 8.13636H26.5547V8.63636ZM27.7592 12.1136L27.2868 12.2773L27.4033 12.6136H27.7592V12.1136ZM27.8047 12.1136V12.6136H28.1606L28.2771 12.2773L27.8047 12.1136ZM29.0092 8.63636V8.13636H28.6533L28.5368 8.4727L29.0092 8.63636ZM29.7365 8.63636L30.2054 8.81006L30.4549 8.13636H29.7365V8.63636ZM27.8842 13.6364L27.4154 13.4627L27.4153 13.463L27.8842 13.6364ZM27.5746 14.196L27.1905 13.8759L27.1885 13.8783L27.5746 14.196ZM27.1456 14.5284L26.9435 14.0711L26.9415 14.0719L27.1456 14.5284ZM26.6001 14.1364C26.5132 14.1364 26.4478 14.129 26.4002 14.1189L26.1921 15.097C26.3225 15.1248 26.4598 15.1364 26.6001 15.1364V14.1364ZM26.3902 14.1169C26.354 14.1099 26.3303 14.1043 26.3167 14.1005C26.3101 14.0987 26.3083 14.098 26.3101 14.0986C26.3114 14.0991 26.3208 14.1024 26.3351 14.1096L25.8879 15.004C25.9899 15.055 26.1129 15.0819 26.2021 15.099L26.3902 14.1169ZM26.5919 14.6954L26.7624 14.1045L25.8015 13.8273L25.6311 14.4182L26.5919 14.6954ZM26.158 14.4503C26.3586 14.5016 26.5617 14.5273 26.759 14.5093L26.6685 13.5134C26.6159 13.5182 26.5311 13.5135 26.4059 13.4815L26.158 14.4503ZM26.759 14.5093C27.0172 14.4858 27.2363 14.3673 27.4065 14.1904L26.6859 13.4971C26.6788 13.5044 26.6735 13.5089 26.6702 13.5113C26.6685 13.5126 26.6673 13.5134 26.6666 13.5138C26.6662 13.5141 26.6659 13.5142 26.6658 13.5143C26.6656 13.5144 26.6655 13.5145 26.6655 13.5145C26.6655 13.5145 26.6656 13.5145 26.6657 13.5144C26.6658 13.5143 26.666 13.5143 26.6662 13.5142C26.6667 13.514 26.6672 13.5138 26.6678 13.5137C26.669 13.5133 26.6694 13.5133 26.6685 13.5134L26.759 14.5093ZM27.3997 14.1973C27.5733 14.0237 27.694 13.7848 27.7854 13.5361L26.8467 13.1912C26.7752 13.3857 26.716 13.4668 26.6926 13.4902L27.3997 14.1973ZM27.7855 13.5358L27.9105 13.1949L26.9716 12.8506L26.8466 13.1915L27.7855 13.5358ZM27.9103 12.8501L26.2967 8.46374L25.3582 8.80899L26.9718 13.1954L27.9103 12.8501ZM25.8274 9.13636H26.5547V8.13636H25.8274V9.13636ZM26.0822 8.80002L27.2868 12.2773L28.2317 11.95L27.0271 8.4727L26.0822 8.80002ZM27.7592 12.6136H27.8047V11.6136H27.7592V12.6136ZM28.2771 12.2773L29.4817 8.80002L28.5368 8.4727L27.3322 11.95L28.2771 12.2773ZM29.0092 9.13636H29.7365V8.13636H29.0092V9.13636ZM29.2676 8.46267L27.4154 13.4627L28.3531 13.8101L30.2054 8.81006L29.2676 8.46267ZM27.4153 13.463C27.3469 13.6477 27.2693 13.7813 27.1905 13.8759L27.9587 14.5161C28.126 14.3153 28.2549 14.0757 28.3532 13.8098L27.4153 13.463ZM27.1885 13.8783C27.1105 13.9731 27.0288 14.0334 26.9435 14.0711L27.3477 14.9858C27.5881 14.8795 27.7924 14.7182 27.9607 14.5137L27.1885 13.8783ZM26.9415 14.0719C26.8536 14.1112 26.7429 14.1364 26.6001 14.1364V15.1364C26.8627 15.1364 27.1156 15.0895 27.3497 14.9849L26.9415 14.0719ZM31.7692 13L31.2869 13.1319L31.3875 13.5H31.7692V13ZM30.1783 7.18182V6.68182H29.5232L29.696 7.3137L30.1783 7.18182ZM30.8942 7.18182L31.3785 7.05755L31.2821 6.68182H30.8942V7.18182ZM32.1101 11.9205L31.6258 12.0447L31.7222 12.4205H32.1101V11.9205ZM32.1669 11.9205V12.4205H32.553L32.6507 12.0469L32.1669 11.9205ZM33.4055 7.18182V6.68182H33.0194L32.9218 7.05537L33.4055 7.18182ZM34.201 7.18182L34.6847 7.05537L34.5871 6.68182H34.201V7.18182ZM35.4396 11.9205L34.9559 12.0469L35.0535 12.4205H35.4396V11.9205ZM35.4964 11.9205V12.4205H35.8843L35.9808 12.0447L35.4964 11.9205ZM36.7124 7.18182V6.68182H36.3245L36.228 7.05755L36.7124 7.18182ZM37.4283 7.18182L37.9106 7.3137L38.0833 6.68182H37.4283V7.18182ZM35.8374 13V13.5H36.219L36.3197 13.1319L35.8374 13ZM35.1101 13L34.6282 13.1335L34.7297 13.5H35.1101V13ZM33.826 8.36364L34.3079 8.23018L34.2063 7.86364H33.826V8.36364ZM33.7805 8.36364V7.86364H33.4002L33.2987 8.23018L33.7805 8.36364ZM32.4964 13V13.5H32.8768L32.9783 13.1335L32.4964 13ZM32.2515 12.8681L30.6606 7.04994L29.696 7.3137L31.2869 13.1319L32.2515 12.8681ZM30.1783 7.68182H30.8942V6.68182H30.1783V7.68182ZM30.4099 7.30609L31.6258 12.0447L32.5944 11.7962L31.3785 7.05755L30.4099 7.30609ZM32.1101 12.4205H32.1669V11.4205H32.1101V12.4205ZM32.6507 12.0469L33.8893 7.30827L32.9218 7.05537L31.6832 11.794L32.6507 12.0469ZM33.4055 7.68182H34.201V6.68182H33.4055V7.68182ZM33.7172 7.30827L34.9559 12.0469L35.9234 11.794L34.6847 7.05537L33.7172 7.30827ZM35.4396 12.4205H35.4964V11.4205H35.4396V12.4205ZM35.9808 12.0447L37.1967 7.30609L36.228 7.05755L35.0121 11.7962L35.9808 12.0447ZM36.7124 7.68182H37.4283V6.68182H36.7124V7.68182ZM36.946 7.04994L35.3551 12.8681L36.3197 13.1319L37.9106 7.3137L36.946 7.04994ZM35.8374 12.5H35.1101V13.5H35.8374V12.5ZM35.5919 12.8665L34.3079 8.23018L33.3441 8.49709L34.6282 13.1335L35.5919 12.8665ZM33.826 7.86364H33.7805V8.86364H33.826V7.86364ZM33.2987 8.23018L32.0146 12.8665L32.9783 13.1335L34.2624 8.49709L33.2987 8.23018ZM32.4964 12.5H31.7692V13.5H32.4964V12.5ZM38.3402 12.946L38.1273 13.3984L38.1304 13.3999L38.3402 12.946ZM37.8033 12.4886L37.386 12.7642L37.3872 12.766L37.8033 12.4886ZM37.7521 11.1534L38.1744 11.4212L38.1758 11.4189L37.7521 11.1534ZM38.6925 10.5852L38.7995 11.0737L38.8029 11.0729L38.6925 10.5852ZM39.2976 10.4773L39.2338 9.98135L39.2327 9.9815L39.2976 10.4773ZM39.9425 10.4006L39.9939 10.8979L39.9989 10.8974L39.9425 10.4006ZM40.3061 10.3068L40.0615 9.87072L40.0569 9.87337L40.3061 10.3068ZM40.1925 9.40341L39.8346 9.75258L39.8368 9.75479L40.1925 9.40341ZM38.7493 9.38068L39.0545 9.77669L39.0545 9.77669L38.7493 9.38068ZM38.3658 9.82955L38.1976 10.3004L38.6272 10.4538L38.8193 10.0401L38.3658 9.82955ZM37.7294 9.60227L37.2698 9.40531L37.0603 9.89424L37.5612 10.0731L37.7294 9.60227ZM38.1839 8.98295L38.4915 9.37721L38.492 9.37679L38.1839 8.98295ZM38.8089 8.67045L38.935 9.15431L38.9378 9.15357L38.8089 8.67045ZM39.9624 8.63068L39.8702 9.12215L39.876 9.12318L39.9624 8.63068ZM40.4936 8.83239L40.2364 9.26114L40.2384 9.26238L40.4936 8.83239ZM40.9226 9.29545L40.4846 9.53657L40.4846 9.53657L40.9226 9.29545ZM41.093 13V13.5H41.593V13H41.093ZM40.4226 13H39.9226V13.5H40.4226V13ZM40.4226 12.4091H40.9226V11.9091H40.4226V12.4091ZM40.3885 12.4091V11.9091H40.0739L39.9377 12.1927L40.3885 12.4091ZM40.1612 12.7131L40.5179 13.0635L40.5179 13.0635L40.1612 12.7131ZM39.7379 12.9886L39.5404 12.5293L39.5404 12.5293L39.7379 12.9886ZM39.8658 12.3438L39.6191 11.9088L39.6172 11.9099L39.8658 12.3438ZM40.2805 11.9403L39.847 11.6912L39.8449 11.695L40.2805 11.9403ZM40.4226 10.8068H40.9226V9.42579L40.0385 10.4867L40.4226 10.8068ZM40.2351 10.9006L40.3699 11.3821L40.3762 11.3803L40.2351 10.9006ZM39.9055 10.9716L39.9816 11.4658L39.9877 11.4648L39.9055 10.9716ZM39.5447 11.0227L39.6018 11.5195L39.6087 11.5186L39.5447 11.0227ZM39.2635 11.0568L39.3282 11.5526L39.3287 11.5525L39.2635 11.0568ZM38.7749 11.1676L38.9312 11.6426L38.9347 11.6414L38.7749 11.1676ZM38.4112 11.392L38.0441 11.0526L38.0438 11.0529L38.4112 11.392ZM38.5334 12.3239L38.2488 12.735L38.254 12.7385L38.5334 12.3239ZM39.093 12.6023C38.8807 12.6023 38.7025 12.5626 38.55 12.4922L38.1304 13.3999C38.4287 13.5377 38.7524 13.6023 39.093 13.6023V12.6023ZM38.5531 12.4936C38.4065 12.4246 38.2992 12.3311 38.2193 12.2113L37.3872 12.766C37.5725 13.0439 37.8232 13.2553 38.1273 13.3984L38.5531 12.4936ZM38.2205 12.2131C38.1511 12.108 38.1044 11.9655 38.1044 11.7614H37.1044C37.1044 12.1254 37.1903 12.4678 37.386 12.7642L38.2205 12.2131ZM38.1044 11.7614C38.1044 11.5732 38.1419 11.4725 38.1744 11.4212L37.3299 10.8856C37.1654 11.145 37.1044 11.4496 37.1044 11.7614H38.1044ZM38.1758 11.4189C38.228 11.3357 38.2952 11.2723 38.3847 11.224L37.9094 10.3442C37.6693 10.4739 37.4733 10.6568 37.3284 10.888L38.1758 11.4189ZM38.3847 11.224C38.505 11.159 38.6423 11.1081 38.7995 11.0736L38.5855 10.0968C38.345 10.1495 38.1186 10.2311 37.9094 10.3442L38.3847 11.224ZM38.8029 11.0729C38.9887 11.0308 39.1752 10.9975 39.3625 10.973L39.2327 9.9815C39.0147 10.01 38.7978 10.0487 38.5821 10.0976L38.8029 11.0729ZM39.3613 10.9732C39.6246 10.9393 39.835 10.9144 39.9939 10.8979L39.891 9.90322C39.7204 9.92087 39.5009 9.94701 39.2338 9.98135L39.3613 10.9732ZM39.9989 10.8974C40.1825 10.8765 40.3879 10.8365 40.5553 10.7403L40.0569 9.87337C40.0708 9.86536 40.0677 9.86996 40.0336 9.87876C40.0015 9.88702 39.9535 9.8961 39.886 9.90377L39.9989 10.8974ZM40.5507 10.7429C40.8221 10.5906 40.9226 10.3229 40.9226 10.0795H39.9226C39.9226 10.0749 39.9233 10.0384 39.9485 9.98928C39.9761 9.93548 40.0187 9.89476 40.0615 9.87075L40.5507 10.7429ZM40.9226 10.0795V10.0568H39.9226V10.0795H40.9226ZM40.9226 10.0568C40.9226 9.68401 40.8183 9.32544 40.5482 9.05203L39.8368 9.75479C39.8735 9.79198 39.9226 9.86902 39.9226 10.0568H40.9226ZM40.5504 9.05425C40.2709 8.76782 39.8879 8.67045 39.5021 8.67045V9.67045C39.7338 9.67045 39.811 9.72839 39.8346 9.75257L40.5504 9.05425ZM39.5021 8.67045C39.1143 8.67045 38.742 8.755 38.444 8.98468L39.0545 9.77669C39.1202 9.72607 39.2498 9.67045 39.5021 9.67045V8.67045ZM38.444 8.98468C38.2176 9.15924 38.0287 9.3681 37.9123 9.61899L38.8193 10.0401C38.8505 9.97281 38.9174 9.88243 39.0545 9.77669L38.444 8.98468ZM38.5339 9.35867L37.8976 9.1314L37.5612 10.0731L38.1976 10.3004L38.5339 9.35867ZM38.189 9.79923C38.276 9.59608 38.3808 9.46356 38.4915 9.37721L37.8764 8.5887C37.6084 8.7978 37.41 9.07816 37.2698 9.40531L38.189 9.79923ZM38.492 9.37679C38.6318 9.26747 38.7786 9.19504 38.935 9.15431L38.6829 8.1866C38.3885 8.26329 38.1187 8.3992 37.8759 8.58912L38.492 9.37679ZM38.9378 9.15357C39.126 9.10339 39.3062 9.07955 39.4794 9.07955V8.07955C39.2133 8.07955 38.9465 8.11631 38.6801 8.18734L38.9378 9.15357ZM39.4794 9.07955C39.5807 9.07955 39.7098 9.09203 39.8702 9.12212L40.0545 8.13925C39.8513 8.10115 39.6585 8.07955 39.4794 8.07955V9.07955ZM39.876 9.12318C39.9955 9.14411 40.115 9.18832 40.2364 9.26113L40.7509 8.40364C40.5313 8.27191 40.2967 8.18165 40.0487 8.13819L39.876 9.12318ZM40.2384 9.26238C40.3215 9.31168 40.4063 9.39441 40.4846 9.53657L41.3606 9.05434C41.2116 8.78362 41.0104 8.55764 40.7488 8.40239L40.2384 9.26238ZM40.4846 9.53657C40.5428 9.64246 40.593 9.82584 40.593 10.125H41.593C41.593 9.73098 41.5296 9.36133 41.3606 9.05434L40.4846 9.53657ZM40.593 10.125V13H41.593V10.125H40.593ZM41.093 12.5H40.4226V13.5H41.093V12.5ZM40.9226 13V12.4091H39.9226V13H40.9226ZM40.4226 11.9091H40.3885V12.9091H40.4226V11.9091ZM39.9377 12.1927C39.924 12.2213 39.8876 12.2782 39.8046 12.3627L40.5179 13.0635C40.647 12.9321 40.762 12.7863 40.8393 12.6255L39.9377 12.1927ZM39.8046 12.3627C39.7543 12.4138 39.6722 12.4726 39.5404 12.5293L39.9355 13.448C40.1559 13.3531 40.356 13.2283 40.5179 13.0635L39.8046 12.3627ZM39.5404 12.5293C39.4433 12.5711 39.2998 12.6023 39.093 12.6023V13.6023C39.3939 13.6023 39.6803 13.5577 39.9355 13.448L39.5404 12.5293ZM39.1953 13C39.5249 13 39.8393 12.9352 40.1143 12.7776L39.6172 11.9099C39.5286 11.9607 39.396 12 39.1953 12V13ZM40.1124 12.7787C40.3657 12.6351 40.5737 12.4387 40.7162 12.1857L39.8449 11.695C39.8018 11.7716 39.7333 11.8441 39.6191 11.9088L40.1124 12.7787ZM40.714 12.1895C40.8503 11.9525 40.9226 11.6937 40.9226 11.4205H39.9226C39.9226 11.5108 39.9002 11.5987 39.847 11.6912L40.714 12.1895ZM40.9226 11.4205V10.8068H39.9226V11.4205H40.9226ZM40.0385 10.4867C40.0643 10.4557 40.0886 10.4362 40.1031 10.4258C40.1178 10.4152 40.1282 10.4099 40.1308 10.4086C40.1348 10.4066 40.1251 10.4117 40.094 10.4209L40.3762 11.3803C40.4416 11.361 40.5115 11.3363 40.578 11.303C40.6394 11.2724 40.7303 11.2186 40.8067 11.1269L40.0385 10.4867ZM40.1003 10.4191C40.027 10.4396 39.9354 10.4597 39.8233 10.4784L39.9877 11.4648C40.1257 11.4418 40.2538 11.4146 40.3699 11.3821L40.1003 10.4191ZM39.8295 10.4774C39.7102 10.4958 39.594 10.5122 39.4808 10.5268L39.6087 11.5186C39.7304 11.5029 39.8547 11.4853 39.9816 11.4658L39.8295 10.4774ZM39.4877 10.526C39.3709 10.5394 39.2741 10.5511 39.1983 10.5611L39.3287 11.5525C39.3968 11.5436 39.4875 11.5326 39.6017 11.5195L39.4877 10.526ZM39.1988 10.561C38.9953 10.5876 38.8003 10.6313 38.615 10.6939L38.9347 11.6414C39.0525 11.6016 39.1832 11.5715 39.3282 11.5526L39.1988 10.561ZM38.6185 10.6927C38.4007 10.7644 38.2028 10.881 38.0441 11.0526L38.7784 11.7315C38.8053 11.7024 38.8498 11.6693 38.9312 11.6426L38.6185 10.6927ZM38.0438 11.0529C37.8463 11.2669 37.7749 11.5347 37.7749 11.7955H38.7749C38.7749 11.7541 38.7804 11.7334 38.7826 11.7269C38.7842 11.7221 38.7835 11.7259 38.7786 11.7312L38.0438 11.0529ZM37.7749 11.7955C37.7749 12.1712 37.9249 12.5107 38.2488 12.735L38.818 11.9128C38.7971 11.8983 38.7915 11.8885 38.7886 11.8825C38.7847 11.8746 38.7749 11.85 38.7749 11.7955H37.7749ZM38.254 12.7385C38.5306 12.9249 38.8556 13 39.1953 13V12C39.0009 12 38.8847 11.9577 38.8128 11.9092L38.254 12.7385Z" fill="#777777"/>
</svg>
