<svg width="60" height="20" viewBox="0 0 60 20" fill="none" xmlns="http://www.w3.org/2000/svg">
<rect width="60" height="20" fill="#F1F1F1"/>
<path d="M14.5895 9H14.1278L15.4631 5.36364H15.9176L17.2528 9H16.7912L15.7045 5.93892H15.6761L14.5895 9ZM14.7599 7.57955H16.6207V7.97017H14.7599V7.57955ZM18.8692 9V5.36364H20.1406C20.3939 5.36364 20.6028 5.40743 20.7673 5.49503C20.9319 5.58144 21.0544 5.69803 21.1349 5.84482C21.2154 5.99041 21.2556 6.15199 21.2556 6.32955C21.2556 6.4858 21.2278 6.61482 21.1722 6.71662C21.1177 6.81842 21.0455 6.89891 20.9555 6.9581C20.8668 7.01728 20.7703 7.06108 20.6661 7.08949V7.125C20.7774 7.1321 20.8893 7.17116 21.0017 7.24219C21.1142 7.31321 21.2083 7.41501 21.284 7.54759C21.3598 7.68016 21.3977 7.84233 21.3977 8.03409C21.3977 8.21638 21.3562 8.38033 21.2734 8.52592C21.1905 8.67152 21.0597 8.78693 20.881 8.87216C20.7022 8.95739 20.4696 9 20.1832 9H18.8692ZM19.3096 8.60938H20.1832C20.4708 8.60938 20.675 8.55374 20.7957 8.44247C20.9177 8.33002 20.9786 8.19389 20.9786 8.03409C20.9786 7.91098 20.9473 7.79735 20.8845 7.69318C20.8218 7.58783 20.7324 7.50379 20.6164 7.44105C20.5004 7.37713 20.3631 7.34517 20.2045 7.34517H19.3096V8.60938ZM19.3096 6.96165H20.1263C20.2589 6.96165 20.3785 6.93561 20.485 6.88352C20.5927 6.83144 20.678 6.75805 20.7407 6.66335C20.8046 6.56866 20.8366 6.45739 20.8366 6.32955C20.8366 6.16974 20.7809 6.03421 20.6697 5.92294C20.5584 5.81049 20.382 5.75426 20.1406 5.75426H19.3096V6.96165ZM25.5576 5.36364H25.9979V7.77131C25.9979 8.01989 25.9393 8.24183 25.8221 8.43714C25.7061 8.63127 25.5422 8.78456 25.3303 8.89702C25.1184 9.00829 24.8698 9.06392 24.5846 9.06392C24.2993 9.06392 24.0507 9.00829 23.8388 8.89702C23.6269 8.78456 23.4624 8.63127 23.3452 8.43714C23.2292 8.24183 23.1712 8.01989 23.1712 7.77131V5.36364H23.6115V7.7358C23.6115 7.91335 23.6506 8.07138 23.7287 8.20987C23.8069 8.34718 23.9181 8.45549 24.0625 8.5348C24.2081 8.61293 24.3821 8.65199 24.5846 8.65199C24.787 8.65199 24.961 8.61293 25.1066 8.5348C25.2522 8.45549 25.3634 8.34718 25.4404 8.20987C25.5185 8.07138 25.5576 7.91335 25.5576 7.7358V5.36364ZM31.5057 9H30.3835V5.36364H31.5554C31.9081 5.36364 32.21 5.43643 32.4609 5.58203C32.7119 5.72644 32.9042 5.93419 33.038 6.20526C33.1717 6.47514 33.2386 6.7983 33.2386 7.17472C33.2386 7.5535 33.1711 7.87962 33.0362 8.15305C32.9013 8.42531 32.7048 8.63482 32.4467 8.78161C32.1887 8.9272 31.875 9 31.5057 9ZM30.8238 8.60938H31.4773C31.7779 8.60938 32.0271 8.55137 32.2248 8.43537C32.4224 8.31937 32.5698 8.15424 32.6669 7.93999C32.7639 7.72573 32.8125 7.47064 32.8125 7.17472C32.8125 6.88116 32.7645 6.62843 32.6687 6.41655C32.5728 6.20348 32.4296 6.04013 32.239 5.92649C32.0484 5.81167 31.8111 5.75426 31.527 5.75426H30.8238V8.60938ZM35.0273 9V5.36364H35.4676V6.98295H37.4065V5.36364H37.8469V9H37.4065V7.37358H35.4676V9H35.0273ZM39.9276 9H39.4659L40.8012 5.36364H41.2557L42.5909 9H42.1293L41.0426 5.93892H41.0142L39.9276 9ZM40.098 7.57955H41.9588V7.97017H40.098V7.57955ZM44.2073 9V5.36364H45.4786C45.732 5.36364 45.9409 5.40743 46.1054 5.49503C46.27 5.58144 46.3925 5.69803 46.473 5.84482C46.5535 5.99041 46.5937 6.15199 46.5937 6.32955C46.5937 6.4858 46.5659 6.61482 46.5102 6.71662C46.4558 6.81842 46.3836 6.89891 46.2936 6.9581C46.2048 7.01728 46.1084 7.06108 46.0042 7.08949V7.125C46.1155 7.1321 46.2273 7.17116 46.3398 7.24219C46.4522 7.31321 46.5463 7.41501 46.6221 7.54759C46.6979 7.68016 46.7357 7.84233 46.7357 8.03409C46.7357 8.21638 46.6943 8.38033 46.6115 8.52592C46.5286 8.67152 46.3978 8.78693 46.2191 8.87216C46.0403 8.95739 45.8077 9 45.5213 9H44.2073ZM44.6477 8.60938H45.5213C45.8089 8.60938 46.0131 8.55374 46.1338 8.44247C46.2557 8.33002 46.3167 8.19389 46.3167 8.03409C46.3167 7.91098 46.2853 7.79735 46.2226 7.69318C46.1599 7.58783 46.0705 7.50379 45.9545 7.44105C45.8385 7.37713 45.7012 7.34517 45.5426 7.34517H44.6477V8.60938ZM44.6477 6.96165H45.4644C45.597 6.96165 45.7166 6.93561 45.8231 6.88352C45.9308 6.83144 46.016 6.75805 46.0788 6.66335C46.1427 6.56866 46.1747 6.45739 46.1747 6.32955C46.1747 6.16974 46.119 6.03421 46.0078 5.92294C45.8965 5.81049 45.7201 5.75426 45.4786 5.75426H44.6477V6.96165ZM48.9496 5.36364V9H48.5093V5.36364H48.9496ZM14.4403 15V11.3636H15.669C15.9543 11.3636 16.1875 11.4151 16.3686 11.5181C16.5509 11.6199 16.6858 11.7578 16.7734 11.9318C16.861 12.1058 16.9048 12.3 16.9048 12.5142C16.9048 12.7285 16.861 12.9232 16.7734 13.0984C16.687 13.2736 16.5533 13.4132 16.3722 13.5174C16.1911 13.6204 15.959 13.6719 15.6761 13.6719H14.7955V13.2812H15.6619C15.8572 13.2812 16.0141 13.2475 16.1325 13.18C16.2508 13.1126 16.3366 13.0214 16.3899 12.9066C16.4444 12.7906 16.4716 12.6598 16.4716 12.5142C16.4716 12.3686 16.4444 12.2384 16.3899 12.1236C16.3366 12.0088 16.2502 11.9188 16.1307 11.8537C16.0111 11.7874 15.8525 11.7543 15.6548 11.7543H14.8807V15H14.4403ZM21.7324 13.1818C21.7324 13.5653 21.6631 13.8968 21.5246 14.1761C21.3861 14.4555 21.1961 14.6709 20.9547 14.8224C20.7132 14.974 20.4374 15.0497 20.1272 15.0497C19.8171 15.0497 19.5413 14.974 19.2998 14.8224C19.0583 14.6709 18.8684 14.4555 18.7299 14.1761C18.5914 13.8968 18.5221 13.5653 18.5221 13.1818C18.5221 12.7983 18.5914 12.4669 18.7299 12.1875C18.8684 11.9081 19.0583 11.6927 19.2998 11.5412C19.5413 11.3897 19.8171 11.3139 20.1272 11.3139C20.4374 11.3139 20.7132 11.3897 20.9547 11.5412C21.1961 11.6927 21.3861 11.9081 21.5246 12.1875C21.6631 12.4669 21.7324 12.7983 21.7324 13.1818ZM21.3062 13.1818C21.3062 12.867 21.2535 12.6012 21.1482 12.3846C21.044 12.168 20.9026 12.004 20.7238 11.8928C20.5463 11.7815 20.3474 11.7259 20.1272 11.7259C19.9071 11.7259 19.7076 11.7815 19.5289 11.8928C19.3513 12.004 19.2099 12.168 19.1045 12.3846C19.0003 12.6012 18.9483 12.867 18.9483 13.1818C18.9483 13.4967 19.0003 13.7624 19.1045 13.979C19.2099 14.1957 19.3513 14.3596 19.5289 14.4709C19.7076 14.5821 19.9071 14.6378 20.1272 14.6378C20.3474 14.6378 20.5463 14.5821 20.7238 14.4709C20.9026 14.3596 21.044 14.1957 21.1482 13.979C21.2535 13.7624 21.3062 13.4967 21.3062 13.1818ZM23.5228 15V11.3636H23.9631V14.6094H25.6534V15H23.5228ZM27.8256 11.3636V15H27.3853V11.3636H27.8256ZM32.6846 12.5H32.2443C32.2183 12.3733 32.1727 12.2621 32.1076 12.1662C32.0437 12.0703 31.9655 11.9898 31.8732 11.9247C31.7821 11.8584 31.6809 11.8087 31.5696 11.7756C31.4583 11.7424 31.3423 11.7259 31.2216 11.7259C31.0014 11.7259 30.8019 11.7815 30.6232 11.8928C30.4456 12.004 30.3042 12.168 30.1988 12.3846C30.0947 12.6012 30.0426 12.867 30.0426 13.1818C30.0426 13.4967 30.0947 13.7624 30.1988 13.979C30.3042 14.1957 30.4456 14.3596 30.6232 14.4709C30.8019 14.5821 31.0014 14.6378 31.2216 14.6378C31.3423 14.6378 31.4583 14.6212 31.5696 14.5881C31.6809 14.5549 31.7821 14.5058 31.8732 14.4407C31.9655 14.3744 32.0437 14.2933 32.1076 14.1974C32.1727 14.1004 32.2183 13.9891 32.2443 13.8636H32.6846C32.6515 14.0495 32.5911 14.2158 32.5035 14.3626C32.4159 14.5094 32.307 14.6342 32.1768 14.7372C32.0466 14.839 31.9004 14.9165 31.7383 14.9698C31.5773 15.0231 31.405 15.0497 31.2216 15.0497C30.9114 15.0497 30.6356 14.974 30.3942 14.8224C30.1527 14.6709 29.9627 14.4555 29.8242 14.1761C29.6857 13.8968 29.6165 13.5653 29.6165 13.1818C29.6165 12.7983 29.6857 12.4669 29.8242 12.1875C29.9627 11.9081 30.1527 11.6927 30.3942 11.5412C30.6356 11.3897 30.9114 11.3139 31.2216 11.3139C31.405 11.3139 31.5773 11.3406 31.7383 11.3938C31.9004 11.4471 32.0466 11.5252 32.1768 11.6282C32.307 11.73 32.4159 11.8543 32.5035 12.0011C32.5911 12.1467 32.6515 12.313 32.6846 12.5ZM34.4462 15V11.3636H36.6408V11.7543H34.8865V12.983H36.5272V13.3736H34.8865V14.6094H36.6692V15H34.4462Z" fill="#777777"/>
<path d="M14.5895 9V9.5H14.9426L15.0607 9.16727L14.5895 9ZM14.1278 9L13.6585 8.82766L13.4116 9.5H14.1278V9ZM15.4631 5.36364V4.86364H15.114L14.9937 5.19129L15.4631 5.36364ZM15.9176 5.36364L16.387 5.19129L16.2667 4.86364H15.9176V5.36364ZM17.2528 9V9.5H17.9691L17.7222 8.82766L17.2528 9ZM16.7912 9L16.32 9.16727L16.4381 9.5H16.7912V9ZM15.7045 5.93892L16.1757 5.77165L16.0576 5.43892H15.7045V5.93892ZM15.6761 5.93892V5.43892H15.3231L15.2049 5.77165L15.6761 5.93892ZM14.7599 7.57955V7.07955H14.2599V7.57955H14.7599ZM16.6207 7.57955H17.1207V7.07955H16.6207V7.57955ZM16.6207 7.97017V8.47017H17.1207V7.97017H16.6207ZM14.7599 7.97017H14.2599V8.47017H14.7599V7.97017ZM14.5895 8.5H14.1278V9.5H14.5895V8.5ZM14.5972 9.17234L15.9324 5.53598L14.9937 5.19129L13.6585 8.82766L14.5972 9.17234ZM15.4631 5.86364H15.9176V4.86364H15.4631V5.86364ZM15.4483 5.53598L16.7835 9.17234L17.7222 8.82766L16.387 5.19129L15.4483 5.53598ZM17.2528 8.5H16.7912V9.5H17.2528V8.5ZM17.2624 8.83273L16.1757 5.77165L15.2334 6.10619L16.32 9.16727L17.2624 8.83273ZM15.7045 5.43892H15.6761V6.43892H15.7045V5.43892ZM15.2049 5.77165L14.1183 8.83273L15.0607 9.16727L16.1473 6.10619L15.2049 5.77165ZM14.7599 8.07955H16.6207V7.07955H14.7599V8.07955ZM16.1207 7.57955V7.97017H17.1207V7.57955H16.1207ZM16.6207 7.47017H14.7599V8.47017H16.6207V7.47017ZM15.2599 7.97017V7.57955H14.2599V7.97017H15.2599ZM18.8692 9H18.3692V9.5H18.8692V9ZM18.8692 5.36364V4.86364H18.3692V5.36364H18.8692ZM20.7673 5.49503L20.5324 5.93639L20.5349 5.93769L20.7673 5.49503ZM21.1349 5.84482L20.6965 6.08523L20.6973 6.08673L21.1349 5.84482ZM21.1722 6.71662L20.7334 6.47683L20.7313 6.48079L21.1722 6.71662ZM20.9555 6.9581L20.6807 6.54038L20.6782 6.54207L20.9555 6.9581ZM20.6661 7.08949L20.5346 6.60711L20.1661 6.70759V7.08949H20.6661ZM20.6661 7.125H20.1661V7.5941L20.6343 7.62398L20.6661 7.125ZM21.0017 7.24219L20.7347 7.66493L20.7347 7.66493L21.0017 7.24219ZM21.2734 8.52592L21.7079 8.77323L21.7079 8.77323L21.2734 8.52592ZM20.881 8.87216L20.6658 8.42084L20.6658 8.42084L20.881 8.87216ZM19.3096 8.60938H18.8096V9.10938H19.3096V8.60938ZM20.7957 8.44247L21.1346 8.81015L21.1347 8.81001L20.7957 8.44247ZM20.8845 7.69318L20.4549 7.94901L20.4562 7.95114L20.8845 7.69318ZM20.6164 7.44105L20.3751 7.87898L20.3786 7.88085L20.6164 7.44105ZM19.3096 7.34517V6.84517H18.8096V7.34517H19.3096ZM19.3096 6.96165H18.8096V7.46165H19.3096V6.96165ZM20.485 6.88352L20.2674 6.43338L20.2654 6.43433L20.485 6.88352ZM20.7407 6.66335L20.3263 6.38361L20.3239 6.38721L20.7407 6.66335ZM20.6697 5.92294L20.3142 6.27462L20.3161 6.27649L20.6697 5.92294ZM19.3096 5.75426V5.25426H18.8096V5.75426H19.3096ZM19.3692 9V5.36364H18.3692V9H19.3692ZM18.8692 5.86364H20.1406V4.86364H18.8692V5.86364ZM20.1406 5.86364C20.34 5.86364 20.4614 5.89862 20.5324 5.93638L21.0023 5.05368C20.7442 4.91625 20.4477 4.86364 20.1406 4.86364V5.86364ZM20.5349 5.93769C20.6223 5.98363 20.6684 6.034 20.6965 6.08523L21.5733 5.6044C21.4404 5.36207 21.2414 5.17925 20.9998 5.05236L20.5349 5.93769ZM20.6973 6.08673C20.7341 6.15329 20.7556 6.23073 20.7556 6.32955H21.7556C21.7556 6.07324 21.6966 5.82753 21.5725 5.6029L20.6973 6.08673ZM20.7556 6.32955C20.7556 6.42987 20.7373 6.46966 20.7334 6.47684L21.6109 6.9564C21.7183 6.75998 21.7556 6.54172 21.7556 6.32955H20.7556ZM20.7313 6.48079C20.7132 6.51452 20.696 6.53032 20.6807 6.54039L21.2303 7.37581C21.395 7.26751 21.5222 7.12232 21.6131 6.95244L20.7313 6.48079ZM20.6782 6.54207C20.6347 6.57109 20.5875 6.59267 20.5346 6.60711L20.7977 7.57187C20.9531 7.52949 21.0989 7.46348 21.2329 7.37412L20.6782 6.54207ZM20.1661 7.08949V7.125H21.1661V7.08949H20.1661ZM20.6343 7.62398C20.6473 7.62482 20.6794 7.63 20.7347 7.66493L21.2687 6.81944C21.0991 6.71233 20.9075 6.63939 20.698 6.62602L20.6343 7.62398ZM20.7347 7.66493C20.7684 7.68619 20.8087 7.7235 20.8499 7.79565L21.7181 7.29952C21.6079 7.10652 21.4599 6.94023 21.2687 6.81944L20.7347 7.66493ZM20.8499 7.79565C20.8728 7.83567 20.8977 7.9074 20.8977 8.03409H21.8977C21.8977 7.77726 21.8468 7.52465 21.7181 7.29952L20.8499 7.79565ZM20.8977 8.03409C20.8977 8.13753 20.875 8.21494 20.8388 8.27862L21.7079 8.77323C21.8374 8.54571 21.8977 8.29523 21.8977 8.03409H20.8977ZM20.8388 8.27862C20.8152 8.32015 20.7695 8.3714 20.6658 8.42084L21.0962 9.32348C21.35 9.20247 21.5658 9.02289 21.7079 8.77323L20.8388 8.27862ZM20.6658 8.42084C20.5774 8.46299 20.4259 8.5 20.1832 8.5V9.5C20.5133 9.5 20.8271 9.45178 21.0962 9.32348L20.6658 8.42084ZM20.1832 8.5H18.8692V9.5H20.1832V8.5ZM19.3096 9.10938H20.1832V8.10938H19.3096V9.10938ZM20.1832 9.10938C20.5101 9.10938 20.8733 9.05095 21.1346 8.81015L20.4569 8.07479C20.47 8.0627 20.467 8.07258 20.4206 8.08523C20.3736 8.09805 20.2973 8.10938 20.1832 8.10938V9.10938ZM21.1347 8.81001C21.3549 8.60696 21.4786 8.33939 21.4786 8.03409H20.4786C20.4786 8.0421 20.4779 8.04667 20.4775 8.04862C20.4771 8.05047 20.4768 8.05125 20.4766 8.05168C20.4764 8.05214 20.4755 8.05398 20.473 8.05739C20.4704 8.0609 20.4655 8.06687 20.4567 8.07493L21.1347 8.81001ZM21.4786 8.03409C21.4786 7.82127 21.4231 7.61827 21.3128 7.43522L20.4562 7.95114C20.4714 7.97643 20.4786 8.0007 20.4786 8.03409H21.4786ZM21.3141 7.43735C21.2017 7.24865 21.0434 7.10353 20.8543 7.00125L20.3786 7.88085C20.4214 7.90404 20.4418 7.92701 20.4549 7.94901L21.3141 7.43735ZM20.8577 7.00313C20.6545 6.89115 20.4308 6.84517 20.2045 6.84517V7.84517C20.2953 7.84517 20.3463 7.86311 20.3751 7.87897L20.8577 7.00313ZM20.2045 6.84517H19.3096V7.84517H20.2045V6.84517ZM18.8096 7.34517V8.60938H19.8096V7.34517H18.8096ZM19.3096 7.46165H20.1263V6.46165H19.3096V7.46165ZM20.1263 7.46165C20.326 7.46165 20.522 7.42199 20.7046 7.33271L20.2654 6.43433C20.235 6.44922 20.1919 6.46165 20.1263 6.46165V7.46165ZM20.7027 7.33366C20.8867 7.24468 21.0425 7.11307 21.1575 6.9395L20.3239 6.38721C20.3134 6.40303 20.2988 6.4182 20.2674 6.43338L20.7027 7.33366ZM21.1551 6.94309C21.2813 6.75612 21.3366 6.54477 21.3366 6.32955H20.3366C20.3366 6.37 20.3279 6.38119 20.3263 6.38362L21.1551 6.94309ZM21.3366 6.32955C21.3366 6.03945 21.2299 5.77605 21.0232 5.56939L20.3161 6.27649C20.3284 6.28882 20.3314 6.29581 20.3323 6.29791C20.3332 6.30017 20.3366 6.30883 20.3366 6.32955H21.3366ZM21.0251 5.57126C20.7805 5.32404 20.4465 5.25426 20.1406 5.25426V6.25426C20.2245 6.25426 20.2753 6.26428 20.3021 6.27281C20.3264 6.28058 20.3243 6.28482 20.3143 6.27462L21.0251 5.57126ZM20.1406 5.25426H19.3096V6.25426H20.1406V5.25426ZM18.8096 5.75426V6.96165H19.8096V5.75426H18.8096ZM25.5576 5.36364V4.86364H25.0576V5.36364H25.5576ZM25.9979 5.36364H26.4979V4.86364H25.9979V5.36364ZM25.8221 8.43714L25.3934 8.1799L25.3929 8.18067L25.8221 8.43714ZM25.3303 8.89702L25.5628 9.33969L25.5647 9.33867L25.3303 8.89702ZM23.8388 8.89702L23.6044 9.33867L23.6063 9.33969L23.8388 8.89702ZM23.3452 8.43714L22.9153 8.69248L22.9172 8.69554L23.3452 8.43714ZM23.1712 5.36364V4.86364H22.6712V5.36364H23.1712ZM23.6115 5.36364H24.1115V4.86364H23.6115V5.36364ZM23.7287 8.20987L23.2932 8.45553L23.2941 8.45713L23.7287 8.20987ZM24.0625 8.5348L23.8218 8.97308L23.8261 8.97538L24.0625 8.5348ZM25.1066 8.5348L25.343 8.97539L25.3457 8.97389L25.1066 8.5348ZM25.4404 8.20987L25.0049 7.96421L25.0042 7.96546L25.4404 8.20987ZM25.5576 5.86364H25.9979V4.86364H25.5576V5.86364ZM25.4979 5.36364V7.77131H26.4979V5.36364H25.4979ZM25.4979 7.77131C25.4979 7.93782 25.4597 8.06931 25.3934 8.1799L26.2509 8.69439C26.4189 8.41435 26.4979 8.10196 26.4979 7.77131H25.4979ZM25.3929 8.18067C25.3266 8.29163 25.2323 8.38299 25.0959 8.45536L25.5647 9.33867C25.8521 9.18614 26.0856 8.97091 26.2513 8.69362L25.3929 8.18067ZM25.0978 8.45434C24.9702 8.52137 24.8043 8.56392 24.5846 8.56392V9.56392C24.9353 9.56392 25.2666 9.49521 25.5628 9.33969L25.0978 8.45434ZM24.5846 8.56392C24.3648 8.56392 24.1989 8.52137 24.0713 8.45434L23.6063 9.33969C23.9025 9.49521 24.2338 9.56392 24.5846 9.56392V8.56392ZM24.0732 8.45536C23.9365 8.38278 23.8409 8.29085 23.7733 8.17875L22.9172 8.69554C23.0839 8.9717 23.3174 9.18634 23.6044 9.33867L24.0732 8.45536ZM23.7751 8.18182C23.7092 8.07095 23.6712 7.93876 23.6712 7.77131H22.6712C22.6712 8.10101 22.7492 8.41272 22.9153 8.69247L23.7751 8.18182ZM23.6712 7.77131V5.36364H22.6712V7.77131H23.6712ZM23.1712 5.86364H23.6115V4.86364H23.1712V5.86364ZM23.1115 5.36364V7.7358H24.1115V5.36364H23.1115ZM23.1115 7.7358C23.1115 7.98918 23.1681 8.23362 23.2932 8.45553L24.1642 7.96421C24.1331 7.90913 24.1115 7.83753 24.1115 7.7358H23.1115ZM23.2941 8.45713C23.42 8.67835 23.6 8.85124 23.8219 8.97306L24.3032 8.09654C24.2362 8.05974 24.1937 8.01601 24.1633 7.96261L23.2941 8.45713ZM23.8261 8.97538C24.059 9.10035 24.318 9.15199 24.5846 9.15199V8.15199C24.4463 8.15199 24.3572 8.1255 24.2989 8.09422L23.8261 8.97538ZM24.5846 9.15199C24.8511 9.15199 25.1101 9.10035 25.343 8.97538L24.8702 8.09422C24.8119 8.1255 24.7228 8.15199 24.5846 8.15199V9.15199ZM25.3457 8.97389C25.5694 8.85205 25.7511 8.67822 25.8766 8.45429L25.0042 7.96546C24.9758 8.01615 24.9349 8.05893 24.8674 8.09572L25.3457 8.97389ZM25.8759 8.45553C26.001 8.23362 26.0576 7.98918 26.0576 7.7358H25.0576C25.0576 7.83753 25.036 7.90913 25.0049 7.96421L25.8759 8.45553ZM26.0576 7.7358V5.36364H25.0576V7.7358H26.0576ZM30.3835 9H29.8835V9.5H30.3835V9ZM30.3835 5.36364V4.86364H29.8835V5.36364H30.3835ZM32.4609 5.58203L32.21 6.01451L32.2115 6.0154L32.4609 5.58203ZM33.038 6.20526L32.5896 6.42651L32.59 6.42729L33.038 6.20526ZM33.0362 8.15305L33.4842 8.3751L33.4846 8.37433L33.0362 8.15305ZM32.4467 8.78161L32.6924 9.21708L32.6939 9.21622L32.4467 8.78161ZM30.8238 8.60938H30.3238V9.10938H30.8238V8.60938ZM32.2248 8.43537L31.9717 8.00414L32.2248 8.43537ZM32.6687 6.41655L32.2127 6.62173L32.2131 6.62268L32.6687 6.41655ZM32.239 5.92649L31.9809 6.35477L31.9829 6.35594L32.239 5.92649ZM30.8238 5.75426V5.25426H30.3238V5.75426H30.8238ZM31.5057 8.5H30.3835V9.5H31.5057V8.5ZM30.8835 9V5.36364H29.8835V9H30.8835ZM30.3835 5.86364H31.5554V4.86364H30.3835V5.86364ZM31.5554 5.86364C31.839 5.86364 32.0502 5.92178 32.21 6.01451L32.7118 5.14955C32.3698 4.95109 31.9773 4.86364 31.5554 4.86364V5.86364ZM32.2115 6.0154C32.3727 6.10814 32.4976 6.24017 32.5896 6.42651L33.4864 5.984C33.3108 5.62821 33.051 5.34475 32.7103 5.14867L32.2115 6.0154ZM32.59 6.42729C32.6821 6.6131 32.7386 6.85655 32.7386 7.17472H33.7386C33.7386 6.74005 33.6614 6.33718 33.486 5.98322L32.59 6.42729ZM32.7386 7.17472C32.7386 7.49494 32.6816 7.74179 32.5878 7.93178L33.4846 8.37433C33.6607 8.01744 33.7386 7.61206 33.7386 7.17472H32.7386ZM32.5882 7.93101C32.4964 8.11622 32.3688 8.2507 32.1995 8.34699L32.6939 9.21622C33.0407 9.01895 33.3061 8.7344 33.4842 8.3751L32.5882 7.93101ZM32.201 8.34614C32.0343 8.44021 31.8098 8.5 31.5057 8.5V9.5C31.9401 9.5 32.343 9.41419 32.6924 9.21707L32.201 8.34614ZM30.8238 9.10938H31.4773V8.10938H30.8238V9.10938ZM31.4773 9.10938C31.8399 9.10938 32.1831 9.03958 32.4778 8.8666L31.9717 8.00414C31.8711 8.06317 31.716 8.10938 31.4773 8.10938V9.10938ZM32.4778 8.8666C32.767 8.69689 32.9838 8.452 33.1223 8.14632L32.2114 7.73365C32.1558 7.85647 32.0779 7.94185 31.9717 8.00414L32.4778 8.8666ZM33.1223 8.14632C33.2553 7.85279 33.3125 7.52402 33.3125 7.17472H32.3125C32.3125 7.41727 32.2726 7.59868 32.2114 7.73365L33.1223 8.14632ZM33.3125 7.17472C33.3125 6.8281 33.256 6.5017 33.1242 6.21041L32.2131 6.62268C32.2731 6.75516 32.3125 6.93421 32.3125 7.17472H33.3125ZM33.1246 6.21137C32.989 5.91007 32.7785 5.66605 32.495 5.49704L31.9829 6.35594C32.0806 6.41421 32.1565 6.49689 32.2127 6.62173L33.1246 6.21137ZM32.497 5.49821C32.2097 5.32514 31.8772 5.25426 31.527 5.25426V6.25426C31.7449 6.25426 31.8871 6.2982 31.9809 6.35477L32.497 5.49821ZM31.527 5.25426H30.8238V6.25426H31.527V5.25426ZM30.3238 5.75426V8.60938H31.3238V5.75426H30.3238ZM35.0273 9H34.5273V9.5H35.0273V9ZM35.0273 5.36364V4.86364H34.5273V5.36364H35.0273ZM35.4676 5.36364H35.9676V4.86364H35.4676V5.36364ZM35.4676 6.98295H34.9676V7.48295H35.4676V6.98295ZM37.4065 6.98295V7.48295H37.9065V6.98295H37.4065ZM37.4065 5.36364V4.86364H36.9065V5.36364H37.4065ZM37.8469 5.36364H38.3469V4.86364H37.8469V5.36364ZM37.8469 9V9.5H38.3469V9H37.8469ZM37.4065 9H36.9065V9.5H37.4065V9ZM37.4065 7.37358H37.9065V6.87358H37.4065V7.37358ZM35.4676 7.37358V6.87358H34.9676V7.37358H35.4676ZM35.4676 9V9.5H35.9676V9H35.4676ZM35.5273 9V5.36364H34.5273V9H35.5273ZM35.0273 5.86364H35.4676V4.86364H35.0273V5.86364ZM34.9676 5.36364V6.98295H35.9676V5.36364H34.9676ZM35.4676 7.48295H37.4065V6.48295H35.4676V7.48295ZM37.9065 6.98295V5.36364H36.9065V6.98295H37.9065ZM37.4065 5.86364H37.8469V4.86364H37.4065V5.86364ZM37.3469 5.36364V9H38.3469V5.36364H37.3469ZM37.8469 8.5H37.4065V9.5H37.8469V8.5ZM37.9065 9V7.37358H36.9065V9H37.9065ZM37.4065 6.87358H35.4676V7.87358H37.4065V6.87358ZM34.9676 7.37358V9H35.9676V7.37358H34.9676ZM35.4676 8.5H35.0273V9.5H35.4676V8.5ZM39.9276 9V9.5H40.2806L40.3988 9.16727L39.9276 9ZM39.4659 9L38.9966 8.82766L38.7497 9.5H39.4659V9ZM40.8012 5.36364V4.86364H40.4521L40.3318 5.19129L40.8012 5.36364ZM41.2557 5.36364L41.7251 5.19129L41.6047 4.86364H41.2557V5.36364ZM42.5909 9V9.5H43.3072L43.0603 8.82766L42.5909 9ZM42.1293 9L41.6581 9.16727L41.7762 9.5H42.1293V9ZM41.0426 5.93892L41.5138 5.77165L41.3957 5.43892H41.0426V5.93892ZM41.0142 5.93892V5.43892H40.6611L40.543 5.77165L41.0142 5.93892ZM40.098 7.57955V7.07955H39.598V7.57955H40.098ZM41.9588 7.57955H42.4588V7.07955H41.9588V7.57955ZM41.9588 7.97017V8.47017H42.4588V7.97017H41.9588ZM40.098 7.97017H39.598V8.47017H40.098V7.97017ZM39.9276 8.5H39.4659V9.5H39.9276V8.5ZM39.9353 9.17234L41.2705 5.53598L40.3318 5.19129L38.9966 8.82766L39.9353 9.17234ZM40.8012 5.86364H41.2557V4.86364H40.8012V5.86364ZM40.7863 5.53598L42.1216 9.17234L43.0603 8.82766L41.7251 5.19129L40.7863 5.53598ZM42.5909 8.5H42.1293V9.5H42.5909V8.5ZM42.6005 8.83273L41.5138 5.77165L40.5714 6.10619L41.6581 9.16727L42.6005 8.83273ZM41.0426 5.43892H41.0142V6.43892H41.0426V5.43892ZM40.543 5.77165L39.4564 8.83273L40.3988 9.16727L41.4854 6.10619L40.543 5.77165ZM40.098 8.07955H41.9588V7.07955H40.098V8.07955ZM41.4588 7.57955V7.97017H42.4588V7.57955H41.4588ZM41.9588 7.47017H40.098V8.47017H41.9588V7.47017ZM40.598 7.97017V7.57955H39.598V7.97017H40.598ZM44.2073 9H43.7073V9.5H44.2073V9ZM44.2073 5.36364V4.86364H43.7073V5.36364H44.2073ZM46.1054 5.49503L45.8704 5.93639L45.8729 5.93769L46.1054 5.49503ZM46.473 5.84482L46.0345 6.08523L46.0354 6.08673L46.473 5.84482ZM46.5102 6.71662L46.0715 6.47683L46.0694 6.48079L46.5102 6.71662ZM46.2936 6.9581L46.0188 6.54038L46.0163 6.54207L46.2936 6.9581ZM46.0042 7.08949L45.8726 6.60711L45.5042 6.70759V7.08949H46.0042ZM46.0042 7.125H45.5042V7.5941L45.9724 7.62398L46.0042 7.125ZM46.3398 7.24219L46.0728 7.66493L46.0728 7.66493L46.3398 7.24219ZM46.6115 8.52592L47.046 8.77323L47.046 8.77323L46.6115 8.52592ZM46.2191 8.87216L46.0039 8.42084L46.0039 8.42084L46.2191 8.87216ZM44.6477 8.60938H44.1477V9.10938H44.6477V8.60938ZM46.1338 8.44247L46.4727 8.81015L46.4728 8.81001L46.1338 8.44247ZM46.2226 7.69318L45.793 7.94901L45.7943 7.95114L46.2226 7.69318ZM45.9545 7.44105L45.7132 7.87898L45.7166 7.88085L45.9545 7.44105ZM44.6477 7.34517V6.84517H44.1477V7.34517H44.6477ZM44.6477 6.96165H44.1477V7.46165H44.6477V6.96165ZM45.8231 6.88352L45.6054 6.43338L45.6035 6.43433L45.8231 6.88352ZM46.0788 6.66335L45.6643 6.38361L45.662 6.38721L46.0788 6.66335ZM46.0078 5.92294L45.6523 6.27462L45.6542 6.27649L46.0078 5.92294ZM44.6477 5.75426V5.25426H44.1477V5.75426H44.6477ZM44.7073 9V5.36364H43.7073V9H44.7073ZM44.2073 5.86364H45.4786V4.86364H44.2073V5.86364ZM45.4786 5.86364C45.6781 5.86364 45.7995 5.89862 45.8705 5.93638L46.3404 5.05368C46.0822 4.91625 45.7858 4.86364 45.4786 4.86364V5.86364ZM45.8729 5.93769C45.9604 5.98363 46.0065 6.034 46.0346 6.08523L46.9114 5.6044C46.7785 5.36207 46.5795 5.17925 46.3379 5.05236L45.8729 5.93769ZM46.0354 6.08673C46.0722 6.15329 46.0937 6.23073 46.0937 6.32955H47.0937C47.0937 6.07324 47.0347 5.82753 46.9105 5.6029L46.0354 6.08673ZM46.0937 6.32955C46.0937 6.42987 46.0754 6.46966 46.0715 6.47684L46.949 6.9564C47.0563 6.75998 47.0937 6.54172 47.0937 6.32955H46.0937ZM46.0694 6.48079C46.0513 6.51452 46.0341 6.53032 46.0188 6.54039L46.5684 7.37581C46.733 7.26751 46.8603 7.12232 46.9511 6.95244L46.0694 6.48079ZM46.0163 6.54207C45.9728 6.57109 45.9256 6.59267 45.8726 6.60711L46.1358 7.57187C46.2912 7.52949 46.4369 7.46348 46.571 7.37412L46.0163 6.54207ZM45.5042 7.08949V7.125H46.5042V7.08949H45.5042ZM45.9724 7.62398C45.9854 7.62482 46.0175 7.63 46.0728 7.66493L46.6068 6.81944C46.4372 6.71233 46.2456 6.63939 46.0361 6.62602L45.9724 7.62398ZM46.0728 7.66493C46.1065 7.68619 46.1468 7.7235 46.188 7.79565L47.0562 7.29952C46.9459 7.10652 46.798 6.94023 46.6068 6.81944L46.0728 7.66493ZM46.188 7.79565C46.2109 7.83567 46.2357 7.9074 46.2357 8.03409H47.2357C47.2357 7.77726 47.1849 7.52465 47.0562 7.29952L46.188 7.79565ZM46.2357 8.03409C46.2357 8.13753 46.2131 8.21494 46.1769 8.27862L47.046 8.77323C47.1755 8.54571 47.2357 8.29523 47.2357 8.03409H46.2357ZM46.1769 8.27862C46.1533 8.32015 46.1075 8.3714 46.0039 8.42084L46.4343 9.32348C46.688 9.20247 46.9039 9.02289 47.046 8.77323L46.1769 8.27862ZM46.0039 8.42084C45.9155 8.46299 45.764 8.5 45.5213 8.5V9.5C45.8514 9.5 46.1652 9.45178 46.4343 9.32348L46.0039 8.42084ZM45.5213 8.5H44.2073V9.5H45.5213V8.5ZM44.6477 9.10938H45.5213V8.10938H44.6477V9.10938ZM45.5213 9.10938C45.8482 9.10938 46.2114 9.05095 46.4727 8.81015L45.795 8.07479C45.8081 8.0627 45.8051 8.07258 45.7587 8.08523C45.7116 8.09805 45.6354 8.10938 45.5213 8.10938V9.10938ZM46.4728 8.81001C46.693 8.60696 46.8167 8.33939 46.8167 8.03409H45.8167C45.8167 8.0421 45.816 8.04667 45.8156 8.04862C45.8152 8.05047 45.8148 8.05125 45.8147 8.05168C45.8144 8.05214 45.8136 8.05398 45.8111 8.05739C45.8085 8.0609 45.8036 8.06687 45.7948 8.07493L46.4728 8.81001ZM46.8167 8.03409C46.8167 7.82127 46.7612 7.61827 46.6509 7.43522L45.7943 7.95114C45.8095 7.97643 45.8167 8.0007 45.8167 8.03409H46.8167ZM46.6522 7.43735C46.5398 7.24865 46.3815 7.10353 46.1923 7.00125L45.7166 7.88085C45.7595 7.90404 45.7799 7.92701 45.793 7.94901L46.6522 7.43735ZM46.1958 7.00313C45.9926 6.89115 45.7689 6.84517 45.5426 6.84517V7.84517C45.6334 7.84517 45.6844 7.86311 45.7132 7.87897L46.1958 7.00313ZM45.5426 6.84517H44.6477V7.84517H45.5426V6.84517ZM44.1477 7.34517V8.60938H45.1477V7.34517H44.1477ZM44.6477 7.46165H45.4644V6.46165H44.6477V7.46165ZM45.4644 7.46165C45.6641 7.46165 45.8601 7.42199 46.0427 7.33271L45.6035 6.43433C45.573 6.44922 45.53 6.46165 45.4644 6.46165V7.46165ZM46.0408 7.33366C46.2248 7.24468 46.3806 7.11307 46.4956 6.9395L45.662 6.38721C45.6515 6.40303 45.6369 6.4182 45.6054 6.43338L46.0408 7.33366ZM46.4932 6.94309C46.6194 6.75612 46.6747 6.54477 46.6747 6.32955H45.6747C45.6747 6.37 45.666 6.38119 45.6644 6.38362L46.4932 6.94309ZM46.6747 6.32955C46.6747 6.03945 46.568 5.77605 46.3613 5.56939L45.6542 6.27649C45.6665 6.28882 45.6695 6.29581 45.6704 6.29791C45.6713 6.30017 45.6747 6.30883 45.6747 6.32955H46.6747ZM46.3632 5.57126C46.1186 5.32404 45.7846 5.25426 45.4786 5.25426V6.25426C45.5626 6.25426 45.6134 6.26428 45.6402 6.27281C45.6645 6.28058 45.6624 6.28482 45.6523 6.27462L46.3632 5.57126ZM45.4786 5.25426H44.6477V6.25426H45.4786V5.25426ZM44.1477 5.75426V6.96165H45.1477V5.75426H44.1477ZM48.9496 5.36364H49.4496V4.86364H48.9496V5.36364ZM48.9496 9V9.5H49.4496V9H48.9496ZM48.5093 9H48.0093V9.5H48.5093V9ZM48.5093 5.36364V4.86364H48.0093V5.36364H48.5093ZM48.4496 5.36364V9H49.4496V5.36364H48.4496ZM48.9496 8.5H48.5093V9.5H48.9496V8.5ZM49.0093 9V5.36364H48.0093V9H49.0093ZM48.5093 5.86364H48.9496V4.86364H48.5093V5.86364ZM14.4403 15H13.9403V15.5H14.4403V15ZM14.4403 11.3636V10.8636H13.9403V11.3636H14.4403ZM16.3686 11.5181L16.1214 11.9528L16.1248 11.9547L16.3686 11.5181ZM16.7734 11.9318L16.3268 12.1566L16.3268 12.1566L16.7734 11.9318ZM16.7734 13.0984L16.3262 12.8748L16.325 12.8772L16.7734 13.0984ZM16.3722 13.5174L16.6193 13.9521L16.6214 13.9508L16.3722 13.5174ZM14.7955 13.6719H14.2955V14.1719H14.7955V13.6719ZM14.7955 13.2812V12.7812H14.2955V13.2812H14.7955ZM16.1325 13.18L15.8849 12.7457L15.8849 12.7457L16.1325 13.18ZM16.3899 12.9066L15.9373 12.6941L15.9363 12.6962L16.3899 12.9066ZM16.3899 12.1236L15.9363 12.334L15.9381 12.3378L16.3899 12.1236ZM16.1307 11.8537L15.8882 12.291L15.8916 12.2928L16.1307 11.8537ZM14.8807 11.7543V11.2543H14.3807V11.7543H14.8807ZM14.8807 15V15.5H15.3807V15H14.8807ZM14.9403 15V11.3636H13.9403V15H14.9403ZM14.4403 11.8636H15.669V10.8636H14.4403V11.8636ZM15.669 11.8636C15.8983 11.8636 16.0384 11.9055 16.1215 11.9528L16.6158 11.0835C16.3366 10.9247 16.0104 10.8636 15.669 10.8636V11.8636ZM16.1248 11.9547C16.2265 12.0114 16.2874 12.0784 16.3268 12.1566L17.22 11.707C17.0842 11.4372 16.8753 11.2284 16.6124 11.0816L16.1248 11.9547ZM16.3268 12.1566C16.3759 12.2542 16.4048 12.3701 16.4048 12.5142H17.4048C17.4048 12.2298 17.3461 11.9575 17.22 11.707L16.3268 12.1566ZM16.4048 12.5142C16.4048 12.6582 16.3759 12.7753 16.3262 12.8748L17.2207 13.322C17.3461 13.071 17.4048 12.7987 17.4048 12.5142H16.4048ZM16.325 12.8772C16.2856 12.9572 16.2243 13.0256 16.1229 13.084L16.6214 13.9508C16.8822 13.8008 17.0885 13.5899 17.2219 13.3195L16.325 12.8772ZM16.125 13.0828C16.0414 13.1303 15.9021 13.1719 15.6761 13.1719V14.1719C16.0159 14.1719 16.3407 14.1105 16.6193 13.952L16.125 13.0828ZM15.6761 13.1719H14.7955V14.1719H15.6761V13.1719ZM15.2955 13.6719V13.2812H14.2955V13.6719H15.2955ZM14.7955 13.7812H15.6619V12.7812H14.7955V13.7812ZM15.6619 13.7812C15.9087 13.7812 16.1605 13.7396 16.3801 13.6144L15.8849 12.7457C15.8677 12.7555 15.8058 12.7812 15.6619 12.7812V13.7812ZM16.3801 13.6144C16.5814 13.4997 16.7431 13.3334 16.8435 13.117L15.9363 12.6962C15.9302 12.7094 15.9203 12.7255 15.8849 12.7457L16.3801 13.6144ZM16.8425 13.1191C16.9322 12.9281 16.9716 12.7232 16.9716 12.5142H15.9716C15.9716 12.5964 15.9565 12.6531 15.9373 12.6942L16.8425 13.1191ZM16.9716 12.5142C16.9716 12.3053 16.9322 12.1002 16.8417 11.9093L15.9381 12.3378C15.9565 12.3766 15.9716 12.4319 15.9716 12.5142H16.9716ZM16.8435 11.9132C16.7416 11.6936 16.576 11.5268 16.3698 11.4146L15.8916 12.2928C15.9245 12.3107 15.9317 12.3239 15.9363 12.334L16.8435 11.9132ZM16.3731 11.4164C16.1536 11.2947 15.9019 11.2543 15.6548 11.2543V12.2543C15.8031 12.2543 15.8687 12.2801 15.8882 12.291L16.3731 11.4164ZM15.6548 11.2543H14.8807V12.2543H15.6548V11.2543ZM14.3807 11.7543V15H15.3807V11.7543H14.3807ZM14.8807 14.5H14.4403V15.5H14.8807V14.5ZM21.5246 14.1761L21.0766 13.954L21.0766 13.954L21.5246 14.1761ZM20.9547 14.8224L21.2204 15.246L21.2204 15.246L20.9547 14.8224ZM19.2998 14.8224L19.0341 15.246L19.0341 15.246L19.2998 14.8224ZM18.7299 14.1761L19.1778 13.954L19.1778 13.954L18.7299 14.1761ZM18.7299 12.1875L18.2819 11.9654L18.7299 12.1875ZM20.9547 11.5412L21.2204 11.1177L21.2204 11.1177L20.9547 11.5412ZM21.5246 12.1875L21.0766 12.4096L21.0766 12.4096L21.5246 12.1875ZM21.1482 12.3846L20.6976 12.6013L20.6985 12.6033L21.1482 12.3846ZM20.7238 11.8928L20.4583 12.3164L20.4596 12.3172L20.7238 11.8928ZM19.5289 11.8928L19.2646 11.4683L19.2634 11.4691L19.5289 11.8928ZM19.1045 12.3846L18.6549 12.1659L18.6539 12.1679L19.1045 12.3846ZM19.1045 13.979L18.6539 14.1957L18.6549 14.1977L19.1045 13.979ZM19.5289 14.4709L19.2634 14.8946L19.2646 14.8954L19.5289 14.4709ZM20.7238 14.4709L20.4596 14.0464L20.4583 14.0472L20.7238 14.4709ZM21.1482 13.979L20.6985 13.7604L20.6976 13.7624L21.1482 13.979ZM21.2324 13.1818C21.2324 13.5057 21.1739 13.7578 21.0766 13.954L21.9726 14.3982C22.1523 14.0358 22.2324 13.625 22.2324 13.1818H21.2324ZM21.0766 13.954C20.9752 14.1587 20.845 14.301 20.6889 14.3989L21.2204 15.246C21.5473 15.0409 21.7971 14.7522 21.9726 14.3982L21.0766 13.954ZM20.6889 14.3989C20.534 14.4961 20.3519 14.5497 20.1272 14.5497V15.5497C20.5228 15.5497 20.8923 15.4518 21.2204 15.246L20.6889 14.3989ZM20.1272 14.5497C19.9025 14.5497 19.7204 14.4961 19.5656 14.3989L19.0341 15.246C19.3622 15.4518 19.7317 15.5497 20.1272 15.5497V14.5497ZM19.5656 14.3989C19.4095 14.301 19.2793 14.1587 19.1778 13.954L18.2819 14.3982C18.4574 14.7522 18.7072 15.0409 19.0341 15.246L19.5656 14.3989ZM19.1778 13.954C19.0805 13.7578 19.0221 13.5057 19.0221 13.1818H18.0221C18.0221 13.625 18.1022 14.0358 18.2819 14.3982L19.1778 13.954ZM19.0221 13.1818C19.0221 12.858 19.0805 12.6059 19.1778 12.4096L18.2819 11.9654C18.1022 12.3279 18.0221 12.7386 18.0221 13.1818H19.0221ZM19.1778 12.4096C19.2793 12.2049 19.4095 12.0626 19.5656 11.9647L19.0341 11.1177C18.7072 11.3228 18.4574 11.6114 18.2819 11.9654L19.1778 12.4096ZM19.5656 11.9647C19.7204 11.8675 19.9025 11.8139 20.1272 11.8139V10.8139C19.7317 10.8139 19.3622 10.9118 19.0341 11.1177L19.5656 11.9647ZM20.1272 11.8139C20.3519 11.8139 20.534 11.8675 20.6889 11.9647L21.2204 11.1177C20.8923 10.9118 20.5228 10.8139 20.1272 10.8139V11.8139ZM20.6889 11.9647C20.845 12.0626 20.9752 12.2049 21.0766 12.4096L21.9726 11.9654C21.7971 11.6114 21.5473 11.3228 21.2204 11.1177L20.6889 11.9647ZM21.0766 12.4096C21.1739 12.6059 21.2324 12.858 21.2324 13.1818H22.2324C22.2324 12.7386 22.1523 12.3279 21.9726 11.9654L21.0766 12.4096ZM21.8062 13.1818C21.8062 12.8135 21.7449 12.4683 21.5978 12.1659L20.6985 12.6033C20.7622 12.7342 20.8062 12.9204 20.8062 13.1818H21.8062ZM21.5988 12.1679C21.4595 11.8782 21.2583 11.6365 20.9881 11.4683L20.4596 12.3172C20.5468 12.3715 20.6286 12.4578 20.6976 12.6013L21.5988 12.1679ZM20.9893 11.4691C20.7281 11.3053 20.4363 11.2259 20.1272 11.2259V12.2259C20.2585 12.2259 20.3645 12.2576 20.4583 12.3164L20.9893 11.4691ZM20.1272 11.2259C19.8181 11.2259 19.5264 11.3053 19.2646 11.4683L19.7931 12.3172C19.8888 12.2576 19.996 12.2259 20.1272 12.2259V11.2259ZM19.2634 11.4691C18.9951 11.6372 18.7949 11.8779 18.6549 12.1659L19.5542 12.6033C19.6248 12.458 19.7075 12.3709 19.7944 12.3164L19.2634 11.4691ZM18.6539 12.1679C18.5088 12.4697 18.4483 12.8142 18.4483 13.1818H19.4483C19.4483 12.9197 19.4919 12.7327 19.5551 12.6013L18.6539 12.1679ZM18.4483 13.1818C18.4483 13.5494 18.5088 13.8939 18.6539 14.1957L19.5551 13.7624C19.4919 13.6309 19.4483 13.444 19.4483 13.1818H18.4483ZM18.6549 14.1977C18.7949 14.4857 18.9951 14.7265 19.2634 14.8946L19.7944 14.0472C19.7075 13.9928 19.6248 13.9056 19.5542 13.7604L18.6549 14.1977ZM19.2646 14.8954C19.5264 15.0583 19.8181 15.1378 20.1272 15.1378V14.1378C19.996 14.1378 19.8888 14.106 19.7931 14.0464L19.2646 14.8954ZM20.1272 15.1378C20.4363 15.1378 20.7281 15.0583 20.9893 14.8946L20.4583 14.0472C20.3645 14.106 20.2585 14.1378 20.1272 14.1378V15.1378ZM20.9881 14.8954C21.2583 14.7271 21.4595 14.4855 21.5988 14.1957L20.6976 13.7624C20.6286 13.9059 20.5468 13.9921 20.4596 14.0464L20.9881 14.8954ZM21.5978 14.1977C21.7449 13.8954 21.8062 13.5501 21.8062 13.1818H20.8062C20.8062 13.4433 20.7622 13.6295 20.6985 13.7604L21.5978 14.1977ZM23.5228 15H23.0228V15.5H23.5228V15ZM23.5228 11.3636V10.8636H23.0228V11.3636H23.5228ZM23.9631 11.3636H24.4631V10.8636H23.9631V11.3636ZM23.9631 14.6094H23.4631V15.1094H23.9631V14.6094ZM25.6534 14.6094H26.1534V14.1094H25.6534V14.6094ZM25.6534 15V15.5H26.1534V15H25.6534ZM24.0228 15V11.3636H23.0228V15H24.0228ZM23.5228 11.8636H23.9631V10.8636H23.5228V11.8636ZM23.4631 11.3636V14.6094H24.4631V11.3636H23.4631ZM23.9631 15.1094H25.6534V14.1094H23.9631V15.1094ZM25.1534 14.6094V15H26.1534V14.6094H25.1534ZM25.6534 14.5H23.5228V15.5H25.6534V14.5ZM27.8256 11.3636H28.3256V10.8636H27.8256V11.3636ZM27.8256 15V15.5H28.3256V15H27.8256ZM27.3853 15H26.8853V15.5H27.3853V15ZM27.3853 11.3636V10.8636H26.8853V11.3636H27.3853ZM27.3256 11.3636V15H28.3256V11.3636H27.3256ZM27.8256 14.5H27.3853V15.5H27.8256V14.5ZM27.8853 15V11.3636H26.8853V15H27.8853ZM27.3853 11.8636H27.8256V10.8636H27.3853V11.8636ZM32.6846 12.5V13H33.281L33.177 12.4128L32.6846 12.5ZM32.2443 12.5L31.7545 12.6007L31.8366 13H32.2443V12.5ZM32.1076 12.1662L31.6915 12.4436L31.6939 12.4471L32.1076 12.1662ZM31.8732 11.9247L31.5791 12.3291L31.5851 12.3333L31.8732 11.9247ZM31.5696 11.7756L31.4268 12.2548L31.4268 12.2548L31.5696 11.7756ZM30.6232 11.8928L30.359 11.4683L30.3577 11.4691L30.6232 11.8928ZM30.1988 12.3846L29.7492 12.1659L29.7482 12.1679L30.1988 12.3846ZM30.1988 13.979L29.7482 14.1957L29.7492 14.1977L30.1988 13.979ZM30.6232 14.4709L30.3577 14.8946L30.359 14.8954L30.6232 14.4709ZM31.5696 14.5881L31.4268 14.1089L31.4268 14.1089L31.5696 14.5881ZM31.8732 14.4407L32.1638 14.8476L32.1648 14.8469L31.8732 14.4407ZM32.1076 14.1974L31.6923 13.9189L31.6916 13.9201L32.1076 14.1974ZM32.2443 13.8636V13.3636H31.8374L31.7547 13.762L32.2443 13.8636ZM32.6846 13.8636L33.1769 13.9514L33.2817 13.3636H32.6846V13.8636ZM32.5035 14.3626L32.0742 14.1063L32.0742 14.1063L32.5035 14.3626ZM32.1768 14.7372L32.4848 15.1311L32.487 15.1294L32.1768 14.7372ZM31.7383 14.9698L31.5822 14.4948L31.5812 14.4951L31.7383 14.9698ZM30.3942 14.8224L30.1284 15.246L30.1284 15.246L30.3942 14.8224ZM29.8242 14.1761L30.2722 13.954L30.2722 13.954L29.8242 14.1761ZM29.8242 12.1875L29.3762 11.9654L29.8242 12.1875ZM31.7383 11.3938L31.5812 11.8685L31.5822 11.8689L31.7383 11.3938ZM32.1768 11.6282L31.8667 12.0204L31.8689 12.0221L32.1768 11.6282ZM32.5035 12.0011L32.0742 12.2573L32.0751 12.2588L32.5035 12.0011ZM32.6846 12H32.2443V13H32.6846V12ZM32.7341 12.3993C32.6963 12.2156 32.6274 12.0416 32.5212 11.8853L31.6939 12.4471C31.718 12.4825 31.7402 12.5311 31.7545 12.6007L32.7341 12.3993ZM32.5236 11.8888C32.4262 11.7427 32.305 11.6174 32.1613 11.5161L31.5851 12.3333C31.626 12.3622 31.6611 12.3979 31.6916 12.4435L32.5236 11.8888ZM32.1673 11.5203C32.0289 11.4197 31.8763 11.3452 31.7123 11.2964L31.4268 12.2548C31.4855 12.2722 31.5352 12.2971 31.5791 12.3291L32.1673 11.5203ZM31.7123 11.2964C31.5529 11.2489 31.3887 11.2259 31.2216 11.2259V12.2259C31.2959 12.2259 31.3637 12.236 31.4268 12.2548L31.7123 11.2964ZM31.2216 11.2259C30.9125 11.2259 30.6207 11.3053 30.359 11.4683L30.8874 12.3172C30.9832 12.2576 31.0903 12.2259 31.2216 12.2259V11.2259ZM30.3577 11.4691C30.0895 11.6372 29.8893 11.8779 29.7492 12.1659L30.6485 12.6033C30.7191 12.458 30.8018 12.3709 30.8887 12.3164L30.3577 11.4691ZM29.7482 12.1679C29.6031 12.4697 29.5426 12.8142 29.5426 13.1818H30.5426C30.5426 12.9197 30.5862 12.7327 30.6495 12.6013L29.7482 12.1679ZM29.5426 13.1818C29.5426 13.5494 29.6031 13.8939 29.7482 14.1957L30.6495 13.7624C30.5862 13.6309 30.5426 13.444 30.5426 13.1818H29.5426ZM29.7492 14.1977C29.8893 14.4857 30.0895 14.7265 30.3577 14.8946L30.8887 14.0472C30.8018 13.9928 30.7191 13.9056 30.6485 13.7604L29.7492 14.1977ZM30.359 14.8954C30.6207 15.0583 30.9125 15.1378 31.2216 15.1378V14.1378C31.0903 14.1378 30.9832 14.106 30.8874 14.0464L30.359 14.8954ZM31.2216 15.1378C31.3887 15.1378 31.5529 15.1147 31.7123 15.0673L31.4268 14.1089C31.3637 14.1277 31.2959 14.1378 31.2216 14.1378V15.1378ZM31.7123 15.0673C31.8746 15.0189 32.0261 14.9459 32.1638 14.8476L31.5826 14.0338C31.538 14.0657 31.4871 14.0909 31.4268 14.1089L31.7123 15.0673ZM32.1648 14.8469C32.3067 14.745 32.4268 14.62 32.5236 14.4748L31.6916 13.9201C31.6605 13.9666 31.6244 14.0038 31.5816 14.0345L32.1648 14.8469ZM32.5228 14.476C32.6272 14.3203 32.696 14.1478 32.7339 13.9652L31.7547 13.762C31.7405 13.8304 31.7182 13.8804 31.6923 13.9189L32.5228 14.476ZM32.2443 14.3636H32.6846V13.3636H32.2443V14.3636ZM32.1924 13.7758C32.1688 13.9084 32.1277 14.0166 32.0742 14.1063L32.9329 14.6188C33.0545 14.415 33.1342 14.1906 33.1769 13.9514L32.1924 13.7758ZM32.0742 14.1063C32.0168 14.2025 31.9478 14.2809 31.8667 14.345L32.487 15.1294C32.6663 14.9876 32.8151 14.8162 32.9329 14.6188L32.0742 14.1063ZM31.8689 14.3433C31.7857 14.4083 31.6913 14.459 31.5822 14.4948L31.8943 15.4448C32.1096 15.3741 32.3075 15.2697 32.4848 15.1311L31.8689 14.3433ZM31.5812 14.4951C31.4749 14.5303 31.356 14.5497 31.2216 14.5497V15.5497C31.454 15.5497 31.6797 15.5159 31.8953 15.4445L31.5812 14.4951ZM31.2216 14.5497C30.9969 14.5497 30.8148 14.4961 30.6599 14.3989L30.1284 15.246C30.4565 15.4518 30.826 15.5497 31.2216 15.5497V14.5497ZM30.6599 14.3989C30.5038 14.301 30.3737 14.1587 30.2722 13.954L29.3762 14.3982C29.5517 14.7522 29.8015 15.0409 30.1284 15.246L30.6599 14.3989ZM30.2722 13.954C30.1749 13.7578 30.1165 13.5057 30.1165 13.1818H29.1165C29.1165 13.625 29.1965 14.0358 29.3762 14.3982L30.2722 13.954ZM30.1165 13.1818C30.1165 12.858 30.1749 12.6059 30.2722 12.4096L29.3762 11.9654C29.1965 12.3279 29.1165 12.7386 29.1165 13.1818H30.1165ZM30.2722 12.4096C30.3737 12.2049 30.5038 12.0626 30.6599 11.9647L30.1284 11.1177C29.8015 11.3228 29.5517 11.6114 29.3762 11.9654L30.2722 12.4096ZM30.6599 11.9647C30.8148 11.8675 30.9969 11.8139 31.2216 11.8139V10.8139C30.826 10.8139 30.4565 10.9118 30.1284 11.1177L30.6599 11.9647ZM31.2216 11.8139C31.356 11.8139 31.4749 11.8333 31.5812 11.8685L31.8953 10.9191C31.6797 10.8478 31.454 10.8139 31.2216 10.8139V11.8139ZM31.5822 11.8689C31.6902 11.9043 31.7839 11.9549 31.8667 12.0204L32.487 11.236C32.3094 11.0955 32.1107 10.9899 31.8943 10.9188L31.5822 11.8689ZM31.8689 12.0221C31.9488 12.0846 32.0171 12.1617 32.0742 12.2573L32.9329 11.7448C32.8148 11.5469 32.6653 11.3754 32.4848 11.2343L31.8689 12.0221ZM32.0751 12.2588C32.1276 12.3462 32.1686 12.4534 32.1923 12.5872L33.177 12.4128C33.1344 12.1725 33.0546 11.9472 32.932 11.7433L32.0751 12.2588ZM34.4462 15H33.9462V15.5H34.4462V15ZM34.4462 11.3636V10.8636H33.9462V11.3636H34.4462ZM36.6408 11.3636H37.1408V10.8636H36.6408V11.3636ZM36.6408 11.7543V12.2543H37.1408V11.7543H36.6408ZM34.8865 11.7543V11.2543H34.3865V11.7543H34.8865ZM34.8865 12.983H34.3865V13.483H34.8865V12.983ZM36.5272 12.983H37.0272V12.483H36.5272V12.983ZM36.5272 13.3736V13.8736H37.0272V13.3736H36.5272ZM34.8865 13.3736V12.8736H34.3865V13.3736H34.8865ZM34.8865 14.6094H34.3865V15.1094H34.8865V14.6094ZM36.6692 14.6094H37.1692V14.1094H36.6692V14.6094ZM36.6692 15V15.5H37.1692V15H36.6692ZM34.9462 15V11.3636H33.9462V15H34.9462ZM34.4462 11.8636H36.6408V10.8636H34.4462V11.8636ZM36.1408 11.3636V11.7543H37.1408V11.3636H36.1408ZM36.6408 11.2543H34.8865V12.2543H36.6408V11.2543ZM34.3865 11.7543V12.983H35.3865V11.7543H34.3865ZM34.8865 13.483H36.5272V12.483H34.8865V13.483ZM36.0272 12.983V13.3736H37.0272V12.983H36.0272ZM36.5272 12.8736H34.8865V13.8736H36.5272V12.8736ZM34.3865 13.3736V14.6094H35.3865V13.3736H34.3865ZM34.8865 15.1094H36.6692V14.1094H34.8865V15.1094ZM36.1692 14.6094V15H37.1692V14.6094H36.1692ZM36.6692 14.5H34.4462V15.5H36.6692V14.5Z" fill="#777777"/>
</svg>
