<svg width="60" height="20" viewBox="0 0 60 20" fill="none" xmlns="http://www.w3.org/2000/svg">
<rect width="60" height="20" fill="#F1F1F1"/>
<path d="M41.6877 7.69226C42.0518 7.69226 42.224 7.8207 42.224 8.09162V8.44141C42.224 8.70531 42.0518 8.83375 41.6877 8.83375H39.8305V9.53292H41.4006C41.7644 9.53292 41.9368 9.66136 41.9368 9.93248V10.2819C41.9368 10.546 41.7644 10.6742 41.4006 10.6742H39.8305V11.4023H41.9752C42.339 11.4023 42.5112 11.5305 42.5112 11.8016V12.1512C42.5112 12.4153 42.339 12.5436 41.9752 12.5436H38.3464C37.992 12.5436 37.8198 12.4153 37.8198 12.1512V8.09162C37.8198 7.8207 37.992 7.69226 38.3464 7.69226H41.688H41.6877ZM30.3036 7.69226C30.7249 7.69226 30.9066 7.80625 30.9641 8.07738L31.4909 10.4605H31.5098L32.1608 8.07738C32.2377 7.80625 32.4194 7.69226 32.8215 7.69226H33.6353C34.0377 7.69226 34.2196 7.80625 34.2963 8.07738L34.957 10.4605H34.9759L35.5027 8.07738C35.5599 7.80625 35.7421 7.69226 36.1632 7.69226H36.8333C37.1494 7.69226 37.341 7.79923 37.341 8.01316C37.341 8.0561 37.3313 8.1131 37.3121 8.17029L36.0582 12.1512C35.9721 12.4153 35.7996 12.5436 35.3494 12.5436H34.5645C34.1624 12.5436 33.9805 12.4296 33.9038 12.1585L33.1859 9.5542H33.1667L32.4485 12.1585C32.3719 12.4296 32.19 12.5438 31.7878 12.5438H31.0029C30.5527 12.5438 30.3803 12.4153 30.2942 12.1512L29.04 8.17029C29.0222 8.11892 29.0125 8.06619 29.0111 8.01316C29.0111 7.79923 29.193 7.69226 29.5188 7.69226H30.3036V7.69226ZM27.9963 7.69226C28.3598 7.69226 28.5323 7.8207 28.5323 8.09162V8.44141C28.5323 8.70531 28.3598 8.83375 27.996 8.83375H26.1386V9.53292H27.7088C28.0727 9.53292 28.2449 9.66136 28.2449 9.93248V10.2819C28.2449 10.546 28.0727 10.6742 27.7088 10.6742H26.1383V11.4023H28.2829C28.6467 11.4023 28.8192 11.5305 28.8192 11.8016V12.1512C28.8192 12.4153 28.6467 12.5436 28.2829 12.5436H24.6544C24.3 12.5436 24.1278 12.4153 24.1278 12.1512V8.09162C24.1278 7.8207 24.3003 7.69226 24.6544 7.69226H27.996H27.9963ZM20.4896 7.69226C22.5003 7.69226 23.266 8.263 23.266 9.22608C23.266 9.79682 22.8736 10.2749 21.9735 10.5245L23.3715 12.0657C23.4479 12.1585 23.4863 12.2369 23.4863 12.3011C23.4863 12.4651 23.2566 12.5438 22.9788 12.5438H21.8396C21.5141 12.5438 21.3319 12.4296 21.1214 12.1585L19.9916 10.7101H19.9724V12.1512C19.9724 12.4153 19.8 12.5436 19.4361 12.5436H18.5266C18.1722 12.5436 18 12.4153 18 12.1512V8.09162C18 7.8207 18.1725 7.69226 18.5266 7.69226H20.4896ZM20.3937 8.80525H19.9722V9.8183H20.3935C20.9584 9.8183 21.1978 9.63989 21.1978 9.31177C21.1978 8.98346 20.9584 8.80525 20.3935 8.80525H20.3937Z" fill="#777777"/>
</svg>
