<svg width="60" height="20" viewBox="0 0 60 20" fill="none" xmlns="http://www.w3.org/2000/svg">
<rect width="60" height="20" fill="#F1F1F1"/>
<g clip-path="url(#clip0_3_55)">
<path d="M50.3999 2.80005H8.3999V16.8H50.3999V2.80005Z" fill="#F1F1F1"/>
<path d="M28.5208 7.20447H22.1738L21.6656 8.47094H23.7933L22.2178 12.3956H24.2875L25.8618 8.47094H28.0126L28.5208 7.20447Z" fill="#777777"/>
<path d="M14.8116 8.01061L14.2606 9.38379C14.0152 9.99498 14.4621 10.4465 15.2527 10.4465H17.8341C17.8602 10.4471 17.8858 10.4524 17.9088 10.4619C17.9318 10.4714 17.9516 10.4849 17.9664 10.5013C17.9813 10.5177 17.9909 10.5365 17.9945 10.5563C17.998 10.576 17.9954 10.5961 17.9868 10.615L17.8479 10.9607C17.825 11.0063 17.7859 11.0462 17.735 11.0759C17.6842 11.1057 17.6235 11.1241 17.5597 11.1292H13.5024L12.9943 12.3956H18.2265C18.8052 12.3956 19.2961 12.1919 19.5484 11.5631L20.0716 10.2587C20.3193 9.64132 19.8586 9.20035 19.1375 9.20035H16.5434C16.3998 9.20035 16.3431 9.12097 16.3825 9.02396L16.5214 8.67824C16.5382 8.61977 16.581 8.56755 16.6427 8.53041C16.7043 8.49328 16.7808 8.47353 16.8594 8.47451H20.5914L21.0995 7.20803H16.1463C15.439 7.20451 14.998 7.54935 14.8116 8.01061Z" fill="#777777"/>
<path d="M41.3998 11.1291L42.9753 7.20447H40.894L38.8115 12.3956H45.2985L45.8067 11.1291H41.3998Z" fill="#777777"/>
<path d="M37.4965 7.20447L36.6967 9.19766H34.2206L35.0205 7.20447H33.0318L30.9493 12.3956H32.9369L33.7333 10.4112H36.2093L35.4141 12.3956H37.456L39.5385 7.20447H37.4965Z" fill="#777777"/>
<path d="M29.5972 7.20447L27.5148 12.3956H29.5961L31.6785 7.20447H29.5972Z" fill="#777777"/>
</g>
<defs>
<clipPath id="clip0_3_55">
<rect width="42" height="14" fill="white" transform="translate(8.3999 2.80005)"/>
</clipPath>
</defs>
</svg>
