<svg width="60" height="20" viewBox="0 0 60 20" fill="none" xmlns="http://www.w3.org/2000/svg">
<rect width="60" height="20" fill="#F1F1F1"/>
<g clip-path="url(#clip0_3_54)">
<path fill-rule="evenodd" clip-rule="evenodd" d="M8.25 -5.38464H51.6V23.3851H8.25V-5.38464Z" fill="#F1F1F1"/>
<path fill-rule="evenodd" clip-rule="evenodd" d="M8.88733 8.73828H10.7546V9.97769H8.88733V8.73828ZM14.4881 8.73828H16.3554V9.97769H14.4881V8.73828V8.73828ZM20.0889 8.73828H21.956V9.97769H20.0889V8.73828Z" fill="#777777"/>
<path fill-rule="evenodd" clip-rule="evenodd" d="M24.584 10.73C24.584 11.5535 24.7974 11.6861 26.131 11.6951V12.0403H21.5962V11.6951C22.9303 11.6861 23.1433 11.5535 23.1433 10.73V6.20686C21.6095 6.22462 20.7158 6.89731 20.5824 8.12762L20.089 8.07478L20.1825 5.91492H27.545L27.6383 8.07478L27.1446 8.12762C27.0115 6.89746 26.1045 6.22462 24.584 6.20686V10.73V10.73Z" fill="#777777"/>
<path fill-rule="evenodd" clip-rule="evenodd" d="M25.7563 8.73836H27.6237V9.97777H25.7563V8.73836ZM31.307 6.41775C31.307 6.22103 31.2895 6.14924 31.2213 6.10372C31.1698 6.06954 31.0504 6.04715 30.9195 6.04715H30.8453V5.92595H32.1956C32.8224 5.92595 33.2611 6.04715 33.5976 6.31551C33.8879 6.54626 34.0422 6.84118 34.0422 7.18148C34.0422 7.57119 33.8481 7.90761 33.4892 8.1385C33.1703 8.35015 32.7486 8.44836 32.1956 8.44836H30.8453V8.32746H30.9195C31.0504 8.32746 31.1698 8.30462 31.2213 8.27074C31.2895 8.22507 31.307 8.15343 31.307 7.95671V6.41775ZM31.8312 7.97194C31.8312 8.2594 31.8998 8.31253 32.2981 8.31253C33.119 8.31253 33.4327 8.00238 33.4327 7.18148C33.4327 6.38357 33.1077 6.05834 32.31 6.05834C32.0989 6.05834 31.9682 6.08476 31.8998 6.13387C31.8427 6.17924 31.8312 6.22461 31.8312 6.38357V7.97194ZM34.9476 7.56716C34.9528 8.1194 35.1471 8.35418 35.5969 8.35418C35.9048 8.35418 36.1043 8.24433 36.3033 7.96447L36.4747 8.02492C36.23 8.35418 35.9331 8.50164 35.506 8.50164C34.8451 8.50164 34.4175 8.1385 34.4175 7.56716C34.4175 7.0379 34.8507 6.65596 35.4485 6.65596C36.0701 6.65596 36.4803 7.00745 36.5088 7.56716H34.9476ZM35.9785 7.43492C35.9842 7.03044 35.7962 6.78835 35.4772 6.78835C35.1583 6.78835 34.9589 7.03805 34.9528 7.43492H35.9785ZM38.6791 8.0591C38.4859 8.35433 38.2237 8.48642 37.8533 8.48642C37.6025 8.48642 37.4087 8.42224 37.3003 8.30104C37.1919 8.18015 37.1579 8.06283 37.1579 7.7791V7.1288C37.1579 6.87909 37.1064 6.82626 36.8671 6.82626H36.8048V6.70894L37.6367 6.68253V7.87746C37.6367 8.0403 37.6538 8.11567 37.7053 8.18776C37.7505 8.26343 37.8647 8.31269 37.99 8.31269C38.1832 8.31269 38.366 8.2294 38.4859 8.07791C38.5939 7.94955 38.6339 7.81343 38.6339 7.59776V7.1288C38.6339 6.87909 38.5824 6.82626 38.3435 6.82626H38.2574V6.70894L39.1127 6.68253V8.02507C39.1127 8.27448 39.1637 8.33149 39.4035 8.33149H39.4658V8.44866L38.6791 8.47522V8.0591ZM40.5023 7.88507C40.5023 8.04029 40.5138 8.10821 40.5428 8.1803C40.5824 8.27104 40.6908 8.32776 40.8212 8.32776C41.0378 8.32776 41.1691 8.17283 41.1691 7.90388V7.85119H41.3572V7.92283C41.3572 8.29343 41.1287 8.48627 40.6789 8.48627C40.4623 8.48627 40.2857 8.44074 40.1834 8.35761C40.0582 8.2594 40.024 8.1497 40.024 7.88492V6.83745H39.6133V6.73148C40.1092 6.65208 40.2743 6.50073 40.3429 6.05446H40.5023V6.70865H41.2719V6.8373H40.5023V7.88507ZM43.2209 7.25745H43.0495C42.9528 6.93596 42.7362 6.78089 42.3827 6.78089C42.1375 6.78089 41.9558 6.89432 41.9558 7.04551C41.9558 7.1891 42.0696 7.25745 42.429 7.33313C42.7931 7.41238 42.9474 7.45775 43.0729 7.52223C43.2775 7.62805 43.3747 7.76044 43.3747 7.93044C43.3747 8.25567 43.0216 8.48642 42.5194 8.48642C42.2918 8.48642 42.1605 8.45597 41.8816 8.34642C41.863 8.33814 41.8416 8.33297 41.8193 8.33134C41.7788 8.33134 41.7451 8.35761 41.7222 8.40686L41.7051 8.44851H41.5456V7.80955H41.7051C41.7788 7.98701 41.836 8.08194 41.9268 8.16104C42.0696 8.2897 42.2857 8.36522 42.5194 8.36522C42.7816 8.36522 42.9757 8.23298 42.9757 8.0591C42.9757 7.94955 42.89 7.85119 42.7421 7.79044C42.6163 7.73761 42.6107 7.73761 42.2408 7.65432C41.7845 7.55596 41.5735 7.39357 41.5735 7.14745C41.5735 6.8676 41.8868 6.67103 42.3431 6.67103C42.5255 6.67103 42.7187 6.7088 42.8786 6.77312C42.9128 6.78447 42.9409 6.79223 42.9643 6.79223C42.9984 6.79223 43.0324 6.76178 43.0495 6.70894H43.2209V7.25745ZM45.7215 8.00612C45.5164 8.34642 45.226 8.50164 44.7873 8.50164C44.1319 8.50164 43.6817 8.12358 43.6817 7.57134C43.6817 7.03417 44.1605 6.65611 44.8439 6.65611C45.3171 6.65611 45.6873 6.87163 45.6873 7.14417C45.6873 7.28387 45.5503 7.38238 45.3628 7.38238C45.1977 7.38238 45.0724 7.29507 45.0724 7.1779C45.0724 7.07223 45.1862 6.98507 45.3398 6.98507C45.3628 6.98507 45.374 6.98506 45.397 6.99626C45.3117 6.86387 45.1237 6.7882 44.8954 6.7882C44.4567 6.7882 44.2345 7.0491 44.2345 7.57119C44.2345 8.10433 44.4456 8.35761 44.8783 8.35761C45.1635 8.35761 45.3799 8.2294 45.5393 7.95686L45.7215 8.00612ZM47.7671 7.32148C47.7671 7.10238 47.7505 7.01507 47.6819 6.94715C47.6192 6.87163 47.5168 6.83372 47.3967 6.83372C47.2087 6.83372 47.0322 6.91701 46.924 7.06074C46.8212 7.20074 46.7812 7.34805 46.7812 7.6088V8.02492C46.7812 8.27851 46.8327 8.33134 47.072 8.33134H47.1628V8.44851H45.9207V8.33134H46.012C46.2513 8.33134 46.3024 8.27448 46.3024 8.02492V6.34581C46.3024 6.09625 46.2513 6.04342 46.012 6.04342H45.9493V5.92595L46.7812 5.89954V7.02253C46.9636 6.77685 47.1858 6.67103 47.5166 6.67103C47.7559 6.67103 47.9498 6.72775 48.064 6.83357C48.2059 6.96581 48.2459 7.08701 48.2459 7.41596V8.02492C48.2459 8.27851 48.2974 8.33134 48.5367 8.33134H48.599V8.44851H47.7671V7.32148ZM49.4012 7.56716C49.4073 8.1194 49.6007 8.35418 50.0514 8.35418C50.3588 8.35418 50.5583 8.24433 50.7583 7.96447L50.9287 8.02492C50.684 8.35418 50.3876 8.50164 49.9601 8.50164C49.2991 8.50164 48.8716 8.1385 48.8716 7.56716C48.8716 7.0379 49.3048 6.65596 49.9034 6.65596C50.5246 6.65596 50.9348 7.00745 50.9629 7.56716H49.4012ZM50.4328 7.43492C50.438 7.03044 50.2504 6.78835 49.9313 6.78835C49.6122 6.78835 49.4125 7.03805 49.4073 7.43492H50.4328ZM32.4807 11.5566C32.4807 11.7569 32.4978 11.8252 32.5664 11.8703C32.6231 11.9045 32.7373 11.927 32.8678 11.927H32.9996V12.0481H31.4386V11.927H31.569C31.7003 11.927 31.8137 11.9045 31.8717 11.8703C31.9394 11.8252 31.957 11.7569 31.957 11.5566V9.64672H31.8371C31.5011 9.64672 31.2274 9.76762 31.0965 9.97568C31.0223 10.0891 30.9881 10.2027 30.9595 10.4069L30.7945 10.3993L30.823 9.52553H33.6324L33.6549 10.3993L33.4844 10.4069C33.376 9.85463 33.1194 9.64672 32.5669 9.64672H32.4812L32.4807 11.5566ZM34.4513 11.1672C34.4564 11.7191 34.6508 11.9536 35.1005 11.9536C35.4084 11.9536 35.6079 11.844 35.8074 11.5643L35.9783 11.6245C35.7332 11.9536 35.4368 12.1011 35.0097 12.1011C34.3487 12.1011 33.9207 11.7378 33.9207 11.1672C33.9207 10.6375 34.3539 10.2558 34.9521 10.2558C35.5733 10.2558 35.9835 10.6073 36.0125 11.1672H34.4513ZM35.4826 11.0346C35.4878 10.63 35.2996 10.3878 34.9807 10.3878C34.6618 10.3878 34.4623 10.6375 34.4567 11.0346H35.4826ZM37.1514 11.6243C37.1514 11.8778 37.2029 11.9309 37.4422 11.9309H37.5335V12.0479H36.2909V11.9309H36.3822C36.6211 11.9309 36.6726 11.8779 36.6726 11.6243V9.94553C36.6726 9.69598 36.6211 9.64314 36.3822 9.64314H36.3199V9.52568L37.1514 9.49911V11.6243ZM38.3307 11.1672C38.3363 11.7191 38.5302 11.9536 38.98 11.9536C39.2879 11.9536 39.4878 11.844 39.6873 11.5643L39.8582 11.6245C39.6131 11.9536 39.3167 12.1011 38.8891 12.1011C38.2282 12.1011 37.8011 11.7378 37.8011 11.1672C37.8011 10.6375 38.2342 10.2558 38.832 10.2558C39.4532 10.2558 39.8638 10.6073 39.892 11.1672H38.3307ZM39.3621 11.0346C39.3677 10.63 39.1797 10.3878 38.8606 10.3878C38.5417 10.3878 38.3417 10.6375 38.3366 11.0346H39.3621ZM42.0797 12.0479L41.2593 11.1706L41.0313 11.3031V11.6243C41.0313 11.8778 41.0823 11.9309 41.3216 11.9309H41.43V12.0479H40.1706V11.9309H40.2619C40.5012 11.9309 40.5523 11.8743 40.5523 11.6243V9.94553C40.5523 9.69598 40.5012 9.64314 40.2619 9.64314H40.1992V9.52568L41.0311 9.49911V11.1215L41.8006 10.683C41.903 10.6225 41.9657 10.5581 41.9657 10.509C41.9657 10.4522 41.8915 10.4257 41.7201 10.4257H41.6349V10.3085H42.7576V10.4257H42.7005C42.5354 10.4257 42.4612 10.4522 42.2273 10.5921L41.6009 10.9627L42.2896 11.6927C42.4609 11.8743 42.5693 11.9309 42.7517 11.9309H42.7969V12.0479H42.0797ZM45.35 11.1782C45.35 11.7303 44.8882 12.1011 44.1929 12.1011C43.5038 12.1011 43.0421 11.7305 43.0421 11.1823C43.0421 10.6187 43.5038 10.2558 44.21 10.2558C44.8882 10.2557 45.35 10.63 45.35 11.1782ZM43.7255 10.6033C43.6347 10.7394 43.5946 10.9173 43.5946 11.1706C43.5946 11.7152 43.7883 11.98 44.1929 11.98C44.5975 11.98 44.7969 11.7154 44.7969 11.1782C44.7969 10.9175 44.7569 10.7358 44.666 10.6033C44.5689 10.4597 44.3923 10.3763 44.1877 10.3763C43.9992 10.3764 43.8164 10.4673 43.7255 10.6033ZM48.7281 10.9855C48.7281 10.7434 48.7052 10.6185 48.6544 10.5505C48.5916 10.4749 48.4893 10.4334 48.3636 10.4334C48.2041 10.4334 48.0613 10.5014 47.9648 10.6225C47.8677 10.7436 47.845 10.8379 47.845 11.152V11.6245C47.845 11.8779 47.8965 11.9311 48.1353 11.9311H48.2156V12.0481H47.3661V11.0424C47.3661 10.7211 47.3547 10.6452 47.2865 10.5582C47.2242 10.4787 47.1215 10.4336 46.9901 10.4336C46.8302 10.4336 46.6883 10.5015 46.597 10.6227C46.5057 10.7473 46.4832 10.8569 46.4832 11.1521V11.6246C46.4832 11.8821 46.5289 11.9312 46.7735 11.9312H46.8534V12.0482H45.6225V11.9312H45.7134C45.9471 11.9312 46.0042 11.8706 46.0042 11.6246V10.7287C46.0042 10.4866 45.9471 10.426 45.7134 10.426H45.6511V10.3088L46.4483 10.2822V10.5924C46.5567 10.3996 46.8248 10.2711 47.1156 10.2711C47.435 10.2711 47.6396 10.3767 47.7824 10.6154C47.9471 10.3808 48.1755 10.2711 48.4893 10.2711C48.734 10.2711 48.9505 10.3464 49.0643 10.4714C49.1727 10.5812 49.2071 10.7061 49.2071 10.9443V11.6248C49.2071 11.8748 49.2586 11.9314 49.4979 11.9314H49.5598V12.0484H48.7283L48.7281 10.9855Z" fill="#777777"/>
</g>
<defs>
<clipPath id="clip0_3_54">
<rect width="44.4" height="14.8" fill="white" transform="translate(8.3999 1.99951)"/>
</clipPath>
</defs>
</svg>
