<svg width="60" height="20" viewBox="0 0 60 20" fill="none" xmlns="http://www.w3.org/2000/svg">
<rect width="60" height="20" fill="#F1F1F1"/>
<path d="M17.0733 10.6099C16.8852 10.7257 16.7691 10.7938 16.5423 10.9164C16.1274 11.1003 15.8232 11.1752 15.4084 11.1752C14.5566 11.1752 13.9924 10.8483 13.8762 10.2625C13.8209 9.95601 13.8375 9.72442 13.9924 9.09096L14.3906 7.47666H13.5222L13.6937 6.79552L17.3443 3.84619L16.7746 6.04627H18.1574L17.8366 7.4971H16.4206L16.1551 8.5733C16.0611 8.9956 15.9836 9.48602 16.5146 9.50646C16.758 9.52689 17.1175 9.48602 17.4218 9.17951C17.4162 9.18632 17.0733 10.6099 17.0733 10.6099ZM23.7882 8.36214C24.1644 6.89088 23.6002 5.57628 21.5923 5.57628C19.5845 5.57628 18.3399 6.88407 17.9638 8.36214C17.5656 9.8334 18.1353 11.148 20.1376 11.148C22.1399 11.148 23.39 9.84021 23.7882 8.36214ZM21.7417 8.36214C21.5923 8.92068 21.2328 9.69718 20.5137 9.66993C19.7394 9.66993 19.8334 8.92068 19.9827 8.36214C20.1321 7.80361 20.4363 7.05436 21.1941 7.05436C21.9906 7.05436 21.8966 7.80361 21.7417 8.36214ZM29.7454 11.0322H31.6537L32.3728 8.15099C32.5055 7.59246 32.771 7.19058 33.2633 7.19058C33.8496 7.19058 33.7722 7.63332 33.6616 8.15099L32.9425 11.0322H34.8729L35.592 8.15099C35.7247 7.59246 35.9902 7.19058 36.4825 7.19058C37.0688 7.19058 36.9914 7.63332 36.8808 8.15099L36.1617 11.0322H38.0921L38.9992 7.3813C39.2094 6.51626 39.0158 5.57628 37.716 5.57628C36.4659 5.57628 35.8796 6.34597 35.7856 6.4209C35.6915 5.8828 35.1827 5.57628 34.6295 5.57628C33.9326 5.57628 33.3076 5.80787 32.7766 6.4209H32.7489L32.9204 5.71932H31.0674L29.7454 11.0322ZM29.9888 8.36214C30.3649 6.89088 29.8173 5.57628 27.815 5.57628C25.8127 5.57628 24.5626 6.88407 24.1644 8.36214C23.7661 9.8334 24.3358 11.148 26.3382 11.148C28.346 11.148 29.5905 9.84021 29.9888 8.36214ZM27.9478 8.36214C27.7984 8.92068 27.4942 9.66993 26.7198 9.66993C25.9454 9.66993 26.0395 8.92068 26.1888 8.36214C26.3382 7.80361 26.6424 7.05436 27.4002 7.05436C28.1911 7.05436 28.0971 7.80361 27.9478 8.36214Z" fill="#777777"/>
<path d="M43.9054 4.06421L42.1409 11.1276H39.3864L40.6973 5.88285L43.9054 4.06421Z" fill="#777777"/>
<path d="M44.3256 4.06421L46.6874 5.88285L45.3433 11.1276H42.5168L44.3256 4.06421Z" fill="#777777"/>
<path d="M13.9702 14.7921H13.5L14.1029 12.3945H14.7777C15.1538 12.3945 15.3032 12.5784 15.1704 13.0552C15.1151 13.3072 15.0211 13.4911 14.7943 13.6001C14.9049 13.6478 14.9824 13.7363 14.9437 13.9202C14.9049 14.1041 14.8109 14.5128 14.7943 14.6763C14.7943 14.6967 14.7943 14.7444 14.8109 14.7648V14.7853H14.302V14.649C14.3573 14.4243 14.4127 14.2403 14.4348 14.0769C14.4514 13.9406 14.4514 13.8249 14.3408 13.8249H14.1914C14.1969 13.8385 13.9702 14.7921 13.9702 14.7921ZM14.3076 13.4025H14.4569C14.5897 13.4025 14.6616 13.2459 14.7003 13.1028C14.7777 12.8304 14.6837 12.8031 14.4569 12.8031C14.4569 12.81 14.3076 13.4025 14.3076 13.4025ZM15.5853 13.9747L15.5078 14.2948C15.4913 14.3834 15.5078 14.4787 15.5853 14.4787C15.7346 14.4787 15.7568 14.3221 15.8121 14.1586H16.2269C16.1329 14.615 15.8674 14.8193 15.5134 14.8466C15.2147 14.8466 14.9879 14.7103 15.0819 14.3016L15.27 13.5728C15.3806 13.1165 15.6627 12.9598 15.9835 12.9598C16.2822 12.9598 16.509 13.096 16.415 13.4843L16.2822 13.9883C16.2822 13.9747 15.5853 13.9747 15.5853 13.9747ZM15.9614 13.6273L16.0001 13.4434C16.0167 13.3753 16.0167 13.2595 15.9061 13.2595C15.7955 13.2595 15.7346 13.3753 15.7014 13.4911L15.6627 13.6069H15.9614V13.6273ZM17.2447 13.5183C17.2613 13.4502 17.2613 13.4025 17.2613 13.3617C17.2613 13.314 17.2225 13.2936 17.1672 13.2936C17.0898 13.2936 17.0179 13.3412 16.9958 13.4502C16.9792 13.5388 17.0345 13.5865 17.0732 13.6341C17.3 13.7908 17.5821 13.8589 17.4659 14.2948C17.3719 14.6831 17.0732 14.867 16.769 14.867C16.4316 14.867 16.2435 14.6831 16.3763 14.2744H16.769C16.7524 14.3425 16.7524 14.4106 16.7524 14.4583C16.7524 14.506 16.7911 14.5469 16.8464 14.5469C16.9404 14.5469 17.0179 14.4992 17.0345 14.3902C17.0511 14.3425 17.0345 14.2744 17.0179 14.254C16.8685 14.1382 16.6584 14.0701 16.5643 13.8862C16.5201 13.7772 16.5145 13.6546 16.5477 13.5456C16.6418 13.1573 16.9404 13.0007 17.2225 13.0007C17.5212 13.0007 17.7314 13.1846 17.6153 13.5728H17.2391C17.2447 13.5592 17.2447 13.5183 17.2447 13.5183ZM18.3122 12.9939L18.2569 13.2186C18.3896 13.0347 18.5224 12.9666 18.6717 12.9462C18.9538 12.9462 18.9538 13.2868 18.8764 13.5592L18.727 14.1722C18.6496 14.4719 18.5003 14.8329 18.2016 14.8329C18.1241 14.8329 18.0135 14.7853 17.9582 14.6082L17.7701 15.3847H17.3553L17.9582 12.987C17.9582 12.9939 18.3122 12.9939 18.3122 12.9939ZM18.445 13.6546C18.4615 13.5388 18.5224 13.3549 18.4062 13.3549C18.2956 13.3549 18.2348 13.4911 18.2016 13.675L18.091 14.0837C18.0522 14.2403 18.0356 14.4243 18.1297 14.4038C18.2624 14.4038 18.3011 14.1995 18.3343 14.0837L18.445 13.6546ZM19.424 13.9747L19.3465 14.2948C19.33 14.3834 19.33 14.4787 19.424 14.4787C19.5733 14.4787 19.5955 14.3221 19.6508 14.1586H20.0656C19.9716 14.615 19.7061 14.8193 19.3521 14.8466C19.0534 14.8466 18.8266 14.7103 18.9206 14.3016L19.1087 13.5728C19.2193 13.1165 19.5014 12.9598 19.8222 12.9598C20.1209 12.9598 20.3477 13.096 20.2537 13.4843L20.1209 13.9883C20.1209 13.9747 19.424 13.9747 19.424 13.9747ZM19.8001 13.6273L19.8388 13.4434C19.8554 13.3753 19.8554 13.2595 19.7448 13.2595C19.6342 13.2595 19.5733 13.3753 19.5401 13.4911L19.5014 13.6069H19.8001V13.6273ZM20.1375 14.7921L20.7404 12.3945H21.1553L20.8566 13.6069L21.288 13.0143H21.7416L21.1331 13.7227L21.2825 14.7921H20.8511L20.7736 14.1041L20.6796 14.2199L20.5302 14.7921C20.5358 14.7921 20.1375 14.7921 20.1375 14.7921ZM21.7582 13.3549L21.8522 12.987H22.0182L22.1509 12.483H22.5657L22.433 12.987H22.6377L22.527 13.3549H22.339L22.0956 14.2948C22.079 14.3834 22.0956 14.4106 22.1509 14.4106H22.2615L22.1675 14.7784C22.0735 14.7989 21.9794 14.7989 21.8854 14.7989C21.6586 14.7989 21.5646 14.6627 21.642 14.3902L21.9075 13.3617C21.9075 13.3549 21.7582 13.3549 21.7582 13.3549ZM22.3777 15.0918C22.4551 15.0918 22.5104 15.0441 22.5657 15.0032C22.6211 14.9555 22.6598 14.867 22.6985 14.7716H22.4551L22.5879 14.2267H23.0414L22.9087 14.7989C22.8312 15.1394 22.61 15.2757 22.3445 15.3029C22.339 15.2961 22.3777 15.0918 22.3777 15.0918ZM25.1765 14.1586L25.5913 12.9939H25.9841L25.2539 14.7716H24.8004L24.911 13.8385L24.557 14.7716H24.1034L24.2749 12.9939H24.6898L24.5183 14.1586L24.9718 12.9939H25.3314L25.1765 14.1586ZM26.2883 13.9747L26.2109 14.2948C26.1943 14.3834 26.2109 14.4787 26.2883 14.4787C26.4376 14.4787 26.4598 14.3221 26.5151 14.1586H26.9299C26.8359 14.615 26.5704 14.8193 26.2164 14.8466C25.9177 14.8466 25.6909 14.7103 25.7849 14.3016L25.973 13.5728C26.0836 13.1165 26.3657 12.9598 26.6865 12.9598C26.9852 12.9598 27.212 13.096 27.118 13.4843L26.9852 13.9883C26.9852 13.9747 26.2883 13.9747 26.2883 13.9747ZM26.6644 13.6273L26.7031 13.4434C26.7197 13.3753 26.7197 13.2595 26.6091 13.2595C26.4985 13.2595 26.4376 13.3753 26.4044 13.4911L26.3657 13.6069H26.6644V13.6273ZM27.8481 12.9939L27.7928 13.2663C27.8868 13.0824 28.0196 12.9462 28.1855 12.9462L28.0362 13.5183C27.9974 13.5183 27.9587 13.4979 27.9034 13.4979C27.7928 13.4979 27.7319 13.5183 27.6766 13.6818L27.3945 14.7784H26.9797L27.4333 13.0007H27.8481C27.8481 12.9939 27.8481 12.9939 27.8481 12.9939ZM28.3404 13.1982C28.4897 13.1982 28.6059 13.062 28.6391 12.8985H28.4123L28.545 12.3945H28.9599L28.8271 12.9189C28.7497 13.2391 28.545 13.3753 28.2795 13.3957L28.3404 13.1982ZM29.43 13.5183C29.4466 13.4502 29.4466 13.4025 29.4466 13.3617C29.4466 13.314 29.4079 13.2936 29.3526 13.2936C29.2752 13.2936 29.2033 13.3412 29.1811 13.4502C29.1645 13.5388 29.2199 13.5865 29.2586 13.6341C29.4854 13.7908 29.7675 13.8589 29.6513 14.2948C29.5573 14.6831 29.2586 14.867 28.9544 14.867C28.617 14.867 28.4289 14.6831 28.5616 14.2744H28.9544C28.9378 14.3425 28.9378 14.4106 28.9378 14.4583C28.9378 14.506 28.9765 14.5469 29.0318 14.5469C29.1258 14.5469 29.2033 14.4992 29.2199 14.3902C29.2365 14.3425 29.2199 14.2744 29.2033 14.254C29.0539 14.1382 28.8437 14.0701 28.7497 13.8862C28.7055 13.7772 28.6999 13.6546 28.7331 13.5456C28.8271 13.1573 29.1258 13.0007 29.4079 13.0007C29.7066 13.0007 29.9168 13.1846 29.8006 13.5728H29.43C29.43 13.5592 29.43 13.5183 29.43 13.5183ZM31.2886 13.5183C31.3051 13.4502 31.3051 13.4025 31.3051 13.3617C31.3051 13.314 31.2664 13.2936 31.2111 13.2936C31.1337 13.2936 31.0618 13.3412 31.0396 13.4502C31.0231 13.5388 31.0784 13.5865 31.1171 13.6341C31.3439 13.7908 31.626 13.8589 31.5098 14.2948C31.4158 14.6831 31.1171 14.867 30.8129 14.867C30.4755 14.867 30.2874 14.6831 30.4201 14.2744H30.7963C30.7797 14.3425 30.7797 14.4106 30.7797 14.4583C30.7797 14.506 30.8184 14.5469 30.8737 14.5469C30.9677 14.5469 31.0452 14.4992 31.0618 14.3902C31.0784 14.3425 31.0618 14.2744 31.0452 14.254C30.8958 14.1382 30.6856 14.0701 30.5916 13.8862C30.5474 13.7772 30.5418 13.6546 30.575 13.5456C30.6691 13.1573 30.9677 13.0007 31.2498 13.0007C31.5485 13.0007 31.7587 13.1846 31.6426 13.5728H31.283C31.2886 13.5592 31.2886 13.5183 31.2886 13.5183ZM32.1348 13.9747L32.0574 14.2948C32.0408 14.3834 32.0574 14.4787 32.1348 14.4787C32.2842 14.4787 32.3063 14.3221 32.3616 14.1586H32.7765C32.6824 14.615 32.4169 14.8193 32.0629 14.8466C31.7642 14.8466 31.5375 14.7103 31.6315 14.3016L31.8196 13.5728C31.9302 13.1165 32.2123 12.9598 32.5331 12.9598C32.8318 12.9598 33.0586 13.096 32.9645 13.4843L32.8318 13.9883C32.8318 13.9747 32.1348 13.9747 32.1348 13.9747ZM32.511 13.6273L32.5497 13.4434C32.5663 13.3753 32.5663 13.2595 32.4557 13.2595C32.345 13.2595 32.2842 13.3753 32.251 13.4911L32.2123 13.6069H32.511C32.511 13.6069 32.511 13.6273 32.511 13.6273ZM32.9092 14.7921L33.5121 12.3945H33.927L33.3241 14.7921H32.9092ZM34.4524 13.1505C34.5631 12.9939 34.6958 12.9462 34.8286 12.9462C35.1107 12.9462 35.1107 13.2868 35.0332 13.5592L34.8839 14.1722C34.8064 14.4719 34.6571 14.8329 34.3584 14.8329C34.2257 14.8329 34.115 14.7444 34.0929 14.5809L34.0376 14.7853H33.6227L34.2257 12.3876H34.6405C34.6405 12.4013 34.4524 13.1505 34.4524 13.1505ZM34.5797 13.6546C34.5963 13.5388 34.6571 13.3549 34.5409 13.3549C34.4303 13.3549 34.3695 13.4911 34.3363 13.675L34.2257 14.0837C34.1869 14.2403 34.1703 14.4243 34.2644 14.4038C34.3971 14.4038 34.4358 14.1995 34.469 14.0837C34.469 14.0837 34.5797 13.6546 34.5797 13.6546ZM35.5421 13.9747L35.4647 14.2948C35.4481 14.3834 35.4647 14.4787 35.5421 14.4787C35.6914 14.4787 35.7136 14.3221 35.7689 14.1586H36.1837C36.0897 14.615 35.8242 14.8193 35.4702 14.8466C35.1715 14.8466 34.9447 14.7103 35.0388 14.3016L35.2268 13.5728C35.3374 13.1165 35.6195 12.9598 35.9403 12.9598C36.239 12.9598 36.4658 13.096 36.3718 13.4843L36.239 13.9883C36.239 13.9747 35.5421 13.9747 35.5421 13.9747ZM35.9182 13.6273L35.9569 13.4434C35.9735 13.3753 35.9735 13.2595 35.8629 13.2595C35.7523 13.2595 35.6914 13.3753 35.6583 13.4911L35.6195 13.6069H35.9182V13.6273ZM37.1019 12.9939L37.0245 13.2663C37.1185 13.0824 37.2513 12.9462 37.4172 12.9462L37.2679 13.5183C37.2291 13.5183 37.1904 13.4979 37.1351 13.4979C37.0245 13.4979 36.9636 13.5183 36.9083 13.6818L36.6262 14.7784H36.2501L36.7037 13.0007L37.1019 12.9939ZM38.6451 12.9939L38.5898 13.1982C38.7005 13.0415 38.8553 12.9462 38.966 12.9462C39.0987 12.9462 39.2093 13.0347 39.2093 13.1778C39.32 13.0211 39.4527 12.953 39.5689 12.953C39.7569 12.953 39.9063 13.0892 39.851 13.3208L39.4748 14.7784H39.06L39.3808 13.4979C39.3974 13.4094 39.3808 13.3412 39.3034 13.3617C39.2259 13.3617 39.1706 13.4094 39.154 13.4979L38.8332 14.7716H38.4184L38.7392 13.4911C38.7392 13.423 38.7392 13.3549 38.6839 13.3549C38.6064 13.3549 38.5511 13.4025 38.5124 13.4911L38.1916 14.7716H37.7767L38.2303 12.9939H38.6451ZM40.4705 14.6354C40.3211 14.7716 40.2271 14.8602 40.0556 14.8602C39.8122 14.8602 39.7182 14.6558 39.7901 14.3834C39.8841 13.9747 40.1109 13.8589 40.299 13.7704C40.5036 13.7022 40.6917 13.6818 40.7304 13.4707C40.747 13.3821 40.7304 13.2868 40.6364 13.2868C40.4871 13.2868 40.4483 13.423 40.4096 13.5592H40.0169C40.0722 13.3344 40.1662 13.171 40.2824 13.0824C40.4151 12.9939 40.5645 12.9462 40.736 12.9462C41.1508 12.9462 41.2614 13.1028 41.1674 13.4911L40.8853 14.5877C40.8687 14.6558 40.8687 14.724 40.8687 14.7921H40.4539L40.4705 14.6354ZM40.6364 13.927C40.5424 13.9747 40.4483 14.0156 40.393 14.0632C40.3377 14.1109 40.2603 14.179 40.2437 14.288C40.205 14.4038 40.2437 14.4719 40.3543 14.4719C40.4871 14.4719 40.5424 14.3153 40.5811 14.1995L40.6364 13.927ZM42.0469 13.6546V13.6341C42.0469 13.566 42.0856 13.4979 42.0856 13.4298C42.0856 13.3617 42.069 13.314 41.9916 13.314C41.8809 13.314 41.8422 13.4025 41.8035 13.5388L41.6154 14.2676C41.5988 14.3834 41.5988 14.4719 41.6929 14.4719C41.8422 14.4719 41.8975 14.1995 41.9196 14.0632H42.3345C42.3179 14.179 42.2405 14.3834 42.2017 14.4992C42.0911 14.724 41.9031 14.8193 41.715 14.8397H41.5656C41.267 14.8397 41.0789 14.7035 41.1895 14.2948L41.3776 13.566C41.4882 13.1097 41.715 12.953 42.0524 12.953C42.4672 12.953 42.5779 13.1846 42.4285 13.6614H42.0469V13.6546ZM43.2306 13.1301C43.3633 12.9734 43.4739 12.9462 43.6067 12.9462C43.8113 12.9462 43.9054 13.1301 43.8335 13.3549L43.4739 14.7921H43.0591L43.3799 13.5115C43.3965 13.423 43.3965 13.3549 43.3025 13.3549C43.2084 13.3549 43.1531 13.4434 43.131 13.5388L42.8323 14.7716H42.4175L43.0204 12.374H43.4352L43.2306 13.1301ZM44.0049 13.3549L44.099 12.987H44.2704L44.4032 12.483H44.818L44.6853 12.987H44.8899L44.7959 13.3549H44.5857L44.3423 14.288C44.3257 14.3766 44.3423 14.4038 44.3977 14.4038H44.5083L44.4198 14.7716C44.3257 14.7921 44.2317 14.7921 44.1377 14.7921C43.9109 14.7921 43.8169 14.6558 43.8943 14.3834L44.1598 13.3549C44.1543 13.3549 44.0049 13.3549 44.0049 13.3549ZM44.7185 14.7921L44.8512 14.2472H45.3048L45.172 14.7921H44.7185Z" fill="#777777"/>
</svg>
