<svg width="1150" height="1150" viewBox="0 0 1150 1150" fill="none" xmlns="http://www.w3.org/2000/svg">
<rect width="1150" height="1150" rx="200" fill="#F1F1F1"/>
<path opacity="0.07" d="M891.2 318.969C891.2 323.469 891.1 327.969 890.8 332.169C933.8 364.869 966.9 434.969 966.9 496.669C966.9 563.869 927.6 595.569 879.1 567.569C879 567.469 878.9 567.469 878.8 567.369L574.1 391.669C574 391.569 573.9 391.569 573.7 391.469C519.2 359.969 475 273.269 475 197.769C475 127.069 513.8 91.1686 563.5 112.869C569.6 64.3686 602.1 43.4686 641.3 66.1686C660.1 77.0686 677.4 96.1686 690.9 119.169C710.5 90.0686 743.9 82.6686 781.7 104.469C842.2 139.269 891.2 235.369 891.2 318.969Z" fill="url(#paint0_linear_1_67)"/>
<path opacity="0.4" d="M804.2 356.969C804.2 361.469 804.1 365.969 803.8 370.169C846.8 402.869 879.9 472.969 879.9 534.669C879.9 601.869 840.6 633.569 792.1 605.569C792 605.469 791.9 605.469 791.8 605.369L487.1 429.669C487 429.569 486.9 429.569 486.7 429.469C432.2 397.969 388 311.269 388 235.769C388 165.069 426.8 129.169 476.5 150.869C482.6 102.369 515.1 81.4686 554.3 104.169C573.1 115.069 590.4 134.169 603.9 157.169C623.5 128.069 656.9 120.669 694.7 142.469C755.2 177.269 804.2 273.369 804.2 356.969Z" fill="url(#paint1_linear_1_67)"/>
<path opacity="0.2" d="M381.8 643.6L335.4 616.8V601.1L381.8 627.9C385.6 630.1 391.1 634.5 395.8 641.3C400.9 648.6 404.5 657.8 404.5 667.8C404.5 678.8 401.7 685.1 396.3 686.9C391.3 688.6 385.4 685.7 381.7 683.6L362.6 672.6L362.5 672.5C360.9 671.5 358.3 670.6 356.2 671.2C354.5 671.7 352.6 673.4 352.6 679.5C352.6 685.6 354.5 689.4 356.1 691.6C358.1 694.4 360.7 696.4 362.3 697.2L362.5 697.3L420.8 731V746.7L362.8 713.2C358.8 711.1 353.1 706.7 348.1 699.7C342.7 692.1 338.9 682.4 339 671.6C339 660.9 342.7 655.4 348.1 653.9C353.1 652.5 358.8 654.5 362.8 657L381.7 667.9C384.4 669.5 386.5 670.2 387.8 669.7C388.8 669.4 390.8 667.9 390.8 659.9C390.8 654.8 389.1 651.4 387.6 649.1C385.8 646.5 383.3 644.5 381.8 643.6Z" fill="#FF0000"/>
<path d="M345.4 612.9C345.4 625.8 337.8 631.9 328.5 626.6C319.2 621.2 311.6 606.4 311.6 593.4C311.6 580.5 319.2 574.4 328.5 579.7C337.8 585.1 345.4 600 345.4 612.9Z" fill="#CE111E"/>
<path d="M444.4 751.9C444.4 764.8 436.8 770.9 427.5 765.6C418.2 760.2 410.6 745.4 410.6 732.4C410.6 719.5 418.2 713.4 427.5 718.7C436.8 724.1 444.4 739 444.4 751.9Z" fill="#CE111E"/>
<path opacity="0.07" d="M524.3 419.7L824.2 592.8V751.5L524.2 578.4L524.3 419.7Z" fill="url(#paint2_linear_1_67)"/>
<path opacity="0.3" d="M484.2 439.7L784.1 612.8V771.5L484.2 598.4V439.7Z" fill="url(#paint3_linear_1_67)"/>
<path d="M511.1 534.2C511.1 547 518.7 561.7 528 567.1C537.3 572.5 544.9 566.5 544.9 553.7C544.9 540.9 537.3 526.2 528 520.8C518.7 515.4 511.1 521.4 511.1 534.2Z" fill="#CE111E"/>
<path opacity="0.15" d="M553.4 558.9C553.4 564.8 556.9 571.7 561.3 574.2C565.6 576.7 569.1 573.9 569.1 568C569.1 562.1 565.6 555.2 561.2 552.7C556.9 550.2 553.4 553 553.4 558.9Z" fill="#FF0000"/>
<path opacity="0.15" d="M577.5 572.8C577.5 578.7 581 585.6 585.4 588.1C589.7 590.6 593.2 587.8 593.2 581.9C593.2 576 589.7 569.1 585.3 566.6C581 564.1 577.5 566.9 577.5 572.8Z" fill="#FF0000"/>
<path opacity="0.15" d="M708.4 599.8V690.1L696.6 683.3V593L708.4 599.8Z" fill="#FF0000"/>
<path opacity="0.15" d="M734.2 614.8V705.1L722.4 698.3V608L734.2 614.8Z" fill="#FF0000"/>
<path opacity="0.15" d="M760.1 629.8V720.1L748.3 713.3V623L760.1 629.8Z" fill="#FF0000"/>
<path opacity="0.07" d="M524.2 636.6L824.1 809.7V968.4L524.2 795.3V636.6Z" fill="url(#paint4_linear_1_67)"/>
<path opacity="0.3" d="M484.2 657.6L784.1 830.7V989.4L484.2 816.3V657.6Z" fill="url(#paint5_linear_1_67)"/>
<path d="M511.1 752.1C511.1 764.9 518.7 779.6 528 785C537.3 790.4 544.9 784.4 544.9 771.6C544.9 758.8 537.3 744.1 528 738.7C518.7 733.3 511.1 739.3 511.1 752.1Z" fill="#CE111E"/>
<path opacity="0.15" d="M553.4 776.9C553.4 782.8 556.9 789.7 561.3 792.2C565.6 794.7 569.1 791.9 569.1 786C569.1 780.1 565.6 773.2 561.2 770.7C556.9 768.2 553.4 770.9 553.4 776.9Z" fill="#FF0000"/>
<path opacity="0.15" d="M577.4 790.8C577.4 796.7 580.9 803.6 585.3 806.1C589.6 808.6 593.1 805.8 593.1 799.9C593.1 794 589.6 787.1 585.2 784.6C580.9 782 577.4 784.8 577.4 790.8Z" fill="#FF0000"/>
<path opacity="0.15" d="M708.4 820.8V911.1L696.6 904.3V814L708.4 820.8Z" fill="#FF0000"/>
<path opacity="0.15" d="M734.2 835.8V926.1L722.4 919.3V829L734.2 835.8Z" fill="#FF0000"/>
<path opacity="0.15" d="M760.1 850.8V941.1L748.3 934.3V844L760.1 850.8Z" fill="#FF0000"/>
<path opacity="0.3" d="M217.9 204.6L404.8 312.5V658.8L217.9 550.8V204.6Z" fill="url(#paint6_linear_1_67)"/>
<path d="M333.3 330C333.3 347.3 323.3 355.5 311 348.3C298.7 341.1 288.7 321.3 288.7 304C288.7 286.7 298.7 278.5 311 285.7C323.3 292.9 333.3 312.7 333.3 330Z" fill="#CE111E"/>
<path d="M311 362.2C291.1 350.6 274.7 361.5 271.8 386.5C271.3 390.8 274.6 396.6 278.6 398.9L343.5 436.8C347.5 439.1 350.8 437.3 350.3 432.3C347.3 403.8 330.8 373.8 311 362.2Z" fill="#CE111E"/>
<path opacity="0.15" d="M255.4 429.2L366.8 493.5V507.1L255.4 442.8V429.2Z" fill="#FF0000"/>
<path opacity="0.15" d="M266.7 462.7L355 513.6V527.2L266.7 476.3V462.7Z" fill="#FF0000"/>
<path d="M289.2 519.9L159.2 444.8V483.5L289.2 558.6V519.9Z" fill="#CE111E"/>
<path opacity="0.2" d="M445.1 160.7L472.9 215.3C476.7 222.8 476.1 230.3 471.5 232.1C466.9 233.9 460.1 229.2 456.3 221.7L456 221V281.6C456 288.5 451.2 291.3 445.2 287.9C439.2 284.4 434.4 276.1 434.4 269.2V208.6L434.1 208.9C430.3 212 423.4 208.8 418.9 201.7C414.3 194.6 413.7 186.4 417.5 183.3L445.1 160.7Z" fill="url(#paint7_linear_1_67)"/>
<path opacity="0.2" d="M445.1 966.9L417.3 912.3C413.5 904.8 414.1 897.3 418.7 895.5C423.3 893.7 430.1 898.4 433.9 905.9L434.2 906.6V846C434.2 839.1 439 836.3 445 839.7C451 843.2 455.8 851.5 455.8 858.4V919L456.1 918.7C459.9 915.6 466.8 918.8 471.3 925.9C475.9 933 476.5 941.2 472.7 944.3L445.1 966.9Z" fill="url(#paint8_linear_1_67)"/>
<defs>
<linearGradient id="paint0_linear_1_67" x1="949.011" y1="128.003" x2="639.583" y2="421.502" gradientUnits="userSpaceOnUse">
<stop offset="0.645833" stop-color="#BC1818"/>
<stop offset="1" stop-color="white" stop-opacity="0"/>
</linearGradient>
<linearGradient id="paint1_linear_1_67" x1="862" y1="166.003" x2="552.573" y2="459.502" gradientUnits="userSpaceOnUse">
<stop offset="0.0260417" stop-color="#FF0000"/>
<stop offset="0.28125" stop-color="#D10B0B"/>
</linearGradient>
<linearGradient id="paint2_linear_1_67" x1="668.07" y1="432.39" x2="679.244" y2="713.109" gradientUnits="userSpaceOnUse">
<stop stop-color="#781111"/>
<stop offset="1" stop-color="white" stop-opacity="0"/>
</linearGradient>
<linearGradient id="paint3_linear_1_67" x1="628.067" y1="452.39" x2="639.241" y2="733.109" gradientUnits="userSpaceOnUse">
<stop stop-color="#DB0000"/>
<stop offset="1" stop-color="white" stop-opacity="0"/>
</linearGradient>
<linearGradient id="paint4_linear_1_67" x1="668.048" y1="649.324" x2="679.222" y2="930.042" gradientUnits="userSpaceOnUse">
<stop stop-color="#CE2A2A"/>
<stop offset="1" stop-color="white" stop-opacity="0"/>
</linearGradient>
<linearGradient id="paint5_linear_1_67" x1="628.046" y1="670.324" x2="639.22" y2="951.042" gradientUnits="userSpaceOnUse">
<stop stop-color="#D91C1C"/>
<stop offset="1" stop-color="white" stop-opacity="0"/>
</linearGradient>
<linearGradient id="paint6_linear_1_67" x1="424.831" y1="235.035" x2="258.92" y2="522.475" gradientUnits="userSpaceOnUse">
<stop stop-color="#BD1414"/>
<stop offset="1" stop-color="white" stop-opacity="0"/>
</linearGradient>
<linearGradient id="paint7_linear_1_67" x1="464.883" y1="215.776" x2="414.162" y2="244.05" gradientUnits="userSpaceOnUse">
<stop stop-color="#BF1C1C"/>
<stop offset="1" stop-color="white" stop-opacity="0"/>
</linearGradient>
<linearGradient id="paint8_linear_1_67" x1="425.264" y1="911.861" x2="475.985" y2="883.587" gradientUnits="userSpaceOnUse">
<stop stop-color="#B72323"/>
<stop offset="1" stop-color="white" stop-opacity="0"/>
</linearGradient>
</defs>
</svg>
