<svg width="151" height="152" viewBox="0 0 151 152" fill="none" xmlns="http://www.w3.org/2000/svg">
<g clip-path="url(#clip0_1_20)">
<path fill-rule="evenodd" clip-rule="evenodd" d="M150.5 102C150.5 102.3 150.3 102.6 150.1 102.7C149.8 102.8 124.4 117.6 124.2 117.8C123.5 118.1 122.7 118.1 122 117.8C121.7 117.6 96.3 102.9 96 102.7C95.7 102.6 95.6 102.3 95.5 102.1H95.4V33.7L150.4 33.8L150.5 102Z" fill="white" stroke="#142149" stroke-linecap="round" stroke-linejoin="round"/>
<path fill-rule="evenodd" clip-rule="evenodd" d="M123 17.5C122.6 17.5 122.3 17.6 121.9 17.7C121.6 17.9 96.2 32.6 96 32.8C95.8 32.9 95.6 33.2 95.5 33.4C95.5 33.7 95.7 33.9 96 34C96.3 34.1 121.7 48.9 121.9 49C122.6 49.3 123.4 49.3 124.1 49C124.4 48.8 149.8 34.1 150 34C150.3 33.9 150.4 33.7 150.5 33.4C150.5 33.1 150.3 32.9 150 32.8C149.7 32.7 124.3 17.9 124.1 17.8C123.7 17.6 123.3 17.5 123 17.5Z" fill="white" stroke="#142149" stroke-linecap="round" stroke-linejoin="round"/>
<path fill-rule="evenodd" clip-rule="evenodd" d="M142.5 32.5C142.5 32.7 142.4 32.9 142.2 33C142 33.1 124 43.7 123.8 43.8C123.3 44.1 122.7 44.1 122.3 43.8C122 43.7 104 33.1 103.8 33C103.6 32.9 103.5 32.7 103.5 32.6V19.6L142.6 19.3L142.5 31.5V32.5Z" fill="white" stroke="#142149" stroke-linecap="round" stroke-linejoin="round"/>
<path fill-rule="evenodd" clip-rule="evenodd" d="M123 8C122.7 8 122.5 8.1 122.2 8.2C122 8.3 104 18.7 103.8 18.8C103.6 18.9 103.5 19 103.5 19.2C103.5 19.4 103.6 19.6 103.8 19.6C104 19.7 122 30.1 122.2 30.2C122.7 30.4 123.2 30.4 123.7 30.2C123.9 30.1 141.9 19.7 142.1 19.6C142.3 19.5 142.4 19.4 142.4 19.2C142.4 19 142.3 18.8 142.1 18.8C141.9 18.7 123.9 8.3 123.7 8.2C123.5 8.1 123.2 8 123 8Z" fill="white" stroke="#142149" stroke-linecap="round" stroke-linejoin="round"/>
<path d="M123.5 19.5V5.5" stroke="#142149" stroke-linecap="round" stroke-linejoin="round"/>
<path fill-rule="evenodd" clip-rule="evenodd" d="M55.5 102C55.5 102.3 55.3 102.6 55.1 102.7C54.8 102.8 29.4 117.6 29.2 117.8C28.5 118.1 27.7 118.1 27 117.8C26.7 117.6 1.3 102.9 1 102.7C0.7 102.6 0.6 102.3 0.5 102.1V33.4H55.5V102Z" fill="white" stroke="#142149" stroke-linecap="round" stroke-linejoin="round"/>
<path fill-rule="evenodd" clip-rule="evenodd" d="M28 17.5C27.6 17.5 27.3 17.6 26.9 17.7C26.6 17.9 1.19999 32.7 0.899994 32.8C0.699994 32.9 0.499994 33.2 0.399994 33.4C0.399994 33.7 0.599994 33.9 0.899994 34C1.19999 34.1 26.6 48.9 26.8 49C27.5 49.3 28.3 49.3 29 49C29.3 48.8 54.7 34.1 54.9 34C55.2 33.9 55.3 33.7 55.4 33.4C55.4 33.1 55.2 32.9 54.9 32.8C54.6 32.7 29.2 17.9 29 17.8C28.7 17.6 28.3 17.5 28 17.5Z" fill="white" stroke="#142149" stroke-linecap="round" stroke-linejoin="round"/>
<path fill-rule="evenodd" clip-rule="evenodd" d="M47.5 32.5C47.5 32.7 47.4 32.9 47.2 33C47 33.1 29 43.7 28.8 43.8C28.3 44.1 27.7 44.1 27.3 43.8C27 43.7 9 33.1 8.8 33C8.6 32.9 8.5 32.7 8.5 32.6V19.1L47.6 19.3L47.5 32.5Z" fill="white" stroke="#142149" stroke-linecap="round" stroke-linejoin="round"/>
<path fill-rule="evenodd" clip-rule="evenodd" d="M28 8C27.7 8 27.5 8.1 27.2 8.2C27 8.3 9 18.7 8.8 18.8C8.6 18.9 8.5 19 8.5 19.2C8.5 19.4 8.6 19.6 8.8 19.6C9 19.8 27 30.1 27.2 30.2C27.7 30.4 28.2 30.4 28.7 30.2C28.9 30.1 46.9 19.7 47.1 19.6C47.3 19.5 47.4 19.4 47.4 19.2C47.4 19 47.3 18.8 47.1 18.8C46.9 18.7 28.9 8.3 28.7 8.2C28.5 8.1 28.2 8 28 8Z" fill="white" stroke="#142149" stroke-linecap="round" stroke-linejoin="round"/>
<path d="M28.5 19.5V5.5" stroke="#142149" stroke-linecap="round" stroke-linejoin="round"/>
<path fill-rule="evenodd" clip-rule="evenodd" d="M116 125.5C115.8 126.4 115.1 127.2 114.3 127.6L79.4 147C76.9 148.5 72.4 148.3 69.5 146.6L39.5 130.1C37.7 129.1 36.9 127.7 37.1 126.5V109.4H116V125.5Z" fill="url(#paint0_linear_1_20)"/>
<path fill-rule="evenodd" clip-rule="evenodd" d="M38.7 107.4L73.7 88C76.2 86.5 80.7 86.7 83.6 88.4L113.6 104.8C116.5 106.5 116.8 109 114.3 110.4L79.4 129.8C76.9 131.3 72.4 131.1 69.5 129.4L39.5 113C36.5 111.4 36.2 108.9 38.7 107.4Z" fill="url(#paint1_linear_1_20)"/>
<path fill-rule="evenodd" clip-rule="evenodd" d="M116 102.5C115.8 103.4 115.1 104.2 114.3 104.6L79.4 124C76.9 125.5 72.4 125.3 69.5 123.6L39.4 107.1C37.6 106.1 36.8 104.7 37 103.5V86.4H116V102.5Z" fill="url(#paint2_linear_1_20)"/>
<path fill-rule="evenodd" clip-rule="evenodd" d="M38.7 84.4L73.7 65C76.2 63.5 80.7 63.7 83.6 65.4L113.6 81.8C116.5 83.5 116.8 86 114.3 87.4L79.4 106.8C76.9 108.3 72.4 108.1 69.5 106.4L39.4 90C36.5 88.4 36.2 85.9 38.7 84.4Z" fill="url(#paint3_linear_1_20)"/>
<path fill-rule="evenodd" clip-rule="evenodd" d="M116 79.5C115.8 80.4 115.1 81.2 114.3 81.6L79.4 101C76.9 102.4 72.4 102.3 69.5 100.6L39.4 84.2C37.6 83.2 36.8 81.8 37 80.6V65.3C37 65.1 37 65 37 64.8V64.5C37.2 63.6 37.8 62.9 38.7 62.5L73.6 43C76.1 41.5 80.6 41.7 83.5 43.4L113.6 59.9C115.4 60.9 116.2 62.3 116 63.5V79.5Z" fill="#DC3545"/>
<path d="M14 110C14 110 5.5 115.1 3 117C0.500004 118.9 1.2 122.5 5 125C13.2 130.4 31.5 141.2 35 143C38.5 144.8 42.4 145.3 46 143C48.5 141.4 51.2 140.1 54 139" stroke="#DC3545"/>
<path d="M138.6 110C141.7 111.5 144.6 113.2 147.5 115.1C150 117 149.3 120.7 145.5 123.2C137.4 128.6 119.2 139.6 115.8 141.4C112.4 143.2 108.5 143.7 104.9 141.4C102.4 139.8 99.7 138.4 97 137.4" stroke="#DC3545"/>
<path fill-rule="evenodd" clip-rule="evenodd" d="M70.9 56.5C71 56.4 71.1 56.2 71.2 56.2C71.8 55.9 72.4 55.9 73 56.2L77.5 58.8C77.8 58.9 77.9 59.2 77.8 59.5L74.2 68.8C74.2 68.8 74 69 73.9 69C73.7 69.1 73.5 69.2 73.3 69.2L67.5 70C67.1 70.1 66.7 70 66.3 69.8C66 69.7 65.9 69.4 66 69.1L70.9 56.5ZM79.1 67.4C79 67.7 79.2 68 79.4 68.1C79.8 68.3 80.2 68.3 80.6 68.3L82.6 68L86.4 67.5C86.6 67.5 86.8 67.4 87 67.3C87.1 67.2 87.3 67.1 87.3 66.9L88 65.2C88.1 64.9 87.9 64.6 87.7 64.5L83.1 62C82.5 61.7 81.9 61.7 81.3 62C81.2 62.1 81 62.2 81 62.3L79.1 67.4Z" fill="white"/>
</g>
<defs>
<linearGradient id="paint0_linear_1_20" x1="37.07" y1="128.705" x2="116" y2="128.705" gradientUnits="userSpaceOnUse">
<stop stop-color="#DC3545"/>
<stop offset="1" stop-color="#D7E6FE"/>
</linearGradient>
<linearGradient id="paint1_linear_1_20" x1="55.7479" y1="129.671" x2="97.273" y2="88.1454" gradientUnits="userSpaceOnUse">
<stop stop-color="#DC3545"/>
<stop offset="1" stop-color="#ABCAFF"/>
</linearGradient>
<linearGradient id="paint2_linear_1_20" x1="36.97" y1="105.705" x2="116" y2="105.705" gradientUnits="userSpaceOnUse">
<stop stop-color="#DC3545"/>
<stop offset="1" stop-color="#D7E6FE"/>
</linearGradient>
<linearGradient id="paint3_linear_1_20" x1="55.7223" y1="106.696" x2="97.2729" y2="65.1453" gradientUnits="userSpaceOnUse">
<stop stop-color="#DC3545"/>
<stop offset="1" stop-color="#ABCAFF"/>
</linearGradient>
<clipPath id="clip0_1_20">
<rect width="151" height="152" fill="white"/>
</clipPath>
</defs>
</svg>
