<svg width="52" height="59" viewBox="0 0 52 59" fill="none" xmlns="http://www.w3.org/2000/svg">
<path d="M25.7752 2L2 15.5336V42.6007L13.7047 49.9161L25.7752 56.5L49.5503 42.6007V29.7987V15.5336L25.7752 2Z" stroke="#CE111E" stroke-width="3"/>
<g clip-path="url(#clip0_6_38)">
<path fill-rule="evenodd" clip-rule="evenodd" d="M30.086 42H27.921C26.643 38.995 26.463 36.933 28.103 35C28.656 34.349 29.52 33.521 29.907 33.123C30.859 32.141 32.312 32.06 32.996 32.893V29.589C33.031 28.011 34.156 27 35.453 27C36.863 27 37.908 27.999 37.999 29.486L38 34.328C37.978 35.315 37.871 35.763 37.353 36.732C36.525 38.247 35.521 39.902 35.254 42H33.243C33.55 38.931 35.318 36.42 35.788 35.394C35.968 34.997 35.992 34.802 36.001 34.379V29.567C36.001 28.844 34.995 28.844 34.995 29.568V33.456C34.961 34.242 34.661 34.707 34.145 35.314C33.645 35.901 32.349 37.384 31.785 38C30.968 38.895 29.69 37.78 30.418 36.781C30.571 36.571 31.666 35.419 31.871 35.157C32.31 34.6 31.752 34.15 31.242 34.642C30.518 35.365 29.737 36.203 29.492 36.47C28.208 37.869 29.602 40.853 30.086 42V42ZM24.079 42C25.357 38.995 25.537 36.933 23.897 35C23.344 34.349 22.48 33.521 22.093 33.123C21.141 32.141 19.688 32.06 19.004 32.893V29.589C18.969 28.011 17.844 27 16.547 27C15.137 27 14.092 27.999 14.001 29.486L14 34.328C14.022 35.315 14.129 35.763 14.647 36.732C15.475 38.247 16.479 39.903 16.746 42H18.757C18.45 38.931 16.682 36.42 16.212 35.394C16.032 34.997 16.008 34.802 15.999 34.379V29.567C15.999 28.844 17.005 28.844 17.005 29.568V33.456C17.039 34.242 17.339 34.707 17.855 35.314C18.355 35.901 19.651 37.384 20.215 38C21.032 38.895 22.31 37.78 21.582 36.781C21.429 36.571 20.334 35.419 20.129 35.157C19.69 34.6 20.248 34.15 20.758 34.642C21.482 35.365 22.263 36.203 22.508 36.47C23.792 37.87 22.398 40.853 21.914 42H24.079V42ZM26.289 34H25.693C25.537 34 25.386 33.947 25.283 33.855L24.491 33.333H27.491L26.699 33.855C26.597 33.947 26.446 34 26.289 34ZM27.519 32.667H24.481C24.297 32.667 24.147 32.518 24.147 32.333C24.147 32.149 24.297 32 24.481 32H27.519C27.703 32 27.853 32.149 27.853 32.333C27.853 32.518 27.704 32.666 27.519 32.667ZM25.756 31.352H23.87C23.853 27.926 22 27.515 22 25.156C22 22.896 23.77 21.354 26 21.354H26.026C28.244 21.366 30 22.905 30 25.156C30 27.515 28.145 27.926 28.128 31.352H26.242C26.242 27.705 28 26.533 28 25.151C28 24.01 27.075 23.373 26 23.353H25.975C24.911 23.383 24 24.019 24 25.151C24 26.533 25.756 27.705 25.756 31.352V31.352ZM20.841 26.514C20.957 26.957 21.118 27.355 21.321 27.761L19.85 28.437L19.299 27.223L20.841 26.514V26.514ZM31.159 26.514L32.647 27.201L32.096 28.416L30.677 27.76C30.877 27.36 31.043 26.95 31.159 26.514V26.514ZM33.333 25.333H31.331C31.345 24.887 31.305 24.437 31.208 24H33.333V25.333ZM20.669 25.333H18.667V24H20.791C20.696 24.436 20.656 24.884 20.669 25.33V25.333ZM30.029 21.715L31.685 20.539L32.457 21.627L30.787 22.811C30.593 22.423 30.341 22.057 30.029 21.715V21.715ZM21.971 21.714C21.664 22.049 21.413 22.414 21.212 22.811L19.543 21.627L20.315 20.539L21.971 21.714V21.714ZM27.883 20.319L28.768 18.526L29.963 19.116L29.079 20.909C28.707 20.665 28.305 20.467 27.883 20.319V20.319ZM24.116 20.318C23.695 20.465 23.292 20.662 22.92 20.907L22.036 19.116L23.232 18.526L24.116 20.318ZM26.667 20.041C26.221 19.989 25.794 19.986 25.333 20.039V18H26.667V20.041Z" fill="black"/>
</g>
<defs>
<clipPath id="clip0_6_38">
<rect width="24" height="24" fill="white" transform="translate(14 18)"/>
</clipPath>
</defs>
</svg>
