<svg width="156" height="162" viewBox="0 0 156 162" fill="none" xmlns="http://www.w3.org/2000/svg">
<path fill-rule="evenodd" clip-rule="evenodd" d="M127.806 40.3012L127.906 101.101H127.806C127.306 103.101 126.006 104.801 124.106 105.801L77.5058 133.801C71.9058 137.101 62.0058 136.601 55.5058 132.901L6.40576 104.901C3.10576 103.101 1.10576 99.7012 1.00576 96.0012V37.0012C0.905758 34.8012 2.10576 32.7012 4.80576 31.2012L53.6058 3.20117C59.2058 -0.098824 69.1058 0.401175 75.6058 4.10117L122.506 32.1012C126.606 34.4012 128.406 37.5012 127.806 40.3012Z" fill="white" stroke="#101C4F"/>
<path opacity="0.56" fill-rule="evenodd" clip-rule="evenodd" d="M112.433 45.3935V92.6935H112.333C111.933 94.1935 110.933 95.4935 109.533 96.2935L74.2329 117.594C69.9329 120.094 62.5329 119.794 57.5329 116.894L20.4329 95.4935C17.4329 93.6935 16.4329 91.8935 16.4329 89.4935V43.8935C16.2329 42.1935 17.1329 40.4935 19.3329 39.1935L56.2329 17.8935C60.5329 15.3935 67.9329 15.6935 72.9329 18.5935L108.433 39.8935C111.033 41.3935 112.433 43.2935 112.533 45.1935L112.433 45.3935Z" fill="url(#paint0_linear_3_143)"/>
<path d="M22.9058 116.201L15.5516 129.212C12.5667 134.493 14.9331 141.194 20.5722 143.429L60.7021 159.337C63.6594 160.509 66.998 160.204 69.6942 158.516L118.906 127.701" stroke="#CE111E"/>
<path fill-rule="evenodd" clip-rule="evenodd" d="M126.71 137.396L101.906 132.494C100.616 132.22 100.454 131.244 101.535 130.373L125.419 111.128C126.729 110.21 128.303 109.841 129.681 110.113L154.485 115.015C155.776 115.289 155.938 116.265 154.857 117.136L130.973 136.381C129.608 137.342 128.034 137.711 126.71 137.396Z" fill="#DC3545"/>
<path d="M126.545 129.66L120.406 130.333L123.364 124.201" stroke="white" stroke-width="2" stroke-linecap="round" stroke-linejoin="round"/>
<path d="M134.565 119.363L140.6 118.454L137.832 123.892" stroke="white" stroke-width="2" stroke-linecap="round" stroke-linejoin="round"/>
<rect x="48.4058" y="51.2012" width="32" height="32" fill="url(#paint1_linear_3_143)"/>
<defs>
<linearGradient id="paint0_linear_3_143" x1="16.4259" y1="67.7525" x2="112.437" y2="67.7525" gradientUnits="userSpaceOnUse">
<stop stop-color="#DC3545"/>
<stop offset="1" stop-color="#D7E6FE"/>
</linearGradient>
<linearGradient id="paint1_linear_3_143" x1="64.4058" y1="51.2012" x2="64.4058" y2="83.2012" gradientUnits="userSpaceOnUse">
<stop stop-color="#CE111E" stop-opacity="0.56"/>
<stop offset="0.901042" stop-color="#5A6291" stop-opacity="0.88"/>
</linearGradient>
</defs>
</svg>
