<svg width="69" height="79" viewBox="0 0 69 79" fill="none" xmlns="http://www.w3.org/2000/svg">
<path d="M34.5 2L2 20.5V57.5L18 67.5L34.5 76.5L67 57.5V40V20.5L34.5 2Z" stroke="#CE111E" stroke-width="3"/>
<path fill-rule="evenodd" clip-rule="evenodd" d="M34.5 22C43.6066 22 51 29.3934 51 38.5C51 47.6066 43.6066 55 34.5 55C25.3934 55 18 47.6066 18 38.5C18 29.3934 25.3934 22 34.5 22ZM31.5451 31.4187H29.0976C28.9395 31.4187 28.7896 31.4806 28.6782 31.592C28.5655 31.7047 28.5036 31.8546 28.5036 32.0128C28.5036 32.34 28.7704 32.6081 29.0976 32.6081H30.0367L30.441 33.4895L29.3451 35.651C28.7965 35.4489 28.2176 35.3471 27.625 35.3471C24.8599 35.3471 22.6118 37.5966 22.6118 40.3618C22.6118 43.1255 24.8599 45.375 27.625 45.375C30.1825 45.375 32.3069 43.4816 32.6039 40.9558H34.2759L38.6071 35.2165L38.9261 35.9865C37.3407 36.8761 36.3618 38.5426 36.3618 40.3618C36.3618 43.1255 38.6099 45.375 41.375 45.375C44.1401 45.375 46.3882 43.1255 46.3882 40.3618C46.3882 37.5966 44.1401 35.3471 41.375 35.3471C40.9171 35.3471 40.4634 35.409 40.0275 35.5314L38.3335 31.4187H35.9726C35.6399 31.4187 35.3786 31.6938 35.3786 32.0128C35.3786 32.34 35.6454 32.6081 35.9726 32.6081H37.5305L37.8564 33.3836H31.7115L31.3458 32.6081H31.5451C31.8792 32.6081 32.1391 32.3359 32.1391 32.0128C32.1391 31.6841 31.8737 31.4187 31.5451 31.4187V31.4187ZM27.625 44.187C25.5157 44.187 23.7997 42.471 23.7997 40.3618C23.7997 38.2525 25.5157 36.5351 27.625 36.5351C28.0265 36.5351 28.4239 36.5984 28.8034 36.7208L27.5054 39.2824C26.9595 39.3415 26.5388 39.8049 26.5388 40.3618C26.5388 40.9599 27.0269 41.4466 27.625 41.4466C27.9908 41.4466 28.3331 41.2596 28.5339 40.9558H31.4049C31.1161 42.8065 29.5115 44.187 27.625 44.187V44.187ZM41.375 44.187C39.2657 44.187 37.5498 42.471 37.5498 40.3618C37.5498 39.0294 38.2496 37.7891 39.384 37.0947L40.4799 39.7485C40.3561 39.93 40.2901 40.1404 40.2901 40.3618C40.2901 40.9599 40.7769 41.4466 41.375 41.4466C41.9731 41.4466 42.4599 40.9599 42.4599 40.3618C42.4599 39.8393 42.0859 39.391 41.5785 39.2948L40.484 36.641C40.7727 36.5709 41.0725 36.5351 41.375 36.5351C43.4843 36.5351 45.2002 38.2525 45.2002 40.3618C45.2002 42.471 43.4843 44.187 41.375 44.187V44.187ZM33.3299 39.7664H32.6039C32.432 38.3047 31.6359 37.0109 30.4053 36.19L31.0763 34.8672L33.3299 39.7664V39.7664ZM31.4049 39.7664H28.593L29.8635 37.2584C30.6913 37.8593 31.2467 38.7626 31.4049 39.7664ZM37.6116 34.5716L34.2759 38.9799L32.2436 34.5716H37.6116Z" fill="black"/>
</svg>
