<svg width="69" height="79" viewBox="0 0 69 79" fill="none" xmlns="http://www.w3.org/2000/svg">
<g clip-path="url(#clip0_3_50)">
<path d="M27.5 35.804L25.0772 36.4791L27.225 37.6905L26.5499 38.8881L24.4021 37.6767L25.0772 40.0995L23.7531 40.468L22.7081 36.7225L19.9375 35.1743V37.8404L22.6875 40.5904L21.7154 41.5625L19.9375 39.7846V42.25H18.5625V39.7846L16.7846 41.5625L15.8125 40.5904L18.5625 37.8404V35.1743L15.7919 36.7225L14.7455 40.468L13.4214 40.0995L14.0965 37.6767L11.9487 38.8895L11.2736 37.6919L13.4214 36.4805L11 35.804L11.3699 34.4813L15.1167 35.5262L17.842 34L15.1154 32.4751L11.3699 33.5188L11 32.196L13.4227 31.5209L11.2736 30.3081L11.9487 29.1105L14.0965 30.3219L13.4227 27.8991L14.7469 27.5292L15.7919 31.2761L18.5625 32.8271V30.1596L15.8125 27.4096L16.7846 26.4375L18.5625 28.2154V25.75H19.9375V28.2154L21.7154 26.4375L22.6875 27.4096L19.9375 30.1596V32.8271L22.7095 31.2775L23.7545 27.5306L25.0786 27.9005L24.4021 30.3219L26.5499 29.1105L27.225 30.3081L25.0772 31.5195L27.5 32.196L27.1301 33.5188L23.3832 32.4737L20.658 34L23.3832 35.5249L27.1301 34.4799L27.5 35.804V35.804ZM33 27.8125V38.1594C33 40.3181 32.2933 41.3054 31.0613 42.3518C29.6711 43.5329 28.875 45.2489 28.875 47.0625C28.875 50.4739 31.6511 53.25 35.0625 53.25C38.4739 53.25 41.25 50.4739 41.25 47.0625C41.25 45.2489 40.4539 43.5329 39.0651 42.3518C37.8317 41.304 37.125 40.3167 37.125 38.1594V27.8125C37.125 26.6754 36.1996 25.75 35.0625 25.75C33.9254 25.75 33 26.6754 33 27.8125V27.8125ZM39.875 27.8125V38.1594C39.875 38.9665 40.2297 39.7338 40.8444 40.2563C42.7735 41.8953 44 44.3345 44 47.0625C44 51.9987 40.0001 56 35.0625 56C30.1249 56 26.125 51.9987 26.125 47.0625C26.125 44.3345 27.3515 41.8952 29.2806 40.2576C29.8953 39.7337 30.25 38.9651 30.25 38.1594V27.8125C30.25 25.1532 32.4046 23 35.0625 23C37.7204 23 39.875 25.1532 39.875 27.8125V27.8125ZM39.875 47.0625C39.875 49.7218 37.7204 51.875 35.0625 51.875C32.4046 51.875 30.25 49.7218 30.25 47.0625C30.25 45.4936 31.0736 44.197 32.1654 43.2386C33.5541 42.0162 34.375 40.8503 34.375 38.8098V38.125H35.75V38.8098C35.75 40.853 36.5681 42.0135 37.9596 43.2386C39.0514 44.197 39.875 45.4936 39.875 47.0625Z" fill="#333333"/>
</g>
<path d="M34.5 2L2 20.5V57.5L18 67.5L34.5 76.5L67 57.5V40V20.5L34.5 2Z" stroke="#CE111E" stroke-width="3"/>
<defs>
<clipPath id="clip0_3_50">
<rect width="33" height="33" fill="white" transform="translate(11 23)"/>
</clipPath>
</defs>
</svg>
