<svg width="69" height="79" viewBox="0 0 69 79" fill="none" xmlns="http://www.w3.org/2000/svg">
<path fill-rule="evenodd" clip-rule="evenodd" d="M28.8886 46.8934L22.1937 28.5H19.375C19.0092 28.5 18.66 28.3556 18.4029 28.0971C18.1444 27.84 18 27.4894 18 27.125C18 26.366 18.6146 25.75 19.375 25.75H24.1187L31.6386 46.4094C32.795 46.5482 33.8249 47.0969 34.5797 47.9054L50.0595 42.272L51 44.8556L35.8076 50.3845C35.8516 50.6458 35.875 50.9139 35.875 51.1875C35.875 53.844 33.7176 56 31.0625 56C28.406 56 26.25 53.844 26.25 51.1875C26.25 49.3134 27.3239 47.6881 28.8886 46.8934V46.8934ZM31.0625 49.3835C32.058 49.3835 32.8665 50.192 32.8665 51.1875C32.8665 52.183 32.058 52.9929 31.0625 52.9929C30.0656 52.9929 29.2571 52.183 29.2571 51.1875C29.2571 50.192 30.0656 49.3835 31.0625 49.3835ZM39.0361 32.4847L45.5907 30.0991L49.3528 40.435L33.6695 46.144L29.9075 35.8068L36.4511 33.4252L38.273 38.4289L40.8566 37.4884L39.0361 32.4847V32.4847ZM39.7745 30.7523L29.4372 34.5142L26.6157 26.762L36.953 23L39.7745 30.7523V30.7523Z" fill="#333333"/>
<path d="M34.5 2L2 20.5V57.5L18 67.5L34.5 76.5L67 57.5V40V20.5L34.5 2Z" stroke="#CE111E" stroke-width="3"/>
</svg>
