<svg width="136" height="128" viewBox="0 0 136 128" fill="none" xmlns="http://www.w3.org/2000/svg">
<path d="M18 23L54.6532 2.68616C57.6684 1.01509 61.3317 1.01487 64.3471 2.68556L91.3464 17.6446C94.5267 19.4067 96.5 22.756 96.5 26.3918V33.8197C96.5 35.0315 96.281 36.21 95.8721 37.308L96.0034 38.9161C96.3083 42.6516 94.4989 46.2439 91.3158 48.2226L64.1145 65.1315C61.2368 66.9203 57.6491 67.1303 54.5824 65.6893L23.4304 51.0516C20.116 49.4943 18 46.162 18 42.5V23Z" fill="url(#paint0_linear_3_120)"/>
<path d="M9.1146 38.7162L52.5963 62.6755C54.0934 63.5005 55.9082 63.5034 57.408 62.6834L106.5 35.8417V34V11.5L108.532 10.078C110.302 8.8383 112.669 8.87709 114.399 10.1741L135.5 26V73.2631C135.5 74.9683 134.631 76.556 133.195 77.4749L57.4734 125.918C55.9464 126.895 54.0102 126.968 52.4132 126.111L3.63437 99.9147C2.01211 99.0435 1 97.3512 1 95.5098V41.5L3.35675 39.3789C4.9392 37.9547 7.24995 37.6888 9.1146 38.7162Z" fill="white"/>
<path d="M106.5 11.5L118.675 21.3076C121.449 23.5425 121.063 27.8793 117.937 29.5884L106.5 35.8417M106.5 11.5L108.531 10.078C110.302 8.8383 112.669 8.87709 114.399 10.1741L135.5 26M106.5 11.5V34V35.8417M135.5 26L61.2816 68.2026C59.853 69.015 58.1164 69.0734 56.6363 68.3589L1 41.5M135.5 26V73.2631C135.5 74.9683 134.631 76.556 133.195 77.4749L57.4734 125.918C55.9464 126.895 54.0102 126.968 52.4132 126.111L3.63437 99.9148C2.01211 99.0435 1 97.3512 1 95.5098V41.5M1 41.5L3.35675 39.3789C4.9392 37.9547 7.24995 37.6888 9.1146 38.7162L52.5963 62.6755C54.0934 63.5005 55.9082 63.5034 57.408 62.6834L106.5 35.8417" stroke="#58648E"/>
<rect width="61.6544" height="51.2954" rx="5" transform="matrix(0.859406 -0.511293 0 1 73 70.0128)" fill="#C62424"/>
<path d="M113.004 58.8611L99.4083 63.0345C99.2443 63.0847 99.0242 63.1969 98.8042 63.3358C98.5841 63.4746 98.364 63.6401 98.2 63.7969L84.6042 76.7801C84.2721 77.0962 84 77.633 84 77.9678V96.318C84 96.6527 84.2281 96.9501 84.5041 96.9851L98.296 98.5004C98.436 98.5148 98.6161 98.4544 98.8002 98.3383C98.9842 98.2222 99.1683 98.0528 99.3043 97.8643L113.096 78.9449C113.372 78.5653 113.6 77.9801 113.6 77.6416V59.2914C113.608 58.9516 113.336 58.7619 113.004 58.8611V58.8611ZM110.727 78.7238L98.8042 95.0796L86.8808 93.77V77.5043L98.8042 66.1165L110.727 62.4582V78.7238ZM94.4909 81.3224C94.3709 81.2422 94.1789 81.2683 93.9708 81.3995L91.7622 82.7931C91.5021 82.9572 91.3501 83.3346 91.5021 83.4403L96.5595 86.8681C96.6193 86.9082 96.6976 86.9221 96.788 86.9087C96.8784 86.8953 96.9783 86.855 97.0797 86.7911C97.181 86.7271 97.281 86.6413 97.3714 86.5406C97.4617 86.44 97.54 86.3273 97.5998 86.2117L106.106 69.7105C106.258 69.413 106.106 69.2274 105.846 69.3915L103.638 70.785C103.433 70.9138 103.237 71.1326 103.117 71.3643L97.0797 83.0784L94.4909 81.3224Z" fill="white"/>
<circle r="14.5" transform="matrix(0.896873 0.442289 0 1 26.4531 81.6343)" fill="white" stroke="#CE111E"/>
<circle r="9.19174" transform="matrix(0.896873 0.442289 0 1 25.6923 81.9783)" fill="white" stroke="#CE111E"/>
<path d="M26 55L23.1139 60.0004L28.8874 59.9996L26 55ZM26.5034 80.3179L26.5006 59.4999L25.5006 59.5001L25.5034 80.3181L26.5034 80.3179Z" fill="#CE111E"/>
<path d="M25.7979 81L13 93.6971" stroke="#CE111E"/>
<circle cx="25.5" cy="81.5" r="1.5" fill="#CE111E"/>
<defs>
<linearGradient id="paint0_linear_3_120" x1="57.25" y1="0" x2="57.25" y2="68" gradientUnits="userSpaceOnUse">
<stop stop-color="#C62424"/>
<stop offset="1" stop-color="#AAB4EC"/>
</linearGradient>
</defs>
</svg>
