<svg width="69" height="79" viewBox="0 0 69 79" fill="none" xmlns="http://www.w3.org/2000/svg">
<path fill-rule="evenodd" clip-rule="evenodd" d="M28.296 55H28.2946C27.9289 55 27.625 54.703 27.625 54.3304V53.625C26.107 53.625 24.875 52.393 24.875 50.875V33C24.875 31.482 26.107 30.25 27.625 30.25H30.375V23.375C30.375 22.616 30.991 22 31.75 22H37.25C38.009 22 38.625 22.616 38.625 23.375V30.25H41.375C42.8944 30.25 44.125 31.482 44.125 33V50.875C44.125 52.393 42.8944 53.625 41.375 53.625V54.296C41.375 54.6851 41.0615 55 40.671 55H40.6696C40.3052 55 40 54.7058 40 54.3304V53.625H29V54.296C29 54.6851 28.6851 55 28.296 55V55ZM40.6875 37.125C41.0684 37.125 41.375 36.817 41.375 36.4375C41.375 36.058 41.0684 35.75 40.6875 35.75H28.3125C27.933 35.75 27.625 36.058 27.625 36.4375C27.625 36.817 27.933 37.125 28.3125 37.125H29.0096C28.9106 38.5509 29.5445 39.787 30.3791 40.359L30.375 42.3885L35.2274 47.2601L39.1241 43.3785L34.2717 38.5082L32.4994 38.5041C32.3289 38.0036 32.0388 37.5128 31.7046 37.125H40.6875V37.125ZM34.0174 41.6226L36.5213 44.1265L36.0345 44.6119L33.5306 42.1094L34.0174 41.6226V41.6226ZM34.9565 44.0206L34.4711 44.5074L32.8019 42.8381L33.2886 42.3528L34.9565 44.0206ZM34.7461 40.8939L37.25 43.3978L36.7632 43.8831L34.2608 41.3792L34.7461 40.8939ZM32.5846 39.8956C32.4444 40.2848 32.1295 40.5309 31.7514 40.6367C31.8091 41.2087 32.509 41.4618 32.9201 41.0534C33.3037 40.6739 33.1154 40.0166 32.5846 39.8956ZM30.7133 37.125C31.1725 37.4784 31.5575 38.0022 31.7624 38.5027L30.3832 38.5L30.3819 39.4378L30.3571 39.4075C29.9006 38.8561 29.6298 38.0463 29.7013 37.125H30.7133ZM36.5625 24.75H32.4375C32.058 24.75 31.75 25.058 31.75 25.4375V30.25H37.25V25.4375C37.25 25.058 36.942 24.75 36.5625 24.75Z" fill="#333333"/>
<path d="M34.5 2L2 20.5V57.5L18 67.5L34.5 76.5L67 57.5V40V20.5L34.5 2Z" stroke="#CE111E" stroke-width="3"/>
</svg>
