<svg width="180" height="159" viewBox="0 0 180 159" fill="none" xmlns="http://www.w3.org/2000/svg">
<path d="M14 115L9.23794 122.823C4.40794 130.758 7.87826 141.131 16.5109 144.562L31.6141 150.565C36.2338 152.401 41.4631 151.829 45.5767 149.037L67 134.5" stroke="#CE111E"/>
<path d="M6.5 39L34 22L60 39V106L34 124L4.5 108L6.5 39Z" fill="white"/>
<path d="M6.5 39L34 22L60 39M6.5 39L34 55.5L60 39M6.5 39L4.5 108L34 124L60 106V39" stroke="black"/>
<path d="M13.5 38.5V25L33 13L52.5 25V38.5L33 50L13.5 38.5Z" fill="white"/>
<path d="M13.5 25V38.5L33 50L52.5 38.5V25M13.5 25L33 13L52.5 25M13.5 25L35 36L52.5 25" stroke="black"/>
<path d="M105.5 37L133 20L159 37V104L133 122L103.5 106L105.5 37Z" fill="white"/>
<path d="M105.5 37L133 20L159 37M105.5 37L133 53.5L159 37M105.5 37L103.5 106L133 122L159 104V37" stroke="black"/>
<path d="M112.5 36.5V23L132 11L151.5 23V36.5L132 48L112.5 36.5Z" fill="white"/>
<path d="M112.5 23V36.5L132 48L151.5 36.5V23M112.5 23L132 11L151.5 23M112.5 23L134 34L151.5 23" stroke="black"/>
<path d="M47.5 64.3351C47.5 56.4178 63.5444 50 83.3351 50C103.126 50 119.17 56.4178 119.17 64.3351V71.5C119.17 79.4174 103.126 85.8351 83.3351 85.8351C63.5444 85.8351 47.5 79.4174 47.5 71.5V64.3351Z" fill="url(#paint0_linear_4_191)"/>
<path d="M47.5 84.0452V100.17C47.5 108.077 63.5444 114.5 83.3351 114.5C103.126 114.5 119.17 108.082 119.17 100.165V84.0452C116.75 85.7889 114.116 87.2159 111.333 88.2914C103.814 91.3014 93.9077 92.9999 83.3351 92.9999C72.7679 92.9999 62.8618 91.296 55.3421 88.2914C52.5595 87.216 49.9259 85.789 47.5054 84.0452H47.5Z" fill="url(#paint1_linear_4_191)"/>
<path d="M119.17 112.715C116.749 114.457 114.116 115.882 111.333 116.956C103.808 119.966 93.9078 121.665 83.3298 121.665C72.7625 121.665 62.8564 119.966 55.3367 116.956C52.5542 115.881 49.9206 114.454 47.5 112.71V121.665C47.5 129.582 63.5444 136 83.3351 136C103.126 136 119.17 129.582 119.17 121.665V112.715Z" fill="url(#paint2_linear_4_191)"/>
<path d="M150 109.5L161.354 117.198C170.086 123.117 170.14 135.963 161.459 141.957L145.602 152.906C140.683 156.302 134.217 156.454 129.144 153.291L99 134.5" stroke="#CE111E"/>
<line x1="33" y1="22" x2="33" stroke="black"/>
<line x1="131" y1="25" x2="131" y2="3" stroke="black"/>
<path d="M83 53L90.7942 64.25H75.2058L83 53Z" fill="white"/>
<defs>
<linearGradient id="paint0_linear_4_191" x1="83.3351" y1="50" x2="83.3351" y2="85.8351" gradientUnits="userSpaceOnUse">
<stop offset="0.5625" stop-color="#CE111E"/>
<stop offset="1" stop-color="#58648E" stop-opacity="0.53"/>
</linearGradient>
<linearGradient id="paint1_linear_4_191" x1="83.3351" y1="84.0452" x2="83.3351" y2="114.5" gradientUnits="userSpaceOnUse">
<stop offset="0.5625" stop-color="#CE111E"/>
<stop offset="1" stop-color="#58648E" stop-opacity="0.53"/>
</linearGradient>
<linearGradient id="paint2_linear_4_191" x1="83.3351" y1="112.71" x2="83.3351" y2="136" gradientUnits="userSpaceOnUse">
<stop offset="0.5625" stop-color="#CE111E"/>
<stop offset="1" stop-color="#58648E" stop-opacity="0.53"/>
</linearGradient>
</defs>
</svg>
