<svg xmlns="http://www.w3.org/2000/svg" width="70" height="70" viewBox="0 0 70 70">
                    <g id="Gruppe_312" data-name="Gruppe 312" transform="translate(-428.255 -300.662)">
                        <g id="Gruppe_254" data-name="Gruppe 254" transform="translate(428.255 300.662)">
                            <g id="Gruppe_252" data-name="Gruppe 252" transform="translate(0 0)">
                                <path id="Pfad_319" data-name="Pfad 319" d="M432.676,300.662a4.483,4.483,0,0,0-4.421,4.421v61.158a4.483,4.483,0,0,0,4.421,4.421h61.158a4.483,4.483,0,0,0,4.421-4.421V305.083a4.483,4.483,0,0,0-4.421-4.421Z" transform="translate(-428.255 -300.662)" fill="#fc0"></path>
                            </g>
                            <g id="Gruppe_253" data-name="Gruppe 253" transform="translate(0 0)">
                                <path id="Pfad_320" data-name="Pfad 320" d="M432.676,300.662a4.483,4.483,0,0,0-4.421,4.421v61.158a4.483,4.483,0,0,0,4.421,4.421h61.158a4.483,4.483,0,0,0,4.421-4.421V305.083a4.483,4.483,0,0,0-4.421-4.421ZM430.1,366.241V305.083a2.518,2.518,0,0,1,2.579-2.579h61.158a2.518,2.518,0,0,1,2.579,2.579v61.158a2.518,2.518,0,0,1-2.579,2.579H432.676a2.518,2.518,0,0,1-2.579-2.579" transform="translate(-428.255 -300.662)" fill="#1d1e1c"></path>
                            </g>
                        </g>
                        <g id="Gruppe_258" data-name="Gruppe 258" transform="translate(434.108 306.516)">
                            <g id="Gruppe_257" data-name="Gruppe 257" transform="translate(46.181 0.24)">
                                <g id="Gruppe_256" data-name="Gruppe 256">
                                    <g id="Gruppe_255" data-name="Gruppe 255">
                                        <path id="Pfad_321" data-name="Pfad 321" d="M561.428,334.382a11.139,11.139,0,0,1-2.325-.2,8.744,8.744,0,0,1-6.3-4.949,10.021,10.021,0,0,1,1.718-11.152,8.743,8.743,0,0,1,6.2-2.652c.571-.012,1.119-.01,1.7-.007l.362,0,.564,0h.48v3.565l-.649,0c-.078,0-.134,0-.188,0-.272.012-.547.018-.813.024h-.045a17.183,17.183,0,0,0-1.838.1,5.345,5.345,0,0,0-4.512,4.73,7.211,7.211,0,0,0,.4,3.571,5.22,5.22,0,0,0,3.965,3.218,9.385,9.385,0,0,0,1.423.131l.1,0c.372.016.738.012,1.127.008h.028c.177,0,.346,0,.516,0h.48v3.588h-.532c-.295,0-.584,0-.877.008l-.116,0C562.007,334.377,561.718,334.382,561.428,334.382Z" transform="translate(-551.834 -315.417)" fill="#1d1d1b"></path>
                                    </g>
                                </g>
                            </g>
                            <path id="Pfad_322" data-name="Pfad 322" d="M442.675,329.325a23.259,23.259,0,0,0,4.1,1.133c.561.023,3.32.229,3.412-1.923.114-2.427-3.572-2.232-4.831-3a5.264,5.264,0,0,1-2.839-5.815,5.747,5.747,0,0,1,5.037-4.808,10.525,10.525,0,0,1,5.106.641V319.3c.286.149-3.343-1.534-5.106-.607a1.889,1.889,0,0,0-.744,3.045c.676.9,3.915.962,5.529,2.347a5.812,5.812,0,0,1,1.008,7.258c-2.9,5.094-10.681,1.82-10.681,1.82Z" transform="translate(-442.428 -314.837)" fill="#1d1d1b"></path>
                            <rect id="Rechteck_382" data-name="Rechteck 382" width="3.881" height="18.912" transform="translate(14.267 0.27)" fill="#1d1d1b"></rect>
                            <path id="Pfad_323" data-name="Pfad 323" d="M495.771,319.417V334.4h3.961V319.452h3.549v-3.961H492.325v3.926Z" transform="translate(-471.273 -315.221)" fill="#1d1d1b"></path>
                            <path id="Pfad_324" data-name="Pfad 324" d="M528.292,330.533V326.3h5.049v-3.583h-5.094v-3.457h5.483v-3.766h-6.41c-2.331,0-2.846,2.076-2.953,3.209a6.425,6.425,0,0,0-.023.646v11.5c0,.021,0,.04,0,.061,0,.114.009.224.018.331.007.083.011.168.021.247.02.154.047.3.078.44,0,.009,0,.017.007.025a3.081,3.081,0,0,0,2.687,2.457h6.618v-3.869Z" transform="translate(-489.806 -315.221)" fill="#1d1d1b" fill-rule="evenodd"></path>
                        </g>
                    </g>
                </svg>