<svg width="52" height="59" viewBox="0 0 52 59" fill="none" xmlns="http://www.w3.org/2000/svg">
<path d="M25.7752 2L2 15.5336V42.6007L13.7047 49.9161L25.7752 56.5L49.5503 42.6007V29.7987V15.5336L25.7752 2Z" stroke="#CE111E" stroke-width="3"/>
<path d="M24 31H23V19H24V31ZM29.11 20.767C27.867 20.767 27.838 19.5 26.394 19.5C25.867 19.5 25.366 19.696 24.999 19.92V25C25.36 24.656 25.942 24.355 26.398 24.355C27.761 24.355 27.954 25.56 29.169 25.56C29.954 25.56 30.999 24.965 30.999 24.965V20.141C31 20.141 29.9 20.767 29.11 20.767V20.767ZM25.173 30.451L25.073 30.52L25.026 30.533L24.979 30.591L24.984 30.623L24.926 30.694C24.87 30.751 24.929 30.787 24.987 30.762C25.07 30.725 25.182 30.727 25.192 30.616L25.247 30.55C25.271 30.514 25.202 30.457 25.173 30.451V30.451ZM25.245 30.922C25.307 31.013 25.794 30.792 25.716 30.805C25.866 30.73 25.736 30.722 25.652 30.678C25.623 30.535 25.599 30.314 25.511 30.225L25.568 30.158C25.43 29.959 25.329 30.399 25.329 30.399L25.402 30.378L25.368 30.468C25.426 30.572 25.381 30.634 25.373 30.689L25.273 30.751C25.238 30.795 25.445 30.801 25.447 30.808C25.453 30.831 25.196 30.868 25.245 30.922V30.922ZM27.035 32.379C26.989 32.379 26.739 32.402 26.763 32.447C26.905 32.68 27.085 32.385 27.035 32.379ZM26 27C25.66 27 25.328 27.028 25 27.069V28.477C25.443 28.398 25.898 28.351 26.367 28.351C27.096 28.351 28.182 28.65 28.432 28.799C28.809 29.025 28.268 29.008 28.207 29.156C28.163 29.27 28.057 29.424 28.01 29.486C27.928 29.592 27.691 29.547 27.737 29.42C27.785 29.287 28.015 29.236 27.668 29.204C27.313 29.172 27.214 28.932 26.856 29.231C26.75 29.321 26.668 29.459 26.601 29.578L26.166 29.895C26.069 30.049 26.221 30.305 26.408 30.191C26.457 30.161 27.019 30.707 26.947 30.267C26.9 29.975 27.103 29.777 27.108 29.557C27.111 29.411 27.332 29.504 27.272 29.581C27.195 29.678 27.109 30.008 27.312 30.024C27.4 30.031 27.652 29.84 27.681 29.982C27.639 29.845 27.397 30.263 27.412 30.257C27.326 30.296 27.224 30.241 27.292 30.425C27.353 30.607 26.964 30.585 26.896 30.622C26.866 30.638 26.564 30.532 26.569 30.6C26.465 30.513 26.599 30.297 26.511 30.262C26.424 30.397 26.464 30.672 26.276 30.672C26.115 30.672 25.892 30.855 25.793 30.967C25.726 31.043 25.307 31.213 25.262 31.207C25.502 31.232 25.491 31.408 25.471 31.557C25.422 31.904 24.674 31.582 24.706 31.714C24.736 31.839 24.619 32.183 24.594 32.293C24.573 32.393 24.916 32.457 24.897 32.507C24.899 32.501 25.364 32.347 25.409 32.307L25.514 32.072C25.601 32.013 25.695 31.966 25.793 31.929L25.912 31.722C25.952 31.706 26.429 31.633 26.461 31.648C26.581 31.703 26.803 31.931 26.886 32.034C26.916 32.073 27.067 32.128 27.067 32.184L27.065 32.362C27.147 32.517 27.169 32.041 27.133 32.131C27.133 31.979 27.245 32.187 27.272 32.17L26.746 31.647C26.583 31.373 27.183 31.793 27.259 31.844C27.335 31.895 27.488 32.347 27.688 32.245L27.774 32.062L28.133 31.991C27.848 32.199 28.356 32.472 28.279 32.435C28.407 32.495 28.482 32.389 28.562 32.418C28.607 32.436 29.091 32.43 29.013 32.353C29.136 32.414 29.079 32.951 28.98 33.034C28.817 33.169 28.035 33.113 27.86 32.988C27.571 32.779 27.623 33.211 27.482 33.27C27.208 33.383 26.796 32.9 26.508 32.884C26.648 32.905 26.52 32.528 26.52 32.502C26.41 32.365 25.704 32.517 25.519 32.542C25.169 32.588 24.806 32.584 24.54 32.8C24.352 32.952 24.35 33.2 24.158 33.321C24.035 33.398 23.899 33.373 23.794 33.473C23.606 33.651 23.392 33.914 23.286 34.149C23.242 34.247 23.342 34.482 23.318 34.608C23.074 35.381 23.379 36.454 24.317 36.572C24.545 36.6 24.782 36.724 25.011 36.655C25.196 36.6 25.357 36.475 25.554 36.461C25.828 36.442 25.714 36.846 26.089 36.736C26.273 36.682 26.355 36.861 26.355 36.997C26.294 37.282 26.161 37.44 26.419 37.64C26.595 37.777 26.741 37.972 26.773 38.207C26.792 38.339 26.915 38.566 26.762 38.645C26.653 38.7 26.574 39.013 26.574 39.117C26.596 39.237 26.84 39.467 26.913 39.568C27.018 39.714 26.941 39.885 27.027 40.05C27.116 40.219 27.201 40.348 27.263 40.519C27.343 40.755 27.959 40.514 28.103 40.515C28.592 40.518 28.841 39.829 29.186 39.617C29.378 39.497 29.326 39.169 29.556 39C29.772 38.843 29.998 38.75 30.018 38.461C30.035 38.211 29.83 37.689 29.943 37.478C30.08 37.226 31.519 35.191 31.089 35.089L30.483 35.377C30.365 35.388 29.91 34.897 29.793 34.778C29.572 34.557 29.475 34.164 29.293 33.894C29.189 33.736 28.869 33.423 28.869 33.227C28.882 33.263 29.015 33.489 29.078 33.441L29.09 33.33C29.085 33.39 29.465 33.826 29.549 33.872C29.734 33.976 29.731 34.275 29.914 34.415C30.264 34.684 30.168 35.446 30.679 34.983C31.023 34.673 31.692 34.086 31.514 33.55C31.42 33.266 30.987 33.474 30.852 33.575C30.71 33.5 30.188 32.932 30.394 32.858C30.495 32.821 30.718 33.12 30.797 33.165L31.179 33.16C31.288 33.389 32.008 32.925 32.179 32.991C32.292 33.034 32.379 33.127 32.418 33.243C32.538 33.611 32.656 34.307 32.656 34.997C32.656 38.675 29.675 41.657 25.996 41.657C24.103 41.657 22.396 40.866 21.184 39.599C21.039 39.448 20.932 39.09 21.17 38.944L21.41 38.882C21.598 38.722 21.233 38.074 21.379 37.97C21.827 37.649 21.613 37.256 21.338 36.931C21.221 36.793 20.58 36.131 20.507 36.249C20.562 36.068 20.391 35.631 20.288 35.458C20.113 35.168 19.887 34.991 19.795 34.672C19.758 34.546 19.758 34.16 19.684 34.071C19.653 34.035 19.422 33.937 19.432 33.884C19.721 32.164 20.668 30.735 22 29.755V28.079C19.611 29.463 18 32.041 18 35C18 39.418 21.581 43 26 43C30.418 43 34 39.418 34 35C34 30.582 30.418 27 26 27V27ZM29.042 31.869C28.95 31.844 28.48 31.701 28.461 31.886C28.461 31.996 28.013 31.887 28.083 31.77C28.132 31.692 28.116 31.515 28.206 31.399C28.333 31.231 28.456 31.322 28.461 31.42C28.461 31.68 28.724 31.174 28.87 31.157C28.925 31.151 28.8 31.268 28.8 31.268C28.821 31.437 28.946 31.53 29.183 31.616C29.47 31.718 29.207 31.915 29.042 31.869V31.869Z" fill="black"/>
</svg>
