<svg width="52" height="59" viewBox="0 0 52 59" fill="none" xmlns="http://www.w3.org/2000/svg">
<path d="M25.7752 2L2 15.5336V42.6007L13.7047 49.9161L25.7752 56.5L49.5503 42.6007V29.7987V15.5336L25.7752 2Z" stroke="#CE111E" stroke-width="3"/>
<path fill-rule="evenodd" clip-rule="evenodd" d="M38 37H37V34.8C35.147 39.037 30.917 42 26 42C19.377 42 14 36.623 14 30H15C15 36.071 19.929 41 26 41C30.66 41 34.647 38.096 36.249 34H34V33H38V37V37ZM26.964 37H25.078C24.738 36.043 24.641 35.429 23.901 35.122H23.9C23.157 34.814 22.649 35.183 21.738 35.616L20.405 34.283C20.832 33.384 21.209 32.868 20.899 32.12C20.591 31.38 19.973 31.281 19.021 30.943V29.057C19.975 28.718 20.591 28.62 20.899 27.879C21.207 27.136 20.839 26.631 20.405 25.717L21.738 24.384C22.656 24.82 23.159 25.185 23.9 24.878L23.901 24.877C24.641 24.57 24.739 23.953 25.078 23H26.964C27.304 23.958 27.401 24.57 28.141 24.877L28.142 24.878C28.885 25.186 29.394 24.816 30.304 24.384L31.637 25.717C31.202 26.634 30.836 27.138 31.143 27.878V27.879C31.45 28.618 32.058 28.714 33.021 29.057V30.943C32.068 31.281 31.45 31.38 31.143 32.121C30.835 32.864 31.203 33.37 31.637 34.283L30.304 35.616C29.384 35.178 28.884 34.814 28.147 35.12C27.401 35.43 27.303 36.046 26.964 37V37ZM26.021 32.333C24.732 32.333 23.688 31.289 23.688 30C23.688 28.711 24.732 27.666 26.021 27.666C27.31 27.666 28.354 28.711 28.354 30C28.354 31.289 27.31 32.333 26.021 32.333ZM18 27H14V23H15V25.2C16.853 20.963 21.083 18 26 18C32.623 18 38 23.377 38 30H37C37 23.929 32.071 19 26 19C21.34 19 17.353 21.904 15.751 26H18V27V27Z" fill="black"/>
</svg>
