<svg width="52" height="59" viewBox="0 0 52 59" fill="none" xmlns="http://www.w3.org/2000/svg">
<path d="M25.7752 2L2 15.5336V42.6007L13.7047 49.9161L25.7752 56.5L49.5503 42.6007V29.7987V15.5336L25.7752 2Z" stroke="#CE111E" stroke-width="3"/>
<path d="M29.787 25.531C24.68 28.316 17.067 34.708 14 41H16.939C17.758 38.979 19.461 36.464 20.79 35.098C29.176 38.845 38 32.323 38 23.755C38 22.22 37.698 20.619 37.08 19C34.733 22.119 31.433 20.052 26.229 20.625C18.572 21.469 15.067 27.422 17.465 32.165C20.971 28.75 26.988 25.785 29.787 25.531V25.531Z" fill="black"/>
</svg>
