<svg width="52" height="59" viewBox="0 0 52 59" fill="none" xmlns="http://www.w3.org/2000/svg">
<path d="M25.7752 2L2 15.5336V42.6007L13.7047 49.9161L25.7752 56.5L49.5503 42.6007V29.7987V15.5336L25.7752 2Z" stroke="#CE111E" stroke-width="3"/>
<g clip-path="url(#clip0_6_42)">
<path d="M25.662 16.507L23.1709 20.2445C23.1304 20.3057 23.1072 20.3767 23.1038 20.4499C23.1004 20.5232 23.1169 20.596 23.1516 20.6607C23.1862 20.7253 23.2378 20.7794 23.3007 20.8171C23.3636 20.8549 23.4355 20.8749 23.5089 20.875H25.1875V32.7684C24.9288 32.5742 24.6479 32.4116 24.3506 32.2841L22.6021 31.535C22.1634 31.3469 21.7895 31.0341 21.5269 30.6355C21.2643 30.2368 21.1246 29.7699 21.125 29.2925V28.8602C21.6671 28.6686 22.124 28.2914 22.415 27.7955C22.7059 27.2995 22.8121 26.7167 22.7149 26.15C22.6177 25.5832 22.3232 25.0692 21.8836 24.6985C21.444 24.3279 20.8875 24.1247 20.3125 24.1247C19.7375 24.1247 19.181 24.3279 18.7414 24.6985C18.3018 25.0692 18.0073 25.5832 17.9101 26.15C17.8129 26.7167 17.9191 27.2995 18.2101 27.7955C18.501 28.2914 18.9579 28.6686 19.5 28.8602V29.2925C19.4999 30.0876 19.7332 30.8652 20.1708 31.5289C20.6084 32.1927 21.2311 32.7135 21.9619 33.0267L23.7104 33.7759C24.0852 33.9366 24.4137 34.1887 24.6658 34.5092C24.9179 34.8298 25.0855 35.2084 25.1534 35.6105C24.3908 35.8165 23.7293 36.2931 23.2924 36.9512C22.8555 37.6094 22.6731 38.404 22.7793 39.1868C22.8855 39.9696 23.2731 40.6869 23.8695 41.2048C24.466 41.7227 25.2306 42.0058 26.0205 42.0012C26.8105 41.9965 27.5717 41.7045 28.162 41.1796C28.7524 40.6547 29.1314 39.9329 29.2284 39.1489C29.3254 38.3649 29.1337 37.5725 28.6891 36.9195C28.2446 36.2666 27.5775 35.7978 26.8125 35.6007V34.135C26.8124 33.7051 26.9259 33.2828 27.1417 32.9109C27.3574 32.539 27.6677 32.2309 28.041 32.0176L30.4525 30.6396C31.0358 30.3065 31.5275 29.8339 31.8834 29.2642C32.2393 28.6944 32.4484 28.0453 32.4919 27.375H33.7188C33.8265 27.375 33.9298 27.3322 34.006 27.256C34.0822 27.1798 34.125 27.0765 34.125 26.9687V22.9062C34.125 22.7985 34.0822 22.6952 34.006 22.619C33.9298 22.5428 33.8265 22.5 33.7188 22.5H29.6563C29.5485 22.5 29.4452 22.5428 29.369 22.619C29.2928 22.6952 29.25 22.7985 29.25 22.9062V26.9687C29.25 27.193 29.432 27.375 29.6563 27.375H30.8604C30.8192 27.7583 30.6877 28.1263 30.4767 28.4489C30.2657 28.7715 29.9812 29.0394 29.6465 29.2307L27.235 30.6087C27.0888 30.6923 26.9477 30.7845 26.8125 30.885V20.875H28.4911C28.5647 20.8751 28.637 20.8551 28.7001 20.8173C28.7633 20.7795 28.815 20.7252 28.8497 20.6603C28.8844 20.5954 28.9008 20.5223 28.8972 20.4487C28.8936 20.3752 28.8701 20.3041 28.8291 20.2429L26.338 16.507C26.3009 16.4514 26.2506 16.4057 26.1917 16.3742C26.1327 16.3426 26.0669 16.3261 26 16.3261C25.9331 16.3261 25.8673 16.3426 25.8083 16.3742C25.7494 16.4057 25.6991 16.4514 25.662 16.507V16.507Z" fill="black"/>
</g>
<defs>
<clipPath id="clip0_6_42">
<rect width="26" height="26" fill="white" transform="translate(13 16)"/>
</clipPath>
</defs>
</svg>
