<svg width="52" height="59" viewBox="0 0 52 59" fill="none" xmlns="http://www.w3.org/2000/svg">
<path d="M25.7752 2L2 15.5336V42.6007L13.7047 49.9161L25.7752 56.5L49.5503 42.6007V29.7987V15.5336L25.7752 2Z" stroke="#CE111E" stroke-width="3"/>
<g clip-path="url(#clip0_6_37)">
<path fill-rule="evenodd" clip-rule="evenodd" d="M20 33.488L21.526 32.765C23.318 31.955 24.377 32.421 25.875 32.997C27.591 33.658 28.24 33.88 28.952 34.161C30.23 34.667 29.64 36.338 28.36 35.999C27.582 35.793 25.548 35.204 24.98 35.068C24.34 34.914 24.05 35.67 24.657 35.886C25.763 36.279 27.32 36.676 28.151 36.893C28.982 37.111 29.446 36.748 30.032 36.282C30.938 35.562 33 33.373 33 33.373C33.842 32.574 34.991 33.238 34.991 34.093C34.991 34.323 34.908 34.567 34.715 34.8C32.387 37.593 31.655 38.442 30.147 40.026C29.524 40.681 28.805 41 27.943 41C27.501 41 27.021 40.916 26.5 40.75C24.675 40.169 22.328 39.437 20 39.15V33.488V33.488ZM19 40.026H15V32.026H19V40.026ZM20 32.157V30.443C19.994 28.886 20.062 27.996 21.854 27.582C23.817 27.129 26.169 26.723 25.238 25.005C22.477 19.913 24.451 17.026 27.415 17.026C30.322 17.026 32.345 19.806 29.592 25.005C28.688 26.713 30.97 27.119 32.976 27.582C34.775 27.997 34.835 28.893 34.829 30.461C34.829 30.591 34.818 31.632 34.829 32.126C34.346 31.817 33.387 31.574 32.642 32.232C32.107 32.704 32.074 32.736 30.859 33.861C29.109 33.03 26.403 31.978 24.645 31.383C23.749 31.079 22.605 31.075 21.683 31.458L20 32.157V32.157Z" fill="black"/>
</g>
<defs>
<clipPath id="clip0_6_37">
<rect width="24" height="24" fill="white" transform="translate(13 17)"/>
</clipPath>
</defs>
</svg>
