<?xml version="1.0" encoding="utf-8"?>
<!-- Generator: Adobe Illustrator 22.0.1, SVG Export Plug-In . SVG Version: 6.00 Build 0)  -->
<svg version="1.1" id="Ebene_1" xmlns="http://www.w3.org/2000/svg" xmlns:xlink="http://www.w3.org/1999/xlink" x="0px" y="0px"
	 viewBox="0 0 544.8 539.8" style="enable-background:new 0 0 544.8 539.8;" xml:space="preserve">
<style type="text/css">
	.st0{fill:#333333;}
	.st1{fill:#FFFFFF;}
	.st2{fill-rule:evenodd;clip-rule:evenodd;fill:#FFFFFF;}
</style>
<g>
	<g>
		<g>
			<g>
				<g>
					<path class="st0" d="M41.9,9.7C23.6,9.7,8.7,24.6,8.7,42.9v455.3c0,18.3,14.9,33.2,33.2,33.2h455.3c18.3,0,33.2-14.9,33.2-33.2
						V42.9c0-18.3-14.9-33.2-33.2-33.2H41.9z"/>
				</g>
				<g>
					<path class="st1" d="M41.9,9.7C23.6,9.7,8.7,24.6,8.7,42.9v455.3c0,18.3,14.9,33.2,33.2,33.2h455.3c18.3,0,33.2-14.9,33.2-33.2
						V42.9c0-18.3-14.9-33.2-33.2-33.2H41.9z M22.5,498.1V42.9c0-10.7,8.7-19.4,19.4-19.4h455.3c10.7,0,19.4,8.7,19.4,19.4v455.3
						c0,10.7-8.7,19.4-19.4,19.4H41.9C31.2,517.5,22.5,508.8,22.5,498.1"/>
					<path class="st1" d="M50.6,179.8c-0.1,0.5,28.3,9.6,35.8,9.9c4.9,0.2,29,2,29.8-16.8c1-21.2-31.2-19.5-42.2-26.2
						c0,0-30.7-13.1-24.8-50.8c6.1-38.6,44-42,44-42s24.7-3.5,44.6,5.6l0,32.7c2.5,1.3-29.2-13.4-44.6-5.3
						c-11.4,6-14.1,16.5-6.5,26.6c5.9,7.9,34.2,8.4,48.3,20.5c12.3,10.6,24.2,36.3,8.8,63.4c-25.3,44.5-93.3,15.9-93.3,15.9
						L50.6,179.8z"/>
					<rect x="160.3" y="55.6" class="st1" width="33.9" height="165.2"/>
					<path class="st1" d="M203,89.9h30.1v130.9h34.6V90.2h31V55.6H203C203,55.6,203.3,89.9,203,89.9"/>
					<path class="st2" d="M331.2,55.6c-28,0-26,34.3-26,34.3v99.8c0,28.4,25,31.1,25,31.1h57.4V187h-47.9V150h44.1v-31.3h-44.5V88.5
						h47.9V55.6C387.3,55.6,402,55.7,331.2,55.6"/>
					<path class="st1" d="M392.1,138.4c-2.1,90.7,98.5,83.1,98.1,83.1c-0.3,0,0-31.8,0-31.8s-67.5,2.8-65-50.3
						c2.7-56.4,65.3-50.6,65.3-50.6V56.7C490.6,57,394.1,48.2,392.1,138.4"/>
				</g>
			</g>
		</g>
	</g>
</g>
</svg>
